<svg width="24" height="24" viewBox="0 0 24 24" fill="none" xmlns="http://www.w3.org/2000/svg">
<path d="M1 6.4C1.85714 4.9 2.61905 3.5 3.38095 2C9.19048 2 15 2 20.7143 2C21.4762 3.4 22.2381 4.8 23 6.2C20.1429 11.5 17.1905 16.7 14.3333 22C12.7143 22 11.0952 22 9.47619 22C6.71429 16.8 3.85714 11.6 1 6.4ZM15.5714 11.2C14.3333 13.4 13.1905 15.5 12.0476 17.6C11.7619 17.1 11.5714 16.7 11.2857 16.3C11.1905 16.1 11.1905 16 11.2857 15.8C11.9524 14.6 12.7143 13.3 13.381 12.1C13.381 12.1 13.4762 12 13.381 12C12.2381 12 11.0952 12 9.95238 12C9.7619 12.3 9.57143 12.6 9.47619 12.9C9.38095 12.8 9.38095 12.8 9.38095 12.7C8.42857 11.2 7.66667 9.6 6.80952 8.1C6.71429 8 6.71429 8 6.61905 8C5.47619 8 4.42857 8 3.38095 8C3.38095 8 3.28571 8 3.19048 8C5.57143 12.3 7.85714 16.5 10.2381 20.8C10.3333 20.8 10.3333 20.8 10.4286 20.8C11.381 20.8 12.4286 20.8 13.381 20.8C13.6667 20.8 13.7619 20.7 13.9524 20.5C15.6667 17.3 17.381 14.1 19.1905 11C19.6667 10.1 20.1429 9.2 20.7143 8.3C20.8095 8.2 20.8095 8.1 20.9048 8C17.9524 8 15.0952 8 12.2381 8C12.0476 7.7 11.9524 7.5 11.8571 7.2C10.7143 7.2 9.57143 7.2 8.33333 7.2C9.09524 8.5 9.7619 9.8 10.5238 11.1C12.0476 11.2 13.7619 11.2 15.5714 11.2ZM18.1429 3.3C18.0476 3.3 18.0476 3.3 18.0476 3.3C13.4762 3.3 8.80952 3.3 4.2381 3.3C4.14286 3.3 4.04762 3.3 4.04762 3.4C3.47619 4.4 3 5.4 2.42857 6.3C2.42857 6.3 2.33333 6.4 2.42857 6.5C5.95238 6.5 9.38095 6.5 13 6.5C12.8095 6.8 12.7143 7 12.619 7.3C13.7619 7.3 15 7.3 16.1429 7.3C16.8095 5.9 17.4762 4.6 18.1429 3.3ZM21.8571 6.4C21.2857 5.3 20.7143 4.3 20.1429 3.3C20.1429 3.2 20.0476 3.2 19.9524 3.2C19.6667 3.2 19.381 3.2 19.0952 3.2C19 3.2 19 3.2 18.9048 3.3C18.3333 4.3 17.7619 5.3 17.2857 6.3C17.2857 6.3 17.1905 6.4 17.2857 6.4C18.8095 6.4 20.3333 6.4 21.8571 6.4Z" fill="black"/>
<path d="M15.5704 11.2002C13.8561 11.2002 12.1418 11.2002 10.4275 11.2002C9.66564 9.8002 8.90374 8.5002 8.14183 7.2002C9.37993 7.2002 10.5228 7.2002 11.6656 7.2002C11.7609 7.4002 11.9514 7.7002 12.0466 8.0002C14.9037 8.0002 17.8561 8.0002 20.7133 8.0002C20.618 8.1002 20.618 8.2002 20.5228 8.3002C20.0466 9.2002 19.5704 10.1002 18.999 11.0002C17.1895 14.2002 15.4752 17.3002 13.7609 20.5002C13.6656 20.7002 13.4752 20.8002 13.1895 20.8002C12.2371 20.8002 11.1895 20.8002 10.2371 20.8002C10.1418 20.8002 10.1418 20.8002 10.0466 20.8002C7.85612 16.5002 5.57041 12.2002 3.18945 8.0002C3.28469 7.9002 3.28469 8.0002 3.37993 8.0002C4.42755 8.0002 5.47517 8.0002 6.52279 8.0002C6.71326 8.0002 6.71326 8.0002 6.8085 8.1002C7.66564 9.6002 8.52279 11.1002 9.28469 12.7002C9.28469 12.8002 9.37993 12.8002 9.37993 12.9002C9.57041 12.6002 9.76088 12.3002 9.85612 12.0002C10.999 12.0002 12.1418 12.0002 13.2847 12.0002C13.2847 12.1002 13.2847 12.1002 13.2847 12.1002C12.618 13.4002 11.9514 14.6002 11.1895 15.8002C11.0942 16.0002 11.0942 16.1002 11.1895 16.3002C11.4752 16.7002 11.6656 17.1002 11.9514 17.6002C13.1895 15.4002 14.3323 13.3002 15.5704 11.2002Z" fill="#E11C2A"/>
<path d="M18.143 3.29971C17.3811 4.59971 16.7145 5.89971 15.9526 7.19971C14.8097 7.19971 13.6669 7.19971 12.4288 7.19971C12.524 6.99971 12.7145 6.69971 12.8097 6.39971C9.2859 6.39971 5.76209 6.39971 2.23828 6.39971C2.23828 6.29971 2.23828 6.29971 2.23828 6.19971C2.80971 5.19971 3.2859 4.19971 3.85733 3.29971C3.95257 3.19971 3.95257 3.19971 4.04781 3.19971C8.61923 3.19971 13.2859 3.19971 17.8573 3.19971C18.143 3.19971 18.143 3.19971 18.143 3.29971Z" fill="#E01C2A"/>
<path d="M21.8571 6.39971C20.3332 6.39971 18.8094 6.39971 17.3809 6.39971V6.29971C17.9523 5.29971 18.5237 4.29971 18.9999 3.29971C18.9999 3.19971 19.0951 3.19971 19.1904 3.19971C19.4761 3.19971 19.7618 3.19971 20.0475 3.19971C20.1428 3.19971 20.1428 3.19971 20.238 3.29971C20.7142 4.29971 21.2856 5.29971 21.8571 6.39971C21.8571 6.39971 21.8571 6.29971 21.8571 6.39971Z" fill="#DF1C2A"/>
</svg>
