<svg width="24" height="24" viewBox="0 0 24 24" fill="none" xmlns="http://www.w3.org/2000/svg">
<path d="M1 6.4C1.85714 4.9 2.61905 3.5 3.38095 2C9.19048 2 15 2 20.7143 2C21.4762 3.4 22.2381 4.8 23 6.2C20.1429 11.5 17.1905 16.7 14.3333 22C12.7143 22 11.0952 22 9.47619 22C6.71429 16.8 3.85714 11.6 1 6.4ZM15.5714 11.2C14.3333 13.4 13.1905 15.5 12.0476 17.6C11.7619 17.1 11.5714 16.7 11.2857 16.3C11.1905 16.1 11.1905 16 11.2857 15.8C11.9524 14.6 12.7143 13.3 13.381 12.1C13.381 12.1 13.4762 12 13.381 12C12.2381 12 11.0952 12 9.95238 12C9.7619 12.3 9.57143 12.6 9.47619 12.9C9.38095 12.8 9.38095 12.8 9.38095 12.7C8.42857 11.2 7.66667 9.6 6.80952 8.1C6.71429 8 6.71429 8 6.61905 8C5.47619 8 4.42857 8 3.38095 8C3.38095 8 3.28571 8 3.19048 8C5.57143 12.3 7.85714 16.5 10.2381 20.8C10.3333 20.8 10.3333 20.8 10.4286 20.8C11.381 20.8 12.4286 20.8 13.381 20.8C13.6667 20.8 13.7619 20.7 13.9524 20.5C15.6667 17.3 17.381 14.1 19.1905 11C19.6667 10.1 20.1429 9.2 20.7143 8.3C20.8095 8.2 20.8095 8.1 20.9048 8C17.9524 8 15.0952 8 12.2381 8C12.0476 7.7 11.9524 7.5 11.8571 7.2C10.7143 7.2 9.57143 7.2 8.33333 7.2C9.09524 8.5 9.7619 9.8 10.5238 11.1C12.0476 11.2 13.7619 11.2 15.5714 11.2ZM18.1429 3.3C18.0476 3.3 18.0476 3.3 18.0476 3.3C13.4762 3.3 8.80952 3.3 4.2381 3.3C4.14286 3.3 4.04762 3.3 4.04762 3.4C3.47619 4.4 3 5.4 2.42857 6.3C2.42857 6.3 2.33333 6.4 2.42857 6.5C5.95238 6.5 9.38095 6.5 13 6.5C12.8095 6.8 12.7143 7 12.619 7.3C13.7619 7.3 15 7.3 16.1429 7.3C16.8095 5.9 17.4762 4.6 18.1429 3.3ZM21.8571 6.4C21.2857 5.3 20.7143 4.3 20.1429 3.3C20.1429 3.2 20.0476 3.2 19.9524 3.2C19.6667 3.2 19.381 3.2 19.0952 3.2C19 3.2 19 3.2 18.9048 3.3C18.3333 4.3 17.7619 5.3 17.2857 6.3C17.2857 6.3 17.1905 6.4 17.2857 6.4C18.8095 6.4 20.3333 6.4 21.8571 6.4Z" fill="black"/>
<path d="M15.5724 11.2002C13.8581 11.2002 12.1438 11.2002 10.4295 11.2002C9.6676 9.8002 8.90569 8.5002 8.14379 7.2002C9.38188 7.2002 10.5247 7.2002 11.6676 7.2002C11.7628 7.4002 11.9533 7.7002 12.0486 8.0002C14.9057 8.0002 17.8581 8.0002 20.7152 8.0002C20.62 8.1002 20.62 8.2002 20.5247 8.3002C20.0486 9.2002 19.5724 10.1002 19.0009 11.0002C17.1914 14.2002 15.4771 17.3002 13.7628 20.5002C13.6676 20.7002 13.4771 20.8002 13.1914 20.8002C12.239 20.8002 11.1914 20.8002 10.239 20.8002C10.1438 20.8002 10.1438 20.8002 10.0485 20.8002C7.85807 16.5002 5.57236 12.2002 3.19141 8.0002C3.28664 7.9002 3.28664 8.0002 3.38188 8.0002C4.4295 8.0002 5.47712 8.0002 6.52474 8.0002C6.71522 8.0002 6.71522 8.0002 6.81045 8.1002C7.6676 9.6002 8.52474 11.1002 9.28664 12.7002C9.28664 12.8002 9.38188 12.8002 9.38188 12.9002C9.57236 12.6002 9.76284 12.3002 9.85807 12.0002C11.0009 12.0002 12.1438 12.0002 13.2866 12.0002C13.2866 12.1002 13.2866 12.1002 13.2866 12.1002C12.62 13.4002 11.9533 14.6002 11.1914 15.8002C11.0962 16.0002 11.0962 16.1002 11.1914 16.3002C11.4771 16.7002 11.6676 17.1002 11.9533 17.6002C13.1914 15.4002 14.3343 13.3002 15.5724 11.2002Z" fill="#00BC8C"/>
<path d="M18.143 3.29922C17.3811 4.59922 16.7145 5.89922 15.9526 7.19922C14.8097 7.19922 13.6669 7.19922 12.4288 7.19922C12.524 6.99922 12.7145 6.69922 12.8097 6.39922C9.2859 6.39922 5.76209 6.39922 2.23828 6.39922C2.23828 6.29922 2.23828 6.29922 2.23828 6.19922C2.80971 5.19922 3.2859 4.19922 3.85733 3.29922C3.95257 3.19922 3.95257 3.19922 4.04781 3.19922C8.61923 3.19922 13.2859 3.19922 17.8573 3.19922C18.143 3.19922 18.143 3.19922 18.143 3.29922Z" fill="#00BC8C"/>
<path d="M21.8551 6.39922C20.3313 6.39922 18.8075 6.39922 17.3789 6.39922V6.29922C17.9503 5.29922 18.5218 4.29922 18.998 3.29922C18.998 3.19922 19.0932 3.19922 19.1884 3.19922C19.4741 3.19922 19.7599 3.19922 20.0456 3.19922C20.1408 3.19922 20.1408 3.19922 20.2361 3.29922C20.7122 4.29922 21.2837 5.29922 21.8551 6.39922C21.8551 6.39922 21.8551 6.29922 21.8551 6.39922Z" fill="#00BC8C"/>
</svg>
