<svg width="24" height="24" viewBox="0 0 24 24" fill="none" xmlns="http://www.w3.org/2000/svg">
<path d="M5.57143 19.3333C4.66371 20.2728 3.8896 21.0793 3.00004 22C2.99993 21.2295 3.00009 4.66789 3.00001 2C9.00907 2 14.9365 2 21 2C21 2.93945 21 4.66667 21 4.66667C21 4.66667 16.4883 8.21505 13.9286 10H21V20.6667C21 20.6667 11.668 20.6667 6.85714 20.6667C7.67408 19.7272 8.52086 18.9394 9.42857 18C12.4059 18 15.3994 18 18.4311 18C18.4311 16.1994 18.4286 14.4484 18.4286 12.6667C15.4513 12.6667 12.4422 12.6667 9.42856 12.6667C9.42856 11.7272 9.42857 10.9582 9.42857 10C11.9157 8.27141 14.6376 6.41404 17.1429 4.66667C16.4167 4.66667 8.65766 4.66667 5.57143 4.66667C5.57143 9.57059 5.57143 14.4482 5.57143 19.3333Z" fill="white"/>
</svg>
