<svg width="24" height="24" viewBox="0 0 24 24" fill="none" xmlns="http://www.w3.org/2000/svg">
<path d="M2 11.9C2 6.5 6.5 2 12 2C17.5 2 22 6.2 22 12.1C22 17.5 17.7 22 12.1 22C6.4 22 2.1 17.6 2 11.9ZM16.3 17.5C16.3 17.6 16.2 17.6 16.2 17.6C16.1 17.7 16.1 17.7 16 17.7C13.8 18.7 11.5 18.8 9.2 17.9C7.5 17.2 7.8 17.2 7.9 15.8C7.9 15.7 7.9 15.6 7.9 15.5C8.1 13.9 8.6 12.4 9.7 11.1C10 10.7 10.3 10.7 10.6 11.1C10.8 11.4 11.1 11.7 11.4 12.1C11.6 11.9 11.8 11.8 12 11.6C13.1 10.6 13.7 9.3 14.1 7.9C14.6 6 14.7 6.1 13 5.3C10.7 4.2 8.3 4.3 5.9 4.8C5.7 4.8 5.6 4.9 5.4 5C5.7 5.3 6 5.6 6.5 6C6.2 6.1 6 6.2 5.9 6.4C3.3 8.9 2.6 12.9 4.1 16.1C5.7 19.3 9.4 21.2 13 20.7C17.2 20.1 20 16.8 20.6 13.9C21.2 10.7 20.3 7.8 18.4 5.2C18.3 5.1 18.3 5.1 18.1 5C19 9.4 19.4 13.5 14.9 16.3C15.4 16.8 15.9 17.1 16.3 17.5Z" fill="white"/>
<path d="M16.3972 17.5053C15.9858 17.0916 15.4714 16.7814 14.9571 16.3677C19.4833 13.3688 19.1747 9.12883 18.2489 4.68209C18.4546 4.7855 18.5575 4.7855 18.5575 4.88891C20.4091 7.57764 21.4378 10.5766 20.8206 13.8858C20.2034 16.8848 17.3231 20.2974 13.0026 20.9179C9.29936 21.4349 5.49325 19.4701 3.84736 16.1609C2.20148 12.8517 3.02442 8.61177 5.69899 6.12987C5.90472 5.92304 6.11046 5.71622 6.31619 5.6128C5.90472 5.19915 5.59612 4.88891 5.28751 4.57868C5.49325 4.47526 5.59612 4.37185 5.69899 4.37185C8.16781 3.85479 10.6366 3.75138 13.0026 4.88891C14.8542 5.71622 14.6485 5.6128 14.237 7.47423C13.9284 8.92201 13.2083 10.2664 12.0768 11.3005C11.8711 11.5073 11.6653 11.7141 11.4596 11.8176C11.151 11.5073 10.8424 11.0937 10.6366 10.7834C10.328 10.3698 10.0194 10.3698 9.71083 10.7834C8.57929 12.1278 8.06495 13.679 7.85921 15.3336C7.85921 15.437 7.85921 15.5404 7.85921 15.6438C7.65348 17.0916 7.44774 17.0916 9.19649 17.8155C11.5625 18.8496 13.9284 18.6428 16.1915 17.6087C16.2944 17.6087 16.3972 17.5053 16.3972 17.5053C16.3972 17.6087 16.3972 17.6087 16.3972 17.5053Z" fill="#1D4D50"/>
</svg>
