<svg width="24" height="24" viewBox="0 0 24 24" fill="none" xmlns="http://www.w3.org/2000/svg">
<path d="M12.2265 10.4296C12.0324 10.0469 11.7976 9.67735 11.5227 9.37547C11.3301 9.15598 11.1241 8.94997 10.9453 8.74423C10.5605 8.33247 10.1086 8.01528 9.64318 7.71156C8.57533 6.99398 7.38832 6.61532 6.10832 6.46698C5.33228 6.39151 4.55729 6.42486 3.79735 6.60798C3.6481 6.64735 3.51259 6.70045 3.34962 6.72609C3.4846 6.61857 3.61959 6.51106 3.7411 6.41701C4.21394 6.08151 4.71477 5.82789 5.25707 5.64268C6.69377 5.11242 8.14761 4.94958 9.64605 5.18163C10.8312 5.36985 11.9371 5.80215 12.9498 6.43758C13.0729 6.50677 13.1825 6.58944 13.2784 6.65837C13.3605 6.71357 13.4154 6.76851 13.5243 6.76955C13.5515 6.76981 13.5789 6.79728 13.5927 6.81101C13.771 6.96235 13.9764 7.11395 14.1685 7.27902C14.1819 7.26555 14.2089 7.2386 14.2224 7.22513C14.2625 7.15751 14.3167 7.13082 14.412 7.14534C14.4936 7.14613 14.5483 7.17386 14.6032 7.22879C14.6856 7.3112 14.7818 7.40734 14.8642 7.48974C14.9466 7.57214 15.0018 7.65429 15.03 7.76337C15.058 7.84525 15.0319 7.95382 15.0871 8.03596C15.1008 8.04969 15.0739 8.07664 15.0604 8.09011C15.156 8.13184 15.1843 8.24093 15.1037 8.34897C15.212 8.2956 15.2128 8.37722 15.2677 8.43215C15.3366 8.52803 15.2006 8.52672 15.1877 8.59461C15.2149 8.59487 15.2283 8.5814 15.2555 8.58166C15.3097 8.55498 15.3369 8.55524 15.3784 8.62365C15.4198 8.69205 15.4066 8.73273 15.3527 8.78662C15.3393 8.80009 15.326 8.84077 15.3126 8.85424L15.3263 8.86798C15.3398 8.85451 15.367 8.85477 15.3805 8.8413C15.4343 8.78741 15.489 8.81514 15.5168 8.86981C15.5582 8.93822 15.5585 8.96543 15.4909 9.00558C15.4774 9.01905 15.4639 9.03253 15.4504 9.046C15.437 9.05947 15.4372 9.08668 15.4372 9.08668C15.451 9.10041 15.4644 9.08694 15.4782 9.10067C15.4782 9.10067 15.4916 9.0872 15.5188 9.08746C15.6541 9.00715 15.6541 9.00715 15.7373 9.17117C15.6969 9.21159 15.6427 9.23827 15.6023 9.27869L15.616 9.29242C15.6702 9.26574 15.7243 9.23906 15.7785 9.21238C15.8062 9.26705 15.8474 9.30825 15.8614 9.34919C15.8617 9.3764 15.794 9.41655 15.7536 9.45697C15.7536 9.45697 15.7674 9.47071 15.7539 9.48418C15.7811 9.48444 15.808 9.45749 15.8353 9.45776C15.8759 9.44455 15.9029 9.4176 15.9298 9.39066C15.971 9.43186 15.9988 9.48653 16.04 9.52774C15.9995 9.56815 15.9454 9.59484 15.905 9.63525C15.9462 9.67646 15.9462 9.67645 16.1218 9.55573C16.163 9.59693 16.1908 9.6516 16.232 9.69281C16.1916 9.73322 16.1511 9.77364 16.097 9.80032C16.1107 9.81406 16.1107 9.81406 16.1245 9.82779C16.1921 9.78764 16.2325 9.74722 16.3001 9.70706C16.3413 9.74826 16.3553 9.78921 16.3965 9.83041C16.3561 9.87082 16.3292 9.89777 16.3022 9.92471C16.3022 9.92471 16.3159 9.93845 16.3025 9.95192C16.3297 9.95218 16.3569 9.95244 16.3704 9.93897C16.4921 9.87213 16.4921 9.87213 16.5885 9.99548C16.5751 10.0089 16.5481 10.0359 16.5484 10.0631C16.5484 10.0631 16.5484 10.0631 16.5621 10.0768C16.5891 10.0499 16.6163 10.0502 16.6432 10.0232C16.7108 9.98305 16.8064 10.0248 16.8207 10.0929C16.821 10.1201 16.8075 10.1336 16.7943 10.1743C16.7943 10.1743 16.7943 10.1743 16.808 10.188C16.8754 10.1207 16.93 10.1484 16.9715 10.2168C16.999 10.2443 17.0537 10.272 17.0946 10.286C17.1355 10.3 17.1765 10.314 17.2309 10.3145C17.3397 10.3155 17.4353 10.3573 17.4908 10.4666C17.5045 10.4804 17.5183 10.4941 17.532 10.5078C17.6001 10.5221 17.6141 10.563 17.6012 10.6309C17.724 10.6729 17.8067 10.7825 17.7802 10.8639C17.8481 10.8509 17.9028 10.8786 17.8764 10.96L17.8901 10.9737C17.9448 11.0015 17.9723 11.0289 17.9321 11.0966C18.0003 11.1108 18.0549 11.1385 18.0285 11.2199C18.1239 11.2344 18.1379 11.2754 18.1114 11.3567C18.1796 11.371 18.2205 11.385 18.2213 11.4666C18.2213 11.4666 18.2216 11.4938 18.235 11.4803C18.3032 11.4946 18.3037 11.549 18.3042 11.6034C18.3861 11.6314 18.4136 11.6589 18.3872 11.7402C18.4825 11.7547 18.51 11.7822 18.4836 11.8636C18.5654 11.8916 18.6624 12.0693 18.6494 12.1372C18.6632 12.1509 18.6904 12.1512 18.6904 12.1512C18.7318 12.2196 18.7735 12.3152 18.815 12.3836C18.8427 12.4383 18.8839 12.4795 18.9117 12.5342C18.9257 12.5751 18.9397 12.6161 18.9671 12.6435C18.9809 12.6573 19.0083 12.6847 19.0223 12.7257C19.0503 12.8076 19.0783 12.8894 19.1198 12.9578C19.1475 13.0125 19.189 13.0809 19.2167 13.1356C19.2582 13.204 19.2724 13.2722 19.3139 13.3406C19.3419 13.4224 19.3971 13.5046 19.4251 13.5865C19.4948 13.764 19.578 13.928 19.634 14.0917C19.6762 14.2418 19.7322 14.4055 19.7879 14.5421C19.7882 14.5693 19.8019 14.583 19.8022 14.6102C19.776 14.7188 19.8177 14.8144 19.9001 14.8968C19.9413 14.938 19.9691 14.9927 19.9968 15.0474C20.0383 15.1158 20.039 15.1974 19.9717 15.2648C19.9313 15.3052 19.9318 15.3596 19.9999 15.3738C20.1228 15.4158 20.192 15.5389 20.2202 15.648C20.2342 15.6889 20.1803 15.7428 20.1536 15.797C20.1404 15.8377 20.1269 15.8511 20.1 15.8781C20.1409 15.8921 20.1547 15.9058 20.1956 15.9198C20.3729 15.9623 20.4832 16.1266 20.4304 16.2893C20.4307 16.3165 20.4037 16.3435 20.3903 16.3569C20.3092 16.4106 20.3097 16.465 20.3916 16.493C20.4734 16.521 20.5284 16.5759 20.5836 16.658C20.625 16.7264 20.6121 16.7943 20.5585 16.8754C20.4914 16.97 20.4916 16.9972 20.5872 17.0389C20.7378 17.1356 20.7795 17.2312 20.7407 17.4349C20.701 17.5569 20.6614 17.6789 20.6218 17.801C20.5954 17.8823 20.5275 17.8953 20.4456 17.8673C20.4596 17.9082 20.4736 17.9492 20.4876 17.9901C20.5018 18.0583 20.5161 18.1264 20.4894 18.1805C20.3964 18.4109 20.3034 18.6412 20.2104 18.8716C20.0244 19.3322 19.9475 19.8212 19.8706 20.3101C19.8452 20.5003 19.7773 20.5132 19.6133 20.43C19.4765 20.3471 19.3259 20.2505 19.1891 20.1675C19.1617 20.1401 19.1345 20.1398 19.08 20.1393C18.8215 20.1232 18.5766 20.1208 18.3315 20.0913C18.1817 20.0762 18.0314 20.0068 17.8811 19.9373C17.458 19.7836 17.1693 19.468 16.9208 19.0848C16.7275 18.7837 16.6425 18.4292 16.6525 18.062C16.6504 17.8444 16.73 17.6275 16.7551 17.4101C16.7804 17.2199 16.8468 17.0438 16.9677 16.8953C17.0753 16.7603 17.1012 16.6245 17.154 16.4618C17.2068 16.2991 17.1781 16.1356 17.163 15.9858C17.1467 15.7 17.0083 15.4539 16.7888 15.2613C16.6655 15.1649 16.5284 15.0548 16.405 14.9584C16.3638 14.9172 16.3364 14.8897 16.3358 14.8353C16.3351 14.7537 16.3208 14.6856 16.3337 14.6177C16.398 14.2238 16.2995 13.8828 16.1194 13.5411C16.0362 13.377 15.926 13.24 15.8022 13.0892C15.6371 12.8971 15.4321 12.7999 15.2002 12.7297C15.0911 12.7015 15.0911 12.7015 15.1036 12.5792C15.1292 12.4162 15.1548 12.2532 15.1533 12.09C15.1499 11.7363 14.9972 11.422 14.75 11.1748C14.6676 11.0924 14.5583 11.0369 14.4489 10.9814C14.1074 10.8285 13.7527 10.7163 13.3591 10.8077C13.1013 10.8733 12.8709 10.9663 12.6686 11.1411C12.5606 11.2217 12.4924 11.2075 12.41 11.125C12.2859 10.947 12.1617 10.769 12.1324 10.5511C12.1457 10.5104 12.1451 10.456 12.2265 10.4296ZM19.423 19.0272C19.4632 18.9596 19.5572 18.8381 19.624 18.7163C19.7979 18.4051 19.8217 18.0517 19.7366 17.6972C19.6941 17.52 19.6244 17.3425 19.4873 17.2324C19.1992 16.9712 18.8851 16.8457 18.5043 16.8421C18.1643 16.8524 17.8661 16.9583 17.6096 17.1599C17.2318 17.4827 17.059 17.9027 17.091 18.3927C17.092 18.5015 17.1203 18.6106 17.1757 18.72C17.3558 19.0617 17.6303 19.3092 17.9985 19.408C18.5032 19.5624 18.9644 19.4309 19.423 19.0272Z" fill="#8878FF"/>
</svg>
