<svg width="24" height="24" viewBox="0 0 24 24" fill="none" xmlns="http://www.w3.org/2000/svg">
<path d="M19.0677 8.30821C17.9977 7.98288 17.1095 8.00532 16.307 8.54378C15.4296 9.13833 15.4831 10.0806 16.414 10.5406C16.9918 10.8322 17.6124 10.9893 18.2117 11.2249C18.7788 11.4492 19.3566 11.6512 19.8809 11.9653C21.593 12.9637 21.8605 14.938 20.523 16.4412C19.7204 17.3387 18.6825 17.7537 17.5482 17.9444C16.2963 18.1576 15.0658 18.1015 13.8459 17.6976C13.7175 17.6528 13.4714 17.7425 13.3644 17.8547C12.9899 18.281 12.6582 18.7409 12.2087 19.3354C12.2087 18.9204 12.2087 18.6848 12.2087 18.438C12.2087 17.5294 12.198 16.6095 12.2301 15.7008C12.2408 15.5326 12.38 15.2409 12.5084 15.2185C13.6105 14.938 14.734 14.7137 15.9967 14.4332C15.6008 14.9604 15.2905 15.3643 14.9801 15.7794C15.772 16.4637 17.7302 16.2842 18.3722 15.4877C18.9072 14.8371 18.7788 14.0518 18.0298 13.6816C17.4091 13.3787 16.7243 13.1768 16.0823 12.9076C15.4938 12.6608 14.8731 12.4364 14.3274 12.0887C12.808 11.1351 12.5726 9.46365 13.7282 8.03898C14.627 6.93962 15.8362 6.4909 17.1523 6.28897C18.2652 6.10949 19.3459 6.1768 20.4267 6.54699C20.5658 6.59186 20.7905 6.50212 20.9189 6.38994C21.2613 6.09827 21.5609 5.76173 21.9996 5.33545C21.8177 6.69282 21.6679 7.89314 21.486 9.09346C21.4646 9.20564 21.2934 9.37391 21.1864 9.38513C20.0521 9.49731 18.9179 9.57583 17.6981 9.54218C18.1261 9.18321 18.5434 8.79058 19.0677 8.30821Z" fill="#F2C007"/>
<path d="M12.7441 10.3051C11.8774 10.3051 11.0428 10.3051 10.2188 10.3051C10.1011 8.59994 9.36281 8.01661 7.75775 8.25218C6.64491 8.42045 5.87448 9.02622 5.43577 10.0807C4.87935 11.4156 4.60114 12.8179 4.64394 14.2762C4.67604 15.2971 5.10405 15.8131 6.07779 15.9926C7.29764 16.2169 8.8813 15.858 9.36281 14.2987C9.39492 14.1865 9.57682 14.0519 9.69453 14.0406C10.4543 14.0182 11.2247 14.0294 12.0486 14.0294C11.7597 15.1624 11.2033 16.0487 10.358 16.7105C8.57098 18.1015 6.57001 18.3932 4.47273 17.7874C2.96397 17.3612 2.01164 15.9701 2.00094 14.3211C1.97954 12.4813 2.32195 10.7201 3.27429 9.1384C4.98635 6.31148 8.24997 5.68327 10.6576 6.55827C12.2198 7.13039 12.9796 8.54385 12.7441 10.3051Z" fill="white"/>
</svg>
