<svg width="18" height="18" viewBox="0 0 18 18" fill="none" xmlns="http://www.w3.org/2000/svg">
<path d="M2.44638 0.27C2.71571 0.09 2.98504 0 3.25436 0H12.0524C12.591 0 13.1297 0.27 13.399 0.72L17.798 8.19C18.0673 8.73 18.0673 9.18 17.798 9.72L13.399 17.19C13.1297 17.73 12.591 18 12.0524 18H3.25436C2.98504 18 2.71571 17.91 2.44638 17.73C2.26683 17.55 1.99751 17.37 1.90773 17.19L0.201995 14.4C-0.0673317 13.95 -0.0673317 13.5 0.201995 13.14L2.17706 9.72C2.35661 9.45 2.35661 9.18 2.35661 9C2.35661 8.82 2.26683 8.46 2.08728 8.28L0.201995 4.86C-0.0673317 4.41 -0.0673317 3.96 0.201995 3.6L1.90773 0.81C1.99751 0.63 2.17706 0.36 2.44638 0.27ZM5.13965 13.41C5.3192 13.5 5.58853 13.59 5.85786 13.59H9.44888C9.98753 13.59 10.5262 13.32 10.7955 12.87L12.6808 9.81C12.9501 9.27 12.9501 8.82 12.6808 8.28L10.7955 5.13C10.5262 4.59 9.98753 4.41 9.44888 4.41H5.85786C5.58853 4.32 5.3192 4.41 5.13965 4.5L7.38404 8.28C7.65337 8.82 7.65337 9.27 7.38404 9.81L5.13965 13.41Z" fill="#00F8D8"/>
</svg>
