<svg width="24" height="24" viewBox="0 0 24 24" fill="none" xmlns="http://www.w3.org/2000/svg">
<path d="M20 6V4H18V2H15.3262H13.1096H10.8931H8.67666H6V4H4V6H2V8.64024V10.8889V13.1111V15.3333V16.4444V18H4V20H6V22H8.67645H9.77778H10.8889H13.1111H15.3333H18V20H20V18H22V15.2849V13.1111V10.8889V9.77018V9.2092V8.64713V6H20Z" fill="url(#paint0_linear_11001_74915)"/>
<path d="M20.0001 6V4H18V5.42856V5.71428V6H19H20.0001V8.85715V10.1429V11.2857V12.5714V13.8572V15.4286V16.2857V16.8572V17.1428V18H19H18V17.8536V18.143V18.5714V18.8572V19.2858V20H20.0001V18H22L22 15.3789V13.143V10.8571V9.70647V9.12946V8.55135L22 6H20.0001Z" fill="#0A7BD1"/>
<path fill-rule="evenodd" clip-rule="evenodd" d="M8 8L15 8V6L8 6V8ZM8 15H6L6 8L8 8L8 15ZM15 15H8L8 17H15V15ZM15 15H17V13V11H15H11V13L15 13V15Z" fill="#121626"/>
<defs>
<linearGradient id="paint0_linear_11001_74915" x1="3.79487" y1="2.76924" x2="17.8975" y2="22" gradientUnits="userSpaceOnUse">
<stop stop-color="#00A3FF"/>
<stop offset="1" stop-color="#0291FF"/>
</linearGradient>
</defs>
</svg>
