<svg width="24" height="24" viewBox="0 0 24 24" fill="none" xmlns="http://www.w3.org/2000/svg">
<path d="M22 2H2V22H22V2Z" fill="#3A85CF"/>
<path d="M7 6V16.7429C7 17.4286 6.42384 18 5.68874 18H5.50993H5.49007H4V7.27619C4 7.25714 4 7.25714 4 7.2381C4 6.57143 4.57616 6.01905 5.31126 6H7Z" fill="white"/>
<path d="M19.9809 8.4375L18.3357 6H13.1704C13.1704 6 9 6.675 9 11.775C9 17.2312 13.3235 18 13.3235 18H20V10.6875H14.4522C14.1461 10.6875 13.8974 10.9313 13.8974 11.2313V12.3938C13.8974 12.6938 14.1461 12.9375 14.4522 12.9375H17.7235V15.75H13.9165C13.9165 15.75 11.6591 15.6187 11.6591 11.8687C11.6783 8.925 13.9165 8.4375 13.9165 8.4375H19.9809Z" fill="white"/>
</svg>
