<svg width="24" height="24" viewBox="0 0 24 24" fill="none" xmlns="http://www.w3.org/2000/svg">
<path d="M2 18.9582L8.02547 3L10.7081 8.35248H13.2087L15.9797 3L22 18.9582L18.2152 17.2193L15.9797 17.7311L14.1289 19.9765L12.0026 21L9.85547 19.9765L8.05147 17.7311L5.87315 17.2193L2 18.9582Z" fill="#852803"/>
<path d="M5.23782 12.7998L3.55859 17.1928L5.7837 16.1791L8.73145 16.9641L5.23782 12.7998Z" fill="white"/>
<path d="M18.7502 12.7998L20.4346 17.1928L18.2043 16.1791L15.2617 16.9641L18.7502 12.7998Z" fill="white"/>
<path d="M5.23828 12.7997L8.13404 5.14697L10.2396 9.21248H13.7904L15.8335 5.14697L18.7501 12.7997L13.5565 19.2047L12.0124 18.0713L10.4527 19.2047L5.23828 12.7997Z" fill="#FF7300"/>
<path d="M10.4414 9.81055H13.5139L12.0115 13.6577L10.4414 9.81055Z" fill="#FF6800"/>
<path d="M9.48298 9.20234H7.28906L8.20926 6.80566L9.48298 9.20234Z" fill="#FF6800"/>
<path d="M16.7213 9.20234H14.5273L15.8115 6.80566L16.7213 9.20234Z" fill="#FF6800"/>
<path d="M14.5294 12.7998H15.6264L15.1793 13.6108L13.5156 14.8586V13.954L14.5294 12.7998Z" fill="#852803"/>
<path d="M9.47586 12.7998H8.37891L8.82601 13.6108L10.4896 14.8586V13.954L9.47586 12.7998Z" fill="#852803"/>
</svg>
