<svg width="24" height="24" viewBox="0 0 24 24" fill="none" xmlns="http://www.w3.org/2000/svg">
<path d="M5 9.99219L10.4106 9.95161L12.0042 5L13.6895 10.0409L19 10.0003L14.8701 13.0322L16.3886 18L12.1043 14.9682L7.76579 17.9878L9.36353 13.093L5 9.99219Z" fill="#7BD3F7"/>
<path d="M4.1666 11.0482H2.62573C2.98553 7.89111 5.1404 3.85664 10.1658 2.74422V2L12.3011 3.34352L10.1815 4.73012L10.1658 4.29926C6.84161 5.11007 4.51466 7.90286 4.18224 11.0521L4.1666 11.0482ZM12.966 4.13866V2.59538C16.1064 2.95574 20.1345 5.11398 21.2491 10.1473L22 10.1355L20.6547 12.2742L19.2741 10.1473L19.7043 10.1355C18.8948 6.80611 16.1064 4.47943 12.9582 4.14258L12.966 4.13866ZM11.0379 19.8613V21.4007C7.89363 21.0364 3.86547 18.8821 2.75479 13.8488L2 13.8606L3.34533 11.7219L4.72976 13.8488L4.29957 13.8606C5.12085 17.19 7.89754 19.5166 11.0497 19.8535L11.0379 19.8613ZM19.8373 12.9518H21.3782C21.0145 16.105 18.8635 20.1394 13.8303 21.2479L13.8459 22L11.7106 20.6526L13.8342 19.2699V19.7007C17.1584 18.8782 19.4814 16.0971 19.8178 12.9362L19.8373 12.9518Z" fill="#7BD3F7"/>
</svg>
