<svg width="24" height="24" viewBox="0 0 24 24" fill="none" xmlns="http://www.w3.org/2000/svg">
<path fill-rule="evenodd" clip-rule="evenodd" d="M22 12C22 17.5227 17.5228 22 11.9998 22C6.47716 22 2 17.5227 2 12C2 6.47727 6.47716 2 11.9998 2C17.5228 2 22 6.47727 22 12Z" fill="#F5C71B"/>
<path fill-rule="evenodd" clip-rule="evenodd" d="M15.2013 6.89828C15.2013 6.89828 14.9204 4.25146 13.6567 4.25146C13.2776 4.25146 12.974 4.29692 12.7354 4.36056C12.2352 4.4951 11.7083 4.4951 11.2081 4.36056C10.969 4.29692 10.6658 4.25146 10.2867 4.25146C9.0231 4.25146 8.74219 6.89828 8.74219 6.89828C8.74219 6.89828 11.8876 7.82737 15.2013 6.89828ZM11.2831 12.4496C11.4286 12.4419 11.4658 12.246 11.3363 12.1833C11.1259 12.0812 10.9204 11.9694 10.7204 11.8483C10.5047 11.7154 10.2956 11.5721 10.094 11.4187C9.97355 11.3265 9.84719 11.231 9.72855 11.1278C9.71003 11.1112 9.68743 11.0998 9.66305 11.0948C9.63867 11.0897 9.6134 11.0913 9.58982 11.0992C9.56623 11.1072 9.54518 11.1213 9.52883 11.14C9.51247 11.1588 9.5014 11.1816 9.49673 11.206L9.32219 12.1224C9.31852 12.141 9.31862 12.1601 9.32247 12.1786C9.32632 12.1972 9.33385 12.2148 9.34461 12.2304C9.35537 12.246 9.36915 12.2593 9.38513 12.2694C9.40111 12.2796 9.41896 12.2865 9.43764 12.2896C9.88764 12.3619 10.3422 12.4151 10.7954 12.4433C10.9581 12.4524 11.1222 12.4592 11.2831 12.4496ZM12.6595 12.4496C12.8217 12.4587 12.9858 12.4528 13.1467 12.4433C13.6013 12.4151 14.0545 12.3619 14.5058 12.2896C14.5245 12.2864 14.5423 12.2795 14.5583 12.2693C14.5743 12.2591 14.588 12.2459 14.5988 12.2303C14.6096 12.2147 14.6172 12.1972 14.6211 12.1786C14.6251 12.1601 14.6253 12.141 14.6217 12.1224L14.4454 11.206C14.4409 11.1815 14.4299 11.1587 14.4136 11.1399C14.3973 11.121 14.3763 11.1069 14.3527 11.0989C14.3292 11.0908 14.3039 11.0893 14.2795 11.0943C14.2551 11.0993 14.2325 11.1107 14.214 11.1274C14.0967 11.231 13.9686 11.3265 13.8486 11.4187C13.4621 11.7151 13.0465 11.9713 12.6081 12.1833C12.4763 12.246 12.514 12.4419 12.6595 12.4496ZM12.5095 13.9706C12.5978 13.966 12.681 13.9277 12.7419 13.8636C12.8028 13.7995 12.8368 13.7144 12.8368 13.626C12.8368 13.5376 12.8028 13.4525 12.7419 13.3884C12.681 13.3243 12.5978 13.286 12.5095 13.2815C12.4642 13.2814 12.4195 13.2903 12.3777 13.3076C12.3359 13.3249 12.298 13.3503 12.266 13.3823C12.2341 13.4143 12.2088 13.4523 12.1916 13.4942C12.1744 13.536 12.1656 13.5808 12.1658 13.626C12.1658 13.8156 12.319 13.9706 12.5095 13.9706ZM11.089 13.626C11.0856 13.6733 11.092 13.7208 11.1078 13.7655C11.1236 13.8102 11.1485 13.8512 11.1808 13.8859C11.2131 13.9205 11.2523 13.9482 11.2958 13.9671C11.3393 13.9859 11.3862 13.9956 11.4336 13.9956C11.481 13.9955 11.5279 13.9857 11.5713 13.9667C11.6148 13.9477 11.6538 13.9199 11.6861 13.8852C11.7183 13.8504 11.7431 13.8094 11.7587 13.7646C11.7744 13.7199 11.7807 13.6724 11.7772 13.6251C11.7708 13.5382 11.7316 13.4569 11.6677 13.3976C11.6038 13.3384 11.5198 13.3055 11.4327 13.3056C11.3455 13.3057 11.2616 13.3388 11.1979 13.3982C11.1341 13.4577 11.0952 13.5391 11.089 13.626ZM13.7217 14.4719C13.7218 14.4439 13.7151 14.4163 13.7022 14.3915C13.6893 14.3667 13.6705 14.3454 13.6475 14.3294C13.6246 14.3134 13.598 14.3033 13.5703 14.2999C13.5425 14.2964 13.5143 14.2998 13.4881 14.3096L10.3799 15.4778C10.2113 15.5401 10.239 15.7878 10.4172 15.8096C10.999 15.8851 11.889 15.9606 12.7567 15.8778L13.2595 16.3078C13.2755 16.3215 13.2941 16.3317 13.3141 16.338C13.3342 16.3444 13.3553 16.3466 13.3762 16.3446C13.3972 16.3426 13.4175 16.3364 13.436 16.3264C13.4545 16.3165 13.4708 16.3029 13.484 16.2865L14.2386 15.3474C14.252 15.3305 14.2619 15.311 14.2676 15.2902C14.2732 15.2694 14.2746 15.2476 14.2715 15.2262C14.2685 15.2048 14.261 15.1843 14.2497 15.1659C14.2384 15.1475 14.2235 15.1316 14.2058 15.1192L13.7217 14.7787V14.4719Z" fill="#212126"/>
<path fill-rule="evenodd" clip-rule="evenodd" d="M16.8315 11.0146L16.7238 10.4978C16.7238 10.4978 18.5738 9.87275 18.6597 11.4673C18.7456 13.0637 17.3688 13.8373 17.3688 13.8373L17.1333 12.5009L17.7988 12.8055C17.7988 12.8055 17.6911 12.0064 17.2192 11.7918C17.2192 11.7918 17.9283 11.4891 18.1001 11.7918C18.1001 11.7918 18.1129 11.5864 18.0674 11.3609C17.9879 10.9723 17.5706 10.7532 17.1992 10.8846L16.8315 11.0146ZM15.6461 16.1309L14.8724 15.5873C14.8471 15.5693 14.8159 15.5617 14.7852 15.5661C14.7545 15.5705 14.7266 15.5866 14.7074 15.6109L14.2801 16.1482L14.1961 16.2514C14.0804 16.4354 13.9487 16.6088 13.8024 16.7696C13.4147 17.1946 12.8024 17.6564 11.9724 17.6564C10.4915 17.6564 9.70105 16.1791 9.65241 16.0868L9.82287 16.8796C9.82287 16.8796 7.90923 16.6209 8.0606 15.285C8.2106 13.9473 10.2106 13.3 10.2106 13.3C10.2106 13.3 8.34014 13.2137 8.51196 11.5973C8.68378 9.98094 11.282 10.4759 11.9724 10.4759C12.6633 10.4759 15.2615 9.98048 15.4333 11.5973C15.6051 13.2141 13.7351 13.3 13.7351 13.3C13.7351 13.3 15.7351 13.9473 15.8851 15.285C15.9256 15.6373 15.8211 15.9146 15.6461 16.1305V16.1309ZM7.11378 11.0146L6.74651 10.8846C6.37469 10.7528 5.95741 10.9723 5.87787 11.3609C5.83241 11.5864 5.84469 11.7914 5.84469 11.7914C6.01696 11.4891 6.72651 11.7914 6.72651 11.7914C6.25423 12.0064 6.14651 12.805 6.14651 12.805L6.81196 12.5014L6.57605 13.8378C6.57605 13.8378 5.19969 13.0637 5.2856 11.4673C5.37196 9.87275 7.22151 10.4978 7.22151 10.4978L7.11378 11.0146ZM6.86832 16.2387C7.55923 18.2523 11.9729 19.6741 11.9729 19.6741C11.9729 19.6741 14.0265 19.015 15.0801 17.8618L15.382 18.1187L15.6347 18.335L17.2311 19.6532C17.2718 19.6881 17.3193 19.7144 17.3705 19.7305C17.4217 19.7465 17.4757 19.752 17.5291 19.7466C17.5825 19.7412 17.6343 19.7251 17.6813 19.6991C17.7282 19.6731 17.7695 19.6379 17.8024 19.5955L18.5056 18.6991C18.5391 18.6564 18.5635 18.6073 18.5775 18.5548C18.5914 18.5023 18.5945 18.4475 18.5867 18.3938C18.5788 18.3401 18.5601 18.2885 18.5317 18.2422C18.5033 18.196 18.4658 18.1559 18.4215 18.1246L16.8865 17.0032C17.0047 16.7668 17.0774 16.51 17.0774 16.2387L17.9192 16.4082L17.4411 15.1973C17.4411 15.1973 19.6411 13.3109 19.6411 11.9028C19.6411 9.74639 18.172 9.65003 18.172 9.65003C18.5815 9.55321 18.7333 9.08457 18.4911 8.75275C18.2379 8.40321 17.7115 8.21048 17.3083 8.12457C16.7492 8.00366 16.1629 8.01775 15.5992 8.08684C15.3161 8.12139 12.6915 8.4973 12.0947 8.49412H11.8524C11.2556 8.4973 8.62923 8.12139 8.34651 8.08684C7.78241 8.01775 7.19651 8.00366 6.63741 8.12457C6.23378 8.21094 5.70741 8.40321 5.45423 8.75275C5.21196 9.08457 5.36332 9.55275 5.77287 9.65003C5.77287 9.65003 4.30469 9.74639 4.30469 11.9028C4.30469 13.3109 6.50469 15.1973 6.50469 15.1973L6.02605 16.4082L6.86832 16.2387Z" fill="#212126"/>
</svg>
