<svg width="24" height="24" viewBox="0 0 24 24" fill="none" xmlns="http://www.w3.org/2000/svg">
<path d="M15.4629 5.32916C15.4629 5.32916 15.3312 3.70463 11.3932 2.28125C10.1725 1.84074 11.1093 2.68866 11.2822 3.22847C11.4551 3.76574 11.5145 4.24444 10.9596 3.85741C10.4048 3.46782 9.97124 3.22083 9.97124 3.22083C9.97124 3.22083 8.58802 5.57106 8.36608 5.70092C8.14414 5.83078 6.55963 7.49351 5.90156 8.73865C5.2435 9.98379 15.4629 5.32916 15.4629 5.32916Z" fill="#FA4A0B"/>
<path d="M4.77952 12.3826C4.77952 12.3826 4.50597 10.3608 2.47758 9.60201C1.13564 8.82539 1.79112 9.85155 1.9537 10.2895C2.11628 10.7275 2.54983 11.7052 3.08403 12.3113C3.38855 12.6576 3.61306 12.8995 3.41693 13.2177C2.92145 14.0249 2.91113 14.5877 2.85177 15.5603C2.81048 16.2071 3.26467 15.9677 3.64919 15.68C4.03371 15.3923 5.01177 14.4043 5.22339 13.3578C5.435 12.3138 4.77952 12.3826 4.77952 12.3826Z" fill="#FA4A0B"/>
<path d="M6.73828 16.001C6.91118 16.2709 7.84796 17.5949 7.84796 18.8401C9.17183 19.0794 10.0389 18.4021 10.0389 18.4021L6.73828 16.001Z" fill="#FA4A0B"/>
<path d="M16.4797 5.70892C15.6178 5.4823 10.7171 4.35429 7.0268 7.62119C3.33648 10.8881 5.10164 13.852 5.10164 13.852C5.10164 13.852 8.54938 20.2814 15.1739 19.2196C21.7984 18.1578 21.2203 9.56147 21.2203 9.56147L16.4797 5.70892Z" fill="#4DB5DB"/>
<path d="M5.38672 14.3203C5.72995 15.0995 8.92738 19.1353 13.6113 19.8585C18.8035 20.5816 20.7829 16.118 20.3829 15.8099C18.481 16.2555 7.84608 17.5312 5.38672 14.3203Z" fill="#006599"/>
<path d="M15.2407 16.9761C14.6136 16.9761 13.7955 17.2154 13.331 17.3758C12.8665 17.5363 11.3207 17.8342 11.3207 17.8342C11.3207 17.8342 11.0084 17.8138 11.2407 18.6006C11.4729 19.3874 11.0084 20.0953 11.0084 20.0953C11.0084 20.0953 10.8071 20.6045 11.5246 20.7624C12.242 20.9228 12.5749 20.8413 12.5749 20.8413C12.5749 20.8413 12.9981 21.0807 14.8278 19.2474C16.6575 17.414 16.0304 17.1059 15.9091 17.055C15.7852 17.0066 15.2407 16.9761 15.2407 16.9761Z" fill="#FA4A0B"/>
<path d="M17.8917 8.94773C17.3601 9.83893 15.4324 9.18708 17.164 12.482C18.3175 14.6769 19.3446 14.435 19.3446 14.435C19.3446 14.435 21.3782 13.7577 20.7717 11.247C20.1653 8.73639 18.4956 8.50977 18.4956 8.50977C18.4956 8.50977 18.1395 8.53523 17.8917 8.94773Z" fill="#222627"/>
<path d="M22.7081 14.4297C22.6487 13.6455 22.5739 9.97373 19.2216 6.92327C14.9197 3.65637 13.1261 6.32744 12.6332 6.89271C12.1403 7.46054 12.3494 7.20845 12.3494 7.20845C11.219 8.45614 10.801 10.7427 10.801 10.7427C10.801 10.7427 10.5868 12.4691 11.3532 13.2534C12.1197 14.0376 12.8061 14.636 14.4629 14.9008C16.1197 15.1656 16.3881 15.0994 16.3881 15.0994C16.3881 15.0994 17.9623 14.9543 17.6681 16.2962C17.3868 17.386 17.3506 17.4064 17.3506 17.4064C17.3506 17.4064 16.9997 18.1626 18.0165 17.992C19.0332 17.8214 18.5816 17.9182 18.3855 18.4172C18.1894 18.9163 18.3055 19.1735 18.3055 19.1735C18.3055 19.1735 18.6074 19.5656 19.49 19.2677C19.859 19.0742 19.8952 18.9367 19.8952 18.9367C19.8952 18.9367 19.9287 19.395 20.3803 19.4485C20.8319 19.502 21.041 19.5936 21.3352 19.2091C21.3687 19.176 21.281 19.4077 21.6706 19.4154C22.0603 19.423 22.1558 19.1964 22.2823 18.7584C22.4113 18.3154 22.7674 15.214 22.7081 14.4297ZM20.4629 13.6888C20.4629 13.6888 19.4642 14.9034 18.099 13.6888C16.7365 12.4742 17.2113 10.3302 17.3919 10.073C17.5494 9.77003 17.9829 9.46447 17.921 9.2404C17.8616 9.13854 17.5726 9.16655 17.5726 9.16655C17.1777 9.16655 16.8165 9.24549 17.2294 8.83808C17.6423 8.43068 18.5816 8.37975 19.1674 8.75915C19.7532 9.13854 20.7829 9.81586 20.9455 11.5397C21.1081 13.2635 20.4629 13.6888 20.4629 13.6888Z" fill="white"/>
<path d="M19.6711 11C19.4234 11 19.3073 11.5678 19.3073 11.5678C19.3073 11.5678 19.2479 12.1458 19.4879 12.4743C19.7279 12.8028 20.2802 12.9428 20.3111 11.9803C20.3163 11.1146 19.9189 11 19.6711 11Z" fill="#4DB5DB"/>
<path d="M19.7443 11.438C19.6256 11.438 19.5714 11.7053 19.5714 11.7053C19.5714 11.7053 19.543 11.9778 19.6592 12.1331C19.7753 12.2884 20.0385 12.3546 20.0514 11.8989C20.0514 11.4915 19.863 11.438 19.7443 11.438Z" fill="#8BD7FF"/>
</svg>
