<svg width="24" height="24" viewBox="0 0 24 24" fill="none" xmlns="http://www.w3.org/2000/svg">
<path d="M11.1744 15.9988C11.2001 15.9665 11.2247 15.9316 11.2517 15.9005C11.4532 15.6777 11.6547 15.4549 11.8562 15.2321C11.8667 15.2209 11.8773 15.2085 11.8937 15.1885C11.8047 15.1811 11.7238 15.1748 11.6442 15.1674C11.2529 15.1263 10.899 14.9732 10.5687 14.7529C10.1867 14.499 9.8634 14.1716 9.55646 13.8256C9.12767 13.3414 8.73872 12.8236 8.3568 12.2984C8.06977 11.9026 7.78626 11.503 7.44651 11.1545C7.13956 10.8396 6.80333 10.5708 6.40149 10.4052C6.13789 10.2957 5.86375 10.2397 5.58024 10.2372C5.09639 10.2347 4.61137 10.2359 4.12752 10.2359C4.11229 10.2359 4.09706 10.2359 4.07363 10.2359C3.99748 10.8732 3.92133 11.5093 3.84401 12.1528C3.86978 12.154 3.8897 12.1565 3.90962 12.1565C4.6266 12.1565 5.34242 12.164 6.0594 12.1515C6.26442 12.1478 6.47061 12.088 6.67446 12.047C6.77873 12.0258 6.88065 11.9897 6.98492 11.9636C7.00601 11.9586 7.04115 11.9661 7.05404 11.9822C7.30827 12.3121 7.56015 12.6456 7.8132 12.9767C7.81437 12.978 7.81437 12.9805 7.81554 12.9917C7.70073 13.0303 7.58592 13.0713 7.46877 13.1074C7.11965 13.2145 6.76467 13.3004 6.40266 13.3427C6.15664 13.3713 5.90944 13.385 5.66225 13.3875C5.0261 13.3937 4.38878 13.39 3.75263 13.3887C3.70694 13.3887 3.69288 13.4061 3.68702 13.451C3.64602 13.8082 3.6015 14.1654 3.55933 14.5214C3.53472 14.7255 3.51129 14.9309 3.48786 15.1363C2.98995 15.1363 2.49673 15.1363 2 15.1363C2.02109 14.9545 2.04218 14.7753 2.06326 14.5973C2.08904 14.382 2.11481 14.1667 2.14059 13.9513C2.16987 13.7074 2.19916 13.4634 2.22845 13.2194C2.25774 12.9755 2.28703 12.7315 2.31632 12.4876C2.34561 12.2436 2.37489 11.9997 2.40418 11.7557C2.43347 11.5117 2.46276 11.2678 2.49205 11.0238C2.52251 10.7761 2.5518 10.5272 2.58109 10.2795C2.61037 10.0368 2.63849 9.79532 2.66778 9.55261C2.6877 9.38209 2.70644 9.21157 2.7287 9.04105C2.72987 9.02735 2.74979 9.01242 2.76502 9.00619C2.77791 8.99997 2.79548 9.00495 2.81188 9.00495C3.88619 9.00495 4.95932 9.00868 6.03363 9.00246C6.3312 9.00122 6.61354 9.06096 6.88885 9.17298C7.38676 9.37462 7.82257 9.68455 8.22558 10.0492C8.68483 10.4637 9.06792 10.9516 9.44516 11.447C9.86926 12.0046 10.3016 12.556 10.7397 13.1012C10.9401 13.3501 11.1685 13.5729 11.445 13.7298C11.6301 13.8343 11.8281 13.8878 12.053 13.8854C11.8562 13.5779 11.6652 13.2779 11.4684 12.9693C11.493 12.9668 11.5094 12.9643 11.5258 12.9643C12.0448 12.9643 12.565 12.9643 13.084 12.963C13.1215 12.963 13.1437 12.9742 13.1648 13.0066C13.4811 13.502 13.7986 13.9961 14.1173 14.4903C14.1419 14.5289 14.1349 14.55 14.1079 14.5799C13.6955 15.0392 13.2831 15.4985 12.8719 15.9577C12.8602 15.9714 12.8485 15.9851 12.8368 16.0001C12.2838 15.9988 11.7297 15.9988 11.1744 15.9988Z" fill="white"/>
<path d="M20.232 13.9824C20.2836 13.5493 20.3351 13.1223 20.3866 12.6892C20.0282 12.6892 19.6755 12.6892 19.3159 12.6892C19.358 12.3332 19.4002 11.9835 19.4424 11.6337C20.2964 11.6337 21.1423 11.6337 21.9999 11.6337C21.8651 12.7589 21.7316 13.8816 21.5957 15.0143C21.502 15.0267 21.4059 15.0454 21.3098 15.0516C20.9947 15.0715 20.6854 15.1201 20.3702 15.1412C20.2496 15.1499 20.1277 15.1599 20.0082 15.1699C19.7962 15.1885 19.5818 15.196 19.3697 15.1985C18.8894 15.2059 18.4091 15.2035 17.9288 15.1997C17.6839 15.1972 17.4437 15.1574 17.2176 15.0516C16.9025 14.9035 16.7303 14.6396 16.667 14.2874C16.6166 14.0048 16.6365 13.7223 16.6729 13.441C16.7033 13.1945 16.7314 12.9481 16.7607 12.7029C16.79 12.4564 16.8205 12.2112 16.8498 11.9648C16.8755 11.7532 16.8966 11.5416 16.9247 11.3313C16.9775 10.9305 16.9974 10.5235 17.1227 10.1376C17.234 9.79656 17.4027 9.50157 17.6956 9.29993C17.9006 9.15928 18.1267 9.07713 18.3657 9.04601C18.5708 9.01988 18.7781 9.00867 18.9831 9.00743C19.9051 9.00369 20.826 9.00618 21.748 9.00618C21.7714 9.00618 21.7937 9.00618 21.8206 9.00618C21.7948 9.22027 21.7702 9.42813 21.7456 9.63475C21.7246 9.81274 21.7011 9.99073 21.6835 10.17C21.6789 10.2222 21.666 10.2397 21.6144 10.2397C20.751 10.2384 19.8887 10.2384 19.0253 10.2384C18.9046 10.2384 18.7887 10.2621 18.6879 10.338C18.5555 10.4376 18.504 10.5857 18.4841 10.7475C18.436 11.1284 18.3903 11.5105 18.3446 11.8914C18.3036 12.2361 18.265 12.5809 18.224 12.9257C18.1994 13.1348 18.1748 13.3439 18.1467 13.553C18.1139 13.797 18.2451 13.9675 18.4805 13.9824C18.5005 13.9837 18.5192 13.9837 18.5391 13.9837C19.0804 13.9837 19.6205 13.9837 20.1617 13.9837C20.1816 13.9824 20.2027 13.9824 20.232 13.9824Z" fill="#15C7AD"/>
<path d="M11.1195 10.8373C10.8852 11.0103 10.6509 11.1834 10.406 11.3638C10.1647 11.0626 9.91751 10.7552 9.66797 10.4428C9.76286 10.3594 9.8519 10.2785 9.94328 10.2013C10.4927 9.73455 11.0949 9.3711 11.7744 9.16199C12.1388 9.04997 12.5101 8.99645 12.8909 9.00018C13.7695 9.00765 14.6482 9.00392 15.5257 9.00392C15.678 9.00392 15.8291 9.00392 15.9943 9.00392C15.9451 9.41715 15.8971 9.82292 15.8479 10.2362C15.8209 10.2362 15.7975 10.2362 15.7741 10.2362C14.9247 10.2362 14.0753 10.2362 13.2271 10.2374C13.165 10.2374 13.1018 10.2411 13.042 10.2561C12.8183 10.3096 12.6894 10.4801 12.6578 10.7427C12.6132 11.1224 12.5652 11.5007 12.5195 11.8804C12.4984 12.0609 12.4773 12.2413 12.4574 12.4231C12.4539 12.4567 12.4457 12.4753 12.4082 12.4753C11.9302 12.4741 11.4522 12.4741 10.9731 12.4741C10.966 12.4741 10.9578 12.4716 10.9403 12.4691C11.0047 11.9302 11.0691 11.3912 11.1324 10.8535C11.1301 10.846 11.1242 10.8411 11.1195 10.8373Z" fill="#15C7AD"/>
<path d="M15.7552 15.0138C15.2936 15.0773 14.8344 15.1072 14.3599 15.1022C14.3751 15.0773 14.3857 15.0599 14.3974 15.0424C14.504 14.8819 14.6106 14.7213 14.7196 14.562C14.7407 14.5309 14.7407 14.5122 14.7207 14.4811C14.6176 14.328 14.5157 14.1736 14.4161 14.0181C14.4033 13.9969 14.3951 13.9645 14.3986 13.9396C14.4337 13.6272 14.47 13.3161 14.5075 13.0036C14.5192 12.9016 14.5333 12.7995 14.5462 12.69C14.1889 12.69 13.8362 12.69 13.4766 12.69C13.5187 12.3328 13.5597 11.9843 13.6019 11.6357C14.4583 11.6357 15.3053 11.6357 16.1606 11.6357C16.0247 12.7609 15.8899 13.8824 15.7552 15.0138Z" fill="#15C7AD"/>
<path d="M8.51403 15.138C8.0173 15.138 7.52642 15.138 7.02734 15.138C7.08006 14.6999 7.13161 14.2667 7.18433 13.8286C7.67872 13.8286 8.17194 13.8286 8.67219 13.8286C8.6183 14.2643 8.56675 14.6986 8.51403 15.138Z" fill="#15C7AD"/>
</svg>
