<svg width="25" height="24" viewBox="0 0 25 24" fill="none" xmlns="http://www.w3.org/2000/svg">
<path d="M4.9 11.9414C3.3 10.3414 1.6 8.74142 0 7.04142C0.1 7.04142 0.1 7.04142 0.2 7.04142C1.3 7.04142 2.3 7.04142 3.4 7.04142C3.5 7.04142 3.6 7.04142 3.6 6.94142C5.1 4.44142 7.3 2.84142 10.2 2.14142C11 2.04142 11.9 1.94142 12.8 2.04142C14.4 2.14142 15.9 2.54142 17.2 3.34142C19.6 4.74142 21.2 6.84142 21.9 9.64142C22.1 10.3414 22.2 11.0414 22.2 11.7414V11.8414C22.2 11.7414 22.1 11.7414 22.1 11.7414C20.5 10.1414 19 8.44142 17.4 6.94142C16.2 5.64142 14.6 4.94142 12.9 4.74142C9.2 4.34142 5.7 6.94142 5 10.6414C4.9 11.0414 4.9 11.4414 4.9 11.8414V11.9414Z" fill="white"/>
<path d="M19.4992 12.0415C21.0992 13.6415 22.6992 15.2415 24.2992 16.8415H24.1992C23.1992 16.8415 22.0992 16.8415 21.0992 16.8415C20.9992 16.8415 20.8992 16.8415 20.7992 16.9415C19.3992 19.2415 17.4992 20.7415 14.8992 21.5415C14.2992 21.7415 13.6992 21.8415 13.0992 21.8415C12.4992 21.9415 11.8992 21.9415 11.3992 21.8415C9.79922 21.7415 8.29922 21.2415 6.99922 20.4415C5.49922 19.5415 4.29922 18.3415 3.49922 16.7415C2.99922 15.7415 2.59922 14.7415 2.39922 13.6415C2.29922 13.1415 2.29922 12.6415 2.19922 12.0415L2.29922 12.1415C3.79922 13.7415 5.39922 15.3415 6.89922 16.8415C7.99922 17.9415 9.29922 18.6415 10.7992 18.9415C11.3992 19.0415 11.9992 19.1415 12.6992 19.0415C14.0992 18.9415 15.3992 18.4415 16.4992 17.6415C17.9992 16.4415 18.9992 14.9415 19.3992 13.0415C19.4992 12.9415 19.4992 12.5415 19.4992 12.0415Z" fill="#00D3FE"/>
<path d="M12.2992 15.8416C12.3992 15.7416 12.3992 15.7416 12.4992 15.6416C12.8992 15.1416 12.6992 14.3416 11.9992 14.1416C11.8992 14.1416 11.7992 14.0416 11.7992 13.9416C11.5992 13.6416 11.3992 13.4416 10.9992 13.4416C10.8992 13.4416 10.7992 13.3416 10.7992 13.3416C10.5992 13.0416 10.2992 12.9416 9.99922 12.9416C9.89922 12.9416 9.89922 12.9416 9.79922 12.8416C9.59922 12.6416 9.39922 12.4416 9.09922 12.4416C8.89922 12.4416 8.69922 12.4416 8.59922 12.5416C8.49922 12.5416 8.39922 12.6416 8.29922 12.7416H8.19922V12.6416C8.29922 12.3416 8.39922 12.0416 8.49922 11.8416C8.69922 11.2416 8.99922 10.5416 9.19922 9.9416C9.19922 9.8416 9.29922 9.8416 9.39922 9.8416C9.89922 9.7416 10.3992 9.6416 10.9992 9.6416H11.0992C10.9992 9.6416 10.9992 9.7416 10.9992 9.7416C10.6992 9.9416 10.4992 10.1416 10.1992 10.3416C9.89922 10.3416 9.79922 10.4416 9.69922 10.6416C9.59922 10.7416 9.59922 10.8416 9.49922 10.9416C9.39922 11.1416 9.49922 11.2416 9.59922 11.4416C9.79922 11.7416 10.0992 11.9416 10.4992 11.9416C10.6992 11.9416 10.9992 11.9416 11.1992 11.8416C11.4992 11.7416 11.7992 11.5416 12.0992 11.4416C12.4992 11.2416 12.3992 11.2416 12.6992 11.5416C13.1992 11.9416 13.6992 12.3416 14.2992 12.7416C14.5992 13.0416 14.9992 13.2416 15.3992 13.5416C15.4992 13.6416 15.5992 13.6416 15.6992 13.7416C15.8992 13.9416 15.7992 14.1416 15.6992 14.2416C15.5992 14.3416 15.4992 14.3416 15.3992 14.2416C15.2992 14.2416 15.2992 14.1416 15.1992 14.1416C15.0992 14.1416 15.0992 14.1416 14.9992 14.1416C14.8992 14.1416 14.8992 14.2416 14.9992 14.2416C14.9992 14.3416 15.0992 14.4416 14.9992 14.5416C14.9992 14.7416 14.7992 14.8416 14.5992 14.8416C14.4992 14.8416 14.3992 14.7416 14.2992 14.6416C14.2992 14.6416 14.2992 14.6416 14.1992 14.5416H14.0992C13.9992 14.5416 13.9992 14.6416 14.0992 14.6416V14.7416C14.1992 14.8416 14.1992 15.0416 14.0992 15.1416C13.9992 15.3416 13.7992 15.3416 13.6992 15.3416C13.5992 15.3416 13.4992 15.2416 13.3992 15.1416C13.3992 15.1416 13.3992 15.1416 13.2992 15.0416C13.1992 15.0416 13.1992 15.0416 13.0992 15.0416C13.0992 15.0416 13.0992 15.1416 13.0992 15.2416C13.0992 15.3416 13.1992 15.3416 13.1992 15.4416C13.2992 15.7416 13.0992 15.9416 12.7992 15.9416C12.4992 16.0416 12.3992 15.9416 12.2992 15.8416Z" fill="#00D3FE"/>
<path d="M15.8984 12.8413C15.7984 12.8413 15.6984 12.9413 15.5984 13.0413C15.4984 12.9413 15.2984 12.8413 15.1984 12.7413C14.4984 12.2413 13.6984 11.6413 12.9984 11.1413C12.9984 10.9413 12.8984 10.9413 12.7984 10.8413C12.5984 10.7413 12.3984 10.7413 12.1984 10.8413C12.0984 10.8413 11.8984 10.9413 11.7984 11.0413C11.4984 11.1413 11.2984 11.2413 10.9984 11.3413C10.7984 11.4413 10.5984 11.4413 10.4984 11.4413C10.3984 11.4413 10.1984 11.3413 10.0984 11.2413C9.99844 11.1413 9.99844 11.1413 10.0984 11.0413C10.1984 10.9413 10.1984 10.8413 10.2984 10.7413C10.4984 10.5413 10.7984 10.3413 10.9984 10.1413C11.1984 10.0413 11.3984 9.84131 11.5984 9.74131C11.6984 9.64131 11.7984 9.64131 11.8984 9.54131C12.0984 9.44131 12.2984 9.44131 12.4984 9.54131C13.2984 9.84131 14.0984 10.0413 14.8984 10.3413C14.9984 10.3413 14.9984 10.3413 14.9984 10.4413C15.2984 11.2413 15.5984 12.0413 15.8984 12.8413C15.8984 12.8413 15.8984 12.7413 15.8984 12.8413Z" fill="white"/>
<path d="M10.7008 15.0413C10.5008 15.0413 10.4008 15.1413 10.2008 15.1413C10.0008 15.1413 9.90078 15.1413 9.80078 15.0413C9.60078 14.9413 9.60078 14.7413 9.70078 14.6413C9.60078 14.6413 9.50078 14.7413 9.40078 14.7413C9.10078 14.7413 8.80078 14.6413 8.70078 14.4413C8.60078 14.3413 8.60078 14.2413 8.80078 14.0413H8.70078C8.60078 14.0413 8.50078 14.0413 8.40078 13.9413C8.30078 13.9413 8.20078 13.8413 8.20078 13.8413C8.00078 13.6413 8.00078 13.4413 8.20078 13.3413C8.40078 12.9413 8.60078 12.9413 8.80078 12.8413C8.90078 12.8413 9.00078 12.8413 9.20078 12.8413C9.40078 12.9413 9.50078 13.0413 9.50078 13.2413C9.50078 13.3413 9.50078 13.3413 9.50078 13.4413C9.60078 13.4413 9.80078 13.3413 9.90078 13.3413C10.2008 13.2413 10.4008 13.4413 10.5008 13.6413C10.6008 13.7413 10.5008 13.9413 10.4008 14.0413H10.5008C10.6008 14.0413 10.7008 13.9413 10.8008 13.9413C11.0008 13.9413 11.2008 14.0413 11.3008 14.2413C11.4008 14.3413 11.3008 14.4413 11.3008 14.6413C11.4008 14.6413 11.5008 14.6413 11.5008 14.5413C11.7008 14.5413 11.8008 14.5413 12.0008 14.6413C12.1008 14.7413 12.2008 14.8413 12.1008 15.0413C12.1008 15.1413 12.0008 15.1413 12.0008 15.2413C11.8008 15.4413 11.5008 15.5413 11.2008 15.5413C10.8008 15.6413 10.6008 15.4413 10.7008 15.0413Z" fill="white"/>
<path d="M7.60078 8.94141C8.00078 9.04141 8.30078 9.14141 8.70078 9.24141C8.30078 10.3414 7.90078 11.4414 7.50078 12.5414C7.30078 12.4414 7.00078 12.3414 6.80078 12.3414C7.00078 11.2414 7.30078 10.0414 7.60078 8.94141Z" fill="#00D3FE"/>
<path d="M16.6984 13.0414C16.2984 11.9414 15.8984 10.8414 15.3984 9.74141C15.7984 9.64141 16.0984 9.54141 16.3984 9.44141C16.6984 10.5414 16.9984 11.6414 17.2984 12.7414C17.1984 12.8414 16.9984 12.9414 16.6984 13.0414Z" fill="white"/>
</svg>
