<svg width="24" height="24" viewBox="0 0 24 24" fill="none" xmlns="http://www.w3.org/2000/svg">
<path d="M3.97686 6.05005C4.87074 6.317 5.42082 6.8509 5.35206 7.85195C5.35206 7.98543 5.35206 8.05217 5.42082 8.18564C5.76462 9.78733 6.52098 11.1888 7.48362 12.5236C7.89618 13.1242 8.79007 13.1242 9.27139 12.5903C9.95899 11.7894 10.5778 10.9219 10.7154 9.78733C10.7841 9.05322 11.5405 8.51933 12.2968 8.45259C13.122 8.45259 13.8096 8.98648 13.9471 9.72059C14.1534 10.4547 13.7408 11.1888 12.9844 11.5225C11.1967 12.3901 10.0965 13.7916 9.68395 15.6602C9.47767 16.461 8.79007 17.0617 7.89619 16.9949C7.07106 16.9282 6.45222 16.3276 6.38346 15.46C6.3147 14.8593 6.17718 14.3255 6.03966 13.7248C5.42082 12.3233 4.66446 10.9886 3.70181 9.85407C3.42677 9.52038 3.01421 9.1867 2.67041 8.91975C2.32661 8.6528 2.12033 8.25238 2.05157 7.91869C1.98281 7.71848 1.98281 7.51827 2.05157 7.38479C2.25785 6.71742 2.73917 6.25026 3.42677 6.05005C3.56429 5.98332 3.77057 5.98332 3.97686 6.05005Z" fill="white"/>
<path d="M20.5071 6C20.6526 6.06731 20.7254 6.06731 20.8709 6.13461C21.4529 6.33653 21.8166 6.80766 21.9622 7.3461C22.1077 7.95185 21.8166 8.42299 21.3801 8.82682C20.8709 9.29796 20.2889 9.70179 19.9251 10.2402C18.8339 11.5863 17.9609 13.1344 17.5971 14.817C17.5244 15.0189 17.5244 15.2881 17.5244 15.49C17.4516 16.2304 16.9424 16.8361 16.1421 16.9707C15.3418 17.1054 14.5416 16.7688 14.1778 16.0958C13.8141 15.4227 14.0323 14.6824 14.6143 14.2112C16.7241 12.5959 17.8154 10.4421 18.4701 8.01916C18.5429 7.88455 18.4701 7.68263 18.5429 7.54802C18.6156 6.80766 19.0521 6.26922 19.8524 6.06731C19.9251 6.06731 19.9979 6 20.0706 6C20.1434 6 20.2889 6 20.5071 6Z" fill="white"/>
</svg>
