<svg width="24" height="24" viewBox="0 0 24 24" fill="none" xmlns="http://www.w3.org/2000/svg">
<path fill-rule="evenodd" clip-rule="evenodd" d="M3.01556 12.5289C2.90055 10.575 3.42561 8.63692 4.51116 7.00831C5.5967 5.37971 7.18357 4.14937 9.03126 3.50376C10.8789 2.85815 12.8867 2.83245 14.7503 3.43058C16.3533 3.94504 17.7744 4.8969 18.8577 6.17145L20.4642 4.58859L21.045 9.08855L16.5451 8.44995L18.1032 6.91484C16.6465 5.16929 14.4546 4.05861 12.0033 4.05861C7.61748 4.05861 4.0621 7.61399 4.0621 11.9998C4.0621 12.1564 4.06663 12.312 4.07558 12.4665L3.01556 12.5289Z" fill="white"/>
<path fill-rule="evenodd" clip-rule="evenodd" d="M20.9509 11.5086C21.0347 13.4267 20.5029 15.3213 19.4332 16.9157C18.3636 18.5101 16.8121 19.7206 15.0054 20.3703C13.1988 21.0201 11.2317 21.0751 9.39158 20.5273C7.78816 20.05 6.35437 19.1368 5.24648 17.8961L3.79147 19.4606L3.01485 14.9903L7.53832 15.4318L5.96904 17.1192C7.5023 18.8764 9.79184 19.9452 12.3029 19.8354C16.6845 19.644 20.0813 15.9368 19.8898 11.5552L19.8898 11.555L20.9509 11.5086Z" fill="white"/>
<path d="M14.8 11C15.4 11 16 11.6 16 12.3V14.8C16 15.4 15.4 16 14.7 16H9.2C8.6 16 8 15.4 8 14.7V12.2C8 11.6 8.6 11 9.2 11V9.5C9.2 8.1 10.6 7 12 7C13.4 7 14.8 8.1 14.8 9.5V11ZM13.5 11V9.5C13.5 8.7 12.8 8.2 12 8.2C11.2 8.2 10.5 8.7 10.5 9.5V11H13.5Z" fill="white"/>
</svg>
