<svg width="24" height="24" viewBox="0 0 24 24" fill="none" xmlns="http://www.w3.org/2000/svg">
<path d="M11 9H13V6H16V4H13V1H11V4H8V6H11V9ZM7 18C6.46957 18 5.96086 18.2107 5.58579 18.5858C5.21071 18.9609 5 19.4696 5 20C5 20.5304 5.21071 21.0391 5.58579 21.4142C5.96086 21.7893 6.46957 22 7 22C7.53043 22 8.03914 21.7893 8.41421 21.4142C8.78929 21.0391 9 20.5304 9 20C9 19.4696 8.78929 18.9609 8.41421 18.5858C8.03914 18.2107 7.53043 18 7 18ZM17 18C16.4696 18 15.9609 18.2107 15.5858 18.5858C15.2107 18.9609 15 19.4696 15 20C15 20.5304 15.2107 21.0391 15.5858 21.4142C15.9609 21.7893 16.4696 22 17 22C17.5304 22 18.0391 21.7893 18.4142 21.4142C18.7893 21.0391 19 20.5304 19 20C19 19.4696 18.7893 18.9609 18.4142 18.5858C18.0391 18.2107 17.5304 18 17 18ZM7.17 14.75L7.2 14.63L8.1 13H15.55C16.3 13 16.96 12.59 17.3 11.97L21.16 4.96L19.42 4H19.41L18.31 6L15.55 11H8.53L8.4 10.73L6.16 6L5.21 4L4.27 2H1V4H3L6.6 11.59L5.25 14.04C5.09 14.32 5 14.65 5 15C5 15.5304 5.21071 16.0391 5.58579 16.4142C5.96086 16.7893 6.46957 17 7 17H19V15H7.42C7.29 15 7.17 14.89 7.17 14.75Z" fill="white"/>
</svg>
