<svg width="20" height="20" viewBox="0 0 20 20" fill="none" xmlns="http://www.w3.org/2000/svg">
<path fill-rule="evenodd" clip-rule="evenodd" d="M17.4793 10C17.4793 10.33 17.4493 10.65 17.4093 10.97L19.5193 12.63C19.7093 12.78 19.7593 13.05 19.6393 13.27L17.6393 16.73C17.5193 16.95 17.2493 17.03 17.0293 16.95L14.5393 15.94C14.0193 16.34 13.4793 16.67 12.8493 16.93L12.4793 19.58C12.4393 19.82 12.2293 20 11.9793 20H7.97933C7.72933 20 7.51933 19.82 7.47933 19.58L7.10933 16.93C6.47933 16.68 5.93933 16.34 5.41933 15.94L2.92933 16.95C2.70933 17.03 2.43933 16.95 2.31933 16.73L0.319332 13.27C0.189332 13.05 0.249332 12.78 0.439332 12.63L2.54933 10.97C2.50933 10.65 2.47933 10.33 2.47933 10C2.47933 9.67 2.50933 9.34 2.54933 9L0.439332 7.37C0.249332 7.22 0.189332 6.95 0.319332 6.73L2.31933 3.27C2.43933 3.05 2.70933 2.96 2.92933 3.05L5.41933 4.05C5.93933 3.66 6.47933 3.32 7.10933 3.07L7.47933 0.42C7.51933 0.18 7.72933 0 7.97933 0H11.9793C12.2293 0 12.4393 0.18 12.4793 0.42L12.8493 3.07C13.4793 3.32 14.0193 3.66 14.5393 4.05L17.0293 3.05C17.2493 2.96 17.5193 3.05 17.6393 3.27L19.6393 6.73C19.7593 6.95 19.7093 7.22 19.5193 7.37L17.4093 9C17.4493 9.34 17.4793 9.67 17.4793 10ZM6.47933 10C6.47933 11.933 8.04634 13.5 9.97933 13.5C11.9123 13.5 13.4793 11.933 13.4793 10C13.4793 8.067 11.9123 6.5 9.97933 6.5C8.04634 6.5 6.47933 8.067 6.47933 10Z" fill="white"/>
</svg>
