<svg width="49" height="32" viewBox="0 0 49 32" fill="none" xmlns="http://www.w3.org/2000/svg">
<g opacity="0.1">
<path d="M16.7246 22.8943L23.1423 20.3915L24.3419 23.4675L17.9242 25.9703L19.3459 29.6159L29.1244 25.8024L25.2887 15.9669L18.795 18.4994L17.6695 15.6133L24.1632 13.0808L22.8303 9.66306L13.0518 13.4766L16.7246 22.8943Z" fill="white"/>
<path d="M29.0776 7.22817L25.5459 8.60547L31.84 24.7448L35.3717 23.3675L29.0776 7.22817Z" fill="white"/>
<path d="M38.4956 3.55453L40.954 9.85836L37.897 11.0505L35.4386 4.74671L32.1348 6.03516L38.4289 22.1745L41.6757 20.9082L38.9656 13.9588L42.1555 12.7148L44.8656 19.6642L48.1505 18.3832L41.8563 2.24387L38.4956 3.55453Z" fill="white"/>
<path d="M12.7567 20.8535L6.20605 23.4082L7.58336 26.9399L14.134 24.3852L12.7567 20.8535Z" fill="#00A8D1"/>
<path d="M53.6366 4.91017L47.0859 7.46484L48.4632 10.9965L55.0139 8.44183L53.6366 4.91017Z" fill="#0F4481"/>
<path d="M25.3295 -2.38121L21.7979 -1.00391L24.3525 5.54676L27.8842 4.16946L25.3295 -2.38121Z" fill="white"/>
<path d="M36.5629 26.4215L33.0312 27.7988L35.5859 34.3495L39.1176 32.9722L36.5629 26.4215Z" fill="white"/>
<path d="M12.7567 20.8535L6.20605 23.4082L7.58336 26.9399L14.134 24.3852L12.7567 20.8535Z" fill="url(#paint0_linear_6138_51339)"/>
<path d="M12.7567 20.8535L6.20605 23.4082L7.58336 26.9399L14.134 24.3852L12.7567 20.8535Z" fill="url(#paint1_linear_6138_51339)"/>
<path d="M53.6366 4.91017L47.0859 7.46484L48.4632 10.9965L55.0139 8.44183L53.6366 4.91017Z" fill="white"/>
<path d="M53.6366 4.91017L47.0859 7.46484L48.4632 10.9965L55.0139 8.44183L53.6366 4.91017Z" fill="white"/>
<path d="M25.3295 -2.38121L21.7979 -1.00391L24.3525 5.54676L27.8842 4.16946L25.3295 -2.38121Z" fill="white"/>
<path d="M25.3295 -2.38121L21.7979 -1.00391L24.3525 5.54676L27.8842 4.16946L25.3295 -2.38121Z" fill="white"/>
<path d="M36.5629 26.4215L33.0312 27.7988L35.5859 34.3495L39.1176 32.9722L36.5629 26.4215Z" fill="white"/>
<path d="M36.5629 26.4215L33.0312 27.7988L35.5859 34.3495L39.1176 32.9722L36.5629 26.4215Z" fill="white"/>
<path d="M38.7101 -3.85837L29.748 -0.363281L31.0365 2.94053L39.9986 -0.554561C41.8783 -1.28764 44.0161 -0.349453 44.7492 1.5303L45.8895 4.45437L49.1933 3.16592L48.053 0.241856C46.5901 -3.45329 42.4127 -5.30232 38.7101 -3.85837Z" fill="#FFFBFA"/>
<path d="M6.88323 15.5545L8.27534 19.1241L11.5792 17.8357L10.187 14.266C9.59465 12.7471 10.3401 11.0126 11.8781 10.4128L21.4857 6.66592L20.1973 3.3621L10.5896 7.10896C7.24786 8.41222 5.57997 12.2127 6.88323 15.5545Z" fill="#FFFBFA"/>
<path d="M50.7467 16.9106C51.4798 18.7903 50.5416 20.9281 48.6619 21.6612L39.6998 25.1563L40.9882 28.4601L49.9503 24.965C53.6528 23.521 55.4945 19.3247 54.0505 15.6221L52.9102 12.698L49.6064 13.9865L50.7467 16.9106Z" fill="#FFFBFA"/>
<path d="M16.4373 30.2919L15.297 27.3678L11.9932 28.6562L13.1335 31.5803C14.5775 35.2829 18.7738 37.1245 22.4764 35.6805L31.4385 32.1855L30.15 28.8816L21.1879 32.3767C19.3082 33.1098 17.1778 32.1906 16.4373 30.2919Z" fill="#FFFBFA"/>
</g>
<defs>
<linearGradient id="paint0_linear_6138_51339" x1="6.89415" y1="25.1726" x2="54.3268" y2="6.6745" gradientUnits="userSpaceOnUse">
<stop stop-color="white"/>
<stop offset="1" stop-color="#12427B"/>
</linearGradient>
<linearGradient id="paint1_linear_6138_51339" x1="6.89415" y1="25.1726" x2="54.3268" y2="6.6745" gradientUnits="userSpaceOnUse">
<stop stop-color="white"/>
<stop offset="1" stop-color="#12427B"/>
</linearGradient>
</defs>
</svg>
