<svg width="16" height="16" viewBox="0 0 16 16" fill="none" xmlns="http://www.w3.org/2000/svg">
<path d="M8 0C9.05058 0 10.0909 0.206926 11.0615 0.608964C12.0321 1.011 12.914 1.60028 13.6569 2.34315C14.3997 3.08601 14.989 3.96793 15.391 4.93853C15.7931 5.90914 16 6.94943 16 8C16 10.1217 15.1571 12.1566 13.6569 13.6569C12.1566 15.1571 10.1217 16 8 16C4.32 16 1.24 13.536 0.288 10.184L3.352 11.448C3.56 12.48 4.48 13.264 5.576 13.264C6.824 13.264 7.84 12.248 7.84 11V10.896L10.56 8.952H10.624C12.288 8.952 13.64 7.6 13.64 5.936C13.64 4.272 12.288 2.92 10.624 2.92C8.96 2.92 7.6 4.272 7.6 5.936V5.976L5.704 8.744L5.576 8.736C5.104 8.736 4.664 8.88 4.304 9.128L0 7.36C0.344 3.24 3.784 0 8 0ZM5.024 12.136C5.664 12.4 6.4 12.104 6.664 11.464C6.928 10.824 6.624 10.096 6 9.832L4.976 9.408C5.368 9.264 5.808 9.256 6.224 9.432C6.648 9.6 6.976 9.928 7.144 10.352C7.32 10.768 7.32 11.232 7.144 11.648C6.8 12.512 5.784 12.928 4.92 12.568C4.52 12.4 4.216 12.096 4.048 11.736L5.024 12.136ZM12.64 5.936C12.64 7.048 11.736 7.952 10.624 7.952C9.52 7.952 8.616 7.048 8.616 5.936C8.61494 5.67201 8.66616 5.41042 8.7667 5.16632C8.86723 4.92222 9.0151 4.70044 9.20177 4.51377C9.38844 4.3271 9.61022 4.17923 9.85432 4.07869C10.0984 3.97816 10.36 3.92694 10.624 3.928C11.736 3.928 12.64 4.832 12.64 5.936ZM9.12 5.936C9.12 6.768 9.792 7.448 10.632 7.448C11.464 7.448 12.136 6.768 12.136 5.936C12.136 5.104 11.464 4.424 10.632 4.424C9.792 4.424 9.12 5.104 9.12 5.936Z" fill="white"/>
</svg>
