<svg width="24" height="24" viewBox="0 0 24 24" fill="none" xmlns="http://www.w3.org/2000/svg">
<path d="M12.1 15.7998C12.6 15.7998 13.2 16.1998 13.2 16.7998C13.2 17.3998 12.7 17.7998 12.1 17.8998C11.5 17.8998 11 17.3998 11 16.8998C11.1 16.1998 11.5 15.7998 12.1 15.7998Z" fill="#2CD2DE"/>
<path d="M12.1008 19.6999C11.7008 19.6999 11.3008 19.5999 11.0008 19.4999C10.6008 19.3999 10.3008 19.1999 10.1008 18.8999C9.80078 18.5999 9.60078 18.2999 9.50078 17.9999C9.30078 17.5999 9.30078 17.2999 9.30078 16.8999C9.30078 16.0999 9.60078 15.3999 10.2008 14.7999C10.8008 14.2999 11.5008 13.8999 12.3008 13.8999C13.1008 13.8999 13.8008 14.1999 14.4008 14.6999C15.0008 15.1999 15.3008 15.9999 15.3008 16.7999C15.3008 17.5999 15.0008 18.2999 14.4008 18.8999C13.7008 19.3999 13.0008 19.6999 12.1008 19.6999C12.2008 19.6999 12.2008 19.6999 12.1008 19.6999ZM12.1008 15.9999C11.6008 15.9999 11.3008 16.3999 11.3008 16.7999C11.3008 16.9999 11.4008 17.1999 11.6008 17.3999C11.8008 17.4999 12.0008 17.5999 12.2008 17.5999C12.4008 17.5999 12.6008 17.4999 12.8008 17.3999C13.0008 17.1999 13.0008 16.9999 13.0008 16.7999C13.0008 16.5999 12.9008 16.3999 12.8008 16.1999C12.6008 16.0999 12.4008 15.9999 12.1008 15.9999Z" fill="#323147"/>
<path d="M17.3016 11.9002C18.1016 11.9002 19.0016 12.1002 19.8016 12.4002C19.9016 12.5002 19.9016 12.5002 19.9016 12.6002C19.8016 12.8002 19.7016 13.0002 19.6016 13.2002C19.4016 13.5002 19.3016 13.8002 19.1016 14.1002C19.0016 14.3002 19.0016 14.2002 18.9016 14.2002C18.5016 14.0002 18.1016 13.9002 17.7016 13.8002C17.4016 13.7002 17.1016 13.7002 16.8016 13.8002H16.7016C16.3016 13.9002 16.3016 14.3002 16.5016 14.5002C16.6016 14.6002 16.7016 14.7002 16.9016 14.7002C17.2016 14.8002 17.4016 14.9002 17.7016 14.9002C18.2016 15.1002 18.7016 15.2002 19.1016 15.5002C19.5016 15.8002 19.8016 16.2002 20.0016 16.6002C20.1016 16.9002 20.1016 17.3002 20.1016 17.6002C20.1016 17.8002 20.0016 18.0002 20.0016 18.2002C19.8016 18.8002 19.4016 19.2002 18.9016 19.4002C18.5016 19.6002 18.1016 19.7002 17.6016 19.8002C17.1016 19.9002 16.5016 19.9002 16.0016 19.9002C15.0016 19.8002 14.2016 19.5002 13.4016 19.0002C13.4016 19.0002 13.4016 19.0002 13.3016 19.0002C13.2016 19.0002 13.2016 18.9002 13.3016 18.9002C13.6016 18.3002 14.0016 17.8002 14.3016 17.2002C14.4016 17.1002 14.4016 17.1002 14.5016 17.2002C14.9016 17.5002 15.2016 17.7002 15.7016 17.9002C16.0016 18.0002 16.4016 18.1002 16.7016 18.0002C16.8016 18.0002 16.9016 18.0002 17.0016 17.9002C17.3016 17.8002 17.3016 17.3002 17.1016 17.1002C17.0016 17.0002 16.9016 16.9002 16.8016 16.9002C16.5016 16.8002 16.3016 16.7002 16.0016 16.6002C15.6016 16.4002 15.1016 16.2002 14.7016 15.9002C14.3016 15.6002 14.0016 15.2002 13.9016 14.7002C13.7016 13.8002 14.0016 12.8002 15.0016 12.2002C15.4016 11.9002 15.9016 11.8002 16.4016 11.7002C16.6016 11.9002 16.9016 11.9002 17.3016 11.9002Z" fill="#323147"/>
<path d="M16.4016 22C16.2016 22 16.0016 22 15.8016 22C14.5016 21.9 13.2016 21.5 12.2016 20.7C12.2016 20.7 12.1016 20.7 12.1016 20.6C11.7016 20.3 11.4016 19.9 11.3016 19.4C11.2016 19.1 11.2016 18.6 11.6016 18C11.8016 17.7 12.0016 17.3 12.2016 16.9C12.3016 16.8 12.4016 16.6 12.5016 16.5C12.2016 16.1 12.0016 15.6 11.9016 15.2C11.7016 14.4 11.8016 13.5 12.1016 12.8C12.4016 12 13.0016 11.3 13.9016 10.8C14.5016 10.4 15.2016 10.2 16.0016 10.1C16.4016 10 16.8016 10 17.3016 10C18.4016 10 19.5016 10.2 20.5016 10.7H20.6016C20.7016 10.7 20.7016 10.8 20.8016 10.8C21.2016 11 21.4016 11.4 21.6016 11.8C21.8016 12.2 21.8016 12.7 21.6016 13.1C21.6016 13.2 21.5016 13.3 21.5016 13.4C21.4016 13.5 21.3016 13.7 21.3016 13.8C21.3016 13.9 21.2016 13.9 21.2016 14C21.2016 14.1 21.1016 14.2 21.1016 14.3C21.0016 14.4 21.0016 14.6 20.9016 14.7C21.3016 15.1 21.6016 15.6 21.8016 16.2C22.0016 16.8 22.0016 17.4 22.0016 18C22.0016 18.4 21.9016 18.7 21.8016 19.1C21.4016 20.1 20.7016 20.9 19.8016 21.4C19.3016 21.7 18.7016 21.9 18.0016 22C17.4016 22 16.9016 22 16.4016 22Z" fill="#323147"/>
<path d="M6.69844 4.9999C6.79844 4.9999 6.79844 4.9999 6.79844 4.8999C7.19844 4.4999 7.59844 4.1999 8.19844 3.9999C8.59844 3.8999 8.99844 3.8999 9.39844 3.8999C9.79844 3.8999 10.1984 3.9999 10.5984 4.1999C11.0984 4.3999 11.4984 4.7999 11.6984 5.1999C11.6984 5.1999 11.6984 5.1999 11.7984 5.2999C11.8984 5.1999 11.8984 5.1999 11.9984 5.0999C12.3984 4.6999 12.6984 4.3999 13.1984 4.1999C13.6984 3.8999 14.2984 3.8999 14.7984 3.8999C15.1984 3.8999 15.5984 3.9999 15.9984 4.1999C16.7984 4.5999 17.1984 5.1999 17.3984 6.0999C17.3984 6.2999 17.4984 6.5999 17.4984 6.8999C17.4984 8.5999 17.4984 10.2999 17.4984 11.9999C17.4984 12.0999 17.4984 12.0999 17.3984 12.0999C16.5984 12.0999 15.6984 12.0999 14.8984 12.0999C14.6984 12.0999 14.7984 12.0999 14.7984 11.9999C14.7984 10.4999 14.7984 9.0999 14.7984 7.5999C14.7984 7.2999 14.7984 7.0999 14.6984 6.8999C14.4984 6.4999 14.1984 6.1999 13.6984 6.0999C13.4984 6.0999 13.2984 6.0999 12.9984 6.0999C12.4984 6.1999 12.2984 6.5999 12.1984 7.0999C12.1984 7.1999 12.1984 7.2999 12.1984 7.3999C12.1984 8.8999 12.1984 10.3999 12.1984 11.8999V11.9999C12.1984 12.0999 12.1984 12.0999 12.0984 12.0999C11.1984 12.0999 10.3984 12.0999 9.49844 12.0999C9.39844 12.0999 9.39844 12.0999 9.39844 11.9999C9.39844 11.4999 9.39844 10.8999 9.39844 10.3999C9.39844 9.4999 9.39844 8.5999 9.39844 7.5999C9.39844 7.2999 9.39844 7.0999 9.29844 6.7999C8.99844 6.4999 8.69844 6.1999 8.09844 6.0999C7.89844 6.0999 7.59844 6.0999 7.39844 6.1999C6.99844 6.3999 6.79844 6.6999 6.69844 7.0999C6.69844 7.2999 6.69844 7.3999 6.69844 7.5999C6.69844 9.0999 6.69844 10.4999 6.69844 11.9999C6.69844 12.1999 6.69844 12.1999 6.49844 12.1999C5.69844 12.1999 4.89844 12.1999 4.09844 12.1999H3.99844C3.99844 12.1999 3.89844 12.1999 3.89844 12.0999V11.9999C3.89844 9.3999 3.89844 6.8999 3.89844 4.2999C3.89844 4.1999 3.89844 4.1999 3.99844 4.1999C4.79844 4.1999 5.59844 4.1999 6.39844 4.1999C6.49844 4.1999 6.49844 4.1999 6.59844 4.1999C6.69844 4.1999 6.69844 4.1999 6.69844 4.2999C6.69844 4.4999 6.69844 4.6999 6.69844 4.8999C6.69844 4.8999 6.59844 4.8999 6.69844 4.9999Z" fill="#323147"/>
<path d="M12 14.0001C11.5 14.0001 10.9 14.0001 10.4 14.0001C10.1 14.0001 9.8 14.0001 9.5 14.0001C9.4 14.0001 9.3 14.0001 9.2 14.0001C8.7 14.0001 8.3 13.8001 8 13.5001C7.7 13.8001 7.2 14.0001 6.8 14.0001C6.7 14.0001 6.6 14.0001 6.5 14.0001C5.9 14.0001 5.3 14.0001 4.7 14.0001H4.1C3.6 14.0001 3 13.8001 2.7 13.4001C2.2 13.1001 2 12.6001 2 12.0001C2 12.0001 2 12.0001 2 11.9001V4.20013C2 4.20013 2 4.20013 2 4.10013C2 4.00013 2 3.90013 2 3.80013C2.1 3.30013 2.3 2.90013 2.6 2.60013C2.9 2.30013 3.3 2.10013 3.7 2.10013C3.8 2.10013 3.9 2.10013 4 2.10013C4.6 2.10013 5.2 2.10013 5.8 2.10013H6.4H6.5C6.8 2.10013 7 2.10013 7.3 2.20013C7.4 2.20013 7.5 2.10013 7.6 2.10013C8.2 2.00013 8.9 2.00013 9.6 2.00013C10.3 2.10013 10.9 2.20013 11.5 2.50013C11.6 2.60013 11.8 2.60013 11.9 2.70013C12.1 2.60013 12.2 2.50013 12.4 2.40013C13.2 2.10013 14.1 1.90013 15 2.00013C15.7 2.10013 16.3 2.20013 16.9 2.50013C17.6 2.80013 18.1 3.30013 18.5 3.80013C18.9 4.30013 19.2 5.00013 19.3 5.70013C19.4 6.00013 19.4 6.40013 19.4 6.80013C19.4 8.10013 19.4 9.40013 19.4 10.7001V11.9001C19.4 12.0001 19.4 12.0001 19.4 12.2001C19.4 12.6001 19.2 13.1001 18.8 13.4001C18.5 13.7001 18.1 13.9001 17.6 14.0001C17.5 14.0001 17.4 14.0001 17.3 14.0001H16.5C15.9 14.0001 15.3 14.0001 14.8 14.0001C14.7 14.0001 14.7 14.0001 14.5 14.0001C14.1 14.0001 13.6 13.8001 13.3 13.4001C13.2 13.7001 12.7 14.0001 12 14.0001Z" fill="#323147"/>
<path d="M6.69844 4.9999C6.79844 4.9999 6.79844 4.9999 6.79844 4.8999C7.19844 4.4999 7.59844 4.1999 8.19844 3.9999C8.59844 3.8999 8.99844 3.8999 9.39844 3.8999C9.79844 3.8999 10.1984 3.9999 10.5984 4.1999C11.0984 4.3999 11.4984 4.7999 11.6984 5.1999C11.6984 5.1999 11.6984 5.1999 11.7984 5.2999C11.8984 5.1999 11.8984 5.1999 11.9984 5.0999C12.3984 4.6999 12.6984 4.3999 13.1984 4.1999C13.6984 3.8999 14.2984 3.8999 14.7984 3.8999C15.1984 3.8999 15.5984 3.9999 15.9984 4.1999C16.7984 4.5999 17.1984 5.1999 17.3984 6.0999C17.3984 6.2999 17.4984 6.5999 17.4984 6.8999C17.4984 8.5999 17.4984 10.2999 17.4984 11.9999C17.4984 12.0999 17.4984 12.0999 17.3984 12.0999C16.5984 12.0999 15.6984 12.0999 14.8984 12.0999C14.6984 12.0999 14.7984 12.0999 14.7984 11.9999C14.7984 10.4999 14.7984 9.0999 14.7984 7.5999C14.7984 7.2999 14.7984 7.0999 14.6984 6.8999C14.4984 6.4999 14.1984 6.1999 13.6984 6.0999C13.4984 6.0999 13.2984 6.0999 12.9984 6.0999C12.4984 6.1999 12.2984 6.5999 12.1984 7.0999C12.1984 7.1999 12.1984 7.2999 12.1984 7.3999C12.1984 8.8999 12.1984 10.3999 12.1984 11.8999V11.9999C12.1984 12.0999 12.1984 12.0999 12.0984 12.0999C11.1984 12.0999 10.3984 12.0999 9.49844 12.0999C9.39844 12.0999 9.39844 12.0999 9.39844 11.9999C9.39844 11.4999 9.39844 10.8999 9.39844 10.3999C9.39844 9.4999 9.39844 8.5999 9.39844 7.5999C9.39844 7.2999 9.39844 7.0999 9.29844 6.7999C8.99844 6.4999 8.69844 6.1999 8.09844 6.0999C7.89844 6.0999 7.59844 6.0999 7.39844 6.1999C6.99844 6.3999 6.79844 6.6999 6.69844 7.0999C6.69844 7.2999 6.69844 7.3999 6.69844 7.5999C6.69844 9.0999 6.69844 10.4999 6.69844 11.9999C6.69844 12.1999 6.69844 12.1999 6.49844 12.1999C5.69844 12.1999 4.89844 12.1999 4.09844 12.1999H3.99844C3.99844 12.1999 3.89844 12.1999 3.89844 12.0999V11.9999C3.89844 9.3999 3.89844 6.8999 3.89844 4.2999C3.89844 4.1999 3.89844 4.1999 3.99844 4.1999C4.79844 4.1999 5.59844 4.1999 6.39844 4.1999C6.49844 4.1999 6.49844 4.1999 6.59844 4.1999C6.69844 4.1999 6.69844 4.1999 6.69844 4.2999C6.69844 4.4999 6.69844 4.6999 6.69844 4.8999C6.69844 4.8999 6.59844 4.8999 6.69844 4.9999Z" fill="white"/>
<path d="M17.3016 11.9002C17.3016 11.9002 19.0016 12.1002 19.8016 12.4002C19.9016 12.5002 19.9016 12.5002 19.9016 12.6002C19.8016 12.8002 19.7016 13.0002 19.6016 13.2002C19.4016 13.5002 19.3016 13.8002 19.1016 14.1002C19.0016 14.3002 19.0016 14.2002 18.9016 14.2002C18.5016 14.0002 18.1016 13.9002 17.7016 13.8002C17.4016 13.7002 17.1016 13.7002 16.8016 13.8002H16.7016C16.3016 13.9002 16.3016 14.3002 16.5016 14.5002C16.6016 14.6002 16.7016 14.7002 16.9016 14.7002C17.2016 14.8002 17.4016 14.9002 17.7016 14.9002C18.2016 15.1002 18.7016 15.2002 19.1016 15.5002C19.5016 15.8002 19.8016 16.2002 20.0016 16.6002C20.1016 16.9002 20.1016 17.3002 20.1016 17.6002C20.1016 17.8002 20.0016 18.0002 20.0016 18.2002C19.8016 18.8002 19.4016 19.2002 18.9016 19.4002C18.5016 19.6002 18.1016 19.7002 17.6016 19.8002C17.1016 19.9002 16.5016 19.9002 16.0016 19.9002C15.0016 19.8002 14.2016 19.5002 13.4016 19.0002C13.4016 19.0002 13.4016 19.0002 13.3016 19.0002C13.2016 19.0002 13.2016 18.9002 13.3016 18.9002C13.6016 18.3002 14.0016 17.8002 14.3016 17.2002C14.4016 17.1002 14.4016 17.1002 14.5016 17.2002C14.9016 17.5002 15.2016 17.7002 15.7016 17.9002C16.0016 18.0002 16.4016 18.1002 16.7016 18.0002C16.8016 18.0002 16.9016 18.0002 17.0016 17.9002C17.3016 17.8002 17.3016 17.3002 17.1016 17.1002C17.0016 17.0002 16.9016 16.9002 16.8016 16.9002C16.5016 16.8002 16.3016 16.7002 16.0016 16.6002C15.6016 16.4002 15.1016 16.2002 14.7016 15.9002C14.3016 15.6002 14.0016 15.2002 13.9016 14.7002C13.7016 13.8002 14.0016 12.8002 15.0016 12.2002C15.4016 11.9002 15.9016 11.8002 16.4016 11.7002C16.8016 11.7002 17.3016 11.9002 17.3016 11.9002Z" fill="#2BCFDF"/>
<path d="M12.1 15.7998C12.6 15.7998 13.2 16.1998 13.2 16.7998C13.2 17.3998 12.7 17.7998 12.1 17.8998C11.5 17.8998 11 17.3998 11 16.8998C11.1 16.1998 11.5 15.7998 12.1 15.7998Z" fill="#2CD2DE"/>
</svg>
