<svg width="24" height="24" viewBox="0 0 24 24" fill="none" xmlns="http://www.w3.org/2000/svg">
<path d="M14 3C14 3.3 14 3.8 14 3.8V4H17.1H21C20.6667 4.66667 20.3333 5.33333 20 6H13.7H7.9L6.7 6.6C6 7.1 5.5 7.6 5.1 8.7C5 9.1 5 9.2 5.1 9.6C5.6 10.7 6.1 11.2 6.8 11.5L7.8 12H11.6H14.9C14.9 12 14.8 12.3 14.7 12.5C14.6 12.7 14.5 12.9 14.4 13.1C14.1 13.5 14.2 13.5 14.1 13.7L14 14H11.2C8.1 14 7 13.9 6.8 13.9C6.4 13.8 5.7 13.5 5.4 13.2C4.1 12.2 3 11.5 3 9.4C3 8.3 3.3 7.5 3.6 6.7C4.1 5.5 5.4 4.6 6.6 4.2C6.8 4 7.1 4 7.3 4H9.2H12V3.7V3H12.7H14Z" fill="url(#paint0_linear_1871_6310)"/>
<path d="M12 19C12 18.9 12 18.5 12 18.5V18H8.3H6V22H4V18.6V17.7V16.4V16H11.7H16.1H16.3C17 15.7 17.8 15 18 13.8C18.1 13.4 18.1 12.7 18 12.3C17.7 11 16.3 10.2 16.3 10.2L16 10H12.2H9.3L8.7 9.1L8.1 8.2L8 8H8.5H13C15.8 8 16.8 8 17 8.1C17.4 8.2 18 8.5 18.3 8.7C19.5 9.6 20 11.1 20 13C20 14 20 14.8 19.7 15.5C19.3 16.4 18.7 17.1 17.9 17.5C17.5 17.7 17 17.9 16.5 17.9C15.8 18 14.8 17.9 14.8 17.9H14V18.4V19H12.7H12Z" fill="url(#paint1_linear_1871_6310)"/>
<defs>
<linearGradient id="paint0_linear_1871_6310" x1="5.5265" y1="15.3586" x2="16.2518" y2="-0.1714" gradientUnits="userSpaceOnUse">
<stop stop-color="#40D58B"/>
<stop offset="1" stop-color="#3AC17D"/>
</linearGradient>
<linearGradient id="paint1_linear_1871_6310" x1="11.9648" y1="22" x2="11.9648" y2="8" gradientUnits="userSpaceOnUse">
<stop stop-color="#28AC93"/>
<stop offset="1" stop-color="#40D27E"/>
</linearGradient>
</defs>
</svg>
