<svg width="24" height="24" viewBox="0 0 24 24" fill="none" xmlns="http://www.w3.org/2000/svg">
<path d="M6.49936 12.2001C8.69936 10.1001 8.89936 7.4001 8.99936 4.6001C12.2994 7.8001 15.9994 10.1001 20.4994 11.2001C20.2994 11.4001 19.9994 11.6001 19.7994 11.9001C18.0994 13.5001 16.6994 15.3001 15.7994 17.4001C15.5994 18.0001 15.4994 18.0001 14.7994 17.9001C13.9994 17.7001 13.0994 17.6001 12.2994 17.4001C12.1994 17.4001 12.0994 17.4001 11.8994 17.4001C11.9994 17.4001 12.0994 17.5001 12.0994 17.5001C12.9994 17.8001 13.8994 18.0001 14.8994 18.2001C15.6994 18.4001 15.8994 18.3001 16.1994 17.5001C16.6994 16.3001 17.2994 15.3001 18.1994 14.3001C18.3994 14.6001 18.5994 14.8001 18.6994 15.0001C19.0994 16.1001 19.1994 17.3001 18.8994 18.4001C18.4994 20.0001 17.3994 20.8001 15.9994 21.3001C13.4994 22.2001 11.0994 22.1001 8.79937 20.8001C6.19937 19.4001 4.19936 17.4001 2.69936 14.9001C1.99936 13.7001 1.59936 12.5001 2.29936 11.2001C2.99936 9.9001 4.19936 9.1001 5.69936 8.8001C6.29936 8.7001 6.99936 8.7001 7.59936 8.7001C7.99936 8.7001 7.99936 8.8001 7.99936 9.2001C7.79937 10.2001 7.29936 11.0001 6.69936 11.8001C6.59936 11.9001 6.49936 12.1001 6.39936 12.2001H6.49936ZM7.79937 11.4001C7.59937 11.6001 7.49936 11.8001 7.39936 11.9001C7.29937 12.1001 7.09936 12.2001 6.99936 12.4001C6.69936 12.6001 6.69937 12.9001 6.89936 13.2001C7.79937 15.0001 9.29937 16.2001 11.0994 17.0001C11.1994 17.0001 11.1994 17.0001 11.2994 17.0001C10.2994 16.3001 9.49937 15.6001 8.59937 14.9001C8.59937 14.9001 8.59936 14.8001 8.69936 14.8001C9.89936 15.5001 11.0994 16.3001 12.4994 16.6001C10.9994 16.0001 9.79937 15.2001 8.79937 14.3001C9.49936 14.7001 10.0994 15.1001 10.7994 15.5001C11.7994 16.1001 12.4994 16.3001 12.8994 16.3001C12.2994 16.0001 11.5994 15.7001 10.9994 15.3001C10.3994 14.9001 9.89936 14.4001 9.29937 13.9001C9.29937 13.9001 9.29936 13.8001 9.39936 13.8001C11.3994 15.3001 12.6994 15.9001 13.3994 15.5001C11.0994 14.5001 9.39936 13.1001 7.79937 11.4001ZM18.5994 18.1001C18.0994 18.5001 17.6994 19.0001 17.1994 19.4001C14.5994 21.2001 11.8994 21.3001 9.09937 19.8001C7.29937 18.9001 5.99936 17.4001 4.79937 15.9001C3.89937 14.6001 3.09936 13.3001 3.19936 11.6001C3.19936 11.5001 3.09936 11.4001 3.09936 11.3001H2.99936C2.99936 11.5001 2.89936 11.8001 2.99936 12.0001C3.19936 12.7001 3.29936 13.4001 3.59936 14.1001C4.49936 16.1001 5.99936 17.6001 7.59936 19.0001C9.29937 20.5001 11.3994 21.3001 13.6994 21.1001C15.3994 20.9001 16.9994 20.3001 18.1994 19.0001C18.2994 18.6001 18.3994 18.3001 18.5994 18.1001ZM15.5994 9.7001C14.9994 9.6001 14.1994 10.2001 14.1994 10.9001C14.1994 11.7001 14.0994 11.8001 13.3994 12.0001C12.7994 12.2001 12.5994 12.5001 12.7994 13.1001C12.9994 13.5001 13.0994 13.9001 12.5994 14.2001V14.3001C13.3994 14.5001 13.6994 14.1001 13.4994 13.4001C13.4994 13.3001 13.4994 13.3001 13.3994 13.2001C13.2994 12.9001 13.3994 12.7001 13.6994 12.7001C14.1994 12.6001 14.5994 12.3001 14.5994 11.7001C14.6994 10.8001 14.6994 10.1001 15.5994 9.7001ZM8.89936 19.3001C8.89936 19.4001 8.89936 19.4001 8.89936 19.5001C9.49936 19.7001 9.99936 19.7001 10.5994 19.5001C10.8994 19.4001 10.9994 19.1001 10.8994 18.8001C10.7994 18.6001 10.7994 18.5001 10.6994 18.4001C10.3994 18.0001 10.3994 17.9001 10.9994 17.8001C11.1994 17.8001 11.3994 17.7001 11.5994 17.6001C11.5994 17.5001 11.5994 17.5001 11.5994 17.4001C11.2994 17.4001 10.9994 17.4001 10.6994 17.5001C9.89936 17.6001 9.79936 17.8001 10.1994 18.5001C10.4994 19.0001 10.3994 19.1001 9.79937 19.2001C9.49936 19.2001 9.19936 19.2001 8.89936 19.3001ZM3.69936 11.6001C3.79936 11.2001 3.99936 10.7001 4.09936 10.3001C3.69936 10.5001 3.39936 11.2001 3.69936 11.6001Z" fill="white"/>
<path d="M20.4984 10.7C19.8984 10.6 18.8984 10.4 17.9984 10C14.8984 8.9 12.1984 7.2 9.79844 4.9C9.29844 4.4 8.89844 3.9 8.59844 3.3C8.19844 2.5 8.39844 2 9.19844 2C9.99844 2 10.7984 2.1 11.4984 2.3C15.0984 3.4 18.1984 5.4 20.7984 8C21.0984 8.4 21.3984 8.8 21.6984 9.2C22.2984 10.2 21.9984 10.7 20.4984 10.7ZM15.8984 8.7C16.2984 9 16.5984 9 16.7984 8.8C16.9984 8.6 16.8984 8.3 16.7984 8.1C16.6984 7.9 16.5984 7.8 16.3984 7.5C16.8984 7.6 17.2984 7.7 17.6984 7.8C17.8984 7.8 18.1984 7.8 18.2984 7.6C18.3984 7.5 18.3984 7.2 18.2984 7C18.0984 6.6 17.6984 6.3 17.4984 6C17.2984 5.8 17.1984 5.6 17.0984 5.3C16.8984 5.3 16.7984 5.5 16.8984 5.8C16.9984 6 17.1984 6.2 17.2984 6.4C17.4984 6.7 17.6984 6.9 17.9984 7.3C17.6984 7.2 17.5984 7.2 17.3984 7.2C17.0984 7.1 16.6984 7 16.3984 7C16.1984 7 15.8984 7 15.8984 7.1C15.7984 7.3 15.8984 7.5 15.9984 7.7C16.0984 7.9 16.2984 8 16.3984 8.2C16.4984 8.3 16.5984 8.5 16.6984 8.6C16.2984 8.6 16.0984 8.7 15.8984 8.7Z" fill="white"/>
</svg>
