<svg width="24" height="24" viewBox="0 0 24 24" fill="none" xmlns="http://www.w3.org/2000/svg">
<path fill-rule="evenodd" clip-rule="evenodd" d="M8.10431 11L5.9508 7.27002L4.21875 8.27002L7 12.9973V13H7.00158H15.7883L17.7648 16.4234L19.4968 15.4234L17.0007 11L17 11.0005V11H8.10431Z" fill="#00EDB6"/>
<path fill-rule="evenodd" clip-rule="evenodd" d="M4.63432 7.55201L4.20836 8.28631L5.38477 10.2442L6.36432 8.55556L6.36434 8.55557L6.36842 8.54846L8.40607 5.00237L12.4959 5.01076V5.01078L12.5051 5.01076L15.5943 5.00293L17.6316 8.54846L17.6316 8.54847L17.6357 8.55556L19.6879 12.0933L19.2055 12.9247L20.3589 14.9224L22 12.0933L19.3657 7.55201L16.75 3L12.5 3.01076L7.25 3L4.63432 7.55201ZM19.7811 15.9183L18.6278 13.9207L17.6428 15.6187L15.6185 18.9971L12.5051 18.9892V18.9892L12.4959 18.9892L8.38179 18.9977L6.35721 15.6187L4.31214 12.0933L4.81172 11.2321L3.63531 9.27419L2 12.0933L4.63432 16.6345L7.25 21L12.5 20.9892L16.75 21L19.3657 16.6345L19.7811 15.9183Z" fill="#00EDB6"/>
</svg>
