<svg width="25" height="20" viewBox="0 0 25 20" fill="none" xmlns="http://www.w3.org/2000/svg">
<path d="M4.9 10C3.3 8.40002 1.6 6.80002 0 5.10002C0.1 5.10002 0.1 5.10002 0.2 5.10002C1.3 5.10002 2.3 5.10002 3.4 5.10002C3.5 5.10002 3.6 5.10002 3.6 5.00002C5.1 2.50002 7.3 0.900015 10.2 0.200015C11 0.100015 11.9 1.51061e-05 12.8 0.100015C14.4 0.200015 15.9 0.600015 17.2 1.40002C19.6 2.80002 21.2 4.90002 21.9 7.70002C22.1 8.40002 22.2 9.10002 22.2 9.80002V9.90001C22.2 9.80001 22.1 9.80002 22.1 9.80002C20.5 8.20002 19 6.50002 17.4 5.00002C16.2 3.70002 14.6 3.00001 12.9 2.80001C9.2 2.40001 5.7 5.00002 5 8.70002C4.9 9.10002 4.9 9.50001 4.9 9.90001V10Z" fill="white"/>
<path d="M19.4992 10.1001C21.0992 11.7001 22.6992 13.3001 24.2992 14.9001H24.1992C23.1992 14.9001 22.0992 14.9001 21.0992 14.9001C20.9992 14.9001 20.8992 14.9001 20.7992 15.0001C19.3992 17.3001 17.4992 18.8001 14.8992 19.6001C14.2992 19.8001 13.6992 19.9001 13.0992 19.9001C12.4992 20.0001 11.8992 20.0001 11.3992 19.9001C9.79922 19.8001 8.29922 19.3001 6.99922 18.5001C5.49922 17.6001 4.29922 16.4001 3.49922 14.8001C2.99922 13.8001 2.59922 12.8001 2.39922 11.7001C2.29922 11.2001 2.29922 10.7001 2.19922 10.1001L2.29922 10.2001C3.79922 11.8001 5.39922 13.4001 6.89922 14.9001C7.99922 16.0001 9.29922 16.7001 10.7992 17.0001C11.3992 17.1001 11.9992 17.2001 12.6992 17.1001C14.0992 17.0001 15.3992 16.5001 16.4992 15.7001C17.9992 14.5001 18.9992 13.0001 19.3992 11.1001C19.4992 11.0001 19.4992 10.6001 19.4992 10.1001Z" fill="#00D3FE"/>
<path d="M12.2992 13.9002C12.3992 13.8002 12.3992 13.8002 12.4992 13.7002C12.8992 13.2002 12.6992 12.4002 11.9992 12.2002C11.8992 12.2002 11.7992 12.1002 11.7992 12.0002C11.5992 11.7002 11.3992 11.5002 10.9992 11.5002C10.8992 11.5002 10.7992 11.4002 10.7992 11.4002C10.5992 11.1002 10.2992 11.0002 9.99922 11.0002C9.89922 11.0002 9.89922 11.0002 9.79922 10.9002C9.59922 10.7002 9.39922 10.5002 9.09922 10.5002C8.89922 10.5002 8.69922 10.5002 8.59922 10.6002C8.49922 10.6002 8.39922 10.7002 8.29922 10.8002H8.19922V10.7002C8.29922 10.4002 8.39922 10.1002 8.49922 9.9002C8.69922 9.3002 8.99922 8.6002 9.19922 8.0002C9.19922 7.9002 9.29922 7.9002 9.39922 7.9002C9.89922 7.8002 10.3992 7.7002 10.9992 7.7002H11.0992C10.9992 7.7002 10.9992 7.8002 10.9992 7.8002C10.6992 8.0002 10.4992 8.2002 10.1992 8.4002C9.89922 8.4002 9.79922 8.5002 9.69922 8.7002C9.59922 8.8002 9.59922 8.9002 9.49922 9.0002C9.39922 9.2002 9.49922 9.3002 9.59922 9.5002C9.79922 9.8002 10.0992 10.0002 10.4992 10.0002C10.6992 10.0002 10.9992 10.0002 11.1992 9.9002C11.4992 9.8002 11.7992 9.6002 12.0992 9.5002C12.4992 9.3002 12.3992 9.3002 12.6992 9.6002C13.1992 10.0002 13.6992 10.4002 14.2992 10.8002C14.5992 11.1002 14.9992 11.3002 15.3992 11.6002C15.4992 11.7002 15.5992 11.7002 15.6992 11.8002C15.8992 12.0002 15.7992 12.2002 15.6992 12.3002C15.5992 12.4002 15.4992 12.4002 15.3992 12.3002C15.2992 12.3002 15.2992 12.2002 15.1992 12.2002C15.0992 12.2002 15.0992 12.2002 14.9992 12.2002C14.8992 12.2002 14.8992 12.3002 14.9992 12.3002C14.9992 12.4002 15.0992 12.5002 14.9992 12.6002C14.9992 12.8002 14.7992 12.9002 14.5992 12.9002C14.4992 12.9002 14.3992 12.8002 14.2992 12.7002C14.2992 12.7002 14.2992 12.7002 14.1992 12.6002H14.0992C13.9992 12.6002 13.9992 12.7002 14.0992 12.7002V12.8002C14.1992 12.9002 14.1992 13.1002 14.0992 13.2002C13.9992 13.4002 13.7992 13.4002 13.6992 13.4002C13.5992 13.4002 13.4992 13.3002 13.3992 13.2002C13.3992 13.2002 13.3992 13.2002 13.2992 13.1002C13.1992 13.1002 13.1992 13.1002 13.0992 13.1002C13.0992 13.1002 13.0992 13.2002 13.0992 13.3002C13.0992 13.4002 13.1992 13.4002 13.1992 13.5002C13.2992 13.8002 13.0992 14.0002 12.7992 14.0002C12.4992 14.1002 12.3992 14.0002 12.2992 13.9002Z" fill="#00D3FE"/>
<path d="M15.8984 10.8999C15.7984 10.8999 15.6984 10.9999 15.5984 11.0999C15.4984 10.9999 15.2984 10.8999 15.1984 10.7999C14.4984 10.2999 13.6984 9.6999 12.9984 9.1999C12.9984 8.9999 12.8984 8.9999 12.7984 8.8999C12.5984 8.7999 12.3984 8.7999 12.1984 8.8999C12.0984 8.8999 11.8984 8.9999 11.7984 9.0999C11.4984 9.1999 11.2984 9.2999 10.9984 9.3999C10.7984 9.4999 10.5984 9.4999 10.4984 9.4999C10.3984 9.4999 10.1984 9.3999 10.0984 9.2999C9.99844 9.1999 9.99844 9.1999 10.0984 9.0999C10.1984 8.9999 10.1984 8.8999 10.2984 8.7999C10.4984 8.5999 10.7984 8.3999 10.9984 8.1999C11.1984 8.0999 11.3984 7.8999 11.5984 7.7999C11.6984 7.6999 11.7984 7.6999 11.8984 7.5999C12.0984 7.4999 12.2984 7.4999 12.4984 7.5999C13.2984 7.8999 14.0984 8.0999 14.8984 8.3999C14.9984 8.3999 14.9984 8.3999 14.9984 8.4999C15.2984 9.2999 15.5984 10.0999 15.8984 10.8999C15.8984 10.8999 15.8984 10.7999 15.8984 10.8999Z" fill="white"/>
<path d="M10.7008 13.0999C10.5008 13.0999 10.4008 13.1999 10.2008 13.1999C10.0008 13.1999 9.90078 13.1999 9.80078 13.0999C9.60078 12.9999 9.60078 12.7999 9.70078 12.6999C9.60078 12.6999 9.50078 12.7999 9.40078 12.7999C9.10078 12.7999 8.80078 12.6999 8.70078 12.4999C8.60078 12.3999 8.60078 12.2999 8.80078 12.0999H8.70078C8.60078 12.0999 8.50078 12.0999 8.40078 11.9999C8.30078 11.9999 8.20078 11.8999 8.20078 11.8999C8.00078 11.6999 8.00078 11.4999 8.20078 11.3999C8.40078 10.9999 8.60078 10.9999 8.80078 10.8999C8.90078 10.8999 9.00078 10.8999 9.20078 10.8999C9.40078 10.9999 9.50078 11.0999 9.50078 11.2999C9.50078 11.3999 9.50078 11.3999 9.50078 11.4999C9.60078 11.4999 9.80078 11.3999 9.90078 11.3999C10.2008 11.2999 10.4008 11.4999 10.5008 11.6999C10.6008 11.7999 10.5008 11.9999 10.4008 12.0999H10.5008C10.6008 12.0999 10.7008 11.9999 10.8008 11.9999C11.0008 11.9999 11.2008 12.0999 11.3008 12.2999C11.4008 12.3999 11.3008 12.4999 11.3008 12.6999C11.4008 12.6999 11.5008 12.6999 11.5008 12.5999C11.7008 12.5999 11.8008 12.5999 12.0008 12.6999C12.1008 12.7999 12.2008 12.8999 12.1008 13.0999C12.1008 13.1999 12.0008 13.1999 12.0008 13.2999C11.8008 13.4999 11.5008 13.5999 11.2008 13.5999C10.8008 13.6999 10.6008 13.4999 10.7008 13.0999Z" fill="white"/>
<path d="M7.60078 7C8.00078 7.1 8.30078 7.2 8.70078 7.3C8.30078 8.4 7.90078 9.5 7.50078 10.6C7.30078 10.5 7.00078 10.4 6.80078 10.4C7.00078 9.3 7.30078 8.1 7.60078 7Z" fill="#00D3FE"/>
<path d="M16.6984 11.1C16.2984 10 15.8984 8.9 15.3984 7.8C15.7984 7.7 16.0984 7.6 16.3984 7.5C16.6984 8.6 16.9984 9.7 17.2984 10.8C17.1984 10.9 16.9984 11 16.6984 11.1Z" fill="white"/>
</svg>
