<svg width="24" height="24" viewBox="0 0 24 24" fill="none" xmlns="http://www.w3.org/2000/svg">
<path d="M5.44638 3.27C5.71571 3.09 5.98504 3 6.25436 3H15.0524C15.591 3 16.1297 3.27 16.399 3.72L20.798 11.19C21.0673 11.73 21.0673 12.18 20.798 12.72L16.399 20.19C16.1297 20.73 15.591 21 15.0524 21H6.25436C5.98504 21 5.71571 20.91 5.44638 20.73C5.26683 20.55 4.99751 20.37 4.90773 20.19L3.202 17.4C2.93267 16.95 2.93267 16.5 3.202 16.14L5.17706 12.72C5.35661 12.45 5.35661 12.18 5.35661 12C5.35661 11.82 5.26683 11.46 5.08728 11.28L3.202 7.86C2.93267 7.41 2.93267 6.96 3.202 6.6L4.90773 3.81C4.99751 3.63 5.17706 3.36 5.44638 3.27ZM8.13965 16.41C8.3192 16.5 8.58853 16.59 8.85786 16.59H12.4489C12.9875 16.59 13.5262 16.32 13.7955 15.87L15.6808 12.81C15.9501 12.27 15.9501 11.82 15.6808 11.28L13.7955 8.13C13.5262 7.59 12.9875 7.41 12.4489 7.41H8.85786C8.58853 7.32 8.3192 7.41 8.13965 7.5L10.384 11.28C10.6534 11.82 10.6534 12.27 10.384 12.81L8.13965 16.41Z" fill="#00F8D8"/>
</svg>
