<svg width="16" height="16" viewBox="0 0 16 16" fill="none" xmlns="http://www.w3.org/2000/svg">
<path d="M1 12.871L5.21783 1.7002L7.09566 5.44693H8.84611L10.7858 1.7002L15 12.871L12.3507 11.6537L10.7858 12.0119L9.49025 13.5837L8.00182 14.3002L6.49883 13.5837L5.23603 12.0119L3.7112 11.6537L1 12.871Z" fill="#852803"/>
<path d="M3.2653 8.56006L2.08984 11.6352L3.64742 10.9255L5.71085 11.4751L3.2653 8.56006Z" fill="white"/>
<path d="M12.7232 8.56006L13.9023 11.6352L12.341 10.9255L10.2812 11.4751L12.7232 8.56006Z" fill="white"/>
<path d="M3.26562 8.56003L5.29266 3.20312L6.76653 6.04898H9.25211L10.6823 3.20312L12.7239 8.56003L9.08834 13.0435L8.0075 12.2502L6.91574 13.0435L3.26562 8.56003Z" fill="#FF7300"/>
<path d="M6.91016 6.46729H9.06092L8.0092 9.16029L6.91016 6.46729Z" fill="#FF6800"/>
<path d="M6.23887 6.04144H4.70312L5.34726 4.36377L6.23887 6.04144Z" fill="#FF6800"/>
<path d="M11.3053 6.04144H9.76953L10.6684 4.36377L11.3053 6.04144Z" fill="#FF6800"/>
<path d="M9.77214 8.56006H10.54L10.227 9.12777L9.0625 10.0012V9.36796L9.77214 8.56006Z" fill="#852803"/>
<path d="M6.23271 8.56006H5.46484L5.77781 9.12777L6.94236 10.0012V9.36796L6.23271 8.56006Z" fill="#852803"/>
</svg>
