<svg width="21" height="16" viewBox="0 0 21 16" fill="none" xmlns="http://www.w3.org/2000/svg">
<path d="M6.20039 0C4.30039 2.1 2.40039 4.3 0.400391 6.4C2.70039 9.4 4.90039 12.3 7.20039 15.3H21.0004V0H6.20039ZM18.2004 3.6C17.8004 3.6 17.4004 3.6 17.0004 3.6C16.7004 3.6 16.4004 3.8 16.4004 4.1C16.4004 4.5 16.4004 5 16.4004 5.4H17.8004V7.2H16.4004V7.5C16.4004 8.5 16.4004 9.6 16.4004 10.6C16.4004 11.5 16.4004 12.5 16.4004 13.4H13.9004V7.2H11.0004C11.0004 8.4 11.0004 9.5 11.0004 10.6C11.0004 11.2 11.4004 11.6 12.0004 11.6C12.3004 11.6 12.5004 11.6 12.8004 11.6V13.4H10.3004C9.90039 13.3 9.60039 13.1 9.40039 12.8C9.00039 12.3 8.80039 11.7 8.80039 11C8.80039 9.8 8.80039 8.6 8.80039 7.4V7.1H7.70039V5.3H8.80039V4C9.50039 3.9 10.2004 3.8 11.0004 3.6V5.4H13.9004C13.9004 5 14.0004 4.6 14.0004 4.2C14.2004 3.1 14.4004 2.6 14.9004 2.2C14.9004 2.2 15.4004 1.7 16.2004 1.7H18.2004V3.6Z" fill="white"/>
</svg>
