<svg width="16" height="16" viewBox="0 0 16 16" fill="none" xmlns="http://www.w3.org/2000/svg">
<path fill-rule="evenodd" clip-rule="evenodd" d="M13 8H15V15H13V8ZM8 15H13V16H8V15ZM12 15H14V16H12V15ZM8 10H12V13H8V10ZM8 13H11V14H8V13ZM12 8H13V9H12V8ZM13 5H14V8H13V5ZM8 3H9V8H8V3ZM9 6H12V8H9V6ZM9 4H10V6H9V4ZM10 5H11V6H10V5ZM8 0H10V1H8V0ZM9 1H10V2H9V1ZM10 2H11V3H10V2ZM11 3H12V4H11V3ZM12 4H13V5H12V4ZM15 0H16V5H15V0ZM13 0H16V1H13V0ZM13 0H14V2H13V0ZM1 8H3V15H1V8ZM3 15H8V16H3V15ZM2 15H4V16H2V15ZM4 10H8V13H4V10ZM5 13H8V14H5V13ZM3 8H4V9H3V8ZM2 5H3V8H2V5ZM7 3H8V8H7V3ZM4 6C4 6 5.5 6 7 6C7 8 7 8 7 8H4V6ZM6 4H7V6H6V4ZM5 5H6V6H5V5ZM6 0H8V1H6V0ZM6 1H7V2H6V1ZM5 2H6V3H5V2ZM4 3H5V4H4V3ZM3 4H4V5H3V4ZM0 0H1V5H0V0ZM0 0H3V1H0V0ZM2 0H3V2H2V0Z" fill="white"/>
</svg>
