<svg width="20" height="19" viewBox="0 0 20 19" fill="none" xmlns="http://www.w3.org/2000/svg">
<path d="M20 15.5001C20 15.6001 20 15.8001 20 15.9C20 16 20 16.2 19.9 16.3C19.6 17.3 19 18 18 18.3C17 18.6 16.1 18.3001 15.4 17.5001C15.3 17.4001 15.3 17.4001 15.1 17.4001C11.7 17.4001 8.3 17.4001 4.9 17.4001C4.8 17.4001 4.7 17.4001 4.6 17.5001C3.9 18.2001 3 18.5 2 18.3C1 18.1 0.4 17.4001 0.0999999 16.5001C0.0999999 16.3001 0 16.1001 0 16.0001C0 15.8001 0 15.7001 0 15.5001C0 15.5001 0 15.5 0 15.4C0.2 14.3 0.8 13.5001 1.8 13.2001C2.9 12.9001 3.8 13.2001 4.6 14.0001C4.7 14.1001 4.7 14.1001 4.8 14.1001C8.2 14.1001 11.6 14.1001 15.1 14.1001C15.2 14.1001 15.3 14.1001 15.3 14.0001C16 13.2001 16.9 12.9001 17.9 13.2001C18.9 13.4001 19.5 14.1001 19.8 15.1001C19.9 15.2001 20 15.3001 20 15.5001ZM3.7 17.4001C3.4 17.4001 3.1 17.4001 2.8 17.4001C2.7 17.4001 2.5 17.4001 2.4 17.4001C1.5 17.3001 0.9 16.4001 1 15.5001C1.1 14.7001 1.8 14.1001 2.6 14.2001C2.9 14.2001 3.2 14.2001 3.6 14.2001H3.7C2.9 13.6001 1.7 13.7001 1 14.6001C0.3 15.4001 0.4 16.6001 1.2 17.4001C2 17.9001 3.1 17.8001 3.7 17.4001ZM16.2 17.4001C17 18.0001 18.2 17.8001 18.8 17.0001C19.6 16.1001 19.4 14.8001 18.5 14.1001C17.8 13.5001 16.7 13.6001 16.2 14.1001C16.6 14.1001 17 14.1001 17.3 14.1001C17.8 14.1001 18.1 14.3001 18.4 14.6001C18.8 15.0001 18.9 15.5001 18.8 16.0001C18.7 16.7001 18 17.3 17.2 17.3C17 17.4 16.6 17.4001 16.2 17.4001Z" fill="white"/>
<path d="M20 8.79956C20 8.89956 20 9.09956 20 9.19956C20 9.29956 20 9.39956 20 9.39956C19.8 10.4996 19.2 11.1996 18.1 11.4996C17 11.7996 16.1 11.4996 15.4 10.6996C15.3 10.5996 15.3 10.5996 15.2 10.5996C11.8 10.5996 8.3 10.5996 4.9 10.5996C4.8 10.5996 4.8 10.5996 4.7 10.6996C4 11.3996 3.2 11.6996 2.2 11.4996C1.2 11.2996 0.6 10.6996 0.2 9.79956C0.1 9.59956 0 9.39956 0 9.19956C0 8.99956 0 8.89956 0 8.69956V8.59956C0.1 7.99956 0.3 7.49956 0.8 6.99956C1.9 5.89956 3.6 5.99956 4.6 7.19956C4.7 7.29956 4.7 7.29956 4.8 7.29956C8.2 7.29956 11.6 7.29956 15 7.29956C15.1 7.29956 15.2 7.29956 15.2 7.19956C15.9 6.39956 16.8 6.09956 17.8 6.39956C18.8 6.59956 19.4 7.29956 19.7 8.19956C19.9 8.39956 20 8.59956 20 8.79956ZM3.8 7.29956C3.1 6.79956 1.9 6.79956 1.2 7.59956C0.4 8.49956 0.5 9.69956 1.5 10.4996C2.3 11.0996 3.3 10.9996 3.8 10.5996C3.4 10.5996 3.1 10.5996 2.7 10.5996C2.3 10.5996 1.9 10.3996 1.6 10.1996C1.2 9.79956 1 9.29956 1.1 8.69956C1.2 7.89956 2 7.29956 2.7 7.29956C3.1 7.29956 3.4 7.29956 3.8 7.29956ZM16.3 10.5996C17.2 11.1996 18.4 10.9996 19 10.0996C19.6 9.29956 19.5 8.09956 18.6 7.29956C17.9 6.69956 16.8 6.79956 16.3 7.19956C16.6 7.19956 16.8 7.19956 17.1 7.19956C17.3 7.19956 17.5 7.19956 17.6 7.19956C18.2 7.29956 18.6 7.59956 18.8 8.09956C19 8.49956 19 8.99956 18.8 9.39956C18.6 9.99956 18 10.3996 17.4 10.3996C17 10.5996 16.6 10.5996 16.3 10.5996Z" fill="white"/>
<path d="M0 2.9C0 2.7 0 2.6 0 2.4C0 2.4 0 2.4 0 2.3C0.1 1.3 0.7 0.6 1.6 0.2C1.9 0.1 2.1 0.1 2.3 0C2.6 0 2.8 0 3 0C3.7 0.1 4.2 0.4 4.7 0.9C4.7 1 4.8 1 4.8 1C8.2 1 11.7 1 15.1 1C15.2 1 15.2 1 15.3 0.9C15.6 0.5 16 0.3 16.5 0.0999999C16.7 0.0999999 16.9 0 17 0C17.2 0 17.4 0 17.6 0H17.7C18.8 0.2 19.7 1 19.9 2C19.9 2.1 19.9 2.3 20 2.4C20 2.5 20 2.7 20 2.8C20 2.9 20 3 20 3C19.8 4.1 19.2 4.8 18.1 5.2C17.1 5.5 16.1 5.2 15.4 4.4C15.3 4.3 15.2 4.3 15.1 4.3C11.7 4.3 8.3 4.3 4.9 4.3C4.8 4.3 4.7 4.3 4.7 4.4C3.3 5.9 0.9 5.4 0.2 3.5C0.1 3.3 0.1 3.1 0 2.9ZM3.8 1C2.9 0.4 1.7 0.6 1.1 1.4C0.4 2.3 0.5 3.6 1.4 4.2C2.1 4.8 3.2 4.7 3.7 4.3C3.3 4.3 2.9 4.3 2.5 4.3C2 4.3 1.7 4 1.4 3.7C1.1 3.3 1 2.8 1.1 2.3C1.2 1.9 1.4 1.6 1.7 1.3C2 1.1 2.4 1 2.8 1C3.1 1 3.4 1 3.8 1ZM16.3 1C16.7 1 17.1 1 17.5 1C17.9 1 18.2 1.2 18.5 1.4C18.9 1.7 19 2.2 19 2.7C19 3.1 18.8 3.5 18.5 3.8C18.2 4.2 17.7 4.3 17.3 4.3C17 4.3 16.7 4.3 16.3 4.3C17 4.8 18.1 4.8 18.8 4.1C19.6 3.3 19.6 2.2 19 1.4C18.3 0.6 17.1 0.4 16.3 1Z" fill="white"/>
</svg>
