<svg width="21" height="20" viewBox="0 0 21 20" fill="none" xmlns="http://www.w3.org/2000/svg">
<path d="M2.9002 12.8998C2.7002 12.7998 2.6002 12.6998 2.4002 12.4998C2.1002 12.1998 1.7002 11.7998 1.4002 11.3998C0.800195 10.5998 0.800195 9.69982 1.4002 8.89982C1.7002 8.49982 2.0002 8.19982 2.4002 7.89982C2.6002 7.79982 2.8002 7.69982 3.0002 7.49982C2.4002 7.09982 1.8002 6.69982 1.5002 5.99982C1.7002 5.99982 1.8002 5.99982 2.0002 5.99982C3.0002 6.19982 4.0002 6.39982 5.0002 6.59982C5.2002 6.59982 5.4002 6.69982 5.5002 6.79982C6.0002 7.29982 6.60019 7.49982 7.20019 7.69982C8.10019 7.79982 9.0002 7.79982 9.9002 7.49982C10.3002 7.29982 10.7002 7.09982 10.9002 6.69982C11.0002 6.59982 11.2002 6.49982 11.3002 6.39982C12.3002 5.99982 13.2002 5.69982 14.2002 5.39982C14.5002 5.29982 14.8002 5.29982 15.0002 5.29982C15.8002 5.29982 16.5002 5.19982 17.2002 4.79982C17.5002 4.59982 17.9002 4.39982 18.1002 4.19982C18.5002 3.79982 18.5002 3.29982 18.1002 2.89982C17.8002 2.59982 17.5002 2.39982 17.2002 2.29982C15.5002 1.59982 13.7002 1.59982 12.0002 2.29982C11.4002 2.49982 10.8002 2.89982 10.7002 3.69982C9.9002 3.99982 9.20019 4.49982 8.40019 4.99982C8.10019 5.09982 7.9002 5.09982 7.6002 5.09982C6.8002 5.29982 6.1002 5.19982 5.3002 5.09982C4.1002 4.79982 2.8002 4.59982 1.6002 4.39982C1.4002 4.39982 1.3002 4.29982 1.1002 4.29982C1.1002 3.69982 1.5002 3.29982 1.8002 2.89982C2.4002 2.19982 3.1002 1.69982 4.0002 1.39982C5.5002 0.699824 7.1002 0.399824 8.8002 0.199824C10.9002 -0.100176 13.0002 -0.000176013 15.1002 0.399824C16.3002 0.599824 17.4002 0.999824 18.5002 1.59982C19.2002 1.99982 19.8002 2.39982 20.3002 2.99982C21.2002 4.09982 21.2002 5.29982 20.3002 6.29982C19.9002 6.69982 19.5002 7.09982 19.0002 7.49982C19.1002 7.59982 19.3002 7.69982 19.4002 7.79982C19.7002 8.09982 20.1002 8.29982 20.3002 8.69982C21.1002 9.69982 21.1002 10.7998 20.3002 11.6998C19.9002 12.0998 19.5002 12.4998 19.1002 12.8998C19.2002 12.9998 19.3002 13.0998 19.5002 13.1998C19.8002 13.3998 20.1002 13.5998 20.3002 13.8998C21.2002 14.8998 21.2002 16.0998 20.3002 17.1998C19.8002 17.6998 19.2002 18.0998 18.6002 18.3998C17.0002 19.1998 15.3002 19.5998 13.6002 19.7998C11.9002 19.9998 10.2002 19.9998 8.40019 19.7998C6.50019 19.5998 4.7002 19.1998 3.0002 18.1998C2.5002 17.8998 2.1002 17.4998 1.7002 17.0998C0.800195 16.0998 0.800195 14.8998 1.7002 13.8998C2.0002 13.5998 2.4002 13.2998 2.9002 12.8998ZM18.0002 8.09982C13.4002 9.79982 8.80019 9.79982 4.1002 8.09982C4.1002 8.39982 4.1002 8.69982 4.1002 8.99982C4.1002 9.79982 4.40019 10.4998 5.10019 10.9998C5.70019 11.2998 6.3002 11.6998 6.9002 11.8998C9.5002 12.6998 12.2002 12.7998 14.9002 11.9998C15.8002 11.7998 16.7002 11.3998 17.4002 10.7998C17.8002 10.4998 18.1002 9.99982 18.1002 9.49982C18.0002 8.99982 18.0002 8.59982 18.0002 8.09982ZM4.0002 13.4998C4.0002 13.8998 4.0002 14.1998 4.0002 14.3998C4.0002 15.1998 4.3002 15.7998 4.9002 16.1998C5.5002 16.5998 6.10019 16.8998 6.70019 17.0998C9.10019 17.8998 11.6002 17.8998 14.0002 17.3998C15.0002 17.1998 15.9002 16.8998 16.8002 16.2998C17.9002 15.5998 18.2002 14.6998 17.8002 13.3998C13.3002 15.0998 8.7002 15.0998 4.0002 13.4998Z" fill="white"/>
<path d="M14.7004 4.79939C14.1004 4.69939 13.6004 4.69939 13.2004 4.49939C13.0004 4.39939 12.7004 4.29939 12.5004 4.19939C11.7004 3.79939 11.7004 3.09939 12.5004 2.69939C12.7004 2.59939 12.9004 2.49939 13.1004 2.39939C14.2004 2.09939 15.3004 2.09939 16.3004 2.49939C16.7004 2.69939 17.2004 2.89939 17.2004 3.39939C17.2004 3.89939 16.7004 4.19939 16.3004 4.29939C15.8004 4.59939 15.2004 4.69939 14.7004 4.79939ZM14.6004 2.59939C14.1004 2.59939 13.5004 2.69939 13.1004 2.89939C12.9004 2.99939 12.6004 3.19939 12.6004 3.49939C12.6004 3.79939 12.8004 3.99939 13.0004 4.09939C14.0004 4.59939 15.0004 4.59939 16.1004 4.09939C16.3004 3.99939 16.6004 3.79939 16.6004 3.49939C16.6004 3.19939 16.4004 2.99939 16.2004 2.89939C15.6004 2.59939 15.1004 2.49939 14.6004 2.59939Z" fill="white"/>
<path d="M6.2002 6.89991C6.8002 6.99991 7.1002 7.09991 7.5002 7.09991C8.1002 7.19991 8.7002 7.19991 9.3002 6.99991C9.5002 6.89991 9.8002 6.79991 9.8002 6.39991C9.8002 6.09991 9.6002 5.99991 9.3002 5.89991C8.9002 5.79991 8.5002 5.69991 8.2002 5.59991C8.0002 5.59991 7.8002 5.49991 7.7002 5.39991C8.5002 5.29991 9.3002 5.29991 10.0002 5.79991C10.5002 6.09991 10.5002 6.59991 10.0002 6.89991C10.0002 6.99991 10.0002 6.99991 9.9002 7.09991C9.1002 7.59991 7.0002 7.69991 6.2002 6.89991Z" fill="white"/>
</svg>
