<svg width="16" height="23" viewBox="0 0 16 23" fill="none" xmlns="http://www.w3.org/2000/svg">
<path d="M15.7 3.4C14.4 3.4 13 3.3 11.8 2.9C10.9 2.6 10 2.3 9.2 1.7C8.7 1.3 8.3 0.8 8.1 0.2C8 0.1 8 0.1 8 0C8 0 8 0 7.9 0C7.7 0.8 7.2 1.3 6.6 1.8C5.8 2.4 4.8 2.7 3.8 3C2.7 3.3 1.4 3.4 0.2 3.4C0.0999998 3.4 0.1 3.4 0 3.4C0 3.5 0 3.5 0 3.6C0 7 0 10.4 0 13.8C0 15.2 0.5 16.4 1.4 17.5C2.1 18.3 2.9 18.9 3.8 19.5C4.9 20.2 6 20.8 7.1 21.5C7.4 21.7 7.6 21.9 7.9 22.1C8 22.1 8 22.1 8.1 22.1C8.5 21.9 8.8 21.6 9.2 21.4C10.3 20.7 11.5 20 12.6 19.3C13.6 18.7 14.4 18 15.1 17C15.6 16.2 16 15.4 16 14.4C16 14.2 16 14 16 13.8C16 10.4 16 7 16 3.6C16 3.5 16 3.5 16 3.4C15.9 3.4 15.8 3.4 15.7 3.4ZM8 5C9.1 5 10 5.9 10 7C10 8.1 9.1 9 8 9C6.9 9 6 8.1 6 7C6 5.9 6.9 5 8 5ZM4 13C2.9 13 2 12.1 2 11C2 9.9 2.9 9 4 9C5.1 9 6 9.9 6 11C6 12.1 5.1 13 4 13ZM8 17C6.9 17 6 16.1 6 15C6 13.9 6.9 13 8 13C9.1 13 10 13.9 10 15C10 16.1 9.1 17 8 17ZM12 13C10.9 13 10 12.1 10 11C10 9.9 10.9 9 12 9C13.1 9 14 9.9 14 11C14 12.1 13.1 13 12 13Z" fill="white"/>
</svg>
