<svg width="20" height="20" viewBox="0 0 20 20" fill="none" xmlns="http://www.w3.org/2000/svg">
<path d="M19.9592 9.10759C19.3708 8.89858 18.3011 8.6112 18.3011 8.6112C18.3011 8.6112 16.0814 8.6112 14.664 8.6112C13.8617 6.913 13.0327 5.18867 12.2304 3.49048H8.51303C7.60376 5.42381 6.72123 7.30489 5.8387 9.15985C4.8492 9.2121 4.02015 9.26435 3.16437 9.29048C3.03065 9.29048 2.92368 9.2121 2.81671 9.18597C2.78996 9.10759 2.76322 9.08147 2.76322 9.02921C3.27134 5.60669 6.42705 2.34093 9.8502 1.68777C10.1444 1.63552 10.4653 1.60939 10.7595 1.66165C13.6478 2.00129 15.1186 3.54273 16.1349 5.89408C16.2953 6.23372 16.4291 6.59949 16.5628 6.88687C17.6593 7.12201 18.1941 7.30489 18.622 7.38327C18.9964 7.27877 19.2639 7.20039 19.7452 7.04363C19.3708 4.48327 17.6058 2.2103 15.0919 0.90399C13.2199 -0.0365511 11.2676 -0.0888036 9.2351 0.0679532C3.56552 0.459845 -0.205291 5.34543 0.00865609 9.94363C0.0888861 11.4067 -0.20529 11.877 1.90743 11.7463C2.52253 11.7202 3.13763 11.6418 3.77947 11.5896C4.02015 11.5634 4.28759 11.6157 4.66199 11.6157C4.36782 12.3472 4.12713 12.9743 3.83295 13.6535C4.2341 13.9671 4.60851 14.2806 4.95617 14.5418C5.73173 14.4373 6.42705 14.3328 7.12238 14.2283C7.6305 13.2094 8.11188 12.2166 8.62001 11.2499C9.26185 11.1977 9.8502 11.1193 10.4118 11.0671C11.0269 11.0148 11.642 10.9887 12.1769 10.9364C13.0059 12.2689 13.514 13.2878 13.7012 13.4184C14.0222 13.4968 14.5838 13.6274 15.5198 13.7319C13.7815 16.0833 11.5083 17.5202 8.53978 17.3896C6.15962 17.2851 4.2341 16.3445 3.21786 13.9409C2.49579 12.2689 2.38881 12.5824 0.597009 12.8698C1.18536 16.2923 5.8387 20.6292 11.0536 19.9238C16.6163 19.2707 20.4406 14.1761 19.9592 9.10759ZM9.44905 9.15985L10.0107 7.56615L10.492 7.59228L11.1606 9.15985H9.44905ZM15.9744 12.3734L15.3326 11.0409V10.9887H16.5093L15.9744 12.3734Z" fill="white"/>
</svg>
