<?xml version="1.0" encoding="UTF-8"?>
<svg width="128px" height="128px" viewBox="0 0 128 128" version="1.1" xmlns="http://www.w3.org/2000/svg" xmlns:xlink="http://www.w3.org/1999/xlink">
    <title>Group 7 Copy</title>
    <g id="Page-1" stroke="none" stroke-width="1" fill="none" fill-rule="evenodd">
        <g id="Artboard" transform="translate(-104.000000, 0.000000)">
            <g id="Group-3" transform="translate(104.000000, 0.000000)">
                <g id="Group-7-Copy">
                    <rect id="Rectangle" stroke="#156F82" stroke-width="3" fill="#1E8BA3" x="1.5" y="1.5" width="125" height="125" rx="20"></rect>
                    <path d="M108.785152,61.5743108 C108.036693,84.960567 87.8282762,107.567281 63.1291006,107.047587 C39.4278714,106.527892 18.4709951,85.4802616 19.219455,62.8735473 C19.7184283,45.723626 32.6917326,34.5501925 35.6855721,31.9517196 C35.1865989,31.1721777 33.9391657,29.613094 31.9432728,28.5737048 C29.9473798,27.2744684 27.9514868,27.0146211 26.9535403,27.0146211 C33.1907059,25.4555373 43.1701708,23.6366063 55.1455286,25.19569 C63.3785872,26.2350792 70.114726,28.8335521 75.1044584,30.9123305 C74.106512,36.1092763 72.6095922,42.6054586 69.6157528,49.8811827 C66.6219133,57.1569069 63.1291006,62.8735473 60.1352611,67.0311039 C59.3868012,65.2121729 58.3888547,63.3932418 57.1414216,61.3144635 C55.6445019,58.9758379 53.8980955,57.1569069 52.6506624,55.5978231 C49.9063096,59.7553798 46.4134969,65.4720202 43.9186306,73.2674389 C41.4237644,80.2833158 40.6753045,86.5196507 40.1763313,91.196902 C45.1660638,93.2756803 52.4011758,95.8741532 61.3826942,96.9135424 C72.110619,97.9529316 80.8426508,96.1340005 86.5808431,94.5749168 C85.5828966,93.2756803 84.3354635,91.9764439 82.5890571,90.4173601 C80.5931641,88.8582764 78.8467578,87.5590399 77.349838,86.779498 C80.3436775,84.1810251 84.5849501,80.2833158 88.5767361,74.5666754 C91.8200622,69.8894241 97.3087678,61.3144635 98.3067143,49.1016408 C99.0551742,39.2274438 96.3108214,31.1721777 94.3149284,26.4949265 C97.0592812,29.3532467 109.284126,42.6054586 108.785152,61.5743108 Z" id="Shape" fill="#FFFFFF"></path>
                </g>
            </g>
        </g>
    </g>
</svg>