<svg width="115" height="18" viewBox="0 0 115 18" fill="none" xmlns="http://www.w3.org/2000/svg">
<g clip-path="url(#clip0_1217_3827)">
<path d="M36.9908 9.17961C38.0708 9.89961 38.3408 10.9796 38.2508 12.1496C38.1608 13.4996 37.2608 14.4896 35.9108 14.7596C35.5508 14.8496 35.2808 14.8496 34.9208 14.8496C31.5008 14.8496 28.1708 14.8496 24.7508 14.8496C24.5708 14.8496 24.4808 14.8496 24.3008 14.8496C24.3008 11.1596 24.3008 7.46961 24.3008 3.68961C24.3908 3.68961 24.5708 3.59961 24.6608 3.59961C28.1708 3.59961 31.5908 3.59961 35.1008 3.59961C36.6308 3.59961 37.7108 4.58961 37.9808 6.02961C38.1608 7.10961 37.9808 8.00961 37.1708 8.81961C37.1708 8.99961 37.0808 9.08961 36.9908 9.17961ZM35.1908 6.29961C32.4908 6.29961 29.7008 6.29961 26.8208 6.29961C26.8208 6.74961 26.8208 7.10961 26.8208 7.37961C26.8208 7.55961 26.8208 7.73961 26.9108 7.91961C29.7008 7.91961 32.4908 7.91961 35.1908 7.91961C35.5508 7.37961 35.5508 6.92961 35.1908 6.29961ZM35.4608 10.7096C34.8308 10.5296 27.7208 10.5296 26.9108 10.7096C26.9108 11.2496 26.9108 11.6996 26.9108 12.2396C29.7908 12.2396 32.5808 12.2396 35.3708 12.2396C35.8208 11.6996 35.8208 11.1596 35.4608 10.7096Z" fill="white"/>
<path d="M56.8825 14.8496C56.8825 14.0396 56.8825 13.1396 56.8825 12.2396C57.2425 12.2396 57.6025 12.2396 57.8725 12.2396C60.3025 12.2396 62.7325 12.2396 65.1625 12.2396C65.4325 12.2396 65.7025 12.2396 65.9725 12.2396C67.1425 12.2396 67.4125 11.7896 66.8725 10.6196C66.6025 10.6196 66.2425 10.6196 65.9725 10.6196C63.9925 10.6196 62.0125 10.5296 59.9425 10.6196C57.1525 10.7096 55.8925 8.09961 56.5225 5.93961C56.9725 4.49961 58.0525 3.59961 59.4925 3.59961C62.5525 3.59961 65.6125 3.59961 68.6725 3.59961C68.7625 3.59961 68.9425 3.59961 69.1225 3.68961C69.1225 4.49961 69.1225 5.30961 69.1225 6.29961C65.8825 6.29961 62.5525 6.29961 59.2225 6.29961C59.1325 6.65961 59.0425 6.92961 59.0425 7.19961C59.0425 7.73961 59.2225 7.91961 59.7625 8.00961C60.4825 8.00961 61.1125 8.00961 61.8325 8.00961C63.3625 8.00961 64.8925 8.09961 66.5125 8.00961C68.3125 7.91961 69.7525 9.35961 69.8425 11.5196C69.8425 13.4996 68.5825 15.0296 66.6925 15.0296C63.6325 15.0296 60.4825 15.0296 57.4225 15.0296C57.1525 14.8496 57.0625 14.8496 56.8825 14.8496Z" fill="white"/>
<path d="M101.883 14.8496C101.883 14.6696 101.793 14.4896 101.793 14.2196C101.793 13.5896 101.793 12.9596 101.793 12.2396C103.503 12.2396 105.123 12.2396 106.743 12.2396C108.363 12.2396 109.983 12.2396 111.603 12.2396C112.053 11.5196 112.053 11.5196 111.783 10.6196C111.603 10.6196 111.333 10.5296 111.063 10.5296C108.993 10.5296 106.923 10.5296 104.763 10.5296C103.323 10.5296 102.243 10.0796 101.613 8.72961C100.983 7.37961 101.073 6.02961 101.883 4.85961C102.423 4.04961 103.233 3.59961 104.223 3.59961C107.373 3.59961 110.613 3.59961 113.763 3.59961C113.853 3.59961 113.853 3.59961 114.033 3.68961C114.033 4.49961 114.033 5.30961 114.033 6.20961C113.763 6.20961 113.583 6.20961 113.313 6.20961C110.613 6.20961 107.913 6.20961 105.123 6.20961C104.763 6.20961 104.403 6.29961 103.953 6.29961C103.863 6.56961 103.773 6.74961 103.773 6.92961C103.683 7.64961 103.953 7.82961 104.673 7.82961C106.743 7.82961 108.903 7.82961 111.063 7.82961C112.413 7.82961 113.493 8.27961 114.123 9.44961C114.843 10.7096 114.753 11.9696 114.123 13.2296C113.583 14.2196 112.683 14.8496 111.513 14.8496C108.363 14.8496 105.213 14.8496 102.153 14.8496C102.063 14.8496 101.973 14.8496 101.883 14.8496Z" fill="white"/>
<path d="M97.5595 10.8898C97.5595 8.54977 97.5595 6.11977 97.5595 3.68977C98.4595 3.68977 99.2695 3.68977 100.17 3.68977C100.17 7.37977 100.17 11.0698 100.17 14.8498C99.2695 14.9398 98.4595 14.8498 97.5595 14.8498C95.3995 12.4198 93.1495 9.89977 90.8995 7.37977C90.7195 8.27977 90.8095 9.08977 90.8095 9.80977C90.8095 10.6198 90.8095 11.5198 90.8095 12.3298C90.8095 13.1398 90.8095 13.9498 90.8095 14.7598C89.9095 14.7598 89.0995 14.7598 88.3795 14.7598C88.1995 14.0398 88.1095 5.93977 88.2895 3.59977C89.0995 3.50977 89.9995 3.59977 90.8095 3.50977C92.9695 5.93977 95.2195 8.36977 97.3795 10.7998C97.4695 10.8898 97.4695 10.8898 97.5595 10.8898Z" fill="white"/>
<path d="M47.6103 6.29994C45.9003 6.29994 44.2803 6.29994 42.5703 6.29994C42.5703 5.39994 42.5703 4.58994 42.5703 3.68994C46.8003 3.68994 50.9403 3.68994 55.1703 3.68994C55.1703 4.49994 55.1703 5.30994 55.1703 6.20994C53.5503 6.20994 51.9303 6.20994 50.2203 6.20994C50.2203 9.08994 50.2203 11.9699 50.2203 14.8499C49.3203 14.8499 48.5103 14.8499 47.5203 14.8499C47.5203 12.0599 47.6103 9.17994 47.6103 6.29994Z" fill="white"/>
<path d="M80.0089 3.68994C81.2689 3.68994 82.3489 3.68994 83.6089 3.68994C82.7089 4.67994 81.8089 5.57994 80.9989 6.47994C80.1889 7.37994 79.2889 8.27994 78.3889 9.26994C80.1889 11.1599 81.9889 13.0499 83.7889 14.8499C82.7089 14.8499 81.6289 14.8499 80.5489 14.8499C78.6589 12.9599 76.7689 11.0699 74.8789 9.17994C76.5889 7.37994 78.2989 5.48994 80.0089 3.68994Z" fill="white"/>
<path d="M87.0322 14.8499C86.2222 14.8499 85.4122 14.8499 84.6022 14.8499C84.4222 14.2199 84.3322 5.03994 84.5122 3.68994C85.3222 3.68994 86.1322 3.68994 86.9422 3.68994C87.1222 4.31994 87.2122 13.5899 87.0322 14.8499Z" fill="white"/>
<path d="M39.1525 3.68994C40.0525 3.68994 40.7725 3.68994 41.5825 3.68994C41.7625 4.31994 41.7625 13.7699 41.5825 14.8499C40.7725 14.8499 39.9625 14.8499 39.0625 14.8499C39.1525 11.1599 39.1525 7.46994 39.1525 3.68994Z" fill="white"/>
<path d="M73.4423 3.68994C73.4423 7.46994 73.4423 11.1599 73.4423 14.8499C72.5423 14.8499 71.8223 14.8499 71.0123 14.8499C70.8323 14.2199 70.7423 5.03994 70.9223 3.68994C71.7323 3.68994 72.5423 3.68994 73.4423 3.68994Z" fill="white"/>
<path d="M0 3.96C0.81 2.61 1.53 1.35 2.25 0C7.74 0 13.23 0 18.63 0C19.35 1.26 20.07 2.52 20.79 3.78C18.09 8.55 15.3 13.23 12.6 18C11.07 18 9.54 18 8.01 18C5.4 13.32 2.7 8.64 0 3.96ZM13.77 8.28C12.6 10.26 11.52 12.15 10.44 14.04C10.17 13.59 9.99 13.23 9.72 12.87C9.63 12.69 9.63 12.6 9.72 12.42C10.35 11.34 11.07 10.17 11.7 9.09C11.7 9.09 11.79 9 11.7 9C10.62 9 9.54 9 8.46 9C8.28 9.27 8.1 9.54 8.01 9.81C7.92 9.72 7.92 9.72 7.92 9.63C7.02 8.28 6.3 6.84 5.49 5.49C5.4 5.4 5.4 5.4 5.31 5.4C4.23 5.4 3.24 5.4 2.25 5.4C2.25 5.4 2.16 5.4 2.07 5.4C4.32 9.27 6.48 13.05 8.73 16.92C8.82 16.92 8.82 16.92 8.91 16.92C9.81 16.92 10.8 16.92 11.7 16.92C11.97 16.92 12.06 16.83 12.24 16.65C13.86 13.77 15.48 10.89 17.19 8.1C17.64 7.29 18.09 6.48 18.63 5.67C18.72 5.58 18.72 5.49 18.81 5.4C16.02 5.4 13.32 5.4 10.62 5.4C10.44 5.13 10.35 4.95 10.26 4.68C9.18 4.68 8.1 4.68 6.93 4.68C7.65 5.85 8.28 7.02 9 8.19C10.44 8.28 12.06 8.28 13.77 8.28ZM16.2 1.17C16.11 1.17 16.11 1.17 16.11 1.17C11.79 1.17 7.38 1.17 3.06 1.17C2.97 1.17 2.88 1.17 2.88 1.26C2.34 2.16 1.89 3.06 1.35 3.87C1.35 3.87 1.26 3.96 1.35 4.05C4.68 4.05 7.92 4.05 11.34 4.05C11.16 4.32 11.07 4.5 10.98 4.77C12.06 4.77 13.23 4.77 14.31 4.77C14.94 3.51 15.57 2.34 16.2 1.17ZM19.71 3.96C19.17 2.97 18.63 2.07 18.09 1.17C18.09 1.08 18 1.08 17.91 1.08C17.64 1.08 17.37 1.08 17.1 1.08C17.01 1.08 17.01 1.08 16.92 1.17C16.38 2.07 15.84 2.97 15.39 3.87C15.39 3.87 15.3 3.96 15.39 3.96C16.83 3.96 18.27 3.96 19.71 3.96Z" fill="black"/>
<path d="M13.7703 8.28018C12.1503 8.28018 10.5303 8.28018 8.91031 8.28018C8.19031 7.02018 7.47031 5.85018 6.75031 4.68018C7.92031 4.68018 9.00031 4.68018 10.0803 4.68018C10.1703 4.86018 10.3503 5.13018 10.4403 5.40018C13.1403 5.40018 15.9303 5.40018 18.6303 5.40018C18.5403 5.49018 18.5403 5.58018 18.4503 5.67018C18.0003 6.48018 17.5503 7.29018 17.0103 8.10018C15.3003 10.9802 13.6803 13.7702 12.0603 16.6502C11.9703 16.8302 11.7903 16.9202 11.5203 16.9202C10.6203 16.9202 9.63031 16.9202 8.73031 16.9202C8.64031 16.9202 8.64031 16.9202 8.55031 16.9202C6.48031 13.0502 4.32031 9.18018 2.07031 5.40018C2.16031 5.31018 2.16031 5.40018 2.25031 5.40018C3.24031 5.40018 4.23031 5.40018 5.22031 5.40018C5.40031 5.40018 5.40031 5.40018 5.49031 5.49018C6.30031 6.84018 7.11031 8.19018 7.83031 9.63018C7.83031 9.72018 7.92031 9.72018 7.92031 9.81018C8.10031 9.54018 8.28031 9.27018 8.37031 9.00018C9.45031 9.00018 10.5303 9.00018 11.6103 9.00018C11.6103 9.09018 11.6103 9.09018 11.6103 9.09018C10.9803 10.2602 10.3503 11.3402 9.63031 12.4202C9.54031 12.6002 9.54031 12.6902 9.63031 12.8702C9.90031 13.2302 10.0803 13.5902 10.3503 14.0402C11.5203 12.0602 12.6003 10.1702 13.7703 8.28018Z" fill="#E11C2A"/>
<path d="M16.2019 1.17008C15.4819 2.34008 14.8519 3.51008 14.1319 4.68008C13.0519 4.68008 11.9719 4.68008 10.8019 4.68008C10.8919 4.50008 11.0719 4.23008 11.1619 3.96008C7.83187 3.96008 4.50187 3.96008 1.17188 3.96008C1.17188 3.87008 1.17188 3.87008 1.17188 3.78008C1.71187 2.88008 2.16187 1.98008 2.70187 1.17008C2.79187 1.08008 2.79187 1.08008 2.88187 1.08008C7.20187 1.08008 11.6119 1.08008 15.9319 1.08008C16.2019 1.08008 16.2019 1.08008 16.2019 1.17008Z" fill="#E01C2A"/>
<path d="M19.7105 3.96008C18.2705 3.96008 16.8305 3.96008 15.4805 3.96008V3.87008C16.0205 2.97008 16.5605 2.07008 17.0105 1.17008C17.0105 1.08008 17.1005 1.08008 17.1905 1.08008C17.4605 1.08008 17.7305 1.08008 18.0005 1.08008C18.0905 1.08008 18.0905 1.08008 18.1805 1.17008C18.6305 2.07008 19.1705 2.97008 19.7105 3.96008C19.7105 3.87008 19.7105 3.96008 19.7105 3.96008Z" fill="#DF1C2A"/>
</g>
<defs>
<clipPath id="clip0_1217_3827">
<rect width="114.66" height="18" fill="white"/>
</clipPath>
</defs>
</svg>
