<svg width="71" height="20" viewBox="0 0 71 20" fill="none" xmlns="http://www.w3.org/2000/svg">
<path d="M2.75782 17.2475C1.83855 18.1649 0.900925 19.1007 3.89535e-05 19.9998C-6.79926e-05 19.2473 8.83309e-05 2.78863 5.34173e-06 0.183273C6.08558 0.183273 12.0608 0.183273 18.2016 0.183273C18.2016 1.1007 18.2016 3.11905 18.2016 3.11905C18.2016 3.11905 13.4397 6.33006 10.8474 8.07318H18.3855V18.7154C18.3855 18.7154 8.73307 18.7154 3.86094 18.7154C4.68828 17.7979 5.51563 16.8805 6.4349 15.9631C9.45011 15.9631 12.5572 15.9631 15.6276 15.9631C15.6276 14.2047 15.6276 12.5654 15.6276 10.8255C15.6276 10.8255 15.4621 10.8255 15.4438 10.8255C12.4285 10.8255 9.67073 10.8255 6.61875 10.8255C6.61875 9.90804 6.61876 9.00896 6.61876 8.07318C9.13756 6.38511 11.6196 4.64199 14.1568 2.93557C13.4214 2.93557 5.88334 2.93557 2.75782 2.93557C2.75782 7.72456 2.75782 12.4768 2.75782 17.2475Z" fill="white"/>
<path d="M41.7349 0C46.1106 0 50.5415 0 54.9724 0C54.9724 0.899083 54.9724 1.98165 54.9724 2.93578C51.516 2.93578 48.0227 2.93578 44.4927 2.93578C44.4927 4.69725 44.4927 6.34862 44.4927 8.07339C46.5519 8.07339 48.703 8.07339 50.7438 8.07339C50.8362 8.07339 50.9276 8.07339 50.9276 8.07339C50.9276 8.893 50.9276 9.73087 50.9276 10.5505C50.9276 10.844 50.9276 10.8257 50.9276 10.8257C49.1442 10.8257 46.6622 10.8257 44.8604 10.8257C44.7317 10.8257 44.6582 10.8257 44.4927 10.8257C44.4927 12.9908 44.4927 15.0642 44.4927 17.0642C43.4999 18.055 42.6174 19.1193 41.7349 20C41.7533 13.4862 41.7349 6.6422 41.7349 0Z" fill="white"/>
<path d="M57.7302 0C62.106 0 66.5369 0 70.9677 0C70.9677 0.899083 70.9677 1.98165 70.9677 2.93578C67.5113 2.93578 64.0181 2.93578 60.4881 2.93578C60.4881 4.69725 60.4881 6.34862 60.4881 8.07339C62.5472 8.07339 64.6983 8.07339 66.7391 8.07339C66.8315 8.07339 66.9229 8.07339 66.9229 8.07339C66.9229 8.893 66.9229 9.73087 66.9229 10.5505C66.9229 10.844 66.9229 10.8257 66.9229 10.8257C65.1396 10.8257 62.6575 10.8257 60.8558 10.8257C60.7271 10.8257 60.6535 10.8257 60.4881 10.8257C60.4881 12.9908 60.4881 15.0642 60.4881 17.0642C59.4952 18.055 58.6127 19.1193 57.7302 20C57.7486 13.4862 57.7302 6.6422 57.7302 0Z" fill="white"/>
<path d="M35.3001 15.9633C35.3001 10.6789 35.3 5.30285 35.3 0.000102675C36.1273 -6.70289e-05 37.2308 0.000196955 38.0578 0.000196955C38.0578 0.917477 38.0578 13.9084 38.0578 18.7156C34.1049 18.7156 30.152 18.7156 26.1072 18.7156C26.9346 17.7982 27.8939 16.7492 28.6813 15.9633C30.8692 15.9633 33.0387 15.9633 35.3001 15.9633Z" fill="white"/>
<path d="M22.2464 19.9997C22.2464 13.4493 22.2464 6.7887 22.2464 0.183197C23.1473 0.183197 24.0482 0.183197 25.0042 0.183197C25.0042 5.87127 25.0042 11.5593 25.0042 17.2474C24.1033 18.1282 23.1657 19.1006 22.2464 19.9997Z" fill="white"/>
</svg>
