<svg width="108" height="18" viewBox="0 0 108 18" fill="none" xmlns="http://www.w3.org/2000/svg">
<path d="M0 8.91C0 4.05 4.05 0 9 0C13.95 0 18 3.78 18 9.09C18 13.95 14.13 18 9.09 18C3.96 18 0.09 14.04 0 8.91ZM12.87 13.95C12.87 14.04 12.78 14.04 12.78 14.04C12.69 14.13 12.69 14.13 12.6 14.13C10.62 15.03 8.55 15.12 6.48 14.31C4.95 13.68 5.22 13.68 5.31 12.42C5.31 12.33 5.31 12.24 5.31 12.15C5.49 10.71 5.94 9.36 6.93 8.19C7.2 7.83 7.47 7.83 7.74 8.19C7.92 8.46 8.19 8.73 8.46 9.09C8.64 8.91 8.82 8.82 9 8.64C9.99 7.74 10.53 6.57 10.89 5.31C11.34 3.6 11.43 3.69 9.9 2.97C7.83 1.98 5.67 2.07 3.51 2.52C3.33 2.52 3.24 2.61 3.06 2.7C3.33 2.97 3.6 3.24 4.05 3.6C3.78 3.69 3.6 3.78 3.51 3.96C1.17 6.21 0.54 9.81 1.89 12.69C3.33 15.57 6.66 17.28 9.9 16.83C13.68 16.29 16.2 13.32 16.74 10.71C17.28 7.83 16.47 5.22 14.76 2.88C14.67 2.79 14.67 2.79 14.49 2.7C15.3 6.66 15.66 10.35 11.61 12.87C12.06 13.32 12.51 13.59 12.87 13.95Z" fill="white"/>
<path d="M12.8698 13.9499C12.5098 13.5899 12.0598 13.3199 11.6098 12.9599C15.5698 10.3499 15.2998 6.65991 14.4898 2.78991C14.6698 2.87991 14.7598 2.87991 14.7598 2.96991C16.3798 5.30991 17.2798 7.91991 16.7398 10.7999C16.1998 13.4099 13.6798 16.3799 9.8998 16.9199C6.6598 17.3699 3.3298 15.6599 1.8898 12.7799C0.449803 9.89991 1.1698 6.20991 3.5098 4.04991C3.6898 3.86991 3.8698 3.68991 4.0498 3.59991C3.6898 3.23991 3.4198 2.96991 3.1498 2.69991C3.3298 2.60991 3.4198 2.51991 3.5098 2.51991C5.6698 2.06991 7.8298 1.97991 9.8998 2.96991C11.5198 3.68991 11.3398 3.59991 10.9798 5.21991C10.7098 6.47991 10.0798 7.64991 9.0898 8.54991C8.9098 8.72991 8.7298 8.90991 8.5498 8.99991C8.2798 8.72991 8.0098 8.36991 7.8298 8.09991C7.5598 7.73991 7.2898 7.73991 7.0198 8.09991C6.0298 9.26991 5.5798 10.6199 5.3998 12.0599C5.3998 12.1499 5.3998 12.2399 5.3998 12.3299C5.2198 13.5899 5.0398 13.5899 6.5698 14.2199C8.6398 15.1199 10.7098 14.9399 12.6898 14.0399C12.7798 14.0399 12.8698 13.9499 12.8698 13.9499C12.8698 14.0399 12.8698 14.0399 12.8698 13.9499Z" fill="#1D4D50"/>
<path d="M32.175 10.95C32.1 12.3 31.725 13.275 31.05 13.95C30.375 14.625 29.4 15 28.125 15C26.775 15 25.8 14.55 25.05 13.725C24.375 12.825 24 11.625 24 9.97499V8.02499C24 6.45 24.375 5.175 25.125 4.275C25.875 3.375 26.925 3 28.2 3C29.475 3 30.45 3.375 31.125 4.05C31.8 4.8 32.175 5.775 32.25 7.12499H29.85C29.85 6.3 29.7 5.7 29.475 5.4C29.25 5.1 28.8 4.95 28.2 4.95C27.6 4.95 27.15 5.175 26.85 5.625C26.625 6.075 26.475 6.82499 26.4 7.79999V9.97499C26.4 11.1 26.55 11.925 26.775 12.375C27 12.825 27.45 13.05 28.125 13.05C28.725 13.05 29.175 12.9 29.4 12.6C29.625 12.3 29.775 11.775 29.775 10.95H32.175Z" fill="white"/>
<path d="M38.6258 11.775C38.6258 11.325 38.4758 10.95 38.2508 10.725C38.0258 10.5 37.5758 10.2 36.9008 9.97499C35.7008 9.52499 34.8758 8.99999 34.3508 8.39999C33.8258 7.79999 33.6008 7.12499 33.6008 6.3C33.6008 5.325 33.9758 4.5 34.6508 3.9C35.3258 3.3 36.2258 3 37.3508 3C38.1008 3 38.7008 3.15 39.3008 3.45C39.8258 3.75 40.2758 4.2 40.5758 4.725C40.8758 5.25 41.0258 5.925 41.0258 6.59999H38.7008C38.7008 6.075 38.5508 5.625 38.3258 5.325C38.1008 5.025 37.7258 4.875 37.3508 4.875C36.9008 4.875 36.6008 5.025 36.3758 5.25C36.1508 5.475 36.0008 5.85 36.0008 6.225C36.0008 6.525 36.1508 6.82499 36.3758 7.12499C36.6008 7.34999 37.1258 7.64999 37.7258 7.94999C38.8508 8.39999 39.6758 8.84999 40.2008 9.44999C40.7258 10.05 40.9508 10.8 40.9508 11.775C40.9508 12.825 40.6508 13.575 39.9758 14.175C39.3008 14.775 38.4758 15 37.3508 15C36.6008 15 35.9258 14.85 35.2508 14.55C34.5758 14.25 34.1258 13.8 33.8258 13.2C33.4508 12.6 33.3008 11.925 33.3008 11.175H35.7008C35.7008 11.85 35.8508 12.3 36.0758 12.675C36.3008 12.975 36.7508 13.125 37.3508 13.125C38.1758 13.125 38.6258 12.675 38.6258 11.775Z" fill="white"/>
<path d="M50.5492 13.5C50.0992 14.025 49.4992 14.325 48.8992 14.625C48.2242 14.85 47.5492 15 46.7242 15C45.3742 15 44.3242 14.55 43.5742 13.725C42.8242 12.9 42.4492 11.7 42.4492 10.05V8.02499C42.4492 6.37499 42.8242 5.175 43.4992 4.275C44.0992 3.45 45.1492 3 46.4992 3C47.7742 3 48.7492 3.3 49.3492 3.975C49.9492 4.65 50.3992 5.55 50.4742 6.89999H48.1492C48.0742 6.15 47.9242 5.625 47.6992 5.4C47.4742 5.1 47.0992 5.025 46.5742 5.025C45.8992 5.025 45.4492 5.25 45.1492 5.7C44.8492 6.15 44.6992 6.89999 44.6992 7.94999V10.05C44.6992 11.1 44.8492 11.925 45.1492 12.375C45.4492 12.825 45.9742 13.125 46.7242 13.125C47.1742 13.125 47.5492 13.05 47.8492 12.825L48.0742 12.675V10.5H46.4242V8.69999H50.4742L50.5492 13.5Z" fill="white"/>
<path d="M60.4508 10.05C60.4508 11.625 60.0758 12.825 59.3258 13.725C58.5758 14.625 57.5258 15 56.2508 15C54.9758 15 53.9258 14.55 53.1758 13.725C52.4258 12.9 52.0508 11.625 52.0508 10.125V8.09999C52.0508 6.525 52.4258 5.25 53.1758 4.35C53.9258 3.45 54.9758 3 56.2508 3C57.5258 3 58.5758 3.45 59.3258 4.35C60.0758 5.25 60.4508 6.45 60.4508 8.09999V10.05ZM58.0508 8.09999C58.0508 7.04999 57.9008 6.225 57.6008 5.775C57.3008 5.25 56.8508 5.025 56.1758 5.025C55.5758 5.025 55.0508 5.25 54.7508 5.775C54.4508 6.3 54.3008 7.04999 54.3008 8.02499V10.125C54.3008 11.175 54.4508 11.925 54.7508 12.375C55.0508 12.825 55.5008 13.125 56.1758 13.125C56.7758 13.125 57.2258 12.9 57.5258 12.45C57.8258 12 57.9758 11.25 57.9758 10.275V8.09999H58.0508Z" fill="white"/>
<path d="M61.1992 13.7252C61.1992 13.3502 61.3492 13.0502 61.5742 12.8252C61.7992 12.6002 62.0992 12.4502 62.5492 12.4502C62.9242 12.4502 63.2242 12.6002 63.5242 12.8252C63.7492 13.0502 63.8992 13.3502 63.8992 13.7252C63.8992 14.1002 63.7492 14.4002 63.5242 14.6252C63.2992 14.8502 62.9242 15.0002 62.5492 15.0002C62.1742 15.0002 61.8742 14.8502 61.5742 14.6252C61.3492 14.4002 61.1992 14.1002 61.1992 13.7252Z" fill="white"/>
<path d="M73.8742 10.95C73.7992 12.3 73.4242 13.275 72.7492 13.95C72.0742 14.7 71.0992 15 69.8242 15C68.4742 15 67.4992 14.55 66.7492 13.725C66.0742 12.825 65.6992 11.625 65.6992 9.97499V8.02499C65.6992 6.45 66.0742 5.175 66.8242 4.275C67.5742 3.375 68.5492 3 69.8242 3C71.0992 3 72.0742 3.375 72.7492 4.05C73.4242 4.8 73.7992 5.775 73.8742 7.12499H71.4742C71.4742 6.3 71.3242 5.7 71.0992 5.4C70.8742 5.1 70.4992 4.95 69.8242 4.95C69.2242 4.95 68.7742 5.175 68.4742 5.625C68.2492 6.075 68.0992 6.82499 68.0242 7.79999V9.97499C68.0242 11.1 68.1742 11.925 68.3992 12.375C68.6242 12.825 69.0742 13.05 69.7492 13.05C70.3492 13.05 70.7992 12.9 71.0242 12.6C71.2492 12.3 71.3992 11.775 71.3992 10.95H73.8742Z" fill="white"/>
<path d="M83.5484 10.05C83.5484 11.625 83.1734 12.825 82.4234 13.725C81.6734 14.625 80.6234 15 79.3484 15C77.9984 15 77.0234 14.55 76.2734 13.725C75.5234 12.9 75.1484 11.625 75.1484 10.125V8.09999C75.1484 6.525 75.5234 5.25 76.2734 4.35C77.0234 3.45 77.9984 3 79.3484 3C80.6234 3 81.6734 3.45 82.4234 4.35C83.1734 5.25 83.5484 6.45 83.5484 8.09999V10.05ZM81.1484 8.09999C81.1484 7.04999 80.9984 6.225 80.6984 5.775C80.3984 5.25 79.9484 5.025 79.2734 5.025C78.6734 5.025 78.1484 5.25 77.8484 5.775C77.5484 6.3 77.3984 7.04999 77.3984 8.02499V10.125C77.3984 11.175 77.5484 11.925 77.8484 12.375C78.1484 12.825 78.5984 13.125 79.2734 13.125C79.8734 13.125 80.3234 12.9 80.6234 12.45C80.9234 12 81.0734 11.25 81.0734 10.275V8.09999H81.1484Z" fill="white"/>
<path d="M88.3484 3.1499L90.5234 11.6249L92.6984 3.1499H95.7734V14.8499H93.3734V11.6999L93.5984 6.8249L91.2734 14.8499H89.6984L87.3734 6.8249L87.5984 11.6999V14.8499H85.2734V3.1499H88.3484Z" fill="white"/>
</svg>
