<svg width="85" height="20" viewBox="0 0 85 20" fill="none" xmlns="http://www.w3.org/2000/svg">
<path d="M27.2148 6.23701C28.0894 6.23701 28.9462 6.23701 29.8386 6.23701C29.8565 6.5226 29.8922 6.79034 29.91 7.05807C32.1055 5.63014 33.8725 5.70154 35.4611 7.30796C36.068 6.80819 36.6927 6.36196 37.4959 6.18347C38.4241 5.96928 39.3165 6.04067 40.1911 6.36196C41.0836 6.68324 41.6726 7.34366 41.976 8.21827C42.1188 8.6288 42.2081 9.07503 42.2795 9.52126C42.333 9.87824 42.333 10.2352 42.333 10.5922C42.333 12.0201 42.333 13.4302 42.333 14.9117C41.4406 14.9117 40.5303 14.9117 39.6735 14.9117C39.6735 14.7332 39.6556 14.5547 39.6556 14.3584C39.6556 13.2339 39.6378 12.0915 39.6556 10.967C39.6556 10.5208 39.5664 10.0924 39.495 9.6462C39.3879 9.07503 38.9952 8.77159 38.4955 8.6288C37.1032 8.25397 36.1215 8.98578 36.1037 10.4316C36.0858 11.681 36.1037 12.9304 36.1037 14.1799C36.1037 14.4119 36.0858 14.644 36.0858 14.9117C35.2648 14.9117 34.3545 14.9117 33.4263 14.9117C33.4263 14.2513 33.4263 13.6444 33.4263 13.0197C33.4263 12.1272 33.4441 11.2348 33.4263 10.3423C33.3906 8.93224 32.3018 8.20042 30.981 8.64665C30.4812 8.82514 30.1064 9.12858 30.0171 9.69975C29.9636 10.021 29.8922 10.3423 29.91 10.6636C29.91 11.7881 29.91 12.9304 29.91 14.0549C29.91 14.3227 29.91 14.5726 29.8922 14.8938C29.089 14.8938 28.143 14.876 27.2505 14.8938C27.2148 11.9666 27.2148 9.14642 27.2148 6.23701Z" fill="#FBFBFB"/>
<path d="M74.1937 11.2348C71.8555 11.2348 69.5887 11.2348 67.2861 11.2348C67.7502 12.8234 69.7672 13.216 71.2843 12.0201C71.7127 12.0201 72.1946 12.0201 72.6587 12.0201C73.1049 12.0201 73.5512 12.0201 74.051 12.0201C73.7832 13.3053 72.98 14.0728 71.8912 14.5547C70.2848 15.2687 68.607 15.3222 66.9827 14.6083C65.3763 13.9121 64.5731 12.6092 64.4303 10.8599C64.1982 7.80774 66.5543 5.84434 69.6244 5.98713C70.3383 6.02283 71.0344 6.14777 71.677 6.46906C73.0336 7.12947 73.9082 8.18257 74.1045 9.73545C74.1937 10.1817 74.3365 10.6458 74.1937 11.2348ZM71.4093 9.52126C70.9809 8.46816 70.3919 8.12903 69.1603 8.16472C68.1607 8.20042 67.5539 8.6288 67.2683 9.52126C68.6427 9.52126 70.017 9.52126 71.4093 9.52126Z" fill="#F9F9F9"/>
<path d="M16.898 12.6984C17.3442 12.6984 17.3264 11.5739 16.898 11.5739C16.5053 11.5918 16.309 11.5918 15.9341 11.5739C14.9346 11.5382 13.9172 11.6275 12.9176 11.4311C11.3648 11.1277 10.6865 10.2352 10.6329 8.89654C10.5794 7.50431 11.5968 6.41551 12.989 6.23702C13.3639 6.18347 13.7565 6.16562 14.1492 6.16562C15.6307 6.16562 17.1122 6.16562 18.6115 6.16562C18.8436 6.16562 19.1291 6.16562 19.4147 6.16562C19.4147 6.80819 19.4147 7.59355 19.4326 8.36106C17.3442 8.36106 15.3451 8.36106 13.3817 8.36106C12.9712 8.36106 13.0069 9.46771 13.3996 9.44986C14.3456 9.44986 15.363 9.46771 16.3625 9.44986C16.9158 9.43201 17.4335 9.53911 17.9332 9.69975C19.1648 10.1103 19.7539 11.0563 19.6646 12.3771C19.5754 13.5552 18.9685 14.4298 17.6655 14.7868C17.3621 14.876 17.0229 14.9117 16.7017 14.9117C14.8632 14.9295 13.0247 14.9117 11.1684 14.9117C11.1149 14.9117 11.0792 14.9117 10.9721 14.9117C10.9721 14.2513 10.9721 13.5016 10.9721 12.7163C12.9712 12.6806 14.9703 12.7341 16.898 12.6984Z" fill="#F7F7F7"/>
<path d="M73.9974 6.23701C75.0148 6.23701 76.0322 6.23701 77.0675 6.23701C77.7993 7.98623 78.5311 9.78899 79.3343 11.7167C80.1197 9.80684 80.8336 8.05763 81.5654 6.27271C82.5293 6.27271 83.4574 6.27271 84.4927 6.27271C84.0465 7.27226 83.6181 8.21827 83.2076 9.14642C82.2616 11.2705 81.2798 13.3945 80.3695 15.5543C79.8698 16.7502 78.9773 17.2856 77.7457 17.3213C76.6748 17.357 75.5146 17.3213 74.4079 17.3213C74.4079 16.9108 74.4079 15.3579 74.4079 14.9474C75.5681 14.9474 76.6569 14.9652 77.6743 14.9295C77.835 14.3941 77.5494 14.0014 77.4066 13.6623C76.407 11.4847 75.3896 9.32492 74.3722 7.14732C74.2651 6.86173 74.1759 6.6297 73.9974 6.23701Z" fill="#FBFBFB"/>
<path d="M48.1875 6.02283C50.026 5.98713 51.4718 6.48691 52.4535 7.89699C54.167 10.3602 53.221 14.5012 49.2763 15.0188C48.1697 15.1616 47.0987 15.0902 46.0635 14.644C44.4214 13.9478 43.3504 12.4128 43.4575 10.3066C43.5646 8.27182 44.7605 6.80819 46.599 6.23702C47.188 6.05853 47.7592 6.04068 48.1875 6.02283ZM48.366 8.53956C47.2772 8.53956 46.4919 9.00363 46.2955 9.86039C45.9385 11.4311 46.7775 12.5556 48.2589 12.5199C48.4731 12.5199 48.6695 12.5199 48.8837 12.4842C49.5976 12.395 50.0974 12.0023 50.3651 11.3597C50.9006 10.0567 50.1152 8.45031 48.366 8.53956Z" fill="#FBFBFB"/>
<path d="M57.0943 6.16562C57.1121 6.43336 57.1121 6.93314 57.2727 6.80819C57.9689 6.29057 58.7364 6.00498 59.6467 6.04068C62.0028 6.12993 62.9845 7.55786 63.2165 9.27138C63.4664 11.1098 63.2879 12.9483 63.3593 14.9117C62.449 14.9653 61.4316 14.9296 60.5927 14.9474C60.5927 14.644 60.5748 14.4655 60.5748 14.2334C60.557 12.8948 60.557 11.5561 60.557 10.2174C60.557 9.55696 60.3963 8.96794 59.7002 8.7002C58.9684 8.43246 58.2366 8.45031 57.594 8.95009C57.1835 9.27137 57.1121 9.73545 57.1121 10.2352C57.1121 11.4847 57.1121 12.7341 57.1121 13.9835C57.1121 14.2691 57.1121 14.5547 57.1121 14.8939C56.1661 14.8939 55.3093 14.8939 54.4704 14.8939C54.3098 14.2691 54.4347 7.80774 54.4704 6.18347C54.8988 6.14777 55.2558 6.18347 55.702 6.16562C56.1482 6.14777 56.773 6.16562 57.0943 6.16562Z" fill="#F6F6F6"/>
<path d="M9.70479 9.789C8.72309 9.789 7.83063 9.789 6.92032 9.789C6.4384 8.7002 5.52809 8.45031 4.42144 8.55741C3.42189 8.6645 2.70793 9.43201 2.69008 10.4673C2.67223 11.5739 3.36834 12.3771 4.38575 12.4842C5.47454 12.6092 6.4027 12.4128 6.92032 11.2705C7.81278 11.2705 8.74093 11.2705 9.68694 11.2705C9.70479 11.7346 9.5263 12.1094 9.34781 12.5021C8.54459 14.287 6.74183 15.1259 4.84982 15.0902C4.04661 15.0723 3.26125 14.9652 2.52944 14.6261C0.958711 13.8765 0.066254 12.6449 0.0127065 10.8778C-0.0051426 10.2352 -0.0408408 9.59266 0.209047 8.95009C0.655276 7.77204 1.42279 6.93314 2.58298 6.45121C3.88597 5.89789 5.22465 5.86219 6.56334 6.23702C8.3304 6.71895 9.34781 7.91484 9.70479 9.789Z" fill="#FBFBFB"/>
<path d="M21.5923 11.449C21.7173 11.8238 21.8065 12.2165 21.8244 12.5913C21.8422 12.8591 21.8422 13.1268 21.8601 13.3767C21.8779 13.8943 21.7887 14.3941 21.6816 14.8939C21.4495 16.054 20.9141 17.0714 20.1644 17.9996C19.7003 18.5529 19.1648 19.0349 18.5401 19.4097C18.4152 19.4811 18.2902 19.5346 18.1653 19.6239C18.3259 19.606 18.4866 19.5882 18.6294 19.5703C19.1648 19.4811 19.6646 19.3204 20.1465 19.0884C21.4495 18.4994 22.5205 17.6605 23.3594 16.536C24.0198 15.6435 24.466 14.644 24.7159 13.573C24.7516 13.4481 24.7695 13.3231 24.7873 13.216C24.8052 13.1268 24.8052 13.0554 24.8766 12.984C24.8944 12.9661 24.8944 12.9304 24.8944 12.9126C24.9123 12.6984 24.948 12.4664 24.9658 12.2343C24.9837 12.2343 25.0194 12.2343 25.0372 12.2343C25.1086 12.2522 25.1621 12.2343 25.2157 12.1629C25.2692 12.1094 25.2871 12.0558 25.2871 11.9844C25.2871 11.8773 25.2871 11.7524 25.2871 11.6453C25.2871 11.5382 25.2692 11.449 25.2157 11.3597C25.18 11.2883 25.0908 11.2348 25.0729 11.1455C25.0729 11.1277 25.0372 11.1277 25.0194 11.1277C25.0551 11.0384 25.0015 10.9492 24.8766 10.9313C24.9837 10.8956 24.9301 10.8421 24.9301 10.7707C24.9123 10.6636 24.823 10.7529 24.7695 10.7172C24.7873 10.6993 24.8052 10.6993 24.823 10.6815C24.8766 10.6636 24.8944 10.6458 24.8766 10.5744C24.8587 10.503 24.823 10.4851 24.7516 10.4851C24.7338 10.4851 24.6981 10.4673 24.6802 10.4673V10.4494C24.6981 10.4494 24.7159 10.4316 24.7338 10.4316C24.8052 10.4316 24.823 10.378 24.8052 10.3245C24.7873 10.2531 24.7695 10.2352 24.6981 10.2531C24.6802 10.2531 24.6624 10.2531 24.6445 10.2531C24.6267 10.2531 24.6088 10.2352 24.6088 10.2352C24.6088 10.2174 24.6267 10.2174 24.6267 10.1995C24.6267 10.1995 24.6445 10.1995 24.6624 10.1817C24.8052 10.146 24.8052 10.146 24.7516 9.98534C24.6981 9.98534 24.6445 10.0032 24.591 10.0032V9.98534C24.6445 9.96749 24.6981 9.94964 24.7516 9.93179C24.7338 9.87824 24.7338 9.8247 24.7159 9.789C24.6981 9.77115 24.6267 9.789 24.5731 9.789C24.5731 9.789 24.5731 9.77115 24.5553 9.77115C24.5731 9.7533 24.6088 9.7533 24.6267 9.73545C24.6624 9.7176 24.6981 9.7176 24.7338 9.7176C24.7338 9.66406 24.7159 9.61051 24.7159 9.55696C24.6624 9.55696 24.6088 9.57481 24.5553 9.57481C24.5553 9.52126 24.5553 9.52126 24.7516 9.48556C24.7516 9.43202 24.7338 9.37847 24.7338 9.32492C24.6802 9.32492 24.6267 9.32492 24.5731 9.34277C24.5731 9.32492 24.5731 9.32492 24.5731 9.30707C24.6445 9.28922 24.6981 9.28922 24.7695 9.27137C24.7695 9.21783 24.7516 9.18213 24.7516 9.12858C24.6981 9.12858 24.6624 9.12858 24.6267 9.12858C24.6267 9.12858 24.6267 9.11073 24.6088 9.11073C24.6267 9.09288 24.6445 9.07503 24.6624 9.07503C24.7873 9.03934 24.7873 9.03934 24.7695 8.89654C24.7516 8.89654 24.7159 8.89654 24.6981 8.87869C24.6981 8.87869 24.6981 8.87869 24.6981 8.86084C24.7338 8.86084 24.7516 8.84299 24.7873 8.84299C24.8587 8.82515 24.8944 8.7359 24.8587 8.68235C24.8409 8.6645 24.823 8.6645 24.7873 8.64665C24.7873 8.64665 24.7873 8.64665 24.7873 8.62881C24.8766 8.62881 24.8944 8.57526 24.8766 8.50386C24.8766 8.46816 24.8944 8.41462 24.9123 8.37892C24.9301 8.34322 24.948 8.30752 24.9837 8.27182C25.0551 8.20043 25.0907 8.11118 25.0551 8.00408C25.0551 7.98624 25.0551 7.96839 25.0551 7.95054C25.0907 7.89699 25.0729 7.86129 25.0194 7.82559C25.0729 7.7185 25.0551 7.59355 24.9837 7.55786C25.0372 7.52216 25.0551 7.46861 24.9837 7.43291V7.41506C25.0015 7.36152 25.0015 7.32582 24.9301 7.30797C24.9658 7.25442 24.9837 7.20087 24.9123 7.16517C24.9658 7.09378 24.948 7.05808 24.8766 7.02238C24.9123 6.96883 24.9301 6.93314 24.8766 6.87959C24.8766 6.87959 24.8587 6.86174 24.8766 6.86174C24.9123 6.80819 24.8766 6.77249 24.8409 6.7368C24.8766 6.6654 24.8766 6.6297 24.8052 6.594C24.8587 6.52261 24.8587 6.48691 24.7873 6.45121C24.823 6.37981 24.7695 6.20132 24.7159 6.16562C24.7159 6.14777 24.7338 6.12992 24.7338 6.12992C24.7159 6.05853 24.6802 5.96928 24.6624 5.89789C24.6445 5.84434 24.6445 5.79079 24.6267 5.73724C24.6088 5.70155 24.591 5.66585 24.591 5.63015C24.591 5.6123 24.591 5.5766 24.5731 5.5409C24.5374 5.46951 24.5017 5.39811 24.4839 5.32671C24.466 5.27317 24.4482 5.20177 24.4303 5.14822C24.4125 5.07683 24.3768 5.02328 24.3589 4.95188C24.3232 4.88049 24.3054 4.79124 24.2697 4.71984C24.1983 4.5592 24.1447 4.39856 24.0733 4.25577C24.002 4.13082 23.9306 3.98803 23.877 3.86308C23.8592 3.84523 23.8592 3.82739 23.8413 3.80954C23.7521 3.75599 23.7164 3.66674 23.7164 3.55965C23.7164 3.5061 23.6985 3.45255 23.6807 3.39901C23.6628 3.32761 23.6093 3.27406 23.52 3.27406C23.4665 3.27406 23.4308 3.23836 23.4665 3.18482C23.52 3.07772 23.4843 2.95278 23.4308 2.86353C23.4129 2.82783 23.3415 2.82783 23.288 2.80998C23.2523 2.79214 23.2344 2.79214 23.1987 2.79214C23.2166 2.75644 23.2166 2.73859 23.2344 2.70289C23.3237 2.5601 23.288 2.38161 23.1452 2.31021C23.1273 2.29236 23.0916 2.29236 23.0738 2.29236C22.9846 2.31021 22.9489 2.27451 22.9846 2.20311C23.0203 2.13172 23.0202 2.06032 23.0024 1.97108C22.9846 1.89968 22.931 1.86398 22.8418 1.84613C22.7347 1.82828 22.7168 1.81043 22.7525 1.72119C22.7882 1.56054 22.7525 1.4713 22.5919 1.3642C22.4848 1.31066 22.3777 1.25711 22.2706 1.20356C22.1992 1.16786 22.1456 1.20356 22.1099 1.27496C22.0921 1.23926 22.0742 1.20356 22.0564 1.16786C22.0207 1.11432 21.985 1.06077 21.9315 1.04292C21.7173 0.953674 21.5031 0.864428 21.2889 0.775182C20.8605 0.596691 20.4857 0.328954 20.1108 0.0612169C19.968 -0.045878 19.9145 -0.0101797 19.861 0.150463C19.8253 0.293256 19.7896 0.453898 19.7539 0.596691C19.7539 0.632389 19.736 0.650239 19.7003 0.685937C19.5397 0.864428 19.379 1.02507 19.2362 1.20356C19.147 1.31066 19.0934 1.45345 19.0399 1.59624C18.8614 1.97108 18.8792 2.36376 18.9685 2.77429C19.0399 3.09557 19.2184 3.38116 19.4683 3.6132C19.6111 3.75599 19.8074 3.84524 19.968 3.97018C20.1108 4.07727 20.2715 4.14867 20.45 4.16652C20.6106 4.18437 20.7177 4.25577 20.8605 4.32716C21.0033 4.39856 21.0925 4.5235 21.1818 4.6306C21.3603 4.82694 21.4317 5.07683 21.4138 5.34456C21.396 5.48736 21.3781 5.648 21.3603 5.79079C21.3603 5.84434 21.3603 5.88004 21.396 5.91574C21.4495 5.96928 21.4852 6.02283 21.5388 6.05853C21.8422 6.27272 22.0028 6.5583 22.1099 6.89744C22.1635 7.05808 22.1813 7.21872 22.1992 7.39721C22.217 7.62925 22.1456 7.82559 22.0385 8.02193C21.985 8.11118 21.985 8.11118 22.0742 8.18258C22.1992 8.27182 22.3241 8.36107 22.4312 8.46816C22.6633 8.7002 22.7704 9.00364 22.7704 9.32492C22.7704 9.43202 22.7347 9.53911 22.699 9.64621C22.574 9.96749 22.4134 10.2709 22.0921 10.4673C21.8779 10.5922 21.6637 10.6815 21.4138 10.6993C21.2889 10.7172 21.2532 10.7707 21.2532 10.8778C21.2889 11.0741 21.3246 11.2705 21.4495 11.4311C21.4852 11.449 21.5209 11.4847 21.5923 11.449ZM20.6642 1.18571C20.7356 1.20356 20.8784 1.22141 21.0033 1.25711C21.3246 1.34636 21.5745 1.56054 21.753 1.84613C21.8422 1.98892 21.9136 2.14957 21.8958 2.31021C21.8779 2.66719 21.753 2.95278 21.5031 3.20267C21.271 3.41686 21.0033 3.5418 20.6999 3.5775C20.2358 3.6132 19.8431 3.45255 19.5397 3.11342C19.4683 3.04202 19.4147 2.95278 19.379 2.84568C19.2719 2.50655 19.2898 2.16742 19.4683 1.86398C19.7003 1.4356 20.093 1.22141 20.6642 1.18571Z" fill="#F41795"/>
</svg>
