<svg width="72" height="14" viewBox="0 0 72 14" fill="none" xmlns="http://www.w3.org/2000/svg">
<path d="M33.3166 7.87902C33.1652 8.64012 33.0137 9.35835 32.873 10.0766C32.7324 10.7734 32.5917 11.4701 32.4402 12.1669C31.6828 12.1669 30.9578 12.1669 30.1679 12.1669C30.8172 8.951 31.4556 5.76723 32.1048 2.51914C30.7306 2.51914 29.3889 2.51914 27.9606 2.51914C28.1121 1.97243 28.2203 1.50077 28.3826 1.03982C28.4151 0.954059 28.6098 0.88974 28.7397 0.88974C31.8234 0.88974 34.9072 0.91118 37.9802 0.921899C38.1425 0.921899 38.3048 0.954059 38.4563 0.986219C39.5816 1.20061 40.6312 1.58652 40.9666 2.79786C41.3345 4.12711 40.9125 5.32772 39.917 6.26034C39.4085 6.74273 38.7484 7.06432 38.0776 7.50383C38.532 8.60796 39.0298 9.79786 39.56 11.0628C39.7223 10.8162 39.8413 10.6447 39.9495 10.4732C41.8863 7.41807 43.8232 4.37366 45.7492 1.31853C45.9548 0.986218 46.1712 0.836141 46.5715 0.868301C47.0692 0.91118 47.6968 0.750383 48.0323 0.996937C48.3352 1.22205 48.3244 1.86524 48.4326 2.33691C49.1576 5.46708 49.8825 8.58653 50.6075 11.7167C50.6399 11.8561 50.6399 11.9954 50.6616 12.1884C49.9474 12.1884 49.2658 12.1991 48.5841 12.1776C48.4759 12.1776 48.3028 11.9954 48.2703 11.8668C48.0972 11.1378 47.9565 10.3982 47.7942 9.6049C46.9069 9.6049 46.0089 9.59418 45.1216 9.6049C44.3533 9.61562 43.4336 9.39051 42.8385 9.72282C42.265 10.0444 41.9837 10.9127 41.6375 11.5773C41.3778 12.0704 41.0532 12.242 40.4905 12.2098C39.6682 12.1562 38.835 12.1776 38.0018 12.2098C37.6015 12.2312 37.4392 12.0812 37.3093 11.7274C36.8765 10.5697 36.4004 9.44411 35.9568 8.28637C35.8486 7.99694 35.7079 7.8683 35.3725 7.87902C34.7125 7.88974 34.0524 7.87902 33.3166 7.87902ZM33.6629 6.17458C34.7233 6.17458 35.7079 6.21746 36.6926 6.15314C37.331 6.11026 37.9045 5.79939 38.3048 5.27412C38.7376 4.70597 38.9107 4.05207 38.6511 3.366C38.4238 2.7657 37.8828 2.56202 37.3093 2.54058C36.3572 2.4977 35.405 2.52986 34.4095 2.52986C34.1498 3.75191 33.9009 4.96325 33.6629 6.17458ZM43.7907 7.95406C45.0567 7.95406 46.2361 7.95406 47.4696 7.95406C47.1666 6.44257 46.8853 4.96325 46.5607 3.34456C45.5869 4.95253 44.7104 6.42113 43.7907 7.95406Z" fill="white"/>
<path d="M17.2593 2.84073C16.1773 2.52986 15.2792 2.5513 14.4677 3.06585C13.5804 3.634 13.6345 4.53446 14.5759 4.97397C15.1602 5.25268 15.7878 5.40275 16.3937 5.62787C16.9672 5.84226 17.5515 6.03522 18.0817 6.33537C19.8129 7.28943 20.0834 9.17611 18.7309 10.6126C17.9194 11.4701 16.8698 11.8668 15.7228 12.049C14.4569 12.2527 13.2125 12.1991 11.979 11.8132C11.8492 11.7703 11.6003 11.856 11.4921 11.9632C11.1134 12.3706 10.778 12.8101 10.3235 13.3783C10.3235 12.9816 10.3235 12.7565 10.3235 12.5207C10.3235 11.6524 10.3127 10.7733 10.3451 9.90505C10.356 9.74425 10.4966 9.46554 10.6265 9.4441C11.741 9.17611 12.8771 8.96171 14.1539 8.69372C13.7535 9.19755 13.4398 9.58346 13.126 9.98009C13.9267 10.634 15.9068 10.4625 16.556 9.70138C17.097 9.07963 16.9672 8.32925 16.2098 7.97549C15.5822 7.68606 14.8897 7.49311 14.2405 7.23583C13.6453 7 13.0178 6.7856 12.4659 6.45329C10.9294 5.54211 10.6914 3.94487 11.86 2.58346C12.7689 1.53293 13.9916 1.10413 15.3225 0.911179C16.4478 0.739663 17.5406 0.803982 18.6335 1.15773C18.7742 1.20061 19.0014 1.11486 19.1312 1.00766C19.4775 0.728944 19.7804 0.407351 20.2241 0C20.0401 1.29709 19.8887 2.4441 19.7047 3.59112C19.6831 3.69831 19.5099 3.85911 19.4017 3.86983C18.2548 3.97703 17.1078 4.05207 15.8743 4.01991C16.3071 3.67687 16.7291 3.30168 17.2593 2.84073Z" fill="white"/>
<path d="M10.8645 4.74885C9.98808 4.74885 9.1441 4.74885 8.31094 4.74885C8.19191 3.11945 7.44531 2.56202 5.82227 2.78714C4.69696 2.94793 3.9179 3.5268 3.47426 4.53446C2.91161 5.81011 2.63028 7.15008 2.67356 8.54365C2.70602 9.51914 3.13883 10.0123 4.12348 10.1838C5.357 10.3982 6.9584 10.0551 7.44531 8.56508C7.47777 8.45789 7.66172 8.32925 7.78074 8.31853C8.54898 8.29709 9.32805 8.30781 10.1612 8.30781C9.86906 9.39051 9.30641 10.2374 8.4516 10.8698C6.64461 12.1991 4.62122 12.4778 2.50044 11.8989C0.974775 11.4916 0.0117688 10.1623 0.000948493 8.58653C-0.0206921 6.82849 0.325558 5.14548 1.28856 3.634C3.01981 0.93262 6.32 0.332313 8.75457 1.16845C10.3343 1.71516 11.1026 3.06585 10.8645 4.74885Z" fill="white"/>
<path d="M71.8261 0.932619C71.7179 1.45789 71.6097 1.96171 71.5015 2.4977C69.4564 2.4977 67.4439 2.4977 65.3664 2.4977C65.1608 3.50536 64.966 4.49158 64.7496 5.55283C66.535 5.55283 68.2554 5.55283 70.0407 5.55283C69.9325 6.11026 69.846 6.59265 69.7378 7.13936C69.5538 7.15008 69.3591 7.17151 69.1751 7.17151C67.7468 7.17151 66.3294 7.18223 64.9011 7.17151C64.5657 7.17151 64.3925 7.22511 64.3276 7.61102C64.1653 8.59724 63.9381 9.56202 63.7325 10.5911C65.7992 10.5911 67.8334 10.5911 69.9325 10.5911C69.8243 11.1485 69.727 11.6417 69.6296 12.1669C66.7947 12.1669 63.9922 12.1669 61.1465 12.1669C61.4819 10.5054 61.8065 8.86524 62.1311 7.22511C62.5206 5.2634 62.921 3.3124 63.3105 1.35069C63.3646 1.07198 63.4295 0.868301 63.8082 0.879021C66.3618 0.90046 68.9263 0.889739 71.4798 0.889739C71.5772 0.87902 71.6854 0.91118 71.8261 0.932619Z" fill="white"/>
<path d="M59.1447 7.09648C59.2205 6.66769 59.307 6.32466 59.3395 5.9709C59.3828 5.50996 59.426 5.03828 59.3828 4.58806C59.2746 3.4196 58.4089 2.62634 57.1321 2.52986C56.4396 2.47626 55.7255 2.51914 54.9464 2.51914C54.4271 5.07044 53.9077 7.63247 53.3558 10.3767C52.9122 9.36907 52.3171 8.88668 51.2567 9.47626C51.5056 8.23277 51.722 7.07504 51.96 5.92802C52.2738 4.3951 52.5984 2.85145 52.8906 1.31853C52.9555 0.954058 53.1178 0.857581 53.464 0.868301C54.6326 0.87902 55.8121 0.868301 56.9806 0.879021C57.9869 0.879021 58.9499 1.07198 59.8264 1.58652C60.8543 2.18683 61.4603 3.08729 61.6334 4.24502C61.6875 4.58806 61.6009 4.99541 61.4386 5.30628C60.9625 6.1853 60.1726 6.73201 59.1447 7.09648Z" fill="white"/>
<path d="M25.1906 5.45636C24.747 5.33844 24.3358 5.22052 23.9355 5.11333C23.9463 5.04901 23.9571 4.97397 23.9679 4.90965C24.2276 4.94181 24.5089 4.94181 24.7578 5.02757C25.2447 5.19908 25.4936 5.14549 25.6018 4.56662C25.8398 3.24809 26.1536 1.951 26.4349 0.621748C26.5756 0.621748 26.7704 0.600308 26.9651 0.621748C27.8524 0.718225 27.8849 0.879022 27.6468 1.72588C27.3006 2.94794 27.0733 4.19143 26.7812 5.45636C27.1707 5.57428 27.517 5.68147 27.8632 5.78867C27.8524 5.84227 27.8524 5.90659 27.8416 5.96019C27.517 5.92803 27.2032 5.89587 26.8353 5.85299C26.6514 6.76417 26.4782 7.66463 26.2943 8.56509C26.0779 9.59418 25.8398 10.6126 25.6018 11.6417C25.3962 12.585 24.9417 13.3783 24.1519 14C24.2817 12.5207 23.9463 11.0092 24.5198 9.57275C24.6388 9.28331 24.6604 8.951 24.7145 8.64013C24.7794 8.22206 24.8227 7.79327 24.8876 7.3752C24.985 6.74273 25.0932 6.11026 25.1906 5.45636Z" fill="white"/>
<path d="M61.7632 5.3706C61.4711 7.52527 60.5946 9.29403 58.8093 10.5482C58.4955 10.7734 58.225 11.0735 57.9004 11.2665C57.7056 11.3737 57.4351 11.3415 57.1971 11.3844C56.8183 11.4487 56.299 11.3844 56.0934 11.6095C55.5199 12.2205 54.8058 12.2312 54.1024 12.242C53.4316 12.2634 52.7391 12.1455 52.0682 12.0276C51.841 11.9847 51.6246 11.7596 51.4623 11.5666C51.2459 11.3093 51.1052 10.9985 50.9105 10.6876C51.0728 10.4625 51.2567 10.2052 51.4515 9.95865C51.9276 9.39051 52.6092 9.43338 52.9555 10.0659C53.1394 10.3874 53.3017 10.5375 53.6696 10.3446C53.7562 10.3017 53.8969 10.3446 54.0051 10.3446C54.0159 10.3446 54.0375 10.366 54.0483 10.366C54.6651 10.3338 55.2927 10.3767 55.8878 10.2374C56.1042 10.1838 56.1908 9.70138 56.3747 9.42266C56.4721 9.27259 56.6344 9.05819 56.7642 9.05819C58.1925 9.05819 59.2529 8.31853 60.1618 7.35375C60.7461 6.76417 61.2114 6.0781 61.7632 5.3706ZM52.5876 10.2588C52.5335 10.1945 52.4253 9.9265 52.2522 9.88362C51.96 9.79786 51.5489 10.3553 51.603 10.7841C51.6246 10.9663 51.7761 11.2343 51.9384 11.2879C52.2089 11.3844 52.5768 10.8484 52.5876 10.2588Z" fill="white"/>
<path d="M26.0129 0.879021C25.8831 1.40429 25.7749 1.8438 25.6451 2.28331C25.6234 2.36907 25.4827 2.48698 25.3962 2.48698C24.1627 2.4977 22.9292 2.4977 21.6415 2.4977C21.7389 2.00459 21.8038 1.56508 21.9121 1.13629C21.9337 1.0291 22.096 0.889739 22.1826 0.889739C23.4269 0.87902 24.682 0.879021 26.0129 0.879021Z" fill="white"/>
<path d="M21.5874 10.0337C22.2583 10.0337 22.821 10.5911 22.821 11.2557C22.821 11.9525 22.2475 12.51 21.5442 12.4885C20.8625 12.4671 20.3215 11.9096 20.3323 11.2343C20.3431 10.5804 20.9058 10.0337 21.5874 10.0337Z" fill="white"/>
</svg>
