<svg width="93" height="20" viewBox="0 0 93 20" fill="none" xmlns="http://www.w3.org/2000/svg">
<g clip-path="url(#clip0_1217_3912)">
<path d="M2.70156 0.3C3.00156 0.1 3.30156 0 3.60156 0H13.4016C14.0016 0 14.6016 0.3 14.9016 0.8L19.8016 9.1C20.1016 9.7 20.1016 10.2 19.8016 10.8L14.9016 19.1C14.6016 19.7 14.0016 20 13.4016 20H3.60156C3.30156 20 3.00156 19.9 2.70156 19.7C2.50156 19.5 2.20156 19.3 2.10156 19.1L0.201563 16C-0.0984375 15.5 -0.0984375 15 0.201563 14.6L2.40156 10.8C2.60156 10.5 2.60156 10.2 2.60156 10C2.60156 9.8 2.50156 9.4 2.30156 9.2L0.201563 5.4C-0.0984375 4.9 -0.0984375 4.4 0.201563 4L2.10156 0.9C2.20156 0.7 2.40156 0.4 2.70156 0.3ZM5.70156 14.9C5.90156 15 6.20156 15.1 6.50156 15.1H10.5016C11.1016 15.1 11.7016 14.8 12.0016 14.3L14.1016 10.9C14.4016 10.3 14.4016 9.8 14.1016 9.2L12.0016 5.7C11.7016 5.1 11.1016 4.9 10.5016 4.9H6.50156C6.20156 4.8 5.90156 4.9 5.70156 5L8.20156 9.2C8.50156 9.8 8.50156 10.3 8.20156 10.9L5.70156 14.9Z" fill="#8DD294"/>
<path d="M3.70156 0H13.3016C13.3016 0 4.90156 0 3.90156 0C3.10156 0 3.30156 0.6 3.30156 0.7C3.30156 0.8 3.40156 0.8 3.40156 0.9L5.90156 5L8.40156 9.2C8.70156 9.8 8.70156 10.3 8.40156 10.9L5.90156 15C5.90156 15 3.90156 18.4 3.40156 19.2C3.40156 19.2 3.40156 19.3 3.30156 19.3C3.30156 19.3 2.90156 20.1 3.90156 20.1H13.5016H3.70156C3.60156 20.1 3.10156 20.1 2.70156 19.8C2.50156 19.6 2.30156 19.4 2.10156 19.2L0.201563 16C-0.0984375 15.5 -0.0984375 15 0.201563 14.6L2.40156 10.8C2.60156 10.5 2.60156 10.2 2.60156 10C2.60156 9.8 2.50156 9.4 2.30156 9.2L0.301563 5.4C0.00156251 4.9 0.00156251 4.3 0.301563 4L2.20156 0.9C2.30156 0.7 2.50156 0.4 2.80156 0.3C3.10156 0 3.60156 0 3.70156 0Z" fill="#7FBC85"/>
<path d="M35.1984 6.80011C33.9984 5.40011 32.5984 4.70011 30.7984 4.60011C29.3984 4.50011 27.4984 4.60011 26.0984 4.60011C25.9984 4.60011 25.9984 4.60011 25.8984 4.60011V16.1001C25.9984 16.1001 25.9984 16.1001 25.9984 16.1001C27.1984 16.1001 28.8984 16.1001 30.0984 16.1001C30.7984 16.1001 31.3984 16.0001 32.0984 15.8001C33.6984 15.4001 34.7984 14.5001 35.5984 13.1001C36.1984 12.0001 36.3984 10.8001 36.2984 9.60011C36.1984 8.50011 35.7984 7.70011 35.1984 6.80011ZM33.7984 11.6001C33.2984 13.0001 32.2984 13.8001 30.8984 14.0001C30.1984 14.1001 28.8984 14.1001 28.2984 14.1001V6.70011C28.6984 6.70011 29.6984 6.70011 30.1984 6.70011C30.7984 6.70011 31.4984 6.80011 32.0984 7.00011C33.3984 7.50011 33.9984 8.50011 34.1984 9.80011C33.9984 10.4001 33.9984 11.0001 33.7984 11.6001Z" fill="white"/>
<path d="M76.9984 7.6001C76.0984 7.6001 75.2984 7.6001 74.4984 7.6001C74.2984 7.6001 74.1984 7.7001 74.0984 7.8001C73.1984 8.9001 72.2984 10.0001 71.3984 11.0001C71.2984 11.1001 71.2984 11.1001 71.1984 11.2001V3.1001H68.8984V16.1001H71.1984V11.5001C71.2984 11.6001 71.2984 11.7001 71.3984 11.7001C72.3984 13.1001 73.4984 14.5001 74.3984 15.9001C74.4984 16.0001 74.5984 16.1001 74.7984 16.1001C75.4984 16.1001 76.9984 16.1001 76.9984 16.1001H77.1984C77.1984 16.1001 74.8984 13.0001 73.7984 11.4001C74.9984 10.1001 75.9984 8.8001 76.9984 7.6001Z" fill="white"/>
<path d="M83.8009 7.6998C82.2009 7.0998 80.8009 7.2998 79.5009 8.2998C77.1009 10.0998 77.2009 13.8998 79.7009 15.5998C81.5009 16.7998 83.2009 16.6998 85.1009 15.6998C85.4009 15.4998 85.6009 15.2998 85.9009 15.1998C85.6009 14.5998 85.2009 14.0998 84.9009 13.5998C83.7009 14.3998 83.2009 14.4998 82.2009 14.3998C81.6009 14.3998 81.1009 14.0998 80.7009 13.6998C80.4009 13.3998 80.2009 13.0998 80.2009 12.6998H86.2009C86.3009 12.1998 86.3009 11.6998 86.3009 11.1998C86.1009 9.5998 85.2009 8.0998 83.8009 7.6998ZM80.1009 10.8998C80.3009 9.8998 81.2009 9.0998 82.3009 9.1998C83.4009 9.2998 84.0009 9.8998 84.1009 10.8998H80.1009Z" fill="white"/>
<path d="M91.1016 14.0999C90.4016 13.9999 90.1016 13.6999 90.0016 12.9999C90.0016 12.8999 90.0016 12.7999 90.0016 12.7999C90.0016 11.6999 90.0016 10.6999 90.0016 9.6999C90.0016 9.5999 90.0016 9.5999 90.0016 9.4999H92.3016V7.4999H89.9016V5.3999L87.6016 6.3999C87.6016 6.3999 87.6016 12.3999 87.6016 13.5999C87.6016 14.5999 88.1016 15.4999 89.1016 15.9999C90.3016 16.5999 91.4016 16.4999 92.6016 16.1999L92.9016 14.1999C92.5016 14.0999 91.6016 14.1999 91.1016 14.0999Z" fill="white"/>
<path d="M67.4984 7.49994C66.3984 7.29994 65.4984 7.59994 64.7984 8.39994C64.6984 8.39994 64.6984 8.49994 64.5984 8.59994V7.59994H62.3984V16.0999H64.6984V15.7999C64.6984 14.4999 64.6984 13.0999 64.6984 11.8999C64.6984 11.3999 64.7984 10.9999 64.9984 10.5999C65.3984 9.99994 65.9984 9.69994 66.6984 9.59994C66.9984 9.59994 67.2984 9.59994 67.5984 9.59994C67.4984 8.89994 67.4984 7.59994 67.4984 7.49994Z" fill="white"/>
<path d="M58.0016 7.5999V8.1999C57.3016 7.6999 56.4016 7.3999 55.5016 7.3999C53.1016 7.3999 51.1016 9.3999 51.1016 11.8999C51.1016 14.3999 53.1016 16.3999 55.5016 16.3999C57.3016 16.3999 58.0016 15.2999 58.0016 15.2999V15.9999H60.3016V7.4999L58.0016 7.5999ZM55.8016 14.2999C54.3016 14.2999 53.4016 13.2999 53.4016 11.7999C53.4016 10.2999 54.4016 9.2999 55.8016 9.2999C57.2016 9.2999 58.2016 10.3999 58.2016 11.7999C58.2016 13.1999 57.3016 14.2999 55.8016 14.2999Z" fill="white"/>
<path d="M48.6992 4.5C48.5992 4.5 48.4992 4.6 48.4992 4.7C46.9992 6.7 45.4992 8.5 43.9992 10.5C43.8992 10.6 43.8992 10.6 43.7992 10.7C43.6992 10.6 43.6992 10.6 43.5992 10.5C42.0992 8.5 40.5992 6.7 39.0992 4.7C38.9992 4.6 38.9992 4.5 38.8992 4.5C38.6992 4.5 38.3992 4.5 38.1992 4.5V16.1H40.4992V10C40.5992 10.1 40.5992 10.2 40.6992 10.2C41.4992 11.2 42.2992 12.2 42.9992 13.1C43.1992 13.4 43.3992 13.5 43.6992 13.5C43.9992 13.5 44.1992 13.4 44.3992 13.1C45.1992 12.1 45.9992 11.1 46.6992 10.2C46.6992 10.1 46.7992 10.1 46.8992 10V16.1H49.1992V4.5C49.0992 4.5 48.8992 4.5 48.6992 4.5Z" fill="white"/>
</g>
<defs>
<clipPath id="clip0_1217_3912">
<rect width="92.9" height="20" fill="white"/>
</clipPath>
</defs>
</svg>
