<svg width="80" height="19" viewBox="0 0 80 19" fill="none" xmlns="http://www.w3.org/2000/svg">
<g clip-path="url(#clip0_5788_50313)">
<path d="M30.9309 9.81973H26.7503V11.2729H29.2753C28.9895 12.2258 28.1558 12.857 26.8456 12.857C25.1066 12.857 23.999 11.6897 23.999 10.1413C23.999 8.55721 25.1423 7.38999 26.7264 7.38999C27.7389 7.38999 28.5845 7.87833 28.9656 8.54529L30.3712 7.7354C29.6684 6.59196 28.3225 5.79395 26.7383 5.79395C24.2491 5.79395 22.3672 7.72348 22.3672 10.1413C22.3672 12.5235 24.2252 14.465 26.8337 14.465C29.2276 14.465 30.9309 12.869 30.9309 10.4629V9.81973Z" fill="#EAEAEA"/>
<path d="M36.5545 8.34306V9.04582C36.1258 8.50972 35.4827 8.17627 34.613 8.17627C33.0289 8.17627 31.7188 9.54599 31.7188 11.3208C31.7188 13.0954 33.0289 14.4652 34.613 14.4652C35.4827 14.4652 36.1258 14.1317 36.5545 13.5957V14.2983H38.0911V8.34306H36.5545ZM34.8991 13.0001C33.958 13.0001 33.2554 12.3211 33.2554 11.3208C33.2554 10.3203 33.958 9.64133 34.8991 9.64133C35.8519 9.64133 36.5545 10.3203 36.5545 11.3208C36.5545 12.3211 35.8519 13.0001 34.8991 13.0001Z" fill="#EAEAEA"/>
<path d="M46.0709 8.17627C45.2611 8.17627 44.6655 8.49781 44.2963 9.0339C43.9628 8.48589 43.4149 8.17627 42.6764 8.17627C41.9141 8.17627 41.3543 8.47397 41.0208 8.97432V8.34306H39.4844V14.2983H41.0208V10.9515C41.0208 10.0583 41.4854 9.60558 42.1405 9.60558C42.7837 9.60558 43.1409 10.0344 43.1409 10.737V14.2983H44.6775V10.9515C44.6775 10.0583 45.1061 9.60558 45.7851 9.60558C46.4282 9.60558 46.7856 10.0344 46.7856 10.737V14.2983H48.322V10.6299C48.322 9.14098 47.4288 8.17627 46.0709 8.17627Z" fill="#EAEAEA"/>
<path d="M50.9244 11.952H55.4147C55.4504 11.7494 55.4743 11.547 55.4743 11.3208C55.4743 9.56983 54.2237 8.17627 52.4608 8.17627C50.5908 8.17627 49.3164 9.54599 49.3164 11.3208C49.3164 13.0954 50.5789 14.4652 52.58 14.4652C53.7233 14.4652 54.6168 14.0006 55.1765 13.1907L53.9378 12.476C53.6758 12.8215 53.1993 13.0716 52.6038 13.0716C51.7938 13.0716 51.1387 12.738 50.9244 11.952ZM50.9005 10.7608C51.0793 9.99867 51.639 9.55791 52.4608 9.55791C53.104 9.55791 53.7471 9.90333 53.9378 10.7608H50.9005Z" fill="#EAEAEA"/>
<path d="M58.0835 9.36712V8.34277H56.5469V14.298H58.0835V11.4514C58.0835 10.2008 59.0959 9.84346 59.8939 9.9388V8.22363C59.1434 8.22363 58.3932 8.5571 58.0835 9.36712Z" fill="#EAEAEA"/>
<path d="M63.9719 5.96094H60.8633V14.2984H62.507V11.559H63.9719C65.5799 11.559 66.8185 10.3203 66.8185 8.76004C66.8185 7.19966 65.5799 5.96094 63.9719 5.96094ZM63.9719 10.0226H62.507V7.49741H63.9719C64.6747 7.49741 65.1868 8.03341 65.1868 8.76004C65.1868 9.47455 64.6747 10.0226 63.9719 10.0226Z" fill="#EAEAEA"/>
<path d="M71.949 8.34306V9.04582C71.5202 8.50972 70.877 8.17627 70.0076 8.17627C68.4235 8.17627 67.1133 9.54599 67.1133 11.3208C67.1133 13.0954 68.4235 14.4652 70.0076 14.4652C70.877 14.4652 71.5202 14.1317 71.949 13.5957V14.2983H73.4855V8.34306H71.949ZM70.2934 13.0001C69.3525 13.0001 68.6497 12.3211 68.6497 11.3208C68.6497 10.3203 69.3525 9.64133 70.2934 9.64133C71.2463 9.64133 71.949 10.3203 71.949 11.3208C71.949 12.3211 71.2463 13.0001 70.2934 13.0001Z" fill="#EAEAEA"/>
<path d="M78.7609 8.34277L77.4387 12.3447L75.8904 8.34277H74.2109L76.6527 14.1075C76.3667 14.9055 75.9381 15.2628 75.0923 15.2509V16.6803C76.6051 16.7637 77.6173 16.0132 78.2368 14.298L80.4045 8.34277H78.7609Z" fill="#EAEAEA"/>
<path d="M16.3874 4.72085V2.60994H14.2765V0.499023H12.1587H10.0532H7.94767H5.84225H3.72183V2.60994H1.61092V4.72085H-0.5V6.80667V8.94272V11.0536V13.1645V14.2199V15.2755H1.61092V17.3864H3.72183V19.4973H5.84205H6.88822H7.9437H10.0546H12.1655H14.2765V17.3864H16.3874V15.2755H18.4983V13.1185V11.0536V8.94272V7.88002V7.34714V6.81322V4.72085H16.3874Z" fill="url(#paint0_linear_5788_50313)"/>
<path d="M16.3884 4.72078V2.60986H14.2773V3.92917V4.19304V4.72078H15.3324H16.3884V7.09556V8.28297V9.33841V10.5258V11.7132V13.1645V13.956V14.4838V14.7476V15.2754L15.3409 15.2726H14.7316L14.2773 15.2754V15.404V15.6712V16.0669V16.3308V16.7267V17.3863H16.3884V15.2754H18.4993V13.1185V11.0536V8.94256V7.87993V7.34705V6.81314V4.72078H16.3884Z" fill="#0A7BD1"/>
<path fill-rule="evenodd" clip-rule="evenodd" d="M11.9125 4.646H5.75143C5.73509 4.646 5.72184 4.65924 5.72184 4.67558V6.68979C5.72184 6.70613 5.73509 6.71938 5.75143 6.71938H11.9125C11.9287 6.71938 11.942 6.70613 11.942 6.68979V4.67558C11.942 4.65924 11.9287 4.646 11.9125 4.646ZM3.64844 6.74902V12.7027C3.64844 12.7191 3.66168 12.7322 3.67802 12.7322H5.69224C5.70859 12.7322 5.72184 12.7191 5.72184 12.7027V6.74902C5.72184 6.73268 5.70859 6.71943 5.69224 6.71943H3.67802C3.66168 6.71943 3.64844 6.73268 3.64844 6.74902ZM7.79522 10.6293V8.61511C7.79522 8.59871 7.80835 8.58558 7.82476 8.58558H13.9857C14.0021 8.58558 14.0154 8.59871 14.0154 8.61511V12.7027C14.0154 12.7191 14.0021 12.7322 13.9857 12.7322H11.9716C11.9552 12.7322 11.942 12.7191 11.942 12.7027V10.6885C11.942 10.6721 11.9287 10.6588 11.9123 10.6588H7.82476C7.80835 10.6588 7.79522 10.6457 7.79522 10.6293ZM11.9125 12.7322H5.75143C5.73509 12.7322 5.72184 12.7455 5.72184 12.7619V14.7761C5.72184 14.7923 5.73509 14.8056 5.75143 14.8056H11.9125C11.9287 14.8056 11.942 14.7923 11.942 14.7761V12.7619C11.942 12.7455 11.9287 12.7322 11.9125 12.7322Z" fill="#121626"/>
</g>
<defs>
<linearGradient id="paint0_linear_5788_50313" x1="1.20497" y1="1.22973" x2="14.6012" y2="19.4973" gradientUnits="userSpaceOnUse">
<stop stop-color="#00A3FF"/>
<stop offset="1" stop-color="#0291FF"/>
</linearGradient>
<clipPath id="clip0_5788_50313">
<rect width="80" height="19" fill="white"/>
</clipPath>
</defs>
</svg>
