<svg width="67" height="21" viewBox="0 0 67 21" fill="none" xmlns="http://www.w3.org/2000/svg">
  <g clip-path="url(#clip0_5852_59796)">
    <path d="M5 0V18.8276C5 20.0345 4 21 2.75 21C2.675 21 2.6 21 2.525 21H2.5H0V2.24483C0 2.22069 0 2.19655 0 2.17241C0 0.989655 0.975 0.0241379 2.2 0H5Z" fill="#3A85CF"/>
    <path d="M26.9758 4.05682L24.265 0H15.2611C15.2611 0 8 1.16932 8 10.0943C8 19.6398 15.5274 21 15.5274 21H27V8.35227H17.5605C17.028 8.35227 16.5924 8.78182 16.5924 9.30682V11.2159C16.5924 11.7409 17.028 12.1705 17.5605 12.1705H23.1274V16.9432H16.4471C16.4471 16.9432 12.4777 16.7284 12.4777 10.0943C12.5019 4.91591 16.4471 4.05682 16.4471 4.05682H26.9758Z" fill="#3A85CF"/>
    <path d="M41.0996 10.1659L48 21H44.1904C43.4477 21 42.8008 20.5943 42.4174 19.9739C41.1236 17.9693 39.8298 15.9409 38.512 13.9364C37.2661 15.8693 36.0202 17.8023 34.7743 19.7591C34.4149 20.4989 33.6961 21 32.8575 21H29.024L35.9243 10.1659L29 0H32.8335C33.6721 0 34.3909 0.477273 34.7503 1.16932C35.9962 2.98295 37.2421 4.82045 38.488 6.63409C39.7818 4.74886 41.0757 2.83977 42.3934 0.954545C42.7768 0.381818 43.4237 0 44.1665 0H47.976L41.0996 10.1659Z" fill="white"/>
    <path d="M56.2877 4.08068C54.9603 4.08068 53.9356 5.27386 54.2384 6.68182C54.4479 7.66023 55.3562 8.35227 56.3342 8.35227H67V10.2614C67 11.4545 66.0685 12.4091 64.9041 12.4091H56.2877C55.0301 12.4091 54.0288 13.5545 54.2151 14.867C54.3548 15.9409 55.3096 16.7045 56.3575 16.7045H64.9041C66.0452 16.7045 66.9767 17.6591 67 18.8284V21H53.4466L50.0233 17.492L50 0H67V1.90909C67 1.93295 67 1.95682 67 1.98068C66.9767 3.12614 66.0685 4.05682 64.9507 4.08068H56.2877Z" fill="white"/>
    <path fill-rule="evenodd" clip-rule="evenodd" d="M36.1269 10.4165C36.0614 10.3361 35.9938 10.2528 35.9238 10.166L29.0234 21.0001H32.857C33.6956 21.0001 34.4144 20.499 34.7738 19.7592C36.018 17.805 37.2622 15.8746 38.5064 13.9443L36.1269 10.4165Z" fill="#3A85CF"/>
  </g>
  <defs>
    <clipPath id="clip0_5852_59796">
      <rect width="67" height="21" fill="white"/>
    </clipPath>
  </defs>
</svg>
