<svg width="84" height="24" viewBox="0 0 84 24" fill="none" xmlns="http://www.w3.org/2000/svg">
  <g clip-path="url(#clip0_5849_50779)">
    <path d="M24.0256 12.2168L23.8159 11.669L19.6361 0.744809L19.3689 0.0449219L19.0238 0.710164L15.9349 6.64695H10.9547L7.86696 0.710164L7.52185 0.0449219L7.25458 0.744809L3.07506 11.669L2.86538 12.2168L2.79587 12.3979L0.332652 18.8355L0.0390625 19.6038L0.78822 19.2622L3.95965 17.8132L7.9475 18.79L10.5988 21.9376L11.1286 22.3896L13.3149 23.3977L13.4564 23.4625L13.5979 23.3966L15.7614 22.3909L16.2901 21.939L18.9425 18.7891L22.9304 17.8123L26.1018 19.2613L26.8499 19.6029L26.5563 18.8346L24.0944 12.3981L24.0256 12.2168Z" fill="#1E1F2B" stroke="#1D1D1B" stroke-width="2"/>
    <path d="M23.7095 12.3366L18.7556 18.4889L15.795 22.0057L13.4445 20.3672L11.0928 22.0032L8.13357 18.4889L3.17969 12.3364L7.56776 0.865723L10.75 6.98451H16.139L19.3212 0.865723L23.7095 12.3366Z" fill="#FF7200"/>
    <path d="M9.59838 6.98366H6.32031L7.70951 3.35059L9.59838 6.98366Z" fill="#FF6700"/>
    <path d="M20.5671 6.98366H17.2891L19.1782 3.35059L20.5671 6.98366Z" fill="#FF6700"/>
    <path d="M8.13505 18.4892L3.92673 17.4584L0.648438 18.9556L3.18117 12.3369L8.13505 18.4892Z" fill="#E7E7E7"/>
    <path d="M26.2442 18.9556L22.9659 17.4586L18.7578 18.4892L23.7117 12.3369L26.2442 18.9556Z" fill="#E7E7E7"/>
    <path d="M15.7948 22.0047L13.4551 23.0917L11.0938 22.0022L13.4454 20.3662L15.7948 22.0047Z" fill="#1E1F2B"/>
    <path d="M11.1758 7.99512L13.4471 13.6968L15.7184 7.99512H11.1758Z" fill="#FF6700"/>
    <path d="M7.90625 12.2251H9.57104L11.1857 14.0278V15.3464L8.70085 13.5833L7.90625 12.2251Z" fill="#1E1F2B"/>
    <path d="M17.3217 12.2252L15.707 14.0279V15.3465L18.1918 13.5834L18.9864 12.2241H17.3217V12.2252Z" fill="#1E1F2B"/>
    <path d="M32.2461 7.2168H34.3518V14.8298H38.2528V16.7736H32.2461V7.2168Z" fill="white"/>
    <path d="M39.0195 8.14847C39.0195 7.82452 39.1343 7.5478 39.3637 7.31833C39.5932 7.08886 39.8699 6.97412 40.1939 6.97412C40.5178 6.97412 40.7946 7.08886 41.024 7.31833C41.2535 7.5478 41.3682 7.82452 41.3682 8.14847C41.3682 8.47243 41.2535 8.74915 41.024 8.97862C40.7946 9.20809 40.5178 9.32283 40.1939 9.32283C39.8699 9.32283 39.5932 9.20809 39.3637 8.97862C39.1345 8.74915 39.0195 8.47243 39.0195 8.14847ZM39.1815 10.2137H41.2063V16.7739H39.1815V10.2137Z" fill="white"/>
    <path d="M46.3769 12.144C46.08 11.775 45.6885 11.5906 45.2026 11.5906C45.0316 11.5906 44.8651 11.6311 44.7031 11.7121C44.5412 11.793 44.4602 11.9327 44.4602 12.1305C44.4602 12.2925 44.5432 12.4119 44.7099 12.4882C44.8764 12.5647 45.0878 12.6322 45.3443 12.6907C45.6008 12.7494 45.8752 12.8122 46.1677 12.8797C46.4599 12.9471 46.7346 13.0531 46.9911 13.1969C47.2476 13.3408 47.4588 13.5366 47.6255 13.784C47.792 14.0317 47.8752 14.3624 47.8752 14.7762C47.8752 15.1993 47.7828 15.5478 47.5985 15.8223C47.414 16.097 47.1778 16.3172 46.8899 16.4837C46.6017 16.6504 46.2777 16.7672 45.918 16.8347C45.558 16.9022 45.2026 16.9359 44.8516 16.9359C44.3927 16.9359 43.929 16.8704 43.4613 16.7402C42.9933 16.6099 42.5974 16.378 42.2734 16.045L43.5018 14.6817C43.6908 14.9159 43.9 15.0934 44.1295 15.2149C44.3589 15.3363 44.6266 15.3971 44.9326 15.3971C45.1666 15.3971 45.3781 15.3633 45.567 15.2959C45.756 15.2284 45.8505 15.1049 45.8505 14.9246C45.8505 14.7539 45.7673 14.6257 45.6008 14.5399C45.4341 14.4545 45.2228 14.3827 44.9663 14.324C44.7099 14.2655 44.4352 14.2025 44.143 14.135C43.8505 14.0675 43.576 13.9663 43.3196 13.8313C43.0631 13.6963 42.8516 13.5053 42.6851 13.2576C42.5184 13.0101 42.4354 12.6794 42.4354 12.2655C42.4354 11.8788 42.5142 11.5456 42.6716 11.2666C42.8289 10.9879 43.0361 10.7584 43.2926 10.5782C43.549 10.3982 43.8437 10.2657 44.1767 10.18C44.5094 10.0945 44.8469 10.0518 45.1891 10.0518C45.621 10.0518 46.0575 10.1148 46.4984 10.2407C46.9391 10.3669 47.3128 10.5917 47.6188 10.9157L46.3769 12.144Z" fill="white"/>
    <path d="M51.8596 14.2228H48.5391V12.603H51.8596V14.2228Z" fill="white"/>
    <path d="M56.623 12.144C56.3261 11.775 55.9346 11.5906 55.4487 11.5906C55.2777 11.5906 55.1112 11.6311 54.9492 11.7121C54.7872 11.793 54.7063 11.9327 54.7063 12.1305C54.7063 12.2925 54.7893 12.4119 54.956 12.4882C55.1225 12.5647 55.3339 12.6322 55.5904 12.6907C55.8469 12.7494 56.1213 12.8122 56.4138 12.8797C56.706 12.9471 56.9807 13.0531 57.2372 13.1969C57.4937 13.3408 57.7049 13.5366 57.8716 13.784C58.0381 14.0317 58.1213 14.3624 58.1213 14.7762C58.1213 15.1993 58.0289 15.5478 57.8446 15.8223C57.6601 16.097 57.4239 16.3172 57.136 16.4837C56.8478 16.6504 56.5238 16.7672 56.1641 16.8347C55.8041 16.9022 55.4487 16.9359 55.0977 16.9359C54.6388 16.9359 54.1751 16.8704 53.7074 16.7402C53.2394 16.6099 52.8435 16.378 52.5195 16.045L53.7479 14.6817C53.9369 14.9159 54.1461 15.0934 54.3755 15.2149C54.605 15.3363 54.8727 15.3971 55.1787 15.3971C55.4127 15.3971 55.6241 15.3633 55.8131 15.2959C56.0021 15.2284 56.0966 15.1049 56.0966 14.9246C56.0966 14.7539 56.0133 14.6257 55.8469 14.5399C55.6802 14.4545 55.4689 14.3827 55.2124 14.324C54.956 14.2655 54.6813 14.2025 54.389 14.135C54.0966 14.0675 53.8221 13.9663 53.5657 13.8313C53.3092 13.6963 53.0977 13.5053 52.9312 13.2576C52.7645 13.0101 52.6815 12.6794 52.6815 12.2655C52.6815 11.8788 52.7603 11.5456 52.9177 11.2666C53.075 10.9879 53.2822 10.7584 53.5387 10.5782C53.7951 10.3982 54.0898 10.2657 54.4228 10.18C54.7555 10.0945 55.093 10.0518 55.4352 10.0518C55.8671 10.0518 56.3036 10.1148 56.7445 10.2407C57.1852 10.3669 57.5589 10.5917 57.8649 10.9157L56.623 12.144Z" fill="white"/>
    <path d="M59.1602 6.56934H61.1849V12.8056L63.4256 10.2139H65.9093L63.3041 13.17L65.9768 16.7741H63.4256L61.2119 13.4535H61.1849V16.7741H59.1602V6.56934Z" fill="white"/>
    <path d="M66.5312 8.14847C66.5312 7.82452 66.646 7.5478 66.8755 7.31833C67.1049 7.08886 67.3816 6.97412 67.7056 6.97412C68.0296 6.97412 68.3063 7.08886 68.5357 7.31833C68.7652 7.5478 68.88 7.82452 68.88 8.14847C68.88 8.47243 68.7652 8.74915 68.5357 8.97862C68.3063 9.20809 68.0296 9.32283 67.7056 9.32283C67.3816 9.32283 67.1049 9.20809 66.8755 8.97862C66.646 8.74915 66.5312 8.47243 66.5312 8.14847ZM66.6932 10.2137H68.718V16.7739H66.6932V10.2137Z" fill="white"/>
    <path d="M70.1758 10.2137H72.1195V11.1046H72.1465C72.2093 10.9786 72.2995 10.8529 72.4165 10.7267C72.5333 10.6007 72.673 10.4884 72.8349 10.3892C72.9969 10.2902 73.1812 10.2092 73.3884 10.1462C73.5953 10.0835 73.8203 10.0518 74.0633 10.0518C74.5762 10.0518 74.99 10.1307 75.3051 10.288C75.6201 10.4455 75.8653 10.6639 76.0408 10.9426C76.2163 11.2216 76.3355 11.5501 76.3985 11.928C76.4613 12.306 76.493 12.7156 76.493 13.1564V16.7739H74.4682V13.5613C74.4682 13.3723 74.4615 13.1766 74.448 12.9741C74.4345 12.7717 74.394 12.5849 74.3265 12.414C74.259 12.2432 74.1555 12.1035 74.0161 11.9955C73.8763 11.8875 73.6763 11.8335 73.4154 11.8335C73.1542 11.8335 72.9429 11.8808 72.781 11.9753C72.619 12.0698 72.4952 12.196 72.4097 12.3532C72.324 12.5107 72.268 12.6887 72.241 12.8864C72.214 13.0844 72.2005 13.2914 72.2005 13.5073V16.7739H70.1758V10.2137Z" fill="white"/>
    <path d="M81.6347 12.144C81.3378 11.775 80.9463 11.5906 80.4604 11.5906C80.2894 11.5906 80.1229 11.6311 79.9609 11.7121C79.799 11.793 79.718 11.9327 79.718 12.1305C79.718 12.2925 79.801 12.4119 79.9677 12.4882C80.1342 12.5647 80.3456 12.6322 80.6021 12.6907C80.8586 12.7494 81.133 12.8122 81.4255 12.8797C81.7177 12.9471 81.9924 13.0531 82.2489 13.1969C82.5054 13.3408 82.7166 13.5366 82.8833 13.784C83.0498 14.0317 83.133 14.3624 83.133 14.7762C83.133 15.1993 83.0406 15.5478 82.8563 15.8223C82.6719 16.097 82.4356 16.3172 82.1477 16.4837C81.8595 16.6504 81.5355 16.7672 81.1758 16.8347C80.8158 16.9022 80.4604 16.9359 80.1094 16.9359C79.6505 16.9359 79.1868 16.8704 78.7191 16.7402C78.2512 16.6099 77.8552 16.378 77.5312 16.045L78.7596 14.6817C78.9486 14.9159 79.1578 15.0934 79.3873 15.2149C79.6167 15.3363 79.8845 15.3971 80.1904 15.3971C80.4244 15.3971 80.6359 15.3633 80.8248 15.2959C81.0138 15.2284 81.1083 15.1049 81.1083 14.9246C81.1083 14.7539 81.0251 14.6257 80.8586 14.5399C80.6919 14.4545 80.4806 14.3827 80.2242 14.324C79.9677 14.2655 79.693 14.2025 79.4008 14.135C79.1083 14.0675 78.8338 13.9663 78.5774 13.8313C78.3209 13.6963 78.1094 13.5053 77.9429 13.2576C77.7762 13.0101 77.6932 12.6794 77.6932 12.2655C77.6932 11.8788 77.772 11.5456 77.9294 11.2666C78.0867 10.9879 78.2939 10.7584 78.5504 10.5782C78.8068 10.3982 79.1016 10.2657 79.4345 10.18C79.7672 10.0945 80.1047 10.0518 80.4469 10.0518C80.8788 10.0518 81.3153 10.1148 81.7562 10.2407C82.1969 10.3669 82.5706 10.5917 82.8766 10.9157L81.6347 12.144Z" fill="white"/>
  </g>
  <defs>
    <clipPath id="clip0_5849_50779">
      <rect width="84" height="24" fill="white"/>
    </clipPath>
  </defs>
</svg>
