<svg width="99" height="20" viewBox="0 0 99 20" fill="none" xmlns="http://www.w3.org/2000/svg">
<path d="M21.4286 1H97.7143V19H21.4286V1Z" fill="#202A31" stroke="#5C768D" stroke-linejoin="round"/>
<path fill-rule="evenodd" clip-rule="evenodd" d="M81.3372 6.16161V7.17417C81.3372 7.17417 82.5467 7.06617 82.6209 8.36224C82.6951 9.92833 81.3298 9.95533 81.3298 9.95533V10.6101L82.4577 13.8301H85.218V12.8377L84.5131 12.5542L83.734 10.6979C83.734 10.6979 85.0919 10.0903 85.0993 8.62551C85.0993 7.16067 84.3276 6.49913 83.1107 6.16161H81.3372ZM56.4048 6.16161V6.83665L57.2953 8.38924L58.0373 8.15298L58.1338 6.16161H56.4048ZM71.6462 6.16161V6.86365L72.1286 7.01891L74.4734 12.642L73.8204 13.0133V13.8368H77.5677V12.9188H77.1224L74.7257 6.16837L71.6462 6.16161ZM77.9832 6.16161L77.5602 7.17417L78.3023 7.39018V12.9255H77.9535V13.8368H81.404V12.8918H80.7881V6.16161H77.9832ZM85.8636 6.16161V7.03917L86.383 7.07292L88.5201 12.1087L89.6183 13.0943L90.7536 10.6439L88.8095 6.16161H85.8636ZM91.4734 6.16161L90.4642 8.48375L91.607 11.2109V12.8985H90.9614V13.8436H94.1892V13.0335H93.7663V6.95816H94.2857V6.16837L91.4734 6.16161ZM37.2307 6.16161V6.94466C37.2307 6.94466 38.4921 6.91091 38.5812 9.61106C38.5812 13.2563 37.2307 13.0875 37.2307 13.0875L37.2158 13.8301C37.2158 13.8301 38.6554 13.9246 39.1674 13.6748C40.132 13.2023 41.4454 12.237 41.4232 10.0633C41.1857 7.22817 39.85 6.05361 37.2232 6.14812L37.2307 6.16161ZM46.2315 6.16161V6.92441C47.5301 7.24167 47.5078 8.62551 47.5227 9.75957C47.5375 10.9071 47.5227 12.885 46.2315 13.0943L46.2167 13.8368C46.2167 13.8368 47.6563 13.9313 48.1683 13.6815C49.1329 13.209 50.4463 12.2437 50.424 10.0701C50.2237 7.36993 48.747 6.15486 46.2315 6.15486V6.16161ZM63.8326 6.16161L63.0312 6.90416L63.4022 7.28218L63.9439 7.22818V13.1145H63.5729V13.8301H67.0827V12.9863H66.5114V10.7046H68.782V9.4423H66.5262V6.15486L63.8326 6.16161ZM67.0605 6.16161V6.97166C67.0605 6.97166 68.6633 6.76915 69.1233 8.41624L69.8653 7.87621V6.16161H67.0605ZM53.0583 6.16161H50.9583V8.44324L51.641 8.60526L53.0508 6.7624L53.0583 6.16161ZM53.6296 6.16161V12.804H52.8579V13.8368H56.5903V12.7567H55.8261V6.16161H53.6296ZM25.7143 6.16161V7.17417H26.2857V12.831H25.7143V13.8436H29.5729V12.966L28.8754 12.9863V7.07292H29.5654V6.16837L25.7143 6.16161ZM32.9862 10.1443C32.9862 12.3045 33.4834 13.2225 34.3961 13.6073C35.3385 13.9583 36.6741 13.8368 36.6741 13.8368V13.128C36.6741 13.128 35.5833 13.4655 35.5908 10.3131C35.6056 7.15392 36.6519 6.96491 36.6519 6.96491V6.15486C33.9063 6.17511 33.0159 8.74026 32.9862 10.1376V10.1443ZM41.9277 10.1781C41.9277 12.3247 42.4249 13.2158 43.3376 13.6005C44.0796 13.9381 45.6824 13.8368 45.6824 13.8368V13.128C45.6824 13.128 44.6436 13.2158 44.6065 10.3131C44.562 7.41044 45.6602 6.88391 45.6602 6.88391V6.16161C42.9146 6.14811 41.9648 8.71326 41.9352 10.1781H41.9277ZM72.1657 8.53775L70.6296 12.3382L70.0138 12.7837H69.4572V13.8368H72.648V12.9323H71.7946L72.2844 11.9872H73.5978L73.1674 10.9611H72.3734V10.4211L72.8409 10.1511L72.1657 8.53775ZM86.8357 9.57731L86.3534 12.9053H85.7597V13.8301H88.6685V12.777H87.8226V11.8859L86.8357 9.57731ZM31.5244 10.9746C31.5244 12.6892 30.1294 12.9525 30.1294 12.9525V13.8301H32.2442L32.4965 11.2514L31.5244 10.9746ZM61.2355 11.4809C60.538 11.4809 59.974 12.0007 59.974 12.642C59.974 13.2833 60.538 13.8301 61.2355 13.8301C61.933 13.8301 62.4969 13.29 62.4969 12.642C62.4969 12.0007 61.933 11.4809 61.2355 11.4809Z" fill="black"/>
<path fill-rule="evenodd" clip-rule="evenodd" d="M80.4935 5.29986V6.42587C80.4935 6.42587 81.6957 6.29826 81.7699 7.73955C81.8442 9.48112 80.4861 9.51865 80.4861 9.51865V10.2393L81.5993 13.8275H84.3673V12.7315L83.6623 12.4163L82.8905 10.3369C82.8905 10.3369 84.256 9.66128 84.256 8.03982C84.256 6.38834 83.4842 5.66019 82.2746 5.29236L80.4935 5.29986ZM55.5584 5.29986V6.05053L56.449 7.77709L57.1911 7.51435L57.2876 5.29236L55.5584 5.29986ZM70.7941 5.29986V6.07306L71.2839 6.25322L73.6215 12.5138L72.9685 12.9192V13.8425H76.7236V12.8216H76.2783L73.8738 5.31488L70.7941 5.29986ZM77.1317 5.29986L76.7161 6.42587L77.4583 6.65108V12.8066H77.1095V13.835H80.5677V12.7841H79.9443V5.30737L77.1317 5.29986ZM85.0204 5.29986V6.27574L85.5399 6.30577L87.6772 11.9058L88.7681 13.0018L89.9109 10.2843L87.9666 5.29986H85.0204ZM90.6234 5.29986L89.6215 7.87467L90.757 10.9149V12.7766H90.1187V13.8275H93.3395V12.9267H92.9239V6.18566H93.4286V5.29986H90.6234ZM36.3748 5.29986V6.17064C36.3748 6.17064 37.6364 6.13311 37.7328 9.14332C37.7328 13.197 36.3822 13.0018 36.3822 13.0018L36.3599 13.8275C36.3599 13.8275 37.7996 13.9401 38.3117 13.6549C39.2764 13.1294 40.5974 12.0634 40.5751 9.64627C40.3377 6.49343 38.9944 5.17975 36.3673 5.29236L36.3748 5.29986ZM45.3766 5.29986V6.14062C46.6827 6.49343 46.6531 8.03983 46.6753 9.29345C46.6902 10.5696 46.6753 12.7691 45.3915 13.0018L45.3692 13.8275C45.3692 13.8275 46.8089 13.9401 47.321 13.6549C48.2857 13.1294 49.6067 12.0634 49.5844 9.64627C49.3618 6.64357 47.8998 5.27734 45.3766 5.29236V5.29986ZM62.9796 5.29986L62.1855 6.12561L62.5566 6.53847L63.1057 6.48593V13.0318H62.7347V13.8275H66.2449V12.8892H65.6735V10.3519H67.9443V8.94814H65.6735V5.29986H62.9796ZM66.2078 5.29986V6.18566C66.2078 6.18566 67.8182 5.96045 68.2709 7.79961L69.013 7.19907V5.29986H66.2078ZM52.2041 5.29986H50.1113V7.82963L50.7792 8.0173L52.2041 5.96046V5.29986ZM52.7829 5.29986V12.6865H52.0037V13.835H55.7365V12.649H54.9722V5.30737L52.7829 5.29986ZM24.8571 5.29986V6.42587H25.4286V12.7165H24.8571V13.8425H28.7161V12.8517L28.0185 12.8742V6.29826H28.7161V5.29986H24.8571ZM32.1299 9.72884C32.1299 12.116 32.6271 13.1519 33.5399 13.5723C34.4824 13.9702 35.8182 13.835 35.8182 13.835V13.0468C35.8182 13.0468 34.7347 13.4222 34.7421 9.91651C34.7421 6.41086 35.7959 6.19316 35.7959 6.19316V5.30737C33.0501 5.30737 32.1596 8.17495 32.1224 9.73635L32.1299 9.72884ZM41.0798 9.75887C41.0798 12.161 41.5696 13.1369 42.475 13.5648C43.2319 13.9401 44.8275 13.835 44.8275 13.835V13.0468C44.8275 13.0468 43.7885 13.1444 43.7588 9.91651C43.7143 6.68861 44.8126 6.10309 44.8126 6.10309V5.30737C42.0668 5.28485 41.1169 8.13741 41.0872 9.76638L41.0798 9.75887ZM71.3135 7.93473L69.7774 12.176L69.1614 12.664H68.6122V13.835H71.7885V12.8291H70.9425L71.4397 11.7932H72.7532L72.3228 10.6372H71.5362V10.0366L71.9814 9.73635L71.3135 7.93473ZM85.9852 9.09828L85.5028 12.7991H84.9091V13.835H87.8182V12.6715H86.9722V11.6806L85.9852 9.09828ZM30.6679 10.6522C30.6679 12.5589 29.2727 12.8517 29.2727 12.8517L29.2876 13.8275H31.3952L31.6475 10.9599L30.6679 10.6522ZM60.3896 11.2152C59.6846 11.2152 59.128 11.8007 59.128 12.5138C59.128 13.227 59.692 13.8275 60.3896 13.835C61.0872 13.835 61.6512 13.2345 61.6512 12.5214C61.6512 11.8007 61.0872 11.2227 60.3896 11.2227V11.2152Z" fill="#7BD3F7"/>
<path d="M3.42857 7.85045L7.73497 7.81566L9.00332 3.57143L10.3447 7.8922L14.5714 7.85741L11.2844 10.4561L12.4929 14.7143L9.08301 12.1156L5.62992 14.7038L6.90159 10.5083L3.42857 7.85045Z" fill="#7BD3F7"/>
<path d="M1.85709 8.75558H0.536342C0.844739 6.04952 2.69177 2.5914 6.99927 1.6379V1L8.82954 2.15159L7.01268 3.3401L6.99927 2.97079C4.14995 3.66577 2.15543 6.05959 1.87049 8.75894L1.85709 8.75558ZM9.39941 2.83314V1.51032C12.0912 1.8192 15.5439 3.66913 16.4992 7.98338L17.1429 7.97331L15.9897 9.80645L14.8064 7.98338L15.1751 7.97331C14.4813 5.11952 12.0912 3.12523 9.3927 2.83649L9.39941 2.83314ZM7.7468 16.3097V17.6292C5.05168 17.3169 1.59897 15.4704 0.646964 11.1561L0 11.1662L1.15314 9.33305L2.3398 11.1561L1.97106 11.1662C2.67501 14.02 5.05503 16.0143 7.75686 16.303L7.7468 16.3097ZM15.2891 10.3873H16.6099C16.2981 13.09 14.4544 16.5481 10.1402 17.4982L10.1536 18.1429L8.32337 16.9879L10.1436 15.8028V16.1721C12.9929 15.467 14.9841 13.0833 15.2724 10.3738L15.2891 10.3873Z" fill="#7BD3F7"/>
</svg>
