<svg width="86" height="20" viewBox="0 0 86 20" fill="none" xmlns="http://www.w3.org/2000/svg">
<g clip-path="url(#clip0_1469_4693)">
<path fill-rule="evenodd" clip-rule="evenodd" d="M83.2307 18.1112H75.7863L74.8671 14.0708H72.5337L72.4933 18.1112L64.9378 18.6163L45.3014 18.1112L43.9883 16.9092V13.1819L49.0388 10.0001L53.463 9.39404H57.1095L66.4832 9.9193L83.2307 10.0001V18.1112Z" fill="url(#paint0_linear_1469_4693)"/>
<path fill-rule="evenodd" clip-rule="evenodd" d="M79.3728 12C78.5041 12 78.0193 12.5152 77.9688 13.1818H80.7566C80.6455 12.4141 80.1203 12 79.3728 12Z" fill="#313046"/>
<path fill-rule="evenodd" clip-rule="evenodd" d="M79.303 8.54545C78.1919 8.54545 77.1616 8.85859 76.2727 9.38384C76.2525 9.36364 76.2323 9.34344 76.2121 9.33333C76.0202 9.20202 75.0202 8.55556 73.5758 8.55556C72.9495 8.55556 72.4041 8.68687 71.9394 8.87879C71.7475 8.80808 71.5253 8.76768 71.303 8.76768H68.7778C68.0707 8.76768 67.4546 9.18182 67.1616 9.77778C66.1111 9.0101 64.7576 8.55556 63.2525 8.55556C62.2222 8.55556 61.2626 8.76768 60.4243 9.14141C61.1818 8.19192 61.6061 7.0101 61.6061 5.69697C61.6061 2.45455 58.9495 0 55.4243 0C53.9899 0 52.697 0.40404 51.6667 1.10101C51.4344 0.919192 50.2121 0 48.0505 0C46.4142 0 44.9091 0.69697 43.8384 1.78788C42.8687 0.606061 41.2929 0 39.7374 0C39.2121 0 38.6768 0.10101 38.1717 0.30303C37.9899 0.242424 37.8081 0.212121 37.6061 0.212121H35.0808C34.4546 0.212121 33.899 0.535354 33.5758 1.0202C32.6465 0.353535 31.4647 0 30.2929 0C29.7677 0 29.2323 0.10101 28.7273 0.30303C28.5455 0.242424 28.3636 0.212121 28.1616 0.212121H25.6364C25.3232 0.212121 25.0404 0.30303 24.7778 0.434343C24.5253 0.292929 24.2323 0.212121 23.9192 0.212121H21.3939C21.202 0.212121 21.0101 0.242424 20.8384 0.30303C20.2727 0.10101 19.6465 0 19 0C17.4849 0 16.1313 0.616162 15.1515 1.62626C14.3232 0.606061 13.0202 0 11.4545 0C10.6465 0 9.83839 0.242424 9.10101 0.69697C8.35354 0.242424 7.45455 0 6.46465 0C5.93939 0 5.40404 0.10101 4.89899 0.30303C4.71717 0.242424 4.53535 0.212121 4.33333 0.212121H1.80808C0.808081 0.212121 0 1.0202 0 2.0202V9.35354C0 10.3535 0.808081 11.1616 1.80808 11.1616H4.33333C4.80808 11.1616 5.24242 10.9798 5.56566 10.6768C5.88889 10.9798 6.32323 11.1616 6.79798 11.1616H9.32323C9.79798 11.1616 10.2323 10.9798 10.5556 10.6768C10.8788 10.9798 11.3131 11.1616 11.7879 11.1616H14.3131C14.9495 11.1616 15.5051 10.8384 15.8283 10.3434C16.7172 11 17.8081 11.3838 19 11.3838C19.6263 11.3838 20.2323 11.2727 20.798 11.0606C20.9899 11.1313 21.202 11.1717 21.4242 11.1717H23.9192C24.2323 11.1717 24.5152 11.0808 24.7778 10.9495C25.0303 11.0909 25.3232 11.1717 25.6364 11.1717H28.1616C28.7273 11.1717 29.2323 10.9091 29.5657 10.5051C29.899 10.9192 30.404 11.1717 30.9697 11.1717H33.495C33.7778 11.1717 34.0404 11.101 34.2828 10.9899C34.5253 11.101 34.7879 11.1717 35.0707 11.1717H37.596C38.1616 11.1717 38.6667 10.9091 39 10.5051C39.3333 10.9192 39.8384 11.1717 40.404 11.1717H42.9293C43.6162 11.1717 44.2121 10.7778 44.5152 10.2121C44.8081 10.4343 45.1313 10.6263 45.4748 10.7879C45.1919 11.303 45.0303 11.8788 45 12.4545C43.6061 12.6061 42.5152 13.7879 42.5152 15.2222C42.5152 16.5354 43.4243 17.6364 44.6465 17.9293C44.7374 18.1212 44.8687 18.3131 45.0404 18.4646C45.202 18.6162 46.6869 19.9394 49.101 19.9394C51.2727 19.9394 52.5657 19.2929 53.3131 18.4747C54.0707 19.404 55.2121 19.9394 56.6263 19.9394C58.0707 19.9394 59.1616 19.3636 59.3737 19.2525C59.495 19.1919 59.596 19.1111 59.6869 19.0202C60.6768 19.6061 61.8788 19.9394 63.2222 19.9394C64.7374 19.9394 66.0808 19.4848 67.1313 18.7172C67.4243 19.3131 68.0404 19.7273 68.7475 19.7273H71.2727C72.2727 19.7273 73.0808 18.9192 73.0808 17.9192V14.5354C73.202 14.6364 73.3232 14.7071 73.4546 14.7677C73.7172 17.6667 76.2222 19.9495 79.2626 19.9495C82.303 19.9495 83.8586 18.4242 84.6162 17.1515C84.8788 16.7172 84.9394 16.202 84.798 15.7172C84.7778 15.6566 84.7576 15.596 84.7374 15.5354C84.8485 15.3434 84.9293 15.1313 84.9697 14.9091C85.0101 14.697 85.0101 14.4848 85.0101 14.2727C85.0404 10.8384 82.7374 8.54545 79.303 8.54545ZM45.3232 16.1818C44.7879 16.1818 44.3434 15.7475 44.3434 15.202C44.3434 14.6566 44.7778 14.2222 45.3232 14.2222C45.8586 14.2222 46.303 14.6566 46.303 15.202C46.303 15.7475 45.8586 16.1818 45.3232 16.1818ZM49.1212 18.1111C47.3535 18.1111 46.2929 17.1212 46.2929 17.1212L47.3232 15.3939C47.3232 15.3939 48.3232 16.2323 49.1414 16.2323C49.495 16.2323 49.9293 16.1919 49.9293 15.7071C49.9293 15.1818 49.1313 15.1313 48.303 14.7071C47.5556 14.3232 46.8182 13.8081 46.8182 12.7071C46.8182 11.2121 48.0909 10.3535 50.0202 10.3535C51.4344 10.3535 52.4748 10.9293 52.4748 10.9293L51.6465 12.5859C51.6465 12.5859 50.7879 12.1313 50.0202 12.1313C49.4647 12.1313 49.2323 12.2323 49.2323 12.5758C49.2323 12.9596 49.7475 13.0707 50.3737 13.2727C51.3434 13.5758 52.6061 14.1111 52.6061 15.6162C52.596 17.7677 50.6263 18.1111 49.1212 18.1111ZM56.6566 18.1111C54.6465 18.1111 54.1616 16.6061 54.1616 15.3131V12.495H53.101V10.5657H54.1616V7.83838H56.6869V10.5657H58.2323V12.495H56.6869V14.8182C56.6869 15.5051 56.8586 15.8283 57.2626 15.8283C57.596 15.8283 57.8889 15.596 57.8889 15.596L58.5152 17.6364C58.5051 17.6566 57.697 18.1111 56.6566 18.1111ZM63.2525 18.1111C60.6061 18.1111 58.8384 16.495 58.8384 14.2424C58.8384 11.9596 60.7778 10.3535 63.2525 10.3535C65.6768 10.3535 67.6263 11.9495 67.6263 14.2424C67.6263 16.495 65.7778 18.1111 63.2525 18.1111ZM74.1212 12.9495C74.1212 12.9495 73.6465 12.5455 72.8081 12.5455C71.495 12.5455 71.303 13.8485 71.303 14.0303V17.8889H68.7778V10.5556H71.303V11.6162H71.3334C71.3334 11.6162 72.1313 10.3434 73.5758 10.3434C74.5152 10.3434 75.1717 10.798 75.1717 10.798L74.1212 12.9495ZM83.2222 14.5859H77.9091C77.9091 15.7172 78.8485 16.101 79.495 16.101C80.3131 16.101 80.6667 15.9394 81.2828 15.2828L83.1111 16.202C82.2828 17.5859 80.9394 18.1212 79.3131 18.1212C77.101 18.1212 75.2828 16.3737 75.2828 14.2525C75.2828 12.1111 77.101 10.3636 79.3131 10.3636C81.5455 10.3636 83.2424 11.6768 83.2424 14.2525C83.2323 14.3434 83.2323 14.4949 83.2222 14.5859Z" fill="#313046"/>
<path fill-rule="evenodd" clip-rule="evenodd" d="M63.2328 12.5151C62.2732 12.5151 61.5156 13.2323 61.5156 14.2424C61.5156 15.2424 62.2025 15.9596 63.2328 15.9596C64.2227 15.9596 64.9298 15.2424 64.9298 14.2424C64.9399 13.2222 64.1823 12.5151 63.2328 12.5151Z" fill="#313046"/>
<path fill-rule="evenodd" clip-rule="evenodd" d="M1.82031 2.01812H4.34557V2.7858H4.37587C4.95163 2.21004 5.6789 1.7959 6.47688 1.7959C7.44658 1.7959 8.51729 2.14943 9.03244 3.13933C9.80012 2.22014 10.6587 1.806 11.4567 1.806C12.8001 1.806 14.3153 2.47267 14.3153 4.52317V9.35146H11.79V5.21004C11.79 4.48277 11.4062 3.8363 10.5072 3.8363C9.70921 3.8363 9.36577 4.42216 9.33547 4.97772V9.35146H6.81022V5.21004C6.81022 4.48277 6.42638 3.8363 5.52739 3.8363C4.6789 3.8363 4.34557 4.47267 4.34557 5.05853V9.34135H1.82031V2.01812Z" fill="white"/>
<path fill-rule="evenodd" clip-rule="evenodd" d="M19.7579 7.40162C20.7478 7.40162 21.4548 6.68445 21.4548 5.68445C21.4548 4.67435 20.6973 3.95718 19.7579 3.95718C18.7983 3.95718 18.0407 4.67435 18.0407 5.68445C18.0407 6.69455 18.7276 7.40162 19.7579 7.40162ZM19.0003 1.80566C19.9902 1.80566 20.7983 2.139 21.4043 2.72486V2.01779H23.9296V9.35112H21.4245V8.52283H21.3942C20.8488 9.11879 19.9902 9.56324 18.9902 9.56324C16.8488 9.56324 15.3438 7.83597 15.3438 5.69455C15.3438 3.55314 16.8589 1.80566 19.0003 1.80566Z" fill="white"/>
<path fill-rule="evenodd" clip-rule="evenodd" d="M25.6406 2.01812H28.1659V2.7858H28.1962C28.7719 2.21004 29.4992 1.7959 30.2972 1.7959C31.6406 1.7959 33.5093 2.46257 33.5093 4.51307V9.34136H30.9841V5.19994C30.9841 4.47267 30.479 3.7757 29.6709 3.7757C28.9134 3.7757 28.1659 4.47267 28.1659 5.19994V9.34136H25.6406V2.01812Z" fill="white"/>
<path fill-rule="evenodd" clip-rule="evenodd" d="M35.082 2.01812H37.6073V2.7858H37.6376C38.2133 2.21004 38.9406 1.7959 39.7386 1.7959C41.082 1.7959 42.9507 2.46257 42.9507 4.51307V9.34136H40.4255V5.19994C40.4255 4.47267 39.9204 3.7757 39.1123 3.7757C38.3548 3.7757 37.6073 4.47267 37.6073 5.19994V9.34136H35.082V2.01812Z" fill="white"/>
<path fill-rule="evenodd" clip-rule="evenodd" d="M46.6768 5.67435C46.6768 6.68445 47.4646 7.49253 48.4242 7.49253C49.1818 7.49253 49.6566 7.1491 49.6566 7.1491L50.5151 8.90667C50.5151 8.90667 49.6869 9.56324 48.0606 9.56324C45.9495 9.56324 44 7.84607 44 5.70465C44 3.54304 45.9293 1.80566 48.0606 1.80566C49.6869 1.80566 50.5151 2.49253 50.5151 2.49253L49.6566 4.2198C49.6566 4.2198 49.1818 3.87637 48.4242 3.87637C47.4646 3.87637 46.6768 4.67435 46.6768 5.67435Z" fill="white"/>
<path fill-rule="evenodd" clip-rule="evenodd" d="M55.4057 7.40162C56.3956 7.40162 57.1026 6.68445 57.1026 5.68445C57.1026 4.67435 56.3451 3.95718 55.4057 3.95718C54.4461 3.95718 53.6885 4.67435 53.6885 5.68445C53.6986 6.69455 54.3855 7.40162 55.4057 7.40162ZM55.4259 1.80566C57.8501 1.80566 59.7996 3.40162 59.7996 5.69455C59.7996 7.94708 57.9612 9.56324 55.4259 9.56324C52.7794 9.56324 51.0117 7.94708 51.0117 5.69455C51.0117 3.40162 52.9511 1.80566 55.4259 1.80566Z" fill="white"/>
</g>
<defs>
<linearGradient id="paint0_linear_1469_4693" x1="43.9927" y1="14.005" x2="83.2325" y2="14.005" gradientUnits="userSpaceOnUse">
<stop stop-color="#2DD4DF"/>
<stop offset="1" stop-color="#1FB8E2"/>
</linearGradient>
<clipPath id="clip0_1469_4693">
<rect width="85.0505" height="20" fill="white"/>
</clipPath>
</defs>
</svg>
