<svg width="87" height="20" viewBox="0 0 87 20" fill="none" xmlns="http://www.w3.org/2000/svg">
<g clip-path="url(#clip0_1373_6049)">
<path d="M12.8617 0.286133C12.8617 0.286133 12.8569 0.586966 12.8617 0.787393V1.19751H16.0838H19.33L19.3059 1.33422C19.2915 1.40254 19.253 1.56212 19.2097 1.69877C19.1184 2.03129 18.9259 2.62855 18.825 3.06584C18.7577 3.36648 18.7336 3.43952 18.6326 3.47596C18.5653 3.49874 16.2031 3.52609 12.7175 3.52153H6.89847L6.65802 3.61267C5.98497 3.90875 5.54226 4.50622 5.31148 5.52657C5.21533 5.93652 5.21533 7.03047 5.31148 7.44047C5.5663 8.57469 5.94169 9.09019 6.60991 9.39991L6.8023 9.49108L10.6495 9.53663C12.765 9.54119 14.5257 9.56397 14.5449 9.58219C14.5641 9.60041 14.5497 9.74636 14.4969 9.94674C14.4391 10.1472 14.343 10.4754 14.3045 10.6759C14.2227 11.1314 14.1746 11.4506 14.1121 11.6784L14.064 11.8606H10.1206C7.15419 11.847 6.07125 11.8105 5.88858 11.7695C5.49435 11.6739 4.8401 11.3547 4.49395 11.086C3.24875 10.1066 2.57031 8.47863 2.57031 6.48352C2.57031 5.43584 2.70987 4.59208 3.05122 3.79494C3.56565 2.59695 4.48947 1.73507 5.64813 1.33422C5.87025 1.24402 6.10936 1.19751 6.35102 1.19751H8.24502H10.5053V0.741821V0.286133H11.6595C12.7267 0.286133 12.8617 0.286133 12.8617 0.286133Z" fill="url(#paint0_linear_1373_6049)"/>
<path d="M10.5059 17.0096C10.5059 17.0096 10.5107 16.6632 10.5059 16.4627V16.0982L7.3319 16.1028H6.2739V19.9761H3.62891V16.604C3.64333 16.5357 3.62891 15.7382 3.62891 15.7382V14.4395V13.7787C3.62891 13.7787 8.70351 13.7286 10.6501 13.7286L14.9783 13.7742L15.2188 13.6831C15.8918 13.3869 16.3346 12.7895 16.5653 11.7692C16.6615 11.3592 16.6615 10.2652 16.5653 9.85528C16.3105 8.72106 15.9351 8.20556 15.2669 7.89584L15.0745 7.80467L11.2273 7.75911C9.11184 7.75456 8.18834 7.7135 8.18834 7.7135L7.94796 7.05278L7.61129 5.98189L7.52423 5.66289L7.46701 5.43506H11.7562C14.7226 5.44873 15.8056 5.48521 15.9883 5.5262C16.3825 5.62184 17.0367 5.94095 17.3828 6.20973C18.6281 7.18911 19.3066 8.81706 19.3066 10.8122C19.3066 11.8598 19.167 12.7036 18.8256 13.5008C18.4235 14.4373 17.7711 15.1683 16.952 15.6344C16.4941 15.8949 15.9662 16.0208 15.4352 16.0754C14.735 16.1475 13.6318 16.0982 13.6318 16.0982H12.8623V16.5083V17.0096H11.7081C10.6408 17.0096 10.5059 17.0096 10.5059 17.0096Z" fill="url(#paint1_linear_1373_6049)"/>
<path d="M24.4807 5.31335C24.414 5.3277 24.2988 5.35069 24.223 5.36793C23.7925 5.45412 23.3528 5.60637 23.1466 5.73853C22.8282 5.94253 22.5584 6.25564 22.4644 6.53437C22.4432 6.59759 22.4159 6.65214 22.4038 6.66075C22.3462 6.70098 22.2735 7.14059 22.2613 7.54275C22.2431 7.99381 22.2977 8.46214 22.3886 8.65753C22.4099 8.70348 22.4644 8.81836 22.5069 8.9132C22.6039 9.12009 22.9283 9.43325 23.1466 9.53092C23.2315 9.56542 23.3528 9.61998 23.4195 9.6487C23.7379 9.78948 24.2473 9.90436 24.981 10.0079C25.1568 10.0336 25.3873 10.071 25.4964 10.094C25.6056 10.117 25.7996 10.1514 25.93 10.1687C26.0574 10.186 26.1634 10.2146 26.1634 10.2261C26.1634 10.2405 26.1816 10.252 26.2029 10.252C26.2999 10.252 26.503 10.4158 26.5728 10.5508C26.6365 10.6715 26.6486 10.7347 26.6486 10.9645C26.6486 11.2633 26.591 11.427 26.4424 11.5592C26.2454 11.7373 26.3181 11.7316 24.3534 11.7402C23.365 11.7431 22.5554 11.7517 22.5554 11.7546C22.5524 11.7834 22.3886 12.582 22.3249 12.8751C22.2825 13.079 22.2553 13.2514 22.2674 13.2629C22.3068 13.3003 25.454 13.306 25.9058 13.2715C26.7638 13.2025 26.8487 13.1883 27.3763 13.0187C27.7189 12.9095 28.1343 12.6165 28.2768 12.3866C28.3071 12.3378 28.3708 12.2373 28.4162 12.1626C28.6103 11.8609 28.7013 10.9616 28.6073 10.2894C28.5405 9.8067 28.4496 9.59698 28.1585 9.25792C28.0554 9.13731 27.6521 8.87581 27.446 8.79831C27.3823 8.77531 27.3035 8.7437 27.2701 8.72936C27.2368 8.71498 27.073 8.67759 26.9063 8.64314C26.7396 8.6087 26.5546 8.57131 26.497 8.55692C26.4394 8.54259 26.309 8.52248 26.209 8.51098C25.9118 8.47942 25.8967 8.47653 25.7936 8.44775C25.739 8.43342 25.557 8.39609 25.3903 8.3702C25.2235 8.34148 25.0325 8.30698 24.9658 8.29259C24.8991 8.27831 24.7839 8.25531 24.7111 8.23803C24.4231 8.18059 24.2564 7.96225 24.229 7.60598C24.2048 7.27842 24.326 6.99981 24.5353 6.90498C24.7627 6.80442 24.9415 6.79292 26.5425 6.79292L28.1191 6.79003L28.1706 6.53148C28.2009 6.38781 28.2465 6.13214 28.2738 5.95687C28.298 5.78453 28.3313 5.62937 28.3435 5.61214C28.3586 5.59775 28.3768 5.51445 28.3889 5.43114L28.4102 5.28174L26.5061 5.28462C25.46 5.28749 24.5474 5.29898 24.4807 5.31335Z" fill="white"/>
<path d="M33.4826 13.2543C33.5644 13.2514 35.0137 13.2428 35.3503 13.2371L35.3533 11.2259C35.3533 9.31542 35.3291 8.56842 35.2623 8.52825C35.2472 8.51959 35.229 8.47364 35.2169 8.42764C35.038 8.0082 35.0895 7.9967 34.5044 7.54564C34.4467 7.49681 34.1011 7.37903 34.0344 7.35025C33.7645 7.24687 32.6791 7.20092 32.3061 7.27842C31.8847 7.34164 31.5846 7.4652 31.4269 7.60309C31.4147 7.4997 31.4026 5.7012 31.3966 5.28174H29.5107L29.5046 9.26081C29.5016 12.4901 29.5077 13.2399 29.5379 13.2399C29.6441 13.2457 31.0236 13.2514 31.3723 13.2543C31.3905 12.3637 31.4117 11.315 31.4117 10.3784C31.4117 9.22348 31.4269 9.11431 31.6027 8.93331C31.8786 8.72648 31.9484 8.68909 32.4274 8.68909C33.0399 8.68337 33.2188 8.63453 33.4674 9.09998" fill="white"/>
<path d="M47.2354 6.41659V7.55142C46.6957 7.19514 45.8589 7.21237 44.9402 7.28998C44.3399 7.39914 43.973 7.56575 43.5758 8.03698C43.0694 8.8787 43.0876 9.16892 43.0907 10.5106C43.121 11.7747 43.1331 11.9672 43.7244 12.6711C44.6067 13.5359 46.6866 13.1566 48.433 13.2256C48.7787 13.0905 49.0182 12.8722 49.1001 12.536C49.1031 10.7289 49.1152 7.08881 49.1152 5.28174C48.6453 5.28174 47.7023 5.28174 47.2354 5.28174V6.41659ZM46.5714 8.67192C47.5538 8.71209 47.1778 10.5221 47.2232 11.6339C47.2263 11.7431 47.1353 11.8321 47.0201 11.8293C46.4835 11.8206 45.4586 11.8379 45.4192 11.7575C45.2677 11.6799 45.1706 11.5592 45.0887 11.3438C44.919 10.9904 44.9735 8.9822 45.2282 8.87009C45.2464 8.86153 45.2616 8.85003 45.2737 8.83564C45.5253 8.56842 46.2227 8.64892 46.5714 8.67192Z" fill="white"/>
<path d="M66.5342 5.66098C66.5259 5.87075 66.5198 7.66342 66.5259 9.64292L66.5342 13.2457L67.4804 13.2486L68.4293 13.2543V11.9241V10.5968L69.4087 10.5939C69.8909 10.5939 69.9548 10.6198 70.5948 10.5508C71.177 10.4876 71.8165 10.3468 71.977 10.2089C72.0048 10.186 72.0381 10.1658 72.047 10.1658C72.0593 10.1658 72.1498 10.1113 72.2498 10.048C72.4104 9.94464 72.5137 9.84403 72.7442 9.55675C72.8354 9.4447 72.9381 9.21487 73.0109 8.95914C73.0776 8.73225 73.0809 8.65753 73.0837 7.93925C73.0837 7.21814 73.0776 7.14348 73.0109 6.89064C72.947 6.64642 72.8143 6.35625 72.7143 6.2327C72.3715 5.81898 71.9376 5.55753 71.4165 5.45412C71.3342 5.43688 71.237 5.4139 71.2037 5.39953C71.1704 5.38517 70.9792 5.35357 70.7798 5.3277C70.4792 5.29036 70.0792 5.28174 68.4876 5.28174H66.5559L66.5342 5.66098ZM70.182 6.83314C70.9431 6.89637 71.1342 7.12048 71.1342 7.93925C71.137 8.47075 71.0948 8.6087 70.8737 8.80975C70.7826 8.89309 70.6976 8.95914 70.6854 8.95914C70.6704 8.95914 70.6248 8.97642 70.582 8.99648C70.4676 9.05403 70.337 9.0597 69.3543 9.0597H68.4448L68.4359 7.96803C68.4331 7.36753 68.4359 6.85903 68.4448 6.84175C68.4631 6.79581 69.6665 6.79003 70.182 6.83314Z" fill="white"/>
<path d="M52.544 7.25008C50.1124 7.25008 50.0062 9.45363 50.1942 11.3154C50.2882 13.0794 51.6678 13.4471 53.2201 13.4672C56.455 13.562 56.4489 11.255 56.1367 8.9308C55.9673 7.28741 53.869 7.15524 52.544 7.25008ZM53.8235 8.69808C54.5875 8.86474 54.2237 11.0941 54.254 11.5107C54.1236 12.137 52.9988 12.0882 52.544 11.9531C51.9224 11.5251 52.1407 11.436 52.074 10.3529C51.9164 8.63774 52.5349 8.53719 53.8235 8.69808Z" fill="white"/>
<path d="M37.4715 7.39913L37.0895 7.41063C37.0591 7.62035 36.853 8.76958 36.853 8.76958C36.853 8.76958 39.4029 8.78963 39.8335 8.89308C40.1791 8.97635 40.2397 9.49352 40.2246 9.75208C39.9153 9.68891 39.6606 9.54235 39.2938 9.53091C37.0955 9.35274 35.8585 9.9963 36.4134 12.2487C36.5468 12.6854 37.0531 13.0274 37.4624 13.1394C37.6777 13.2256 38.1143 13.2427 39.7486 13.2341C41.2221 13.2256 41.3828 13.2198 41.4889 13.1738C41.7648 13.0618 41.9346 12.8377 42.0378 12.5935V10.7691C42.0378 8.77524 42.0438 8.84135 41.8558 8.45635C41.216 7.07157 38.9421 7.44507 37.4715 7.39913ZM39.8152 10.7835C39.8243 10.7864 39.8365 10.7892 39.8456 10.7921C40.0518 10.8554 40.1882 11.045 40.1882 11.2519C40.1882 11.5679 40.1882 12.0189 40.1882 12.0189C40.1882 12.0189 38.4024 12.0821 38.2204 11.8264C38.1385 11.7115 38.1295 11.6454 38.1264 11.3639C38.1113 10.5565 39.1876 10.6944 39.8152 10.7835Z" fill="white"/>
<path d="M74.5961 7.39897C74.2478 7.40758 74.2228 7.41335 74.2228 7.46502C74.1839 7.62308 74.0444 8.1948 73.9472 8.7723C74.645 8.7608 76.7639 8.77508 76.9428 8.8843C77.2033 9.00497 77.2617 9.15152 77.3339 9.52497C77.4461 10.0766 77.0278 9.57097 75.8267 9.50486C73.8383 9.49913 73.1439 10.519 73.4533 11.9095C73.5439 12.3261 73.7867 12.7025 74.1505 12.9496C74.7872 13.3776 75.4117 13.1823 76.8605 13.234C77.3128 13.188 78.735 13.4035 78.9928 12.8892C79.1528 12.6451 79.1655 12.51 79.1655 10.8207C79.1655 9.05669 79.1472 8.82113 78.9683 8.45908C78.2705 7.04847 75.9728 7.45063 74.5961 7.39897ZM76.9428 10.7805C77.4889 10.9414 77.2944 11.5591 77.3311 12.0187C76.9733 12.0159 75.6028 12.0331 75.5844 11.9527C75.3083 11.8492 75.1994 11.6338 75.2328 11.2574C75.215 10.496 76.4789 10.7374 76.9428 10.7805Z" fill="white"/>
<path d="M56.5963 7.55701C57.1541 9.37846 57.7397 11.3206 58.3124 13.2312C58.4036 13.2456 59.853 13.2484 60.1986 13.2456L60.2408 13.1335C60.4802 12.3377 60.6441 11.5303 60.8536 10.8006C61.2441 9.14579 61.0836 9.44746 61.4875 10.9557C61.6352 11.562 61.8474 12.3807 62.0391 13.1335L62.078 13.2456C62.5297 13.2427 63.4458 13.2427 63.8969 13.2427C64.5852 11.1109 65.0891 9.53079 65.6775 7.40763C65.2252 7.40763 64.3191 7.40763 63.8674 7.40763C63.6058 8.5999 63.3186 9.88701 63.0513 11.0132C63.0025 12.0015 62.6569 9.93585 62.5691 9.74907C62.4452 9.29235 62.2513 8.37007 62.1202 8.01096C61.9263 7.1404 62.0991 7.46507 61.1597 7.40763C60.0858 7.43063 60.4441 7.20363 60.1402 8.22929C59.9252 9.20901 59.6402 10.1197 59.4402 11.0994C59.3558 11.6539 59.1797 10.6455 59.1524 10.4961C58.9336 9.44168 58.6519 8.19768 58.4669 7.42196C57.9908 7.41913 57.0269 7.41046 56.5508 7.40763L56.5963 7.55701Z" fill="white"/>
<path d="M80.2414 7.74433C80.2137 8.15511 80.1898 10.6547 80.3081 11.4705C80.3592 11.8211 80.4564 12.0164 80.5353 12.1429C81.2237 13.2288 83.1214 13.18 84.2103 12.6973C84.1309 13.8752 83.9131 13.7718 82.2303 13.7833C81.2326 13.7833 80.9353 13.8178 80.9353 13.8178L80.6776 15.1997C80.6776 15.1997 84.3464 15.2686 85.0014 14.921C85.5592 14.6251 85.9142 14.2028 86.0231 13.5966C86.102 13.5966 86.1053 8.66938 86.1081 7.40527H84.1798C84.1798 7.40527 84.1492 10.9189 84.1253 11.3872C84.1159 11.5883 82.6664 11.5826 82.512 11.4533C82.3487 11.393 82.2242 11.2579 82.2092 11.0999C82.1214 10.1834 82.1909 7.40527 82.1909 7.40527H80.2503L80.2414 7.74433Z" fill="white"/>
</g>
<defs>
<linearGradient id="paint0_linear_1373_6049" x1="2.57031" y1="11.8606" x2="13.3947" y2="-3.81285" gradientUnits="userSpaceOnUse">
<stop stop-color="#40D58B"/>
<stop offset="1" stop-color="#3AC17D"/>
</linearGradient>
<linearGradient id="paint1_linear_1373_6049" x1="3.62892" y1="19.9716" x2="3.62892" y2="5.43506" gradientUnits="userSpaceOnUse">
<stop stop-color="#28AC93"/>
<stop offset="1" stop-color="#40D27E"/>
</linearGradient>
<clipPath id="clip0_1373_6049">
<rect width="86.1111" height="20" fill="white"/>
</clipPath>
</defs>
</svg>
