<svg width="85" height="20" viewBox="0 0 85 20" fill="none" xmlns="http://www.w3.org/2000/svg">
<g clip-path="url(#clip0_6431_54222)">
<path fill-rule="evenodd" clip-rule="evenodd" d="M28.8223 6.12637H26.1119C25.3273 6.12637 24.8164 6.47182 24.8164 7.37773V8.78409C24.8164 9.47546 25.0064 9.76137 25.601 10.0359L28.5846 11.1441V12.455H26.3737V11.2841C26.3736 11.2692 26.3676 11.2549 26.357 11.2444C26.3465 11.2338 26.3322 11.2278 26.3173 11.2277H24.8728C24.8578 11.2277 24.8435 11.2337 24.8329 11.2442C24.8223 11.2548 24.8164 11.2691 24.8164 11.2841V12.4432C24.8164 13.4086 25.3869 13.8736 26.1714 13.8736H28.7987C29.6782 13.8736 30.1419 13.2782 30.1419 12.4077V11.0609C30.1419 10.3577 29.9637 10.0714 29.405 9.80909L26.3732 8.71273V7.54455H28.5846V8.60864C28.5846 8.64 28.61 8.665 28.641 8.665H30.0855C30.0929 8.66506 30.1003 8.66365 30.1071 8.66084C30.114 8.65803 30.1202 8.65388 30.1255 8.64863C30.1307 8.64338 30.1349 8.63715 30.1377 8.63028C30.1405 8.62342 30.1419 8.61606 30.1419 8.60864V7.68773C30.1419 6.65091 29.7973 6.12637 28.8223 6.12637ZM33.9455 10.9655V10.8464L35.7137 8.31273C35.7197 8.30437 35.7233 8.29451 35.7241 8.28423C35.7249 8.27396 35.7228 8.26366 35.7181 8.25449C35.7134 8.24532 35.7062 8.23763 35.6974 8.23226C35.6886 8.2269 35.6785 8.22407 35.6682 8.22409H34.0705C34.0519 8.22409 34.0341 8.23319 34.0237 8.24909L32.6737 10.2623H32.4832V5.94409C32.4832 5.93671 32.4818 5.92941 32.4789 5.92259C32.4761 5.91578 32.4719 5.9096 32.4667 5.9044C32.4614 5.8992 32.4552 5.89509 32.4484 5.89231C32.4416 5.88953 32.4342 5.88813 32.4269 5.88819H31.0537C31.0387 5.88819 31.0244 5.89412 31.0138 5.90469C31.0033 5.91526 30.9973 5.9296 30.9973 5.94455V13.8173C30.9973 13.8482 31.0228 13.8736 31.0537 13.8736H32.4269C32.4418 13.8736 32.4561 13.8677 32.4667 13.8571C32.4773 13.8466 32.4832 13.8322 32.4832 13.8173V11.6923H32.6737L34.1664 13.8495C34.1716 13.857 34.1786 13.8631 34.1866 13.8673C34.1947 13.8715 34.2037 13.8737 34.2128 13.8736H35.8241C35.8696 13.8736 35.896 13.8227 35.8705 13.7855L33.9455 10.9655ZM37.7996 6.305H36.4141C36.3993 6.30512 36.385 6.31111 36.3746 6.32167C36.3641 6.33223 36.3582 6.3465 36.3582 6.36137V7.51182C36.3582 7.54318 36.3832 7.56864 36.4141 7.56864H37.7996C37.8146 7.56852 37.8289 7.56248 37.8395 7.55184C37.85 7.5412 37.856 7.52681 37.856 7.51182V6.36182C37.856 6.35438 37.8546 6.347 37.8518 6.34011C37.849 6.33322 37.8448 6.32695 37.8396 6.32167C37.8344 6.31639 37.8281 6.3122 37.8213 6.30934C37.8144 6.30648 37.807 6.305 37.7996 6.305ZM37.7996 8.22409H36.4141C36.3993 8.22421 36.385 8.23021 36.3746 8.24076C36.3641 8.25132 36.3582 8.26559 36.3582 8.28046V13.8168C36.3582 13.8486 36.3832 13.8736 36.4141 13.8736H37.7996C37.8145 13.8735 37.8288 13.8675 37.8393 13.857C37.8499 13.8465 37.8558 13.8322 37.856 13.8173V8.28091C37.856 8.27347 37.8546 8.26609 37.8518 8.2592C37.849 8.25231 37.8448 8.24605 37.8396 8.24076C37.8344 8.23548 37.8281 8.23129 37.8213 8.22843C37.8144 8.22557 37.807 8.22409 37.7996 8.22409ZM42.1946 8.17637C41.4696 8.17637 40.7446 8.39091 40.1855 8.68909L40.1432 8.275C40.1419 8.2611 40.1354 8.24819 40.1251 8.23878C40.1147 8.22938 40.1013 8.22414 40.0873 8.22409H38.7678C38.7528 8.22409 38.7385 8.23003 38.7279 8.2406C38.7173 8.25117 38.7114 8.26551 38.7114 8.28046V13.8168C38.7114 13.8486 38.7364 13.8736 38.7678 13.8736H40.141C40.1559 13.8736 40.1702 13.8677 40.1808 13.8571C40.1914 13.8466 40.1973 13.8322 40.1973 13.8173V9.61819H41.9332V13.8168C41.9332 13.8477 41.9582 13.8732 41.9896 13.8732H43.3628C43.3777 13.8731 43.3919 13.8671 43.4025 13.8565C43.413 13.846 43.419 13.8317 43.4191 13.8168V9.475C43.4191 8.55728 43.0623 8.17591 42.1946 8.17591M47.3891 8.22409H45.5464C44.5955 8.22409 44.2032 8.71273 44.2032 9.49955V10.1191C44.2032 10.7745 44.4169 11.0373 44.9637 11.2277L47.3414 11.9427V12.5864H45.606V12.1182C45.6058 12.1033 45.5999 12.089 45.5893 12.0785C45.5788 12.0679 45.5645 12.0619 45.5496 12.0618H44.2591C44.2517 12.0619 44.2444 12.0634 44.2376 12.0663C44.2308 12.0692 44.2246 12.0734 44.2194 12.0787C44.2142 12.0839 44.2101 12.0902 44.2073 12.097C44.2046 12.1039 44.2032 12.1112 44.2032 12.1186V12.5505C44.2032 13.4209 44.6073 13.8736 45.5941 13.8736H47.3773C48.3046 13.8736 48.756 13.3968 48.756 12.5982V11.9186C48.756 11.2395 48.566 10.9777 47.9596 10.7868L45.606 10.0955V9.51137H47.3414V9.93182C47.3414 9.96273 47.3669 9.98819 47.3978 9.98819H48.7C48.7149 9.98807 48.7291 9.98207 48.7396 9.97152C48.7501 9.96096 48.756 9.94669 48.756 9.93182V9.45182C48.756 8.64137 48.3878 8.22409 47.3891 8.22409ZM57.116 6.12637H55.1464C55.1341 6.1264 55.122 6.13045 55.1122 6.13791C55.1024 6.14538 55.0952 6.15584 55.0919 6.16773L53.4632 12.05H53.3919L51.6919 6.16728C51.6884 6.15547 51.6812 6.14511 51.6714 6.13773C51.6616 6.13035 51.6496 6.12637 51.6373 6.12637H49.6796C49.6647 6.12649 49.6504 6.13246 49.6399 6.14301C49.6293 6.15355 49.6233 6.16782 49.6232 6.18273V13.8173C49.6232 13.8482 49.6487 13.8736 49.6796 13.8736H50.9932C51.025 13.8736 51.05 13.8482 51.05 13.8173V10.0118C51.05 9.67818 51.0141 8.975 50.991 8.22409C51.1332 8.89137 51.276 9.52319 51.371 9.86864L52.5241 13.8327C52.531 13.8573 52.5532 13.8736 52.5782 13.8736H54.2646C54.2769 13.8736 54.2888 13.8697 54.2987 13.8623C54.3085 13.8549 54.3157 13.8445 54.3191 13.8327L55.4482 9.85682C55.5437 9.51137 55.6741 8.91546 55.805 8.27182C55.7932 9.01091 55.7696 9.69 55.7696 10.0236V13.8173C55.7696 13.8482 55.7946 13.8736 55.826 13.8736H57.116C57.1309 13.8735 57.1451 13.8675 57.1557 13.857C57.1662 13.8465 57.1722 13.8322 57.1723 13.8173V6.18273C57.1722 6.16782 57.1662 6.15355 57.1557 6.14301C57.1451 6.13246 57.1309 6.12649 57.116 6.12637ZM59.4896 12.515H61.3323V9.60682H59.4896V12.515ZM61.3914 8.22409H59.43C58.5619 8.22409 58.0391 8.70091 58.0391 9.67819V12.3836C58.0391 13.4086 58.6337 13.8736 59.4537 13.8736H61.3323C62.3187 13.8736 62.7823 13.3255 62.7823 12.3955V9.79728C62.7823 8.76046 62.3546 8.22409 61.3914 8.22409ZM67.085 8.17637C66.36 8.17637 65.635 8.39091 65.076 8.68909L65.0337 8.275C65.0323 8.2611 65.0259 8.24819 65.0155 8.23878C65.0052 8.22938 64.9917 8.22414 64.9778 8.22409H63.6582C63.6434 8.22421 63.6291 8.23021 63.6187 8.24076C63.6082 8.25132 63.6023 8.26559 63.6023 8.28046V13.8168C63.6023 13.8486 63.6273 13.8736 63.6582 13.8736H65.0319C65.0468 13.8735 65.061 13.8675 65.0716 13.857C65.0821 13.8465 65.0881 13.8322 65.0882 13.8173V9.61819H66.8237V13.8168C66.8237 13.8477 66.8487 13.8732 66.8796 13.8732H68.2532C68.2681 13.8731 68.2824 13.8671 68.2929 13.8565C68.3035 13.846 68.3095 13.8317 68.3096 13.8168V9.475C68.3096 8.55728 67.9528 8.17591 67.085 8.17591M72.1369 10.9655V10.8464L73.9055 8.31273C73.9114 8.3043 73.9149 8.29443 73.9155 8.28417C73.9162 8.27391 73.9141 8.26366 73.9093 8.25453C73.9046 8.24541 73.8975 8.23774 73.8887 8.23238C73.8799 8.22701 73.8699 8.22415 73.8596 8.22409H72.2619C72.2432 8.22409 72.2255 8.23319 72.215 8.24909L70.865 10.2623H70.6746V5.94409C70.6746 5.93671 70.6731 5.92941 70.6703 5.92259C70.6675 5.91578 70.6633 5.9096 70.6581 5.9044C70.6528 5.8992 70.6466 5.89509 70.6398 5.89231C70.6329 5.88953 70.6256 5.88813 70.6182 5.88819H69.245C69.2376 5.88812 69.2303 5.88954 69.2234 5.89235C69.2165 5.89516 69.2103 5.89931 69.2051 5.90456C69.1998 5.9098 69.1957 5.91604 69.1928 5.92291C69.19 5.92977 69.1886 5.93713 69.1887 5.94455V13.8173C69.1887 13.8482 69.2137 13.8736 69.245 13.8736H70.6182C70.6332 13.8736 70.6475 13.8677 70.6581 13.8571C70.6686 13.8466 70.6746 13.8322 70.6746 13.8173V11.6923H70.8646L72.3578 13.8495C72.3682 13.8645 72.385 13.8736 72.4041 13.8736H74.015C74.0605 13.8736 74.0873 13.8227 74.0619 13.7855L72.1369 10.9655ZM75.7737 10.6195H77.5928V9.54682H75.7737V10.6195ZM77.6164 8.22409H75.75C74.7873 8.22409 74.3237 8.76046 74.3237 9.76182V12.36C74.3237 13.385 74.811 13.8736 75.7978 13.8736H77.6046C78.6032 13.8736 79.031 13.3968 79.031 12.4077V12.1455H77.6491C77.6417 12.1454 77.6344 12.1468 77.6275 12.1496C77.6206 12.1524 77.6144 12.1566 77.6091 12.1618C77.6039 12.1671 77.5997 12.1733 77.5969 12.1802C77.5941 12.187 77.5927 12.1944 77.5928 12.2018V12.61H75.7737V11.55H79.031V9.71364C79.031 8.71228 78.5673 8.22364 77.6164 8.22364V8.22409ZM84.4901 8.22409H83.105C83.0901 8.22409 83.0758 8.23003 83.0652 8.2406C83.0546 8.25117 83.0487 8.26551 83.0487 8.28046V12.4909H81.3128V8.28046C81.3128 8.26551 81.3068 8.25117 81.2963 8.2406C81.2857 8.23003 81.2714 8.22409 81.2564 8.22409H79.8837C79.8687 8.22409 79.8543 8.23002 79.8437 8.24058C79.833 8.25113 79.827 8.26547 79.8269 8.28046V12.6818C79.8269 13.5045 80.2191 13.8855 81.0632 13.8855C81.7769 13.8855 82.5255 13.7068 83.0487 13.4327V14.4932H80.901C80.8869 14.4933 80.8734 14.4987 80.863 14.5081C80.8526 14.5176 80.846 14.5306 80.8446 14.5445L80.736 15.7191C80.7353 15.7269 80.7362 15.7348 80.7387 15.7422C80.7412 15.7496 80.7453 15.7564 80.7506 15.7622C80.7559 15.768 80.7623 15.7726 80.7695 15.7757C80.7767 15.7789 80.7845 15.7805 80.7923 15.7805H83.12C83.3076 15.7802 83.4933 15.743 83.6665 15.671C83.8396 15.5991 83.9969 15.4937 84.1294 15.3609C84.2618 15.2281 84.3668 15.0705 84.4384 14.8971C84.5099 14.7238 84.5466 14.538 84.5464 14.3505V8.28046C84.5464 8.26551 84.5405 8.25117 84.5299 8.2406C84.5193 8.23003 84.505 8.22409 84.4901 8.22409Z" fill="white"/>
<path fill-rule="evenodd" clip-rule="evenodd" d="M20 10C20 15.5227 15.5228 20 9.99977 20C4.47716 20 0 15.5227 0 10C0 4.47727 4.47716 0 9.99977 0C15.5228 0 20 4.47727 20 10Z" fill="#F5C71B"/>
<path fill-rule="evenodd" clip-rule="evenodd" d="M13.2013 4.89828C13.2013 4.89828 12.9204 2.25146 11.6567 2.25146C11.2776 2.25146 10.974 2.29692 10.7354 2.36056C10.2352 2.4951 9.7083 2.4951 9.2081 2.36056C8.96901 2.29692 8.66582 2.25146 8.28673 2.25146C7.0231 2.25146 6.74219 4.89828 6.74219 4.89828C6.74219 4.89828 9.88764 5.82737 13.2013 4.89828ZM9.2831 10.4496C9.42855 10.4419 9.46582 10.246 9.33628 10.1833C9.12593 10.0812 8.92041 9.96937 8.72037 9.84828C8.50468 9.71543 8.29564 9.57208 8.09401 9.41874C7.97355 9.32647 7.84719 9.23101 7.72855 9.12783C7.71003 9.1112 7.68743 9.09979 7.66305 9.09476C7.63867 9.08974 7.6134 9.09128 7.58982 9.09924C7.56623 9.10719 7.54518 9.12127 7.52883 9.14003C7.51247 9.15879 7.5014 9.18156 7.49673 9.20601L7.32219 10.1224C7.31852 10.141 7.31862 10.1601 7.32247 10.1786C7.32632 10.1972 7.33385 10.2148 7.34461 10.2304C7.35537 10.246 7.36915 10.2593 7.38513 10.2694C7.40111 10.2796 7.41896 10.2865 7.43764 10.2896C7.88764 10.3619 8.34219 10.4151 8.79537 10.4433C8.9581 10.4524 9.12219 10.4592 9.2831 10.4496ZM10.6595 10.4496C10.8217 10.4587 10.9858 10.4528 11.1467 10.4433C11.6013 10.4151 12.0545 10.3619 12.5058 10.2896C12.5245 10.2864 12.5423 10.2795 12.5583 10.2693C12.5743 10.2591 12.588 10.2459 12.5988 10.2303C12.6096 10.2147 12.6172 10.1972 12.6211 10.1786C12.6251 10.1601 12.6253 10.141 12.6217 10.1224L12.4454 9.20601C12.4409 9.18153 12.4299 9.15869 12.4136 9.13985C12.3973 9.12102 12.3763 9.10687 12.3527 9.09885C12.3292 9.09084 12.3039 9.08926 12.2795 9.09427C12.2551 9.09929 12.2325 9.11071 12.214 9.12737C12.0967 9.23101 11.9686 9.32647 11.8486 9.41874C11.4621 9.7151 11.0465 9.97127 10.6081 10.1833C10.4763 10.246 10.514 10.4419 10.6595 10.4496ZM10.5095 11.9706C10.5978 11.966 10.681 11.9277 10.7419 11.8636C10.8028 11.7995 10.8368 11.7144 10.8368 11.626C10.8368 11.5376 10.8028 11.4525 10.7419 11.3884C10.681 11.3243 10.5978 11.286 10.5095 11.2815C10.4642 11.2814 10.4195 11.2903 10.3777 11.3076C10.3359 11.3249 10.298 11.3503 10.266 11.3823C10.2341 11.4143 10.2088 11.4523 10.1916 11.4942C10.1744 11.536 10.1656 11.5808 10.1658 11.626C10.1658 11.8156 10.319 11.9706 10.5095 11.9706ZM9.08901 11.626C9.08563 11.6733 9.09204 11.7208 9.10783 11.7655C9.12362 11.8102 9.14846 11.8512 9.1808 11.8859C9.21313 11.9205 9.25227 11.9482 9.29576 11.9671C9.33925 11.9859 9.38617 11.9956 9.43359 11.9956C9.481 11.9955 9.52789 11.9857 9.57134 11.9667C9.61478 11.9477 9.65384 11.9199 9.68608 11.8852C9.71833 11.8504 9.74306 11.8094 9.75873 11.7646C9.77441 11.7199 9.78069 11.6724 9.77719 11.6251C9.77075 11.5382 9.73165 11.4569 9.66773 11.3976C9.60382 11.3384 9.51984 11.3055 9.43267 11.3056C9.34551 11.3057 9.26161 11.3388 9.19786 11.3982C9.1341 11.4577 9.09521 11.5391 9.08901 11.626ZM11.7217 12.4719C11.7218 12.4439 11.7151 12.4163 11.7022 12.3915C11.6893 12.3667 11.6705 12.3454 11.6475 12.3294C11.6246 12.3134 11.598 12.3033 11.5703 12.2999C11.5425 12.2964 11.5143 12.2998 11.4881 12.3096L8.37992 13.4778C8.21128 13.5401 8.23901 13.7878 8.41719 13.8096C8.99901 13.8851 9.88901 13.9606 10.7567 13.8778L11.2595 14.3078C11.2755 14.3215 11.2941 14.3317 11.3141 14.338C11.3342 14.3444 11.3553 14.3466 11.3762 14.3446C11.3972 14.3426 11.4175 14.3364 11.436 14.3264C11.4545 14.3165 11.4708 14.3029 11.484 14.2865L12.2386 13.3474C12.252 13.3305 12.2619 13.311 12.2676 13.2902C12.2732 13.2694 12.2746 13.2476 12.2715 13.2262C12.2685 13.2048 12.261 13.1843 12.2497 13.1659C12.2384 13.1475 12.2235 13.1316 12.2058 13.1192L11.7217 12.7787V12.4719Z" fill="#212126"/>
<path fill-rule="evenodd" clip-rule="evenodd" d="M14.8315 9.01457L14.7238 8.49775C14.7238 8.49775 16.5738 7.87275 16.6597 9.4673C16.7456 11.0637 15.3688 11.8373 15.3688 11.8373L15.1333 10.5009L15.7988 10.8055C15.7988 10.8055 15.6911 10.0064 15.2192 9.79184C15.2192 9.79184 15.9283 9.48912 16.1001 9.79184C16.1001 9.79184 16.1129 9.58639 16.0674 9.36093C15.9879 8.9723 15.5706 8.75321 15.1992 8.88457L14.8315 9.01457ZM13.6461 14.1309L12.8724 13.5873C12.8471 13.5693 12.8159 13.5617 12.7852 13.5661C12.7545 13.5705 12.7266 13.5866 12.7074 13.6109L12.2801 14.1482L12.1961 14.2514C12.0804 14.4354 11.9487 14.6088 11.8024 14.7696C11.4147 15.1946 10.8024 15.6564 9.97241 15.6564C8.49151 15.6564 7.70105 14.1791 7.65241 14.0868L7.82287 14.8796C7.82287 14.8796 5.90923 14.6209 6.0606 13.285C6.2106 11.9473 8.2106 11.3 8.2106 11.3C8.2106 11.3 6.34014 11.2137 6.51196 9.5973C6.68378 7.98094 9.28196 8.47593 9.97241 8.47593C10.6633 8.47593 13.2615 7.98048 13.4333 9.5973C13.6051 11.2141 11.7351 11.3 11.7351 11.3C11.7351 11.3 13.7351 11.9473 13.8851 13.285C13.9256 13.6373 13.8211 13.9146 13.6461 14.1305V14.1309ZM5.11378 9.01457L4.74651 8.88457C4.37469 8.75275 3.95741 8.9723 3.87787 9.36093C3.83241 9.58639 3.84469 9.79139 3.84469 9.79139C4.01696 9.48912 4.72651 9.79139 4.72651 9.79139C4.25423 10.0064 4.14651 10.805 4.14651 10.805L4.81196 10.5014L4.57605 11.8378C4.57605 11.8378 3.19969 11.0637 3.2856 9.4673C3.37196 7.87275 5.22151 8.49775 5.22151 8.49775L5.11378 9.01457ZM4.86832 14.2387C5.55923 16.2523 9.97287 17.6741 9.97287 17.6741C9.97287 17.6741 12.0265 17.015 13.0801 15.8618L13.382 16.1187L13.6347 16.335L15.2311 17.6532C15.2718 17.6881 15.3193 17.7144 15.3705 17.7305C15.4217 17.7465 15.4757 17.752 15.5291 17.7466C15.5825 17.7412 15.6343 17.7251 15.6813 17.6991C15.7282 17.6731 15.7695 17.6379 15.8024 17.5955L16.5056 16.6991C16.5391 16.6564 16.5635 16.6073 16.5775 16.5548C16.5914 16.5023 16.5945 16.4475 16.5867 16.3938C16.5788 16.3401 16.5601 16.2885 16.5317 16.2422C16.5033 16.196 16.4658 16.1559 16.4215 16.1246L14.8865 15.0032C15.0047 14.7668 15.0774 14.51 15.0774 14.2387L15.9192 14.4082L15.4411 13.1973C15.4411 13.1973 17.6411 11.3109 17.6411 9.90275C17.6411 7.74639 16.172 7.65003 16.172 7.65003C16.5815 7.55321 16.7333 7.08457 16.4911 6.75275C16.2379 6.40321 15.7115 6.21048 15.3083 6.12457C14.7492 6.00366 14.1629 6.01775 13.5992 6.08684C13.3161 6.12139 10.6915 6.4973 10.0947 6.49412H9.85241C9.2556 6.4973 6.62923 6.12139 6.34651 6.08684C5.78241 6.01775 5.19651 6.00366 4.63741 6.12457C4.23378 6.21094 3.70741 6.40321 3.45423 6.75275C3.21196 7.08457 3.36332 7.55275 3.77287 7.65003C3.77287 7.65003 2.30469 7.74639 2.30469 9.90275C2.30469 11.3109 4.50469 13.1973 4.50469 13.1973L4.02605 14.4082L4.86832 14.2387Z" fill="#212126"/>
</g>
<defs>
<clipPath id="clip0_6431_54222">
<rect width="84.5455" height="20" fill="white"/>
</clipPath>
</defs>
</svg>
