<svg width="102" height="12" viewBox="0 0 102 12" fill="none" xmlns="http://www.w3.org/2000/svg">
<g clip-path="url(#clip0_1217_3875)">
<path d="M69.8398 12C69.6577 12 69.5364 12 69.415 11.9397C66.9272 11.6382 64.8641 9.76886 64.318 7.29649C63.5899 4.04021 65.653 0.783931 68.9296 0.120614C70.932 -0.301496 72.813 0.180916 74.3906 1.62815C75.7862 2.89448 76.393 4.46232 76.2716 6.27137C76.1503 9.22614 73.8445 11.6382 70.9926 11.9397C70.8106 11.9397 70.7499 12 70.5679 12C70.3252 12 70.0825 12 69.8398 12ZM66.6238 6.03016C66.5631 8.08041 68.3228 9.64825 70.2645 9.64825C72.2062 9.64825 73.9052 8.02011 73.8445 5.96986C73.8445 4.22112 72.3882 2.35177 70.2645 2.35177C68.0801 2.41207 66.5025 4.16082 66.6238 6.03016Z" fill="white"/>
<path d="M4.91493 -0.0605469C5.15764 -0.0605469 5.33968 -0.0605469 5.58239 -0.000245363C6.79595 0.180659 7.94884 0.542468 8.91969 1.44699C8.49494 2.05001 8.13087 2.59272 7.70613 3.19573C7.58477 3.13543 7.46341 3.13543 7.34206 3.07513C6.6746 2.53242 5.88578 2.35151 5.09697 2.17061C4.61154 2.05001 4.18679 2.11031 3.76205 2.29121C2.97323 2.59272 2.7912 3.55754 3.45866 4.10026C3.82272 4.34146 4.24747 4.52237 4.67222 4.64297C5.46103 4.88418 6.31053 5.06508 7.03867 5.36659C7.76681 5.6681 8.49494 6.09021 8.85901 6.93443C9.40512 8.14046 9.34444 9.28619 8.6163 10.3716C8.25223 10.9746 7.70613 11.3364 7.03867 11.5776C5.15764 12.3013 3.3373 11.9998 1.57763 11.0952C1.03153 10.7937 0.424747 10.4922 0 9.8892C0.485425 9.28619 0.910172 8.74347 1.3956 8.14046C1.88102 8.44197 2.30577 8.74347 2.73052 9.04498C3.27662 9.40679 3.94408 9.5877 4.61154 9.7083C4.79358 9.7686 5.03629 9.7083 5.21832 9.7083C5.94646 9.648 6.43189 9.22589 6.55324 8.68317C6.61392 8.14046 6.24985 7.59775 5.52171 7.35654C5.03629 7.17563 4.55086 7.05503 4.06544 6.93443C3.45866 6.75352 2.7912 6.57262 2.24509 6.27111C0.788816 5.6078 0.242713 4.52237 0.485425 2.65302C0.66746 1.50729 1.3956 0.783674 2.4878 0.301262C2.91255 0.120358 3.39798 0.0600561 3.82272 -0.0605469C3.94408 -0.000245363 4.06544 -0.000245363 4.18679 -0.000245363C4.42951 -0.0605469 4.67222 -0.0605469 4.91493 -0.0605469Z" fill="white"/>
<path d="M46.964 11.7586C46.1145 11.7586 45.265 11.7586 44.4155 11.7586C43.5054 10.5526 42.5345 9.34656 41.6244 8.14053C40.7142 6.9345 39.8647 5.72847 38.8332 4.52244C38.5904 5.24606 38.7118 5.78877 38.7118 6.39179C38.7118 6.9948 38.7118 7.53752 38.7118 8.14053C38.7118 8.74355 38.7118 9.34656 38.7118 9.94958C38.7118 10.4923 38.7118 11.0953 38.7118 11.7586C37.8623 11.8189 37.0735 11.8189 36.3454 11.7586C36.224 11.2159 36.1633 0.904351 36.3454 0.180733C37.0735 0.180733 37.8623 0.180733 38.6511 0.180733C40.5321 2.65309 42.4132 5.12546 44.3549 7.53752C44.4155 7.53752 44.4762 7.53752 44.5369 7.47721C44.5976 5.06515 44.5369 2.65309 44.5369 0.241034C45.0223 0.0601295 46.2966 0.0601296 47.0247 0.180733C47.0247 0.783748 47.0854 10.6732 46.964 11.7586Z" fill="white"/>
<path d="M87.1963 8.20071C88.0458 9.40674 88.8953 10.5525 89.7448 11.7585C88.7132 11.8188 87.8637 11.7585 86.8929 11.8188C86.4681 11.2761 86.1041 10.7334 85.6793 10.1907C85.6186 10.1304 85.558 10.0098 85.4973 9.94945C84.5871 8.68312 84.4658 8.62282 82.7668 8.86403C82.5847 9.76855 82.7668 10.7937 82.6454 11.8188C81.8566 11.8791 81.0678 11.8791 80.3397 11.8188C80.1576 11.2761 80.1576 0.964529 80.3397 0.240911C80.461 0.240911 80.643 0.180609 80.8251 0.180609C81.978 0.180609 83.1915 0.120308 84.3444 0.180609C85.1939 0.180609 86.0434 0.301212 86.8322 0.60272C88.2885 1.14543 89.138 2.23086 89.3807 3.7384C89.5021 4.76352 89.3807 5.78865 88.8346 6.69317C88.4098 7.35649 87.8637 7.7786 87.1963 8.20071ZM82.7668 6.51227C82.9488 6.57257 83.0702 6.57257 83.1308 6.57257C83.677 6.57257 84.2231 6.57257 84.7085 6.57257C85.0119 6.57257 85.3153 6.51227 85.6187 6.39167C86.5895 6.02986 86.9536 5.36654 86.9536 4.46202C86.9536 3.6178 86.5288 2.95448 85.6793 2.65297C84.7692 2.29116 83.7983 2.35146 82.7668 2.41177C82.7061 3.7987 82.7061 5.12533 82.7668 6.51227Z" fill="white"/>
<path d="M52.4255 0.180664C52.6682 0.180664 52.9109 0.180664 53.1537 0.180664C54.1852 0.180664 55.2774 0.180664 56.3089 0.180664C57.0371 0.180664 57.7652 0.301267 58.4327 0.482172C60.1317 0.843981 61.4666 2.29122 61.4666 4.28117C61.4666 5.6078 61.1025 6.81383 60.071 7.71835C59.2215 8.44197 58.1293 8.68318 57.0371 8.74348C56.3696 8.74348 55.7021 8.74348 54.974 8.74348C54.792 9.7686 54.974 10.7334 54.8527 11.7586C54.0638 11.8792 53.275 11.8189 52.4862 11.7586C52.3648 11.2761 52.3042 1.26609 52.4255 0.180664ZM54.9133 6.57262C55.7628 6.57262 56.491 6.57262 57.2191 6.57262C57.4011 6.57262 57.6439 6.45202 57.8259 6.39172C58.6147 6.09021 59.1001 5.36659 59.1001 4.58267C59.1001 3.73845 58.7361 3.07514 57.8866 2.71333C56.9764 2.35152 55.9449 2.35152 54.9133 2.47212C54.9133 3.79875 54.9133 5.12539 54.9133 6.57262Z" fill="white"/>
<path d="M96.1131 2.35144C94.8388 2.35144 93.7466 2.35144 92.5938 2.35144C92.5938 1.62782 92.5938 0.964503 92.5938 0.301186C93.0792 0.180583 101.149 0.120282 101.999 0.301186C101.999 0.964503 101.999 1.62782 101.999 2.35144C100.967 2.47204 99.8751 2.35144 98.7222 2.41174C98.7222 2.71325 98.6616 2.95445 98.6616 3.25596C98.6616 5.84892 98.6616 8.38159 98.6616 10.9746C98.6616 11.2158 98.6616 11.457 98.6616 11.6982C98.1155 11.8791 96.9626 11.8791 96.2344 11.7585C96.2344 11.5173 96.2344 11.2761 96.2344 11.0349C96.2344 8.44189 96.2344 5.90923 96.2344 3.31626C96.1738 3.01475 96.1738 2.77355 96.1131 2.35144Z" fill="white"/>
<path d="M16.4433 0.180907C16.4433 4.10051 16.4433 7.8995 16.4433 11.8191C16.0185 11.8191 15.5938 11.8191 15.169 11.8191C14.805 11.8191 14.3802 11.8191 14.0162 11.8191C13.9555 11.7588 13.9555 11.7588 13.8948 11.6985C13.8341 11.6382 13.8948 11.6382 13.8341 11.6382C13.8341 11.5176 13.7734 11.4573 13.7734 11.3367C13.7734 7.7186 13.7734 4.0402 13.7734 0.422113C13.7734 0.361812 13.7734 0.30151 13.8341 0.120605C14.7443 0.180907 15.5331 0.180907 16.4433 0.180907Z" fill="white"/>
<path d="M28.338 0.240723C29.1268 0.240723 29.9157 0.240723 30.6438 0.240723C30.6438 0.301024 30.7045 0.301024 30.7045 0.301024V0.361326C30.7045 0.54223 30.7045 0.723135 30.7045 0.904039C30.7045 4.46183 30.7045 7.95932 30.7045 11.5171C30.7045 11.5774 30.6438 11.6377 30.6438 11.7583C29.855 11.8186 29.1268 11.8186 28.2773 11.7583C28.338 7.89902 28.338 4.10002 28.338 0.240723Z" fill="white"/>
<path d="M24.0884 11.819C22.9962 11.819 22.0254 11.819 20.9938 11.819C19.5376 9.82902 18.142 7.83907 16.625 5.72852C17.6565 5.72852 18.5667 5.72852 19.4162 5.72852C19.6589 5.72852 19.8409 5.90942 19.9623 6.09032C20.7511 7.17575 21.5399 8.26118 22.2681 9.2863C22.6928 9.82902 23.0569 10.432 23.4816 10.9747C23.7243 11.216 23.8457 11.4572 24.0884 11.819Z" fill="white"/>
<path d="M23.786 0H20.6914V3.07538H23.786V0Z" fill="#F94809"/>
</g>
<defs>
<clipPath id="clip0_1217_3875">
<rect width="102" height="12" fill="white"/>
</clipPath>
</defs>
</svg>
