<svg width="85" height="20" viewBox="0 0 85 20" fill="none" xmlns="http://www.w3.org/2000/svg">
<path d="M81.4007 11.7423C81.4007 9.55322 81.4007 7.26466 81.4007 4.8766C82.112 4.8766 82.7218 4.8766 83.4332 4.8766C83.4332 8.55819 83.4332 12.2398 83.4332 15.9214C82.925 15.9214 82.4169 15.9214 81.8072 15.9214C80.1812 13.6328 78.4536 11.2448 76.8276 8.9562C76.8276 11.1453 76.8276 13.4338 76.8276 15.9214C76.2179 15.9214 75.5065 15.9214 74.7951 15.9214C74.7951 12.2398 74.7951 8.45869 74.7951 4.7771C74.9984 4.7771 75.1 4.6776 75.3032 4.6776C75.6081 4.6776 76.0146 4.6776 76.4211 4.6776C77.9455 7.06566 79.6731 9.35421 81.4007 11.7423Z" fill="white"/>
<path d="M40.3446 10.0501C40.6494 10.1496 40.8527 10.2491 40.9543 10.2491C43.19 11.0451 43.0884 13.9307 41.7673 15.0252C41.2592 15.4232 40.5478 15.8213 39.8365 15.9208C38.2105 16.3188 36.4829 16.2193 34.7553 15.9208C34.7553 12.2392 34.7553 8.65707 34.7553 4.87598C36.6861 4.47797 38.617 4.37847 40.5478 4.97548C41.6657 5.27399 42.2754 6.07001 42.377 7.16454C42.4787 8.25906 42.0722 9.25409 40.9543 9.7516C40.8527 9.7516 40.6494 9.8511 40.3446 10.0501ZM36.8894 11.0451C36.8894 12.2392 36.8894 13.1347 36.8894 14.1297C37.804 14.4282 38.617 14.4282 39.43 14.0302C40.1413 13.7317 40.4462 13.1347 40.4462 12.4382C40.3446 11.7417 39.9381 11.3436 39.3283 11.2441C38.5153 11.1446 37.7023 11.1446 36.8894 11.0451ZM36.8894 9.45309C37.804 9.6521 38.617 9.5526 39.3283 9.15459C39.8365 8.85608 40.2429 8.35857 40.1413 7.66205C39.9381 6.96553 39.5316 6.56752 38.9218 6.46802C38.3121 6.36852 37.6007 6.26901 36.8894 6.56752C36.8894 7.46304 36.8894 8.45807 36.8894 9.45309Z" fill="white"/>
<path d="M72.966 10.4483C72.966 11.5428 72.8644 12.5378 72.4579 13.4333C71.7465 15.2244 70.2222 16.2194 68.0881 16.2194C65.954 16.2194 64.5312 15.2244 63.8199 13.3338C63.1085 11.3438 63.1085 9.35373 63.8199 7.36368C64.5312 5.47314 65.954 4.57761 68.0881 4.57761C70.2222 4.57761 71.7465 5.47314 72.3563 7.36368C72.7628 8.35871 72.966 9.35373 72.966 10.4483ZM70.6287 10.4483C70.6287 9.65224 70.4254 8.85622 70.2222 8.0602C69.9173 7.06518 69.2059 6.56766 68.1897 6.56766C67.2751 6.46816 66.3604 6.96567 66.0556 7.9607C65.4458 9.55274 65.5475 11.1448 66.0556 12.7368C66.4621 13.8313 67.2751 14.2294 68.2913 14.2294C69.3075 14.1299 70.0189 13.6323 70.3238 12.6373C70.527 11.9408 70.6287 11.2443 70.6287 10.4483Z" fill="white"/>
<path d="M56.6045 15.9208C55.7915 15.9208 55.0801 15.9208 54.3688 15.9208C54.3688 12.2392 54.3688 8.55764 54.3688 4.87604C55.9948 4.47803 57.6207 4.47803 59.2467 4.77654C60.4662 4.97555 61.4824 5.67206 61.7873 6.9656C62.0922 8.45813 61.7873 9.75167 60.4662 10.7467C60.263 10.9457 59.9581 11.0452 59.6532 11.1447C61.076 12.4382 61.6857 14.2293 62.9052 15.8213C61.9906 15.8213 61.1776 15.8213 60.263 15.8213C59.45 14.4283 58.5354 13.0352 57.7224 11.5427C57.3159 11.4432 57.011 11.4432 56.6045 11.3437C56.6045 12.9357 56.6045 14.4283 56.6045 15.9208ZM56.6045 6.56759C56.6045 7.76162 56.6045 8.75664 56.6045 9.95067C57.3159 9.85117 57.9256 9.85117 58.5354 9.65216C59.2467 9.45316 59.6532 8.65714 59.5516 7.86112C59.45 7.1646 59.0435 6.66709 58.2305 6.56759C57.7224 6.56759 57.2142 6.56759 56.6045 6.56759Z" fill="white"/>
<path d="M43.3933 15.9214C44.816 12.1403 46.1371 8.45869 47.4582 4.6776C48.068 4.6776 48.4745 4.6776 49.0842 4.6776C50.4053 8.35919 51.8281 12.1403 53.1492 15.9214C52.3362 15.9214 51.6248 15.9214 50.8118 15.9214C50.507 15.1254 50.2021 14.4288 49.8972 13.5333C48.6777 13.5333 47.5599 13.5333 46.3404 13.5333C46.0355 14.3293 45.7306 15.0259 45.5274 15.8219C44.9176 15.9214 44.2063 15.9214 43.3933 15.9214ZM48.2712 7.66267C47.8647 9.05571 47.5599 10.3492 47.1534 11.6428C47.9664 11.6428 48.6777 11.6428 49.4907 11.6428C49.0842 10.3492 48.6777 9.05571 48.2712 7.66267Z" fill="white"/>
<path d="M31.097 13.2348C31.097 10.3492 31.097 7.66267 31.097 4.8766C31.5035 4.8766 31.8083 4.8766 32.1132 4.8766C32.3165 6.07063 32.3165 15.2249 32.1132 16.1204C31.6051 16.3194 31.4018 15.9214 31.1986 15.6229C29.2677 12.9363 27.3369 10.1502 25.5077 7.46366C25.5077 7.36416 25.406 7.36416 25.3044 7.26466C25.3044 10.1502 25.3044 12.9363 25.3044 15.9214C24.9995 15.9214 24.593 16.0209 24.2882 16.0209C24.0849 15.1254 23.9833 6.36914 24.1865 4.7771C24.4914 4.57809 24.7963 4.67759 24.9995 4.9761C25.2028 5.17511 25.406 5.47361 25.5077 5.67262C27.3369 8.16018 29.1661 10.6477 31.097 13.2348Z" fill="white"/>
<path d="M17.2762 15.9214C16.5648 15.9214 16.1583 15.9214 15.5486 15.9214C14.5323 14.6278 13.4145 13.3343 12.3982 11.9413C12.195 11.6428 11.9917 11.3443 11.6868 11.0458C11.4836 10.8468 11.1787 10.7472 10.6706 10.5482C10.6706 12.4388 10.6706 14.0308 10.6706 15.8219C10.1625 15.8219 9.85761 15.8219 9.3495 15.9214C9.24787 12.2398 9.3495 8.55819 9.3495 4.7771C9.75599 4.7771 10.1625 4.6776 10.6706 4.6776C10.7722 6.36914 10.6706 8.06068 10.7722 9.75222C11.4836 9.95123 11.6868 9.45372 11.9917 9.05571C13.1096 7.66267 14.2274 6.17013 15.3453 4.7771C15.7518 4.7771 16.1583 4.7771 16.6664 4.7771C16.3615 5.57312 14.1258 8.45869 12.7031 9.95123C14.0242 11.9413 15.6502 13.8318 17.2762 15.9214Z" fill="white"/>
<path d="M6.91042 5.07462C6.8088 5.47263 6.70718 5.77113 6.50393 6.06964C5.99581 5.97014 5.48769 5.77113 4.87795 5.77113C4.16658 5.77113 3.45521 5.67163 2.74384 5.87064C1.42273 6.26865 1.11786 7.56218 2.1341 8.4577C2.5406 8.75621 2.94709 8.95521 3.35359 9.25372C4.06495 9.65173 4.77632 9.95024 5.48769 10.3482C6.60555 11.0448 7.2153 12.0398 7.01205 13.4328C6.8088 14.8259 5.89419 15.5224 4.57308 15.9204C3.04872 16.3184 1.62598 16.1194 0 15.5224C0.101624 15.1244 0.203247 14.8259 0.304871 14.4279C1.11786 14.6269 1.93085 14.8259 2.64222 14.8259C3.35359 14.8259 4.06495 14.8259 4.6747 14.5274C5.89418 14.0298 6.09743 12.6368 5.18282 11.8408C4.77632 11.4428 4.36983 11.2438 3.86171 10.9453C3.15034 10.5473 2.43897 10.2487 1.72761 9.85074C0.508118 9.05472 -7.87443e-07 7.86069 0.304871 6.46765C0.609743 5.37312 1.62598 4.5771 3.04872 4.4776C4.2682 4.5771 5.58931 4.5771 6.91042 5.07462Z" fill="white"/>
<path d="M19.715 4.8756C20.1215 4.8756 20.528 4.8756 20.9345 4.8756C20.9345 8.5572 20.9345 12.2388 20.9345 15.9204C20.528 15.9204 20.2232 16.0199 19.8167 16.0199C19.6134 15.1244 19.5118 6.76615 19.715 4.8756Z" fill="white"/>
</svg>
