<svg width="88" height="20" viewBox="0 0 88 20" fill="none" xmlns="http://www.w3.org/2000/svg">
<path d="M63.5099 16.994C64.0185 16.451 64.5101 15.9254 65.0235 15.3799C64.9627 15.3725 64.9213 15.3675 64.88 15.365C63.9844 15.3401 63.1668 15.0586 62.4051 14.5928C61.6239 14.1171 60.962 13.4993 60.3342 12.8342C59.3778 11.8155 58.5163 10.7145 57.6743 9.59607C57.0781 8.80397 56.4916 8.00439 55.7859 7.30694C55.1167 6.64685 54.3793 6.08142 53.4911 5.7576C52.9557 5.56331 52.4058 5.46616 51.8388 5.46616C50.8605 5.46616 49.8846 5.46616 48.9064 5.46616C48.8674 5.46616 48.8261 5.46616 48.7774 5.46616C48.6192 6.74649 48.461 8.01934 48.3004 9.30962C48.3588 9.30962 48.4026 9.30962 48.444 9.30962C49.9236 9.30962 51.4056 9.32457 52.8852 9.29966C53.3159 9.29218 53.7466 9.17511 54.1749 9.09291C54.3964 9.05057 54.613 8.97584 54.832 8.92353C54.8733 8.91357 54.9415 8.931 54.9658 8.9609C55.4988 9.62347 56.0268 10.2885 56.5744 10.976C56.3602 11.0458 56.168 11.113 55.9757 11.1728C55.2043 11.4119 54.4207 11.5938 53.6225 11.6859C53.1212 11.7432 52.6126 11.7706 52.1089 11.7756C50.7656 11.7881 49.4247 11.7806 48.0814 11.7806C48.0571 11.7806 48.0327 11.7856 47.9962 11.7881C47.8527 12.9488 47.7066 14.1096 47.5631 15.2753C46.5337 15.2753 45.5092 15.2753 44.4725 15.2753C44.9811 11.1853 45.4873 7.10268 45.9959 3.00267C46.0421 3.00267 46.0859 3.00267 46.1297 3.00267C48.4829 3.00267 50.8337 3.00017 53.1869 3.00516C53.6907 3.00516 54.1676 3.15959 54.6349 3.34143C55.6034 3.71755 56.4576 4.28797 57.2533 4.95802C58.2316 5.78251 59.0517 6.76143 59.845 7.76775C60.7576 8.92353 61.6848 10.0644 62.6265 11.1952C63.0208 11.6685 63.471 12.092 64.0039 12.4058C64.4152 12.6499 64.8556 12.772 65.3569 12.767C64.9481 12.1492 64.549 11.5489 64.1402 10.9312C64.1962 10.9287 64.2327 10.9237 64.2667 10.9237C65.3423 10.9237 66.4155 10.9237 67.4911 10.9212C67.5787 10.9212 67.6274 10.9536 67.6761 11.0258C68.3283 12.0098 68.9829 12.9937 69.6424 13.9726C69.691 14.0448 69.691 14.0872 69.6302 14.1519C68.7663 15.0761 67.9073 16.0027 67.0434 16.9268C67.0093 16.9642 66.9485 16.9965 66.9022 16.9965C65.795 17.0015 64.6877 16.999 63.5805 16.999C63.561 17.0015 63.5488 16.999 63.5099 16.994Z" fill="white"/>
<path d="M17.4994 10.8166C18.4996 8.21362 19.4998 5.61064 20.4999 3.00765C21.4149 3.00765 22.3227 3.00765 23.2474 3.00765C23.6027 5.61313 23.9555 8.21611 24.3108 10.8216C24.3181 10.8216 24.3279 10.8241 24.3352 10.8241C24.4252 10.5675 24.5177 10.3135 24.6077 10.0569C25.4205 7.74783 26.2333 5.43876 27.0412 3.12721C27.0729 3.03505 27.1118 3.00266 27.2116 3.00266C28.241 3.00765 29.2728 3.00516 30.3022 3.00516C30.3387 3.00516 30.3752 3.00516 30.4238 3.00516C30.4141 3.04252 30.4092 3.0749 30.3971 3.1023C29.0489 6.56963 27.7007 10.0395 26.3526 13.5068C26.1335 14.0672 25.917 14.6277 25.7004 15.1881C25.676 15.2504 25.6493 15.2878 25.5714 15.2878C24.5323 15.2853 23.4956 15.2853 22.4565 15.2853C22.4395 15.2853 22.4249 15.2828 22.3981 15.2803C22.0331 12.7595 21.6656 10.2362 21.2957 7.67808C21.1521 8.04424 21.0183 8.37802 20.8893 8.70931C20.0449 10.8565 19.2004 13.0036 18.3609 15.1508C18.3195 15.2579 18.2684 15.2878 18.1589 15.2878C17.1685 15.2828 16.1805 15.2853 15.19 15.2853C15.1462 15.2853 15.1024 15.2853 15.0416 15.2853C14.4673 11.1952 13.8905 7.11016 13.3162 3.01512C14.4308 3.01512 15.5404 3.01512 16.6623 3.01512C16.9324 5.61313 17.2001 8.21362 17.4702 10.8166C17.48 10.8166 17.4897 10.8166 17.4994 10.8166Z" fill="white"/>
<path d="M87.5141 3.00516C87.4509 3.50333 87.3925 3.98408 87.3316 4.46482C87.2951 4.75128 87.2513 5.03773 87.227 5.32667C87.2172 5.45122 87.1759 5.47364 87.0664 5.47364C85.285 5.47114 83.5061 5.47114 81.7248 5.47114C81.4644 5.47114 81.2162 5.51598 80.9996 5.6754C80.7295 5.87467 80.6224 6.16611 80.581 6.48494C80.4715 7.3169 80.3693 8.15135 80.2671 8.98331C80.1819 9.67329 80.1016 10.3633 80.0165 11.0532C79.9727 11.407 79.9289 11.7582 79.8802 12.1119C79.812 12.6175 80.1089 12.9638 80.6297 12.9663C81.3233 12.9712 82.0168 12.9663 82.7104 12.9663C83.2044 12.9663 83.6984 12.9663 84.2143 12.9663C84.3214 12.1094 84.426 11.2525 84.5355 10.3782C83.7884 10.3782 83.0535 10.3782 82.3113 10.3782C82.4013 9.66333 82.4865 8.96587 82.5741 8.26593C84.3481 8.26593 86.11 8.26593 87.8889 8.26593C87.609 10.5227 87.3292 12.772 87.0493 15.0362C86.7622 15.0686 86.4775 15.1134 86.1927 15.1308C85.6233 15.1657 85.5297 15.1865 84.9602 15.2263C84.639 15.2488 83.8395 15.3052 83.5183 15.3326C83.1143 15.3675 82.7104 15.3999 82.3064 15.4048C81.3525 15.4148 80.401 15.4148 79.447 15.4048C78.9335 15.3999 78.4322 15.3226 77.9577 15.1084C77.3031 14.812 76.9454 14.2839 76.8139 13.5765C76.7093 13.0161 76.7507 12.4531 76.8237 11.8927C76.8869 11.397 76.9478 10.8988 77.0086 10.4031C77.0695 9.90993 77.1327 9.41922 77.1936 8.92602C77.2471 8.50257 77.2909 8.07912 77.3493 7.65566C77.4588 6.85359 77.5002 6.03907 77.7606 5.2644C77.9918 4.58189 78.3446 3.99155 78.9506 3.58803C79.3764 3.30655 79.8461 3.14215 80.3425 3.08237C80.7684 3.03006 81.1991 3.00765 81.6274 3.00516C83.5378 2.99768 85.4481 3.00266 87.3584 3.00266C87.4046 3.00516 87.4533 3.00516 87.5141 3.00516Z" fill="#15C7AD"/>
<path d="M0 15.0985C0.0219017 14.9017 0.0438032 14.6999 0.0705718 14.5007C0.13141 14.0075 0.197115 13.5167 0.250652 13.0235C0.26282 12.904 0.292022 12.8567 0.423432 12.8567C2.46029 12.8616 4.49471 12.8591 6.53156 12.8616C6.83575 12.8616 7.12047 12.8093 7.34435 12.5727C7.522 12.3859 7.57067 12.1492 7.59987 11.9051C7.64854 11.5016 7.69965 11.1006 7.74832 10.697C7.75319 10.6572 7.74832 10.6148 7.74832 10.5526C7.70452 10.5526 7.65828 10.5526 7.61204 10.5526C6.30524 10.5526 5.00088 10.5551 3.69408 10.5501C3.16114 10.5476 2.63793 10.4779 2.13663 10.2811C1.37007 9.97967 0.96854 9.38684 0.839563 8.57979C0.742223 7.9745 0.788459 7.3717 0.880933 6.77139C0.946638 6.34794 1.00504 5.91951 1.11212 5.50602C1.30437 4.76622 1.64992 4.11111 2.28021 3.65528C2.72797 3.32897 3.23658 3.14963 3.77438 3.08486C4.21242 3.03256 4.65532 3.01014 5.09578 3.00765C6.93796 3.00017 8.7777 3.00516 10.6199 3.00516C10.6685 3.00516 10.7148 3.00516 10.7805 3.00516C10.6783 3.83213 10.5785 4.64417 10.4763 5.46865C10.4228 5.46865 10.3765 5.46865 10.3278 5.46865C8.61708 5.46865 6.90389 5.46865 5.19313 5.47114C5.05928 5.47114 4.92544 5.47862 4.79646 5.50851C4.33896 5.61562 4.06397 5.9494 4.00557 6.47498C3.9788 6.71659 3.94716 6.9607 3.95446 7.20481C3.9642 7.58841 4.19295 7.83003 4.56771 7.88732C4.67965 7.90475 4.79403 7.91223 4.90597 7.91223C5.97185 7.91472 7.04017 7.90724 8.10605 7.91721C8.59762 7.92219 9.07945 7.99442 9.54182 8.18373C10.2475 8.47517 10.6369 9.01818 10.7683 9.77293C10.8608 10.3085 10.8292 10.8465 10.7513 11.382C10.6856 11.8354 10.6393 12.2937 10.5444 12.7421C10.4057 13.3947 10.1405 13.99 9.66106 14.4658C9.2352 14.8892 8.71199 15.1259 8.13768 15.2305C7.77995 15.2952 7.41493 15.3301 7.05233 15.3326C5.34157 15.3426 3.62837 15.355 1.91761 15.3251C1.29706 15.3152 0.678951 15.1981 0.0608379 15.1284C0.0438033 15.1234 0.0292022 15.1134 0 15.0985Z" fill="white"/>
<path d="M29.4164 15.2778C29.5794 14.949 29.7327 14.6352 29.8885 14.3238C31.5627 10.9287 33.237 7.5361 34.9112 4.14101C35.0816 3.79477 35.2568 3.44854 35.4247 3.09981C35.4563 3.03256 35.4928 3.00516 35.5707 3.00516C36.6463 3.00765 37.7195 3.00765 38.7951 3.00516C38.8803 3.00516 38.9095 3.03256 38.9314 3.11725C39.4522 5.25195 39.9778 7.38665 40.5034 9.52384C40.9634 11.397 41.4233 13.2726 41.8832 15.1458C41.893 15.1881 41.9003 15.233 41.9076 15.2828C40.7955 15.2828 39.6882 15.2828 38.5688 15.2828C38.4033 14.5554 38.2378 13.8281 38.0699 13.0958C38.0188 13.0958 37.9775 13.0958 37.9385 13.0958C36.605 13.0958 35.269 13.0983 33.9354 13.0933C33.8332 13.0933 33.7869 13.1282 33.7456 13.2178C33.4365 13.8779 33.1226 14.5355 32.8111 15.1931C32.7819 15.2529 32.7576 15.2903 32.6797 15.2903C31.6163 15.2878 30.5552 15.2878 29.4918 15.2878C29.4699 15.2828 29.4553 15.2803 29.4164 15.2778ZM36.7339 6.74648C36.7242 6.74898 36.7145 6.74897 36.7072 6.75147C36.0939 8.09655 35.4807 9.44413 34.8626 10.7992C35.78 10.7992 36.6755 10.7992 37.5784 10.7992C37.2961 9.44164 37.0162 8.09406 36.7339 6.74648Z" fill="white"/>
<path d="M73.5409 3.00516C73.4387 3.83462 73.3389 4.64915 73.2367 5.47114C73.1758 5.47114 73.1272 5.47114 73.0785 5.47114C71.3142 5.47114 69.5499 5.47114 67.788 5.47364C67.6591 5.47364 67.5277 5.4836 67.4035 5.51349C66.9412 5.62309 66.6759 5.95687 66.6127 6.47996C66.4958 7.44144 66.3717 8.40044 66.2525 9.36193C66.233 9.52134 66.2136 9.68325 66.199 9.84267C66.1917 9.9174 66.1722 9.95227 66.0894 9.95227C65.1039 9.94978 64.1183 9.94978 63.1327 9.94978C63.1084 9.94978 63.0865 9.94231 63.0451 9.93732C63.179 8.85627 63.3128 7.78021 63.4442 6.70414C63.4345 6.69418 63.4247 6.68421 63.415 6.67425C62.9259 7.02297 62.4343 7.3717 61.9281 7.73039C61.4244 7.1251 60.9134 6.50985 60.3901 5.87965C60.7381 5.59818 61.0642 5.3192 61.4074 5.06015C62.4343 4.28548 63.5488 3.68517 64.7778 3.3215C65.5322 3.09732 66.2987 2.99519 67.0872 3.00017C69.18 3.01512 71.2704 3.00765 73.3632 3.00765C73.4168 3.00516 73.4679 3.00516 73.5409 3.00516Z" fill="#15C7AD"/>
<path d="M73.8694 8.26344C73.5871 10.5302 73.3097 12.772 73.0323 15.0138C72.7256 15.1209 70.6036 15.2554 70.1364 15.1981C70.2921 14.9739 70.443 14.7547 70.5939 14.538C70.6888 14.4035 70.7764 14.264 70.8762 14.1345C70.9248 14.0697 70.9224 14.0274 70.8786 13.9626C70.6644 13.6562 70.4527 13.3474 70.2459 13.036C70.2215 12.9986 70.2045 12.9438 70.2094 12.9015C70.2824 12.2688 70.3603 11.6361 70.4381 11.0059C70.4625 10.8017 70.4917 10.5974 70.5184 10.3782C70.1364 10.3782 69.7689 10.3782 69.399 10.3782C69.034 10.3782 68.6714 10.3782 68.2966 10.3782C68.3331 10.0793 68.3648 9.79285 68.4013 9.5064C68.4451 9.14522 68.4962 8.78653 68.5351 8.42286C68.5473 8.31077 68.5692 8.26095 68.6981 8.26095C70.3724 8.26593 72.0467 8.26344 73.721 8.26344C73.7623 8.26344 73.8061 8.26344 73.8694 8.26344Z" fill="#15C7AD"/>
<path d="M54.9026 15.2753C55.0121 14.3985 55.1191 13.5292 55.2287 12.6549C56.258 12.6549 57.2777 12.6549 58.3168 12.6549C58.2073 13.5292 58.1002 14.3985 57.9907 15.2753C56.9686 15.2753 55.9465 15.2753 54.9026 15.2753Z" fill="#15C7AD"/>
</svg>
