<svg width="96" height="20" viewBox="0 0 96 20" fill="none" xmlns="http://www.w3.org/2000/svg">
<g clip-path="url(#clip0_1217_3853)">
<path d="M4.9 10C3.3 8.40001 1.6 6.80002 0 5.10002C0.1 5.10002 0.1 5.10002 0.2 5.10002C1.3 5.10002 2.3 5.10002 3.4 5.10002C3.5 5.10002 3.6 5.10002 3.6 5.00002C5.1 2.50002 7.3 0.900015 10.2 0.200015C11 0.100015 11.9 1.51061e-05 12.8 0.100015C14.4 0.200015 15.9 0.600015 17.2 1.40002C19.6 2.80001 21.2 4.90001 21.9 7.70002C22.1 8.40001 22.2 9.10002 22.2 9.80002V9.90001C22.2 9.80001 22.1 9.80002 22.1 9.80002C20.5 8.20002 19 6.50002 17.4 5.00002C16.2 3.70002 14.6 3.00002 12.9 2.80001C9.2 2.40001 5.7 5.00002 5 8.70002C4.9 9.10001 4.9 9.50002 4.9 9.90001V10Z" fill="white"/>
<path d="M19.4992 10.1001C21.0992 11.7001 22.6992 13.3001 24.2992 14.9001H24.1992C23.1992 14.9001 22.0992 14.9001 21.0992 14.9001C20.9992 14.9001 20.8992 14.9001 20.7992 15.0001C19.3992 17.3001 17.4992 18.8001 14.8992 19.6001C14.2992 19.8001 13.6992 19.9001 13.0992 19.9001C12.4992 20.0001 11.8992 20.0001 11.3992 19.9001C9.79922 19.8001 8.29922 19.3001 6.99922 18.5001C5.49922 17.6001 4.29922 16.4001 3.49922 14.8001C2.99922 13.8001 2.59922 12.8001 2.39922 11.7001C2.29922 11.2001 2.29922 10.7001 2.19922 10.1001L2.29922 10.2001C3.79922 11.8001 5.39922 13.4001 6.89922 14.9001C7.99922 16.0001 9.29922 16.7001 10.7992 17.0001C11.3992 17.1001 11.9992 17.2001 12.6992 17.1001C14.0992 17.0001 15.3992 16.5001 16.4992 15.7001C17.9992 14.5001 18.9992 13.0001 19.3992 11.1001C19.4992 11.0001 19.4992 10.6001 19.4992 10.1001Z" fill="#00D3FE"/>
<path d="M12.2992 13.9002C12.3992 13.8002 12.3992 13.8002 12.4992 13.7002C12.8992 13.2002 12.6992 12.4002 11.9992 12.2002C11.8992 12.2002 11.7992 12.1002 11.7992 12.0002C11.5992 11.7002 11.3992 11.5002 10.9992 11.5002C10.8992 11.5002 10.7992 11.4002 10.7992 11.4002C10.5992 11.1002 10.2992 11.0002 9.99922 11.0002C9.89922 11.0002 9.89922 11.0002 9.79922 10.9002C9.59922 10.7002 9.39922 10.5002 9.09922 10.5002C8.89922 10.5002 8.69922 10.5002 8.59922 10.6002C8.49922 10.6002 8.39922 10.7002 8.29922 10.8002H8.19922V10.7002C8.29922 10.4002 8.39922 10.1002 8.49922 9.9002C8.69922 9.3002 8.99922 8.6002 9.19922 8.0002C9.19922 7.9002 9.29922 7.9002 9.39922 7.9002C9.89922 7.8002 10.3992 7.7002 10.9992 7.7002H11.0992C10.9992 7.7002 10.9992 7.8002 10.9992 7.8002C10.6992 8.0002 10.4992 8.2002 10.1992 8.4002C9.89922 8.4002 9.79922 8.5002 9.69922 8.7002C9.59922 8.8002 9.59922 8.9002 9.49922 9.0002C9.39922 9.2002 9.49922 9.3002 9.59922 9.5002C9.79922 9.8002 10.0992 10.0002 10.4992 10.0002C10.6992 10.0002 10.9992 10.0002 11.1992 9.9002C11.4992 9.8002 11.7992 9.6002 12.0992 9.5002C12.4992 9.3002 12.3992 9.3002 12.6992 9.6002C13.1992 10.0002 13.6992 10.4002 14.2992 10.8002C14.5992 11.1002 14.9992 11.3002 15.3992 11.6002C15.4992 11.7002 15.5992 11.7002 15.6992 11.8002C15.8992 12.0002 15.7992 12.2002 15.6992 12.3002C15.5992 12.4002 15.4992 12.4002 15.3992 12.3002C15.2992 12.3002 15.2992 12.2002 15.1992 12.2002C15.0992 12.2002 15.0992 12.2002 14.9992 12.2002C14.8992 12.2002 14.8992 12.3002 14.9992 12.3002C14.9992 12.4002 15.0992 12.5002 14.9992 12.6002C14.9992 12.8002 14.7992 12.9002 14.5992 12.9002C14.4992 12.9002 14.3992 12.8002 14.2992 12.7002C14.2992 12.7002 14.2992 12.7002 14.1992 12.6002H14.0992C13.9992 12.6002 13.9992 12.7002 14.0992 12.7002V12.8002C14.1992 12.9002 14.1992 13.1002 14.0992 13.2002C13.9992 13.4002 13.7992 13.4002 13.6992 13.4002C13.5992 13.4002 13.4992 13.3002 13.3992 13.2002C13.3992 13.2002 13.3992 13.2002 13.2992 13.1002C13.1992 13.1002 13.1992 13.1002 13.0992 13.1002C13.0992 13.1002 13.0992 13.2002 13.0992 13.3002C13.0992 13.4002 13.1992 13.4002 13.1992 13.5002C13.2992 13.8002 13.0992 14.0002 12.7992 14.0002C12.4992 14.1002 12.3992 14.0002 12.2992 13.9002Z" fill="#00D3FE"/>
<path d="M15.8984 10.8999C15.7984 10.8999 15.6984 10.9999 15.5984 11.0999C15.4984 10.9999 15.2984 10.8999 15.1984 10.7999C14.4984 10.2999 13.6984 9.6999 12.9984 9.1999C12.9984 8.9999 12.8984 8.9999 12.7984 8.8999C12.5984 8.7999 12.3984 8.7999 12.1984 8.8999C12.0984 8.8999 11.8984 8.9999 11.7984 9.0999C11.4984 9.1999 11.2984 9.2999 10.9984 9.3999C10.7984 9.4999 10.5984 9.4999 10.4984 9.4999C10.3984 9.4999 10.1984 9.3999 10.0984 9.2999C9.99844 9.1999 9.99844 9.1999 10.0984 9.0999C10.1984 8.9999 10.1984 8.8999 10.2984 8.7999C10.4984 8.5999 10.7984 8.3999 10.9984 8.1999C11.1984 8.0999 11.3984 7.8999 11.5984 7.7999C11.6984 7.6999 11.7984 7.6999 11.8984 7.5999C12.0984 7.4999 12.2984 7.4999 12.4984 7.5999C13.2984 7.8999 14.0984 8.0999 14.8984 8.3999C14.9984 8.3999 14.9984 8.3999 14.9984 8.4999C15.2984 9.2999 15.5984 10.0999 15.8984 10.8999C15.8984 10.7999 15.8984 10.8999 15.8984 10.8999Z" fill="white"/>
<path d="M10.7008 13.0999C10.5008 13.0999 10.4008 13.1999 10.2008 13.1999C10.0008 13.1999 9.90078 13.1999 9.80078 13.0999C9.60078 12.9999 9.60078 12.7999 9.70078 12.6999C9.60078 12.6999 9.50078 12.7999 9.40078 12.7999C9.10078 12.7999 8.80078 12.6999 8.70078 12.4999C8.60078 12.3999 8.60078 12.2999 8.80078 12.0999H8.70078C8.60078 12.0999 8.50078 12.0999 8.40078 11.9999C8.30078 11.9999 8.20078 11.8999 8.20078 11.8999C8.00078 11.6999 8.00078 11.4999 8.20078 11.3999C8.40078 10.9999 8.60078 10.9999 8.80078 10.8999C8.90078 10.8999 9.00078 10.8999 9.20078 10.8999C9.40078 10.9999 9.50078 11.0999 9.50078 11.2999C9.50078 11.3999 9.50078 11.3999 9.50078 11.4999C9.60078 11.4999 9.80078 11.3999 9.90078 11.3999C10.2008 11.2999 10.4008 11.4999 10.5008 11.6999C10.6008 11.7999 10.5008 11.9999 10.4008 12.0999H10.5008C10.6008 12.0999 10.7008 11.9999 10.8008 11.9999C11.0008 11.9999 11.2008 12.0999 11.3008 12.2999C11.4008 12.3999 11.3008 12.4999 11.3008 12.6999C11.4008 12.6999 11.5008 12.6999 11.5008 12.5999C11.7008 12.5999 11.8008 12.5999 12.0008 12.6999C12.1008 12.7999 12.2008 12.8999 12.1008 13.0999C12.1008 13.1999 12.0008 13.1999 12.0008 13.2999C11.8008 13.4999 11.5008 13.5999 11.2008 13.5999C10.8008 13.6999 10.6008 13.4999 10.7008 13.0999Z" fill="white"/>
<path d="M7.60078 7C8.00078 7.1 8.30078 7.2 8.70078 7.3C8.30078 8.4 7.90078 9.5 7.50078 10.6C7.30078 10.5 7.00078 10.4 6.80078 10.4C7.00078 9.3 7.30078 8.1 7.60078 7Z" fill="#00D3FE"/>
<path d="M16.6984 11.1C16.2984 10 15.8984 8.9 15.3984 7.8C15.7984 7.7 16.0984 7.6 16.3984 7.5C16.6984 8.6 16.9984 9.7 17.2984 10.8C17.1984 10.9 16.9984 11 16.6984 11.1Z" fill="white"/>
<path d="M78.0031 15.8999C78.0031 13.4999 78.0031 11.1999 78.0031 8.7999C77.0031 8.7999 76.1031 8.7999 75.2031 8.7999C75.2031 8.0999 75.2031 7.2999 75.2031 6.5999C75.4031 6.4999 82.9031 6.4999 83.3031 6.5999C83.3031 7.2999 83.3031 7.9999 83.3031 8.7999C82.4031 8.7999 81.5031 8.7999 80.5031 8.7999C80.5031 9.3999 80.5031 9.9999 80.5031 10.5999C80.5031 11.1999 80.5031 11.7999 80.5031 12.2999C80.5031 12.8999 80.5031 13.4999 80.5031 14.0999C80.5031 14.6999 80.5031 15.2999 80.5031 15.8999C79.7031 15.8999 78.8031 15.8999 78.0031 15.8999Z" fill="#00D3FE"/>
<path d="M35.3023 6.6001C35.4023 6.6001 35.5023 6.6001 35.6023 6.6001C36.7023 6.6001 37.8023 6.6001 38.9023 6.6001C39.6023 6.6001 40.2023 6.7001 40.8023 7.0001C41.9023 7.5001 42.4023 8.3001 42.4023 9.5001C42.4023 10.4001 42.2023 11.2001 41.5023 11.8001C41.2023 12.0001 40.9023 12.2001 40.5023 12.4001C40.4023 12.4001 40.3023 12.5001 40.2023 12.5001C41.0023 13.7001 41.9023 14.8001 42.7023 16.0001C42.5023 16.0001 42.4023 16.0001 42.3023 16.0001C41.9023 16.0001 41.5023 16.0001 41.0023 16.0001C40.8023 16.0001 40.7023 15.9001 40.6023 15.8001C39.9023 14.9001 39.3023 13.9001 38.6023 13.0001C38.5023 12.8001 38.3023 12.7001 38.1023 12.7001C37.4023 12.7001 36.6023 12.7001 35.9023 12.7001C35.7023 12.7001 35.6023 12.7001 35.6023 12.5001C35.4023 12.1001 35.2023 11.7001 34.9023 11.2001C35.1023 11.2001 35.2023 11.2001 35.3023 11.2001C36.4023 11.2001 37.6023 11.2001 38.7023 11.2001C39.0023 11.2001 39.4023 11.2001 39.7023 11.0001C40.6023 10.7001 40.8023 10.0001 40.7023 9.2001C40.6023 8.8001 40.3023 8.5001 40.0023 8.3001C39.6023 8.1001 39.2023 8.0001 38.7023 8.0001C37.9023 8.0001 37.1023 8.0001 36.3023 8.0001C36.1023 8.0001 36.0023 7.9001 35.9023 7.7001C35.7023 7.4001 35.5023 7.0001 35.3023 6.6001Z" fill="white"/>
<path d="M44.7007 15.5001C44.4007 15.0001 44.0007 14.6001 43.7007 14.2001C43.6007 14.1001 43.7007 14.0001 43.7007 13.9001C44.1007 13.0001 44.5007 12.0001 44.9007 11.1001C45.5007 9.7001 46.1007 8.3001 46.7007 6.9001C46.8007 6.7001 46.9007 6.6001 47.1007 6.6001C47.4007 6.6001 47.7007 6.6001 48.1007 6.6001C48.3007 6.6001 48.4007 6.7001 48.5007 6.9001C49.3007 8.7001 50.0007 10.4001 50.8007 12.2001C51.3007 13.4001 51.9007 14.6001 52.4007 15.8001C52.4007 15.9001 52.5007 16.0001 52.5007 16.1001C51.9007 16.1001 51.4007 16.1001 50.8007 16.1001C49.8007 13.6001 48.7007 11.2001 47.7007 8.7001C47.7007 8.7001 47.7007 8.7001 47.6007 8.7001C46.7007 10.8001 45.7007 13.2001 44.7007 15.5001Z" fill="white"/>
<path d="M51 6.6001C51.2 6.6001 51.2 6.6001 51.3 6.6001C52.6 6.6001 53.9 6.6001 55.1 6.6001C56 6.6001 56.9 6.8001 57.8 7.2001C59.3 8.0001 60.1 9.3001 60.2 11.0001C60.3 12.5001 59.8 13.7001 58.7 14.7001C57.9 15.4001 56.9 15.8001 55.8 15.9001C55.5 15.9001 55.3 15.9001 55 16.0001C54.8 15.5001 54.6 15.0001 54.4 14.5001C54.6 14.5001 54.9 14.5001 55.1 14.5001C55.5 14.5001 55.9 14.4001 56.3 14.3001C57.5 14.0001 58.4 12.9001 58.5 11.7001C58.5 11.2001 58.5 10.7001 58.3 10.2001C57.9 9.0001 57 8.4001 55.8 8.2001C55.5 8.2001 55.3 8.2001 55 8.1001C54 8.1001 52.9 8.1001 51.9 8.1001C51.7 8.1001 51.6 8.0001 51.5 7.9001C51.4 7.4001 51.2 7.0001 51 6.6001Z" fill="white"/>
<path d="M31.7016 15.9001C31.1016 15.9001 30.6016 15.9001 30.0016 15.9001C30.0016 13.3001 30.0016 10.7001 30.0016 8.1001C29.9016 8.1001 29.8016 8.1001 29.7016 8.1001C28.9016 8.1001 28.0016 8.1001 27.1016 8.1001C26.9016 8.1001 26.8016 8.0001 26.7016 7.8001C26.5016 7.4001 26.3016 7.0001 26.1016 6.6001C26.2016 6.6001 26.3016 6.6001 26.3016 6.6001C28.5016 6.6001 30.6016 6.6001 32.8016 6.6001C33.0016 6.6001 33.1016 6.7001 33.2016 6.8001C33.4016 7.2001 33.6016 7.6001 33.8016 8.1001C33.0016 8.1001 32.3016 8.1001 31.6016 8.1001C31.7016 10.7001 31.7016 13.3001 31.7016 15.9001Z" fill="white"/>
<path d="M73.1016 6.6001C73.1016 9.7001 73.1016 12.8001 73.1016 15.9001C72.3016 15.9001 71.4016 15.9001 70.6016 15.9001C70.6016 12.8001 70.6016 9.7001 70.6016 6.6001C71.4016 6.6001 72.3016 6.6001 73.1016 6.6001Z" fill="#00D3FE"/>
<path d="M90.5006 7.09991C90.3006 7.29991 90.1006 7.49991 89.9006 7.69991C89.8006 7.59991 89.7006 7.59991 89.7006 7.49991C89.1006 7.09991 88.5006 6.99991 87.8006 7.39991C87.1006 7.79991 86.6006 8.69991 86.8006 9.49991C86.9006 10.1999 87.5006 10.6999 88.2006 10.6999C88.6006 10.6999 88.9006 10.5999 89.3006 10.3999C89.4006 10.2999 89.5006 10.2999 89.5006 10.0999C89.5006 9.89991 89.6006 9.59991 89.6006 9.29991C89.4006 9.29991 89.2006 9.29991 89.0006 9.29991C88.8006 9.29991 88.6006 9.29991 88.4006 9.29991C88.4006 8.99991 88.5006 8.79991 88.5006 8.59991C89.2006 8.59991 89.9006 8.59991 90.6006 8.59991C90.6006 8.69991 90.6006 8.79991 90.6006 8.89991C90.5006 9.39991 90.5006 9.89991 90.4006 10.3999C90.4006 10.5999 90.3006 10.7999 90.1006 10.8999C89.4006 11.3999 88.6006 11.5999 87.8006 11.3999C86.7006 11.1999 85.9006 10.2999 86.0006 9.19991C86.0006 7.79991 87.0006 6.59991 88.4006 6.39991C89.1006 6.29991 89.8006 6.29991 90.4006 6.79991C90.3006 6.89991 90.3006 6.99991 90.5006 7.09991Z" fill="white"/>
<path d="M96.0022 7.09974C95.8022 7.29974 95.6022 7.49974 95.3022 7.69974C95.3022 7.69974 95.2022 7.69974 95.2022 7.59974C94.5022 6.99974 93.5022 7.09974 92.9022 7.69974C92.4022 8.09974 92.2022 8.69974 92.2022 9.29974C92.2022 10.0997 92.8022 10.6997 93.7022 10.6997C94.1022 10.6997 94.4022 10.5997 94.7022 10.3997C94.8022 10.2997 94.9022 10.2997 94.9022 10.0997C95.0022 9.99974 95.0022 9.69974 95.0022 9.49974C94.6022 9.49974 94.2022 9.49974 93.7022 9.49974C93.7022 9.19974 93.8022 8.99974 93.8022 8.79974C94.5022 8.79974 95.2022 8.79974 95.9022 8.79974C95.8022 9.29974 95.8022 9.79974 95.7022 10.2997V10.3997C95.7022 10.7997 95.5022 10.9997 95.2022 11.1997C94.4022 11.5997 93.6022 11.7997 92.7022 11.5997C91.8022 11.3997 91.2022 10.5997 91.2022 9.69974C91.1022 8.19974 92.1022 6.89974 93.6022 6.59974C94.5022 6.29974 95.3022 6.49974 96.0022 7.09974Z" fill="white"/>
<path d="M68.6008 6.6001C68.6008 7.1001 68.6008 7.5001 68.6008 8.0001C68.5008 8.0001 68.4008 8.0001 68.3008 8.0001C66.1008 8.0001 63.9008 8.0001 61.7008 8.0001C61.5008 8.0001 61.4008 7.9001 61.3008 7.8001C61.0008 7.4001 60.7008 7.0001 60.3008 6.6001C63.1008 6.6001 65.8008 6.6001 68.6008 6.6001Z" fill="white"/>
<path d="M60.4023 15.9C60.5023 15.8 60.5023 15.8 60.6023 15.7C60.9023 15.4 61.1023 15 61.4023 14.7C61.5023 14.5 61.6023 14.5 61.8023 14.5C63.1023 14.5 64.3023 14.5 65.6023 14.5C66.5023 14.5 67.3023 14.5 68.2023 14.5C68.3023 14.5 68.4023 14.5 68.5023 14.5C68.5023 15 68.5023 15.5 68.5023 15.9C68.4023 15.9 60.8023 15.9 60.4023 15.9Z" fill="white"/>
<path d="M66.7023 10.5C66.4023 11 66.2023 11.5 66.0023 11.9C64.8023 11.9 63.6023 11.9 62.4023 11.9C62.4023 11.4 62.4023 10.9 62.4023 10.5C63.8023 10.5 65.2023 10.5 66.7023 10.5Z" fill="white"/>
<path d="M83.9016 15.8998C83.2016 15.8998 82.6016 15.2998 82.6016 14.5998C82.6016 13.8998 83.2016 13.2998 83.9016 13.2998C84.6016 13.2998 85.2016 13.8998 85.2016 14.5998C85.2016 15.2998 84.6016 15.8998 83.9016 15.8998Z" fill="white"/>
</g>
<defs>
<clipPath id="clip0_1217_3853">
<rect width="96" height="20" fill="white"/>
</clipPath>
</defs>
</svg>
