<svg width="91" height="20" viewBox="0 0 91 20" fill="none" xmlns="http://www.w3.org/2000/svg">
<g clip-path="url(#clip0_1217_3843)">
<path d="M2.89844 0.0999023C4.19844 0.499902 4.99844 1.2999 4.89844 2.7999C4.89844 2.9999 4.89844 3.0999 4.99844 3.2999C5.49844 5.6999 6.59844 7.7999 7.99844 9.7999C8.59844 10.6999 9.89844 10.6999 10.5984 9.8999C11.5984 8.6999 12.4984 7.3999 12.6984 5.6999C12.7984 4.5999 13.8984 3.7999 14.9984 3.6999C16.1984 3.6999 17.1984 4.4999 17.3984 5.5999C17.6984 6.6999 17.0984 7.7999 15.9984 8.2999C13.3984 9.5999 11.7984 11.6999 11.1984 14.4999C10.8984 15.6999 9.89844 16.5999 8.59844 16.4999C7.39844 16.3999 6.49844 15.4999 6.39844 14.1999C6.29844 13.2999 6.09844 12.4999 5.89844 11.5999C4.99844 9.4999 3.89844 7.4999 2.49844 5.7999C2.09844 5.2999 1.49844 4.7999 0.998438 4.3999C0.498438 3.9999 0.198438 3.3999 0.0984375 2.8999C-0.0015625 2.5999 -0.0015625 2.2999 0.0984375 2.0999C0.398438 1.0999 1.09844 0.399902 2.09844 0.0999023C2.29844 -9.76548e-05 2.59844 -9.76548e-05 2.89844 0.0999023Z" fill="white"/>
<path d="M27.6984 0.100098C27.8984 0.200098 27.9984 0.200098 28.1984 0.300098C28.9984 0.600098 29.4984 1.3001 29.6984 2.1001C29.8984 3.0001 29.4984 3.7001 28.8983 4.3001C28.1983 5.0001 27.3983 5.6001 26.8983 6.4001C25.3983 8.4001 24.1984 10.7001 23.6984 13.2001C23.5984 13.5001 23.5984 13.9001 23.5984 14.2001C23.4984 15.3001 22.7984 16.2001 21.6984 16.4001C20.5984 16.6001 19.4984 16.1001 18.9984 15.1001C18.4984 14.1001 18.7984 13.0001 19.5984 12.3001C22.4984 9.9001 23.9984 6.7001 24.8984 3.1001C24.9984 2.9001 24.8984 2.6001 24.9984 2.4001C25.0984 1.3001 25.6983 0.500098 26.7983 0.200098C26.8983 0.200098 26.9984 0.100098 27.0984 0.100098C27.1984 0.100098 27.3984 0.100098 27.6984 0.100098Z" fill="white"/>
<path d="M51 19.9997C51 18.7997 51 17.6997 51 16.5997C51 13.7997 51 10.9997 51 8.29974C51 8.09974 51 7.99974 51 7.79974C51.6 7.79974 52.2 7.79974 52.9 7.79974C52.9 8.09974 52.9 8.39974 52.9 8.59974C53 8.59974 53 8.59974 53 8.59974C54.4 6.99974 57 7.19974 58.4 8.49974C59.8 9.79974 60.2 11.4997 59.7 13.3997C59.3 15.0997 58.2 16.1997 56.4 16.4997C55.1 16.7997 53.9 16.4997 52.8 15.2997C52.8 16.8997 52.8 18.4997 52.8 19.9997C52.3 19.9997 51.7 19.9997 51 19.9997ZM58 11.9997C58 10.4997 57.1 9.29974 55.7 9.19974C54.3 9.09974 53.1 9.89974 52.8 11.3997C52.5 12.9997 53.4 14.4997 54.8 14.6997C56.7 14.9997 58 13.8997 58 11.9997Z" fill="white"/>
<path d="M38.4991 7.69961C38.4991 10.5996 38.4991 13.4996 38.4991 16.2996C37.8991 16.2996 37.2991 16.2996 36.6991 16.2996C36.6991 15.9996 36.6991 15.6996 36.6991 15.2996C35.5991 16.4996 34.1991 16.6996 32.6991 16.2996C30.7991 15.6996 29.4991 13.8996 29.5991 11.6996C29.6991 9.39961 31.1991 7.69961 33.3991 7.39961C34.5991 7.19961 35.5991 7.59961 36.5991 8.59961C36.5991 8.29961 36.5991 7.99961 36.5991 7.69961C37.2991 7.69961 37.8991 7.69961 38.4991 7.69961ZM31.4991 11.9996C31.4991 13.5996 32.4991 14.6996 33.8991 14.7996C35.2991 14.8996 36.4991 13.8996 36.5991 12.4996C36.7991 10.7996 35.9991 9.49961 34.4991 9.19961C32.9991 8.89961 31.5991 10.0996 31.4991 11.9996Z" fill="white"/>
<path d="M73.8969 12.6999C74.0969 14.9999 76.5969 15.5999 78.9969 13.9999C79.2969 14.3999 79.5969 14.8999 79.8969 15.2999C79.7969 15.3999 79.6969 15.4999 79.4969 15.5999C77.8969 16.5999 76.1969 16.7999 74.4969 16.1999C72.8969 15.5999 72.0969 14.1999 71.8969 12.4999C71.7969 11.8999 71.8969 11.1999 71.9969 10.5999C72.5969 8.19992 74.7969 6.89991 77.1969 7.49991C78.7969 7.89991 79.8969 9.19991 80.1969 10.8999C80.2969 11.2999 80.2969 11.6999 80.2969 12.0999C80.2969 12.2999 80.2969 12.3999 80.2969 12.5999C78.0969 12.6999 75.9969 12.6999 73.8969 12.6999ZM78.2969 11.2999C78.2969 10.0999 77.3969 9.19991 76.1969 9.19991C74.8969 9.19991 73.9969 10.0999 73.8969 11.2999C75.2969 11.2999 76.7969 11.2999 78.2969 11.2999Z" fill="white"/>
<path d="M70.1969 12.6998C67.9969 12.6998 65.8969 12.6998 63.7969 12.6998C63.8969 14.5998 66.1969 15.7998 68.8969 13.9998C69.1969 14.3998 69.4969 14.8998 69.7969 15.2998C69.0969 15.9998 68.1969 16.3998 67.1969 16.4998C66.3969 16.5998 65.6969 16.5998 64.8969 16.3998C63.0969 15.9998 61.8969 14.4998 61.7969 12.5998C61.7969 11.8998 61.7969 11.2998 61.8969 10.5998C62.3969 8.49984 64.0969 7.29984 66.2969 7.39984C68.2969 7.49984 69.7969 8.89984 70.0969 10.9998C70.0969 11.5998 70.0969 12.0998 70.1969 12.6998ZM68.0969 11.2998C68.0969 10.0998 67.1969 9.19983 65.9969 9.19983C64.6969 9.19983 63.7969 10.0998 63.6969 11.2998C65.1969 11.2998 66.6969 11.2998 68.0969 11.2998Z" fill="white"/>
<path d="M40.3984 7.59961C41.1984 7.59961 41.7984 7.59961 42.4984 7.59961C42.5984 7.59961 42.7984 7.69961 42.8984 7.89961C43.4984 8.69961 44.0984 9.59961 44.7984 10.4996C44.9984 10.2996 45.0984 10.0996 45.1984 9.99961C45.6984 9.29961 46.1984 8.59961 46.6984 7.89961C46.7984 7.79961 46.9984 7.59961 47.1984 7.59961C47.7984 7.59961 48.3984 7.59961 49.0984 7.59961C47.9984 8.99961 46.9984 10.3996 45.8984 11.7996C46.9984 13.2996 47.9984 14.6996 49.1984 16.2996C48.3984 16.2996 47.6984 16.2996 46.9984 16.2996C46.8984 16.2996 46.7984 16.0996 46.6984 15.9996C45.9984 15.0996 45.3984 14.1996 44.6984 13.2996C43.9984 14.1996 43.3984 15.0996 42.7984 15.9996C42.5984 16.2996 42.3984 16.3996 42.0984 16.3996C41.4984 16.3996 40.9984 16.3996 40.3984 16.3996C40.4984 16.2996 40.4984 16.1996 40.5984 16.0996C41.4984 14.8996 42.3984 13.5996 43.3984 12.3996C43.5984 12.0996 43.5984 11.8996 43.3984 11.5996C42.4984 10.4996 41.6984 9.29961 40.7984 8.19961C40.5984 7.99961 40.4984 7.79961 40.3984 7.59961Z" fill="white"/>
<path d="M84.4992 16.4002C83.9992 16.4002 83.4992 16.4002 83.0992 16.4002C82.9992 16.4002 82.7992 16.4002 82.6992 16.4002C82.6992 13.5002 82.6992 10.6002 82.6992 7.70024C83.2992 7.70024 83.8992 7.70024 84.4992 7.70024C84.4992 8.00024 84.4992 8.20024 84.4992 8.60024C84.9992 8.00024 85.5992 7.60024 86.2992 7.50024C86.9992 7.40024 87.6992 7.40024 88.3992 7.70024C88.1992 8.30024 88.0992 8.90024 87.9992 9.50024C87.6992 9.40024 87.2992 9.30024 86.9992 9.30024C85.4992 9.10024 84.4992 9.90024 84.4992 11.4002C84.4992 12.9002 84.4992 14.3002 84.4992 15.8002C84.4992 16.0002 84.4992 16.1002 84.4992 16.4002Z" fill="white"/>
</g>
<defs>
<clipPath id="clip0_1217_3843">
<rect width="90.5" height="20" fill="white"/>
</clipPath>
</defs>
</svg>
