<svg width="64" height="64" viewBox="0 0 64 64" fill="none" xmlns="http://www.w3.org/2000/svg">
<g opacity="0.1">
<path d="M42.6654 24C58.6654 24 58.6654 34.6666 58.6654 34.6666V40H42.6654V34.6666C42.6654 34.6666 42.6654 30.16 39.5987 26.1333C39.1454 25.52 38.5854 24.9333 37.9987 24.3733C39.3854 24.16 40.9054 24 42.6654 24ZM5.33203 34.6666C5.33203 34.6666 5.33203 24 21.332 24C37.332 24 37.332 34.6666 37.332 34.6666V40H5.33203V34.6666ZM21.332 2.66663C16.9054 2.66663 13.332 6.23996 13.332 10.6666C13.332 15.0933 16.9054 18.6666 21.332 18.6666C25.7587 18.6666 29.332 15.0933 29.332 10.6666C29.332 6.23996 25.7587 2.66663 21.332 2.66663ZM42.6654 2.66663C38.2387 2.66663 34.6654 6.23996 34.6654 10.6666C34.6654 15.0933 38.2387 18.6666 42.6654 18.6666C47.092 18.6666 50.6654 15.0933 50.6654 10.6666C50.6654 6.23996 47.092 2.66663 42.6654 2.66663Z" fill="white"/>
<path fill-rule="evenodd" clip-rule="evenodd" d="M18.668 45.3334H24.0013V50.6667H48.0013L48.0013 45.3334H53.3346V56H48.0013L21.3346 56L18.668 56V45.3334Z" fill="white"/>
</g>
</svg>
