<svg width="16" height="16" viewBox="0 0 16 16" fill="none" xmlns="http://www.w3.org/2000/svg">
<path d="M3.625 13.25C3.00725 13.8665 2.48042 14.3958 1.87503 15C1.87495 14.4943 1.87506 3.62581 1.875 1.875C5.96451 1.875 9.99841 1.875 14.125 1.875C14.125 2.49152 14.125 3.625 14.125 3.625C14.125 3.625 11.0545 5.95362 9.3125 7.125H14.125V14.125C14.125 14.125 7.77408 14.125 4.5 14.125C5.05597 13.5085 5.63225 12.9915 6.25 12.375C8.27622 12.375 10.3135 12.375 12.3767 12.375C12.3767 11.1934 12.375 10.0443 12.375 8.875C10.3488 8.875 8.30093 8.875 6.25 8.875C6.25 8.25848 6.25 7.75385 6.25 7.125C7.94264 5.99061 9.79497 4.77171 11.5 3.625C11.0058 3.625 5.72535 3.625 3.625 3.625C3.625 6.8432 3.625 10.0441 3.625 13.25Z" fill="white"/>
</svg>
