<svg width="18" height="18" viewBox="0 0 18 18" fill="none" xmlns="http://www.w3.org/2000/svg">
<path d="M16 0H13.3H4.7H2C1.46957 0 0.960859 0.210714 0.585786 0.585786C0.210714 0.960859 0 1.46957 0 2V4.7V13.4V16C0 16.5304 0.210714 17.0391 0.585786 17.4142C0.960859 17.7893 1.46957 18 2 18H4.7H13.4H16C16.5304 18 17.0391 17.7893 17.4142 17.4142C17.7893 17.0391 18 16.5304 18 16V13.3V4.7V2C18 1.46957 17.7893 0.960859 17.4142 0.585786C17.0391 0.210714 16.5304 0 16 0ZM12.6 14L9 10.4L5.4 14L4 12.6L7.6 9L4 5.4L5.4 4L9 7.6L12.6 4L14 5.4L10.4 9L14 12.6L12.6 14Z" fill="white"/>
</svg>
