<svg width="16" height="14" viewBox="0 0 16 14" fill="none" xmlns="http://www.w3.org/2000/svg">
<path d="M8.08 11.8638L8 11.9401L7.912 11.8638C4.112 8.57548 1.6 6.40109 1.6 4.19619C1.6 2.6703 2.8 1.52589 4.4 1.52589C5.632 1.52589 6.832 2.28883 7.256 3.32643H8.744C9.168 2.28883 10.368 1.52589 11.6 1.52589C13.2 1.52589 14.4 2.6703 14.4 4.19619C14.4 6.40109 11.888 8.57548 8.08 11.8638ZM11.6 0C10.208 0 8.872 0.617984 8 1.58692C7.128 0.617984 5.792 0 4.4 0C1.936 0 0 1.83869 0 4.19619C0 7.07248 2.72 9.42997 6.84 12.9929L8 14L9.16 12.9929C13.28 9.42997 16 7.07248 16 4.19619C16 1.83869 14.064 0 11.6 0Z" fill="white"/>
</svg>
