<svg width="18" height="10" viewBox="0 0 18 10" fill="none" xmlns="http://www.w3.org/2000/svg">
<path d="M7.08872 5.07845C7.24582 5.51125 7.39083 5.91399 7.53585 6.31674C7.50564 6.35881 7.49355 6.39488 7.46334 6.42494C6.79265 7.11621 6.12195 7.80749 5.43917 8.48675C4.74431 9.18404 3.91047 9.65891 2.94975 9.87531C2.47241 9.98351 1.97694 10.0496 1.48752 9.95346C0.641599 9.78515 0.103835 9.10589 0.0132011 8.36652C-0.0472218 7.85558 0.109877 7.39874 0.279061 6.93588C0.738275 5.67956 1.19749 4.41722 1.66274 3.1609C1.91048 2.49367 2.13404 1.82042 2.41803 1.17122C2.73223 0.4559 3.30625 0.059167 4.10383 0.0110781C5.04038 -0.0430219 5.80171 0.329666 6.46032 0.960833C7.1854 1.65812 7.91047 2.3494 8.63554 3.04068C8.68993 3.09478 8.75639 3.14287 8.83494 3.20899C8.93766 3.13085 9.03434 3.06472 9.11893 2.98057C9.80775 2.32536 10.4966 1.65812 11.1854 1.00291C11.6809 0.528034 12.2488 0.179389 12.9376 0.0591663C13.6809 -0.0730782 14.3818 -0.00695576 14.986 0.497978C15.3244 0.7805 15.5238 1.14117 15.6748 1.5379C16.3515 3.3232 17.0162 5.11451 17.699 6.89981C17.8621 7.33261 18.0313 7.7594 17.995 8.23428C17.9407 8.8955 17.6144 9.3824 17.0585 9.71903C16.6657 9.95947 16.2428 10.0015 15.7896 9.9775C15.0525 9.93542 14.3636 9.74307 13.7111 9.41246C13.1975 9.15398 12.7503 8.79331 12.3455 8.39057C11.1431 7.18835 9.95276 5.98612 8.73222 4.80193C7.66273 3.76201 6.557 2.74613 5.47543 1.71823C5.11893 1.38161 4.68993 1.22532 4.21863 1.2133C3.92256 1.20729 3.66274 1.32751 3.53585 1.62206C3.44522 1.83244 3.35459 2.04283 3.27604 2.25923C2.61743 4.07459 1.95882 5.88995 1.30625 7.7053C1.04643 8.42062 1.42709 8.8414 2.19447 8.75124C2.84099 8.6791 3.43313 8.49276 3.96486 8.13209C4.21259 7.96378 4.4422 7.76541 4.65368 7.55502C5.29416 6.92987 5.92256 6.29269 6.55096 5.66152C6.72618 5.48119 6.90141 5.28883 7.08872 5.07845ZM9.73524 4.06858C9.79566 4.14071 9.844 4.20683 9.89838 4.26093C11.0222 5.379 12.1461 6.49707 13.276 7.60912C13.8682 8.1922 14.5872 8.56489 15.4089 8.71517C15.6869 8.76326 15.9769 8.83539 16.273 8.75124C16.6476 8.64304 16.8651 8.29439 16.7685 7.9217C16.7383 7.8135 16.702 7.71131 16.6657 7.60912C16.3032 6.64735 15.9407 5.67956 15.5781 4.71778C15.2277 3.79207 14.8772 2.86636 14.5268 1.94064C14.4059 1.61003 14.1884 1.36959 13.85 1.2674C13.5963 1.18926 13.3364 1.23133 13.0766 1.28543C12.6355 1.3756 12.2972 1.63408 11.9769 1.93463C11.2942 2.58383 10.6053 3.22702 9.91651 3.87021C9.86213 3.92431 9.80775 3.99645 9.73524 4.06858Z" fill="white"/>
</svg>
