<svg width="16" height="14" viewBox="0 0 16 14" fill="none" xmlns="http://www.w3.org/2000/svg">
<path d="M15.3327 6.66667C15.3327 5.92667 14.7327 5.33334 13.9993 5.33334H9.78601L10.426 2.28667C10.4393 2.22001 10.446 2.14667 10.446 2.07334C10.446 1.8 10.3327 1.54667 10.1527 1.36667L9.44601 0.666672L5.05935 5.05334C4.81268 5.3 4.66602 5.63334 4.66602 6V12.6667C4.66602 13.0203 4.80649 13.3594 5.05654 13.6095C5.30659 13.8595 5.64573 14 5.99935 14H11.9993C12.5527 14 13.026 13.6667 13.226 13.1867L15.2393 8.48667C15.2993 8.33334 15.3327 8.17334 15.3327 8V6.66667ZM0.666016 14H3.33268V6H0.666016V14Z" fill="#FFDB0C"/>
</svg>
