<svg width="10" height="13" viewBox="0 0 10 13" fill="none" xmlns="http://www.w3.org/2000/svg">
<path d="M5 9.90476C5.6875 9.90476 6.25 9.34762 6.25 8.66667C6.25 7.98571 5.6875 7.42857 5 7.42857C4.3125 7.42857 3.75 7.98571 3.75 8.66667C3.75 9.34762 4.3125 9.90476 5 9.90476ZM8.75 5C9.4375 5 10 5.55714 10 6.2381V11.7619C10 12.4429 9.4375 13 8.75 13H1.25C0.5625 13 0 12.4429 0 11.7619V6.2381C0 5.55714 0.5625 5 1.25 5H1.875V3.09524C1.875 1.3619 3.25 0 5 0C6.75 0 8.125 1.3619 8.125 3.09524V5H8.75ZM5 1.2381C3.9375 1.2381 3.125 2.04286 3.125 3.09524V5H6.875V3.09524C6.875 2.04286 6.0625 1.2381 5 1.2381Z" fill="#9EA7B3"/>
</svg>
