<svg width="105" height="94" viewBox="0 0 105 94" fill="none" xmlns="http://www.w3.org/2000/svg">
<g clip-path="url(#clip0_102_2)">
<path fill-rule="evenodd" clip-rule="evenodd" d="M1.09334 41.1731C0.403288 29.45 3.55363 17.8214 10.0669 8.04982C16.5802 -1.7218 26.1014 -9.10383 37.1876 -12.9775C48.2737 -16.8512 60.3205 -17.0053 71.5021 -13.4166C81.1198 -10.3298 89.6465 -4.61866 96.146 3.02865L105.785 -6.46852L109.27 20.5312L82.2705 16.6996L91.619 7.4889C82.8789 -2.98435 69.7276 -9.64833 55.0198 -9.64833C28.7051 -9.64833 7.37285 11.684 7.37285 37.9987C7.37285 38.9386 7.40007 39.8722 7.45376 40.7987L1.09334 41.1731Z" fill="white" fill-opacity="0.1"/>
<path fill-rule="evenodd" clip-rule="evenodd" d="M108.705 35.0516C109.208 46.5602 106.017 57.9281 99.5994 67.4942C93.1814 77.0603 83.8724 84.3233 73.0326 88.2221C62.1928 92.1208 50.3902 92.4508 39.3495 89.164C29.7292 86.3001 21.1266 80.8209 14.4793 73.3771L5.7498 82.7635L1.09007 55.9416L28.2309 58.5909L18.8151 68.7151C28.0146 79.2584 41.7518 85.6708 56.8179 85.0125C83.1075 83.8638 103.488 61.6207 102.34 35.3311L102.339 35.3298L108.705 35.0516Z" fill="white" fill-opacity="0.1"/>
</g>
<defs>
<clipPath id="clip0_102_2">
<rect width="105" height="94" fill="white"/>
</clipPath>
</defs>
</svg>
