<svg width="24" height="24" viewBox="0 0 24 24" fill="none" xmlns="http://www.w3.org/2000/svg">
<path fill-rule="evenodd" clip-rule="evenodd" d="M12.8997 10.9005L12.8997 5.41511C12.8997 4.86215 12.4528 4.41526 11.8998 4.41526C11.3469 4.41526 10.9 4.86215 10.9 5.41511L10.9 10.9005L5.41457 10.9005C4.86161 10.9005 4.41472 11.3474 4.41472 11.9004C4.41472 12.4533 4.86161 12.9002 5.41457 12.9002L10.9 12.9002L10.9 18.3857C10.9 18.9386 11.3469 19.3855 11.8998 19.3855C12.1756 19.3855 12.4259 19.2738 12.607 19.0928C12.788 18.9118 12.8997 18.6614 12.8997 18.3857L12.8997 12.9002L18.3851 12.9002C18.6609 12.9002 18.9112 12.7885 19.0922 12.6075C19.2733 12.4265 19.385 12.1762 19.385 11.9004C19.385 11.3474 18.9381 10.9005 18.3851 10.9005L12.8997 10.9005Z" fill="white"/>
</svg>
