<svg width="14" height="14" viewBox="0 0 14 14" fill="none" xmlns="http://www.w3.org/2000/svg">
<path d="M6.33203 11.0002H7.66536V9.66683H6.33203V11.0002ZM6.9987 0.333496C6.12322 0.333496 5.25631 0.505935 4.44747 0.840966C3.63864 1.176 2.90371 1.66706 2.28465 2.28612C1.03441 3.53636 0.332031 5.23205 0.332031 7.00016C0.332031 8.76827 1.03441 10.464 2.28465 11.7142C2.90371 12.3333 3.63864 12.8243 4.44747 13.1594C5.25631 13.4944 6.12322 13.6668 6.9987 13.6668C8.76681 13.6668 10.4625 12.9645 11.7127 11.7142C12.963 10.464 13.6654 8.76827 13.6654 7.00016C13.6654 6.12468 13.4929 5.25778 13.1579 4.44894C12.8229 3.6401 12.3318 2.90517 11.7127 2.28612C11.0937 1.66706 10.3588 1.176 9.54992 0.840966C8.74108 0.505935 7.87418 0.333496 6.9987 0.333496ZM6.9987 12.3335C4.0587 12.3335 1.66536 9.94016 1.66536 7.00016C1.66536 4.06016 4.0587 1.66683 6.9987 1.66683C9.9387 1.66683 12.332 4.06016 12.332 7.00016C12.332 9.94016 9.9387 12.3335 6.9987 12.3335ZM6.9987 3.00016C6.29145 3.00016 5.61318 3.28111 5.11308 3.78121C4.61298 4.28131 4.33203 4.95959 4.33203 5.66683H5.66536C5.66536 5.31321 5.80584 4.97407 6.05589 4.72402C6.30594 4.47397 6.64508 4.3335 6.9987 4.3335C7.35232 4.3335 7.69146 4.47397 7.94151 4.72402C8.19156 4.97407 8.33203 5.31321 8.33203 5.66683C8.33203 7.00016 6.33203 6.8335 6.33203 9.00016H7.66536C7.66536 7.50016 9.66537 7.3335 9.66537 5.66683C9.66537 4.95959 9.38441 4.28131 8.88432 3.78121C8.38422 3.28111 7.70594 3.00016 6.9987 3.00016Z" fill="#6F7F8A"/>
</svg>
