<svg width="24" height="24" viewBox="0 0 24 24" fill="none" xmlns="http://www.w3.org/2000/svg">
<path d="M13.0005 3H11.0005V13H13.0005V3ZM17.8305 5.17L16.4105 6.59C18.0505 7.91 19.0005 9.9 19.0005 12C19.0005 13.8565 18.263 15.637 16.9502 16.9497C15.6375 18.2625 13.857 19 12.0005 19C8.14046 19 5.00046 15.88 5.00046 12C5.00046 9.91 5.95046 7.91 7.58046 6.58L6.17046 5.17C2.38046 8.39 1.92046 14.07 5.14046 17.86C8.36046 21.64 14.0405 22.1 17.8305 18.88C19.8505 17.17 21.0005 14.65 21.0005 12C21.0005 9.37 19.8405 6.87 17.8305 5.17Z" fill="#00F900"/>
</svg>
