<svg width="24" height="24" viewBox="0 0 24 24" fill="none" xmlns="http://www.w3.org/2000/svg">
<path fill-rule="evenodd" clip-rule="evenodd" d="M11 4H7C5.34315 4 4 5.34315 4 7V11H5V7C5 5.89543 5.89543 5 7 5H11V4ZM13 5V4H17C18.6569 4 20 5.34315 20 7V11H19V7C19 5.89543 18.1046 5 17 5H13ZM13 19H17C18.1046 19 19 18.1046 19 17V13H20V17C20 18.6569 18.6569 20 17 20H13V19ZM5 13V17C5 18.1046 5.89543 19 7 19H11V20H7C5.34315 20 4 18.6569 4 17V13H5Z" fill="white"/>
<path d="M6.99981 13.0027H8.99981V14.0027H6.99981V15.0027H9.99981V12.0027H7.99981V11.0027H9.99981V10.0027H6.99981V13.0027Z" fill="white"/>
<path d="M12 10.0024H11V15.0024H12V10.0024Z" fill="white"/>
<path d="M16 10.0024V12.0024H14.0025L14 10.0024H13V15.0024H14.0025V13.0024H16V15.0024H17V10.0024H16Z" fill="white"/>
</svg>
