<svg width="16" height="17" viewBox="0 0 16 17" fill="none" xmlns="http://www.w3.org/2000/svg">
<path fill-rule="evenodd" clip-rule="evenodd" d="M7 0H3C1.34315 0 0 1.34315 0 3V7H1V3C1 1.89543 1.89543 1 3 1H7V0ZM9 1V0H13C14.6569 0 16 1.34315 16 3V7H15V3C15 1.89543 14.1046 1 13 1H9ZM9 15H13C14.1046 15 15 14.1046 15 13V9H16V13C16 14.6569 14.6569 16 13 16H9V15ZM1 9V13C1 14.1046 1.89543 15 3 15H7V16H3C1.34315 16 0 14.6569 0 13V9H1Z" fill="white"/>
<path d="M3 9.00244H5V10.0024H3V11.0024H6V8.00244H4V7.00244H6V6.00244H3V9.00244Z" fill="white"/>
<path d="M8 6.00244H7V11.0024H8V6.00244Z" fill="white"/>
<path d="M12 6.00244V8.00244H10.0025L10 6.00244H9V11.0024H10.0025V9.00244H12V11.0024H13V6.00244H12Z" fill="white"/>
</svg>
