<svg width="24" height="24" viewBox="0 0 24 24" fill="none" xmlns="http://www.w3.org/2000/svg">
<path fill-rule="evenodd" clip-rule="evenodd" d="M0 12C0 5.37258 5.37258 0 12 0C15.1826 0 18.2348 1.26428 20.4853 3.51472C22.7357 5.76516 24 8.8174 24 12C24 15.1826 22.7357 18.2348 20.4853 20.4853C18.2348 22.7357 15.1826 24 12 24C8.8174 24 5.76516 22.7357 3.51472 20.4853C1.26428 18.2348 0 15.1826 0 12ZM2 12C2 17.5125 6.4875 22 12 22C17.5125 22 22 17.5125 22 12C22 6.4875 17.5125 2 12 2C6.4875 2 2 6.4875 2 12ZM11.4545 17.4545H13.2727V15.6363H11.4545V17.4545ZM8.72727 10.1818C8.72727 8.17351 10.3553 6.54545 12.3636 6.54545C14.3719 6.54545 16 8.17351 16 10.1818C16 11.3481 15.2818 11.9757 14.5825 12.5869C13.9191 13.1666 13.2727 13.7315 13.2727 14.7273H11.4545C11.4545 13.0716 12.311 12.4151 13.064 11.8379C13.6548 11.3851 14.1818 10.9811 14.1818 10.1818C14.1818 9.17766 13.3678 8.36364 12.3636 8.36364C11.3595 8.36364 10.5455 9.17766 10.5455 10.1818H8.72727Z" fill="white"/>
</svg>
