<svg width="24" height="24" viewBox="0 0 24 24" fill="none" xmlns="http://www.w3.org/2000/svg">
<path d="M12.9995 3H10.9995V13H12.9995V3ZM17.8295 5.17L16.4095 6.59C18.0495 7.91 18.9995 9.9 18.9995 12C18.9995 13.8565 18.262 15.637 16.9492 16.9497C15.6365 18.2625 13.856 19 11.9995 19C8.13948 19 4.99948 15.88 4.99948 12C4.99948 9.91 5.94948 7.91 7.57948 6.58L6.16948 5.17C2.37948 8.39 1.91948 14.07 5.13948 17.86C8.35948 21.64 14.0395 22.1 17.8295 18.88C19.8495 17.17 20.9995 14.65 20.9995 12C20.9995 9.37 19.8395 6.87 17.8295 5.17Z" fill="#47555F"/>
</svg>
