<svg width="24" height="24" viewBox="0 0 24 24" fill="none" xmlns="http://www.w3.org/2000/svg">
<path fill-rule="evenodd" clip-rule="evenodd" d="M15 6H16C17.1046 6 18 6.89543 18 8V9H20V8C20 5.79086 18.2091 4 16 4H15V6ZM6 8V9H4V8C4 5.79086 5.79086 4 8 4H9V6H8C6.89543 6 6 6.89543 6 8ZM4 16V15H6V16C6 17.1046 6.89543 18 8 18H9V20H8C5.79086 20 4 18.2091 4 16ZM20 15H18V16C18 17.1046 17.1046 18 16 18H15V20H16C18.2091 20 20 18.2091 20 16V15ZM13 18H11V20H13V18ZM11 4H13V6H11V4ZM20 11H18V13H20V11ZM4 11H6V13H4V11ZM15 7H9V9V11V13H13V15H9V17H15V15V13V11H11V9H15V7Z" fill="#FFFBFA"/>
</svg>
