<svg width="14" height="20" viewBox="0 0 14 20" fill="none" xmlns="http://www.w3.org/2000/svg">
<path fill-rule="evenodd" clip-rule="evenodd" d="M5.57795 5.95604C5.57795 5.0989 6.28346 4.76923 7.45197 4.76923C9.12756 4.76923 11.2441 5.27473 12.9197 6.17582V1.01099C11.0898 0.285714 9.28189 0 7.45197 0C2.97638 0 0 2.32967 0 6.21978C0 12.2857 8.37795 11.3187 8.37795 13.9341C8.37795 14.9451 7.49606 15.2747 6.26142 15.2747C4.4315 15.2747 2.09449 14.5275 0.24252 13.5165V18.7473C2.29291 19.6264 4.36535 20 6.26142 20C10.8472 20 14 17.7363 14 13.8022C13.978 7.25275 5.57795 8.41758 5.57795 5.95604Z" fill="white"/>
</svg>
