<svg width="14" height="14" viewBox="0 0 14 14" fill="none" xmlns="http://www.w3.org/2000/svg">
<path d="M7.00065 0.333984C7.87613 0.333984 8.74304 0.506423 9.55187 0.841454C10.3607 1.17649 11.0956 1.66755 11.7147 2.28661C12.3338 2.90566 12.8248 3.64059 13.1598 4.44943C13.4949 5.25827 13.6673 6.12517 13.6673 7.00065C13.6673 8.76876 12.9649 10.4645 11.7147 11.7147C10.4645 12.9649 8.76876 13.6673 7.00065 13.6673C3.93398 13.6673 1.36732 11.614 0.573984 8.82065L3.12732 9.87398C3.30065 10.734 4.06732 11.3873 4.98065 11.3873C6.02065 11.3873 6.86732 10.5407 6.86732 9.50065V9.41398L9.13398 7.79398H9.18732C10.574 7.79398 11.7007 6.66732 11.7007 5.28065C11.7007 3.89398 10.574 2.76732 9.18732 2.76732C7.80065 2.76732 6.66732 3.89398 6.66732 5.28065V5.31398L5.08732 7.62065L4.98065 7.61398C4.58732 7.61398 4.22065 7.73398 3.92065 7.94065L0.333984 6.46732C0.620651 3.03398 3.48732 0.333984 7.00065 0.333984ZM4.52065 10.4473C5.05398 10.6673 5.66732 10.4207 5.88732 9.88732C6.10732 9.35398 5.85398 8.74732 5.33398 8.52732L4.48065 8.17398C4.80732 8.05398 5.17398 8.04732 5.52065 8.19398C5.87398 8.33398 6.14732 8.60732 6.28732 8.96065C6.43398 9.30732 6.43398 9.69398 6.28732 10.0407C6.00065 10.7607 5.15398 11.1073 4.43398 10.8073C4.10065 10.6673 3.84732 10.414 3.70732 10.114L4.52065 10.4473ZM10.8673 5.28065C10.8673 6.20732 10.114 6.96065 9.18732 6.96065C8.26732 6.96065 7.51398 6.20732 7.51398 5.28065C7.5131 5.06066 7.55578 4.84267 7.63956 4.63925C7.72334 4.43584 7.84657 4.25102 8.00213 4.09546C8.15769 3.9399 8.3425 3.81668 8.54592 3.7329C8.74934 3.64912 8.96733 3.60644 9.18732 3.60732C10.114 3.60732 10.8673 4.36065 10.8673 5.28065ZM7.93398 5.28065C7.93398 5.97398 8.49398 6.54065 9.19398 6.54065C9.88732 6.54065 10.4473 5.97398 10.4473 5.28065C10.4473 4.58732 9.88732 4.02065 9.19398 4.02065C8.49398 4.02065 7.93398 4.58732 7.93398 5.28065Z" fill="#FF0123"/>
</svg>
