<svg width="16" height="16" viewBox="0 0 16 16" fill="none" xmlns="http://www.w3.org/2000/svg">
<path d="M4.72727 12.9999C4.25455 12.9999 3.84242 12.7315 3.64242 12.3438L2.06061 6.85886L2 6.5964C2 6.4382 2.06385 6.28648 2.17751 6.17462C2.29117 6.06275 2.44532 5.99991 2.60606 5.99991H4.71515L7.50303 1.92307C7.61212 1.76798 7.79394 1.66658 8 1.66658C8.20606 1.66658 8.39394 1.76798 8.50303 1.92903L11.2848 5.99991H13.3939C13.5547 5.99991 13.7088 6.06275 13.8225 6.17462C13.9361 6.28648 14 6.4382 14 6.5964L13.9758 6.76938L12.3576 12.3438C12.1576 12.7315 11.7455 12.9999 11.2727 12.9999H4.72727ZM8 3.30096L6.18182 5.99991H9.81818L8 3.30096Z" fill="white"/>
</svg>
