<svg width="110" height="20" viewBox="0 0 110 20" fill="none" xmlns="http://www.w3.org/2000/svg">
<path d="M8 1H108.266L99.8666 15.5073C98.6151 17.669 96.3065 19 93.8086 19H1V8C1 4.13401 4.13401 1 8 1Z" fill="#0D91EC" stroke="#0D91EC" stroke-width="2"/>
<path d="M14.84 15V6.36H18.254C18.338 6.36 18.438 6.364 18.554 6.372C18.67 6.376 18.782 6.388 18.89 6.408C19.358 6.48 19.75 6.64 20.066 6.888C20.386 7.136 20.626 7.45 20.786 7.83C20.946 8.206 21.026 8.624 21.026 9.084C21.026 9.752 20.852 10.332 20.504 10.824C20.156 11.312 19.646 11.618 18.974 11.742L18.566 11.808H15.908V15H14.84ZM19.982 15L18.278 11.484L19.334 11.16L21.206 15H19.982ZM15.908 10.794H18.218C18.294 10.794 18.38 10.79 18.476 10.782C18.576 10.774 18.67 10.76 18.758 10.74C19.034 10.676 19.258 10.56 19.43 10.392C19.606 10.22 19.734 10.02 19.814 9.792C19.894 9.56 19.934 9.324 19.934 9.084C19.934 8.844 19.894 8.61 19.814 8.382C19.734 8.15 19.606 7.948 19.43 7.776C19.258 7.604 19.034 7.488 18.758 7.428C18.67 7.404 18.576 7.39 18.476 7.386C18.38 7.378 18.294 7.374 18.218 7.374H15.908V10.794ZM25.5755 15.18C24.9395 15.18 24.3835 15.04 23.9075 14.76C23.4355 14.476 23.0675 14.082 22.8035 13.578C22.5395 13.07 22.4075 12.478 22.4075 11.802C22.4075 11.094 22.5375 10.482 22.7975 9.966C23.0575 9.446 23.4195 9.046 23.8835 8.766C24.3515 8.482 24.8995 8.34 25.5275 8.34C26.1795 8.34 26.7335 8.49 27.1895 8.79C27.6495 9.09 27.9935 9.518 28.2215 10.074C28.4535 10.63 28.5535 11.292 28.5215 12.06H27.4415V11.676C27.4295 10.88 27.2675 10.286 26.9555 9.894C26.6435 9.498 26.1795 9.3 25.5635 9.3C24.9035 9.3 24.4015 9.512 24.0575 9.936C23.7135 10.36 23.5415 10.968 23.5415 11.76C23.5415 12.524 23.7135 13.116 24.0575 13.536C24.4015 13.956 24.8915 14.166 25.5275 14.166C25.9555 14.166 26.3275 14.068 26.6435 13.872C26.9595 13.676 27.2075 13.394 27.3875 13.026L28.4135 13.38C28.1615 13.952 27.7815 14.396 27.2735 14.712C26.7695 15.024 26.2035 15.18 25.5755 15.18ZM23.1815 12.06V11.202H27.9695V12.06H23.1815ZM32.8273 15.18C32.1713 15.18 31.6133 15.034 31.1533 14.742C30.6973 14.446 30.3493 14.04 30.1093 13.524C29.8693 13.008 29.7453 12.42 29.7373 11.76C29.7453 11.084 29.8713 10.49 30.1153 9.978C30.3633 9.462 30.7173 9.06 31.1773 8.772C31.6373 8.484 32.1913 8.34 32.8393 8.34C33.5233 8.34 34.1113 8.508 34.6033 8.844C35.0993 9.18 35.4313 9.64 35.5993 10.224L34.5433 10.542C34.4073 10.166 34.1853 9.874 33.8773 9.666C33.5733 9.458 33.2233 9.354 32.8273 9.354C32.3833 9.354 32.0173 9.458 31.7293 9.666C31.4413 9.87 31.2273 10.154 31.0873 10.518C30.9473 10.878 30.8753 11.292 30.8713 11.76C30.8793 12.48 31.0453 13.062 31.3693 13.506C31.6973 13.946 32.1833 14.166 32.8273 14.166C33.2513 14.166 33.6033 14.07 33.8833 13.878C34.1633 13.682 34.3753 13.4 34.5193 13.032L35.5993 13.314C35.3753 13.918 35.0253 14.38 34.5493 14.7C34.0733 15.02 33.4993 15.18 32.8273 15.18ZM39.6481 15.18C39.0041 15.18 38.4481 15.034 37.9801 14.742C37.5161 14.45 37.1581 14.046 36.9061 13.53C36.6541 13.014 36.5281 12.422 36.5281 11.754C36.5281 11.074 36.6561 10.478 36.9121 9.966C37.1681 9.454 37.5301 9.056 37.9981 8.772C38.4661 8.484 39.0161 8.34 39.6481 8.34C40.2961 8.34 40.8541 8.486 41.3221 8.778C41.7901 9.066 42.1481 9.468 42.3961 9.984C42.6481 10.496 42.7741 11.086 42.7741 11.754C42.7741 12.43 42.6481 13.026 42.3961 13.542C42.1441 14.054 41.7841 14.456 41.3161 14.748C40.8481 15.036 40.2921 15.18 39.6481 15.18ZM39.6481 14.166C40.3201 14.166 40.8201 13.942 41.1481 13.494C41.4761 13.046 41.6401 12.466 41.6401 11.754C41.6401 11.022 41.4741 10.44 41.1421 10.008C40.8101 9.572 40.3121 9.354 39.6481 9.354C39.1961 9.354 38.8241 9.456 38.5321 9.66C38.2401 9.864 38.0221 10.146 37.8781 10.506C37.7341 10.866 37.6621 11.282 37.6621 11.754C37.6621 12.482 37.8301 13.066 38.1661 13.506C38.5021 13.946 38.9961 14.166 39.6481 14.166ZM52.0812 15L52.0872 10.854C52.0872 10.37 51.9572 9.992 51.6972 9.72C51.4412 9.444 51.1072 9.306 50.6952 9.306C50.4552 9.306 50.2272 9.362 50.0112 9.474C49.7952 9.582 49.6192 9.754 49.4832 9.99C49.3472 10.222 49.2792 10.52 49.2792 10.884L48.7152 10.656C48.7072 10.196 48.8012 9.794 48.9972 9.45C49.1972 9.102 49.4692 8.832 49.8132 8.64C50.1572 8.448 50.5452 8.352 50.9772 8.352C51.6532 8.352 52.1852 8.558 52.5732 8.97C52.9612 9.378 53.1552 9.928 53.1552 10.62L53.1492 15H52.0812ZM44.3292 15V8.52H45.2832V10.254H45.4032V15H44.3292ZM48.2112 15L48.2172 10.896C48.2172 10.4 48.0892 10.012 47.8332 9.732C47.5772 9.448 47.2372 9.306 46.8132 9.306C46.3932 9.306 46.0532 9.45 45.7932 9.738C45.5332 10.026 45.4032 10.408 45.4032 10.884L44.8392 10.548C44.8392 10.128 44.9392 9.752 45.1392 9.42C45.3392 9.088 45.6112 8.828 45.9552 8.64C46.2992 8.448 46.6892 8.352 47.1252 8.352C47.5612 8.352 47.9412 8.444 48.2652 8.628C48.5892 8.812 48.8392 9.076 49.0152 9.42C49.1912 9.76 49.2792 10.166 49.2792 10.638L49.2732 15H48.2112ZM62.704 15L62.71 10.854C62.71 10.37 62.58 9.992 62.32 9.72C62.064 9.444 61.73 9.306 61.318 9.306C61.078 9.306 60.85 9.362 60.634 9.474C60.418 9.582 60.242 9.754 60.106 9.99C59.97 10.222 59.902 10.52 59.902 10.884L59.338 10.656C59.33 10.196 59.424 9.794 59.62 9.45C59.82 9.102 60.092 8.832 60.436 8.64C60.78 8.448 61.168 8.352 61.6 8.352C62.276 8.352 62.808 8.558 63.196 8.97C63.584 9.378 63.778 9.928 63.778 10.62L63.772 15H62.704ZM54.952 15V8.52H55.906V10.254H56.026V15H54.952ZM58.834 15L58.84 10.896C58.84 10.4 58.712 10.012 58.456 9.732C58.2 9.448 57.86 9.306 57.436 9.306C57.016 9.306 56.676 9.45 56.416 9.738C56.156 10.026 56.026 10.408 56.026 10.884L55.462 10.548C55.462 10.128 55.562 9.752 55.762 9.42C55.962 9.088 56.234 8.828 56.578 8.64C56.922 8.448 57.312 8.352 57.748 8.352C58.184 8.352 58.564 8.444 58.888 8.628C59.212 8.812 59.462 9.076 59.638 9.42C59.814 9.76 59.902 10.166 59.902 10.638L59.896 15H58.834ZM68.3302 15.18C67.6942 15.18 67.1382 15.04 66.6622 14.76C66.1902 14.476 65.8222 14.082 65.5582 13.578C65.2942 13.07 65.1622 12.478 65.1622 11.802C65.1622 11.094 65.2922 10.482 65.5522 9.966C65.8122 9.446 66.1742 9.046 66.6382 8.766C67.1062 8.482 67.6542 8.34 68.2822 8.34C68.9342 8.34 69.4882 8.49 69.9442 8.79C70.4042 9.09 70.7482 9.518 70.9762 10.074C71.2082 10.63 71.3082 11.292 71.2762 12.06H70.1962V11.676C70.1842 10.88 70.0222 10.286 69.7102 9.894C69.3982 9.498 68.9342 9.3 68.3182 9.3C67.6582 9.3 67.1562 9.512 66.8122 9.936C66.4682 10.36 66.2962 10.968 66.2962 11.76C66.2962 12.524 66.4682 13.116 66.8122 13.536C67.1562 13.956 67.6462 14.166 68.2822 14.166C68.7102 14.166 69.0822 14.068 69.3982 13.872C69.7142 13.676 69.9622 13.394 70.1422 13.026L71.1682 13.38C70.9162 13.952 70.5362 14.396 70.0282 14.712C69.5242 15.024 68.9582 15.18 68.3302 15.18ZM65.9362 12.06V11.202H70.7242V12.06H65.9362ZM77.2903 15V11.754C77.2903 11.446 77.2623 11.15 77.2063 10.866C77.1543 10.582 77.0603 10.328 76.9243 10.104C76.7923 9.876 76.6123 9.696 76.3843 9.564C76.1603 9.432 75.8763 9.366 75.5323 9.366C75.2643 9.366 75.0203 9.412 74.8003 9.504C74.5843 9.592 74.3983 9.728 74.2423 9.912C74.0863 10.096 73.9643 10.328 73.8763 10.608C73.7923 10.884 73.7503 11.21 73.7503 11.586L73.0483 11.37C73.0483 10.742 73.1603 10.204 73.3843 9.756C73.6123 9.304 73.9303 8.958 74.3383 8.718C74.7503 8.474 75.2343 8.352 75.7903 8.352C76.2103 8.352 76.5683 8.418 76.8643 8.55C77.1603 8.682 77.4063 8.858 77.6023 9.078C77.7983 9.294 77.9523 9.538 78.0643 9.81C78.1763 10.078 78.2543 10.352 78.2983 10.632C78.3463 10.908 78.3703 11.17 78.3703 11.418V15H77.2903ZM72.6703 15V8.52H73.6303V10.254H73.7503V15H72.6703ZM82.6556 15.18C82.0516 15.18 81.5336 15.03 81.1016 14.73C80.6696 14.426 80.3356 14.016 80.0996 13.5C79.8676 12.984 79.7516 12.402 79.7516 11.754C79.7516 11.106 79.8676 10.524 80.0996 10.008C80.3356 9.492 80.6696 9.086 81.1016 8.79C81.5336 8.49 82.0496 8.34 82.6496 8.34C83.2616 8.34 83.7756 8.488 84.1916 8.784C84.6076 9.08 84.9216 9.486 85.1336 10.002C85.3496 10.518 85.4576 11.102 85.4576 11.754C85.4576 12.398 85.3496 12.98 85.1336 13.5C84.9216 14.016 84.6076 14.426 84.1916 14.73C83.7756 15.03 83.2636 15.18 82.6556 15.18ZM82.7876 14.202C83.2236 14.202 83.5816 14.098 83.8616 13.89C84.1416 13.678 84.3476 13.388 84.4796 13.02C84.6156 12.648 84.6836 12.226 84.6836 11.754C84.6836 11.274 84.6156 10.852 84.4796 10.488C84.3476 10.12 84.1436 9.834 83.8676 9.63C83.5916 9.422 83.2416 9.318 82.8176 9.318C82.3776 9.318 82.0136 9.426 81.7256 9.642C81.4416 9.858 81.2296 10.15 81.0896 10.518C80.9536 10.886 80.8856 11.298 80.8856 11.754C80.8856 12.214 80.9556 12.63 81.0956 13.002C81.2356 13.37 81.4456 13.662 81.7256 13.878C82.0096 14.094 82.3636 14.202 82.7876 14.202ZM84.6836 15V10.23H84.5636V6.36H85.6376V15H84.6836Z" fill="#DFE6EB"/>
</svg>
