<svg width="24" height="24" viewBox="0 0 24 24" fill="none" xmlns="http://www.w3.org/2000/svg">
<path fill-rule="evenodd" clip-rule="evenodd" d="M19.4793 12C19.4793 12.33 19.4493 12.65 19.4093 12.97L21.5193 14.63C21.7093 14.78 21.7593 15.05 21.6393 15.27L19.6393 18.73C19.5193 18.95 19.2493 19.03 19.0293 18.95L16.5393 17.94C16.0193 18.34 15.4793 18.67 14.8493 18.93L14.4793 21.58C14.4393 21.82 14.2293 22 13.9793 22H9.97933C9.72933 22 9.51933 21.82 9.47933 21.58L9.10933 18.93C8.47933 18.68 7.93933 18.34 7.41933 17.94L4.92933 18.95C4.70933 19.03 4.43933 18.95 4.31933 18.73L2.31933 15.27C2.18933 15.05 2.24933 14.78 2.43933 14.63L4.54933 12.97C4.50933 12.65 4.47933 12.33 4.47933 12C4.47933 11.67 4.50933 11.34 4.54933 11L2.43933 9.37C2.24933 9.22 2.18933 8.95 2.31933 8.73L4.31933 5.27C4.43933 5.05 4.70933 4.96 4.92933 5.05L7.41933 6.05C7.93933 5.66 8.47933 5.32 9.10933 5.07L9.47933 2.42C9.51933 2.18 9.72933 2 9.97933 2H13.9793C14.2293 2 14.4393 2.18 14.4793 2.42L14.8493 5.07C15.4793 5.32 16.0193 5.66 16.5393 6.05L19.0293 5.05C19.2493 4.96 19.5193 5.05 19.6393 5.27L21.6393 8.73C21.7593 8.95 21.7093 9.22 21.5193 9.37L19.4093 11C19.4493 11.34 19.4793 11.67 19.4793 12ZM8.47933 12C8.47933 13.933 10.0463 15.5 11.9793 15.5C13.9123 15.5 15.4793 13.933 15.4793 12C15.4793 10.067 13.9123 8.5 11.9793 8.5C10.0463 8.5 8.47933 10.067 8.47933 12Z" fill="white"/>
</svg>
